<svg width="384" height="152" viewBox="0 0 384 152" fill="none" xmlns="http://www.w3.org/2000/svg">
<g clip-path="url(#clip0_3674_1495)">
<rect width="384" height="152" fill="#F9FAFB"/>
<path opacity="0.04" d="M285 76C285 127.362 243.362 169 192 169C140.638 169 99 127.362 99 76C99 24.6375 140.638 -17 192 -17C243.362 -17 285 24.6375 285 76Z" fill="#0D0E0F"/>
<path d="M293.465 140.113H282.017M274.796 140.113H88" stroke="#0D0E0F" stroke-width="2.8179" stroke-linecap="round"/>
<g clip-path="url(#clip1_3674_1495)">
<path d="M208.511 81.435L213.239 52.4394C213.769 49.1872 211.766 46.1541 208.765 45.6648L152.87 36.5511C149.869 36.0617 147.006 38.3015 146.476 41.5537L141.748 70.5492C141.218 73.8014 143.221 76.8345 146.222 77.3238L202.117 86.4376C205.118 86.9269 207.981 84.6871 208.511 81.435Z" fill="black"/>
<path d="M141.079 70.44L145.806 41.4445C146.401 37.7982 149.622 35.2782 152.987 35.8268L208.883 44.9409C212.248 45.4895 214.502 48.9021 213.907 52.5483L209.179 81.5439C208.585 85.1901 205.364 87.7101 201.999 87.1615L146.102 78.0475C142.738 77.4989 140.484 74.0863 141.079 70.44ZM212.569 52.3302C213.034 49.4837 211.274 46.8171 208.647 46.3888L152.75 37.2748C150.124 36.8465 147.609 38.8143 147.144 41.6626L142.416 70.6581C141.952 73.5047 143.712 76.1713 146.338 76.5996L202.235 85.7136C204.862 86.1419 207.377 84.1741 207.842 81.3258L212.569 52.3302Z" fill="black"/>
<rect x="144.635" y="55.2054" width="66.6718" height="1.84" transform="rotate(9.26062 144.635 55.2054)" fill="#ADADAD"/>
<rect x="180.661" y="65.7402" width="26.0338" height="1.84" transform="rotate(9.26062 180.661 65.7402)" fill="#ADADAD"/>
<rect x="180.105" y="69.1452" width="26.0338" height="1.84" transform="rotate(9.26062 180.105 69.1452)" fill="#ADADAD"/>
<rect x="179.55" y="72.5503" width="26.0338" height="1.84" transform="rotate(9.26062 179.55 72.5503)" fill="#ADADAD"/>
<rect x="178.995" y="75.9553" width="26.0338" height="1.84" transform="rotate(9.26062 178.995 75.9553)" fill="#ADADAD"/>
<rect x="151.483" y="40.9415" width="10.1228" height="7.82" rx="1.61" transform="rotate(9.26062 151.483 40.9415)" fill="white" stroke="#2E0F07" stroke-width="0.46"/>
<rect x="150.663" y="44.5365" width="10.5828" height="0.46" transform="rotate(9.26062 150.663 44.5365)" fill="#2E0F07"/>
<rect x="156.725" y="41.5631" width="8.28" height="0.423313" transform="rotate(99.2606 156.725 41.5631)" fill="#2E0F07"/>
</g>
<g clip-path="url(#clip2_3674_1495)">
<path d="M220.932 91.5876C220.932 91.5876 201.05 66.2388 196.11 66.8546C191.168 67.4713 187.083 72.4608 196.821 81.2022C206.561 89.9448 199.835 98.8518 204.371 114.46C208.909 130.07 219.621 130.856 219.621 130.856L244.114 122.664L242.227 117.257C242.227 117.257 245.043 101.973 232.525 83.0393C220.84 65.3644 220.395 61.9936 213.025 57.7382C211.76 64.847 211.3 67.952 210.61 72.782C213.353 76.7331 215.46 81.1118 215.587 84.3437" fill="#FFC2B3"/>
<path d="M212.106 61.972C211.876 63.237 211.876 62.892 211.646 64.2262C218.008 70.9432 221.66 79.9526 221.633 91.3934C219.676 88.9656 217.34 86.771 215.559 84.1663C215.433 84.3798 220.903 91.4204 220.931 91.5854C219.413 91.2679 199.281 59.8788 192.183 68.6357C199.932 72.3305 206.136 78.9669 210.306 86.4134C217.73 99.8079 225.863 112.911 229.858 127.431L244.116 122.661C239.317 113.638 247.957 108.566 232.527 83.0362C220.01 64.1026 222.192 62.49 213.141 57.717C212.221 60.247 212.796 59.097 212.451 60.592L212.106 61.972Z" fill="#FFA18A"/>
<path d="M239.321 93.7825C242.692 101.217 244.096 112.203 243.198 117.169C243.188 117.501 245.469 122.807 244.964 123.078C244.853 123.305 244.654 123.479 244.415 123.557C243.894 123.568 220.082 131.908 219.554 131.797C212.195 131.558 204.594 121.009 203.465 114.726C198.848 102.096 206.039 91.3834 196.192 81.909C189.944 76.3028 189.482 72.4138 190.194 70.1382C190.897 67.8939 193.119 66.2777 195.993 65.9179C197.464 65.7327 199.534 66.9177 202.705 69.7562C205.652 72.3288 210.728 77.845 214.111 81.8274C213.525 78.9611 211.562 75.906 209.46 73.012C210.898 67.147 211.415 66.457 211.185 63.237C212.45 60.247 211.53 58.062 212.795 56.4196C217.744 59.3413 221.496 63.2155 226.13 71.3156C229.48 76.8983 236.846 87.0635 239.323 93.7868L239.321 93.7825ZM242.907 122.069C240.046 115.108 242.402 118.063 241.121 107.284C240.34 101.755 238.079 93.1521 231.738 83.5601C228.67 78.9181 226.373 75.2598 224.528 72.3183C219.347 64.0609 218.073 61.6708 212.795 58.637C212.253 62.213 211.415 68.067 210.922 71.172C214.247 75.5832 216.456 80.7259 216.489 84.6315C219.773 89.0078 222.818 91.142 221.516 92.3296C219.991 93.5421 216 86.119 209.662 79.612C199.604 68.3441 196.835 67.7153 196.227 67.7914C190.097 69.0368 190.099 73.7193 197.453 80.4967C208.092 90.7521 200.701 101.13 205.281 114.195C207.289 121.967 213.067 128.933 219.524 129.887L242.907 122.064L242.907 122.069Z" fill="black"/>
<path d="M211.87 125.257C204.422 117.956 202.403 102.339 204.228 93.1062C205.135 104.48 204.927 114.5 211.87 125.257Z" fill="#FFE2DB"/>
<path d="M199.395 81.8538C196.936 80.4856 192.971 76.111 192.132 72.6811C192.067 72.434 192.046 71.5796 192.431 72.0554C194.216 75.0914 198.042 79.2692 199.394 81.8517L199.395 81.8538Z" fill="#FFE2DB"/>
<path d="M214.05 128.854L220.594 144.75L248.77 133.151L242.226 117.255L214.05 128.854Z" fill="#FBC967"/>
<path d="M233.448 125.833C236.523 128.886 238.845 132.528 240.813 136.427L248.77 133.151L242.226 117.255L227.946 123.134C230.041 123.587 232.022 124.284 233.446 125.834L233.448 125.833Z" fill="#F9B122"/>
<path d="M243.1 116.895L249.644 132.791C249.843 133.274 249.612 133.827 249.13 134.025L220.953 145.625C220.47 145.823 219.918 145.593 219.719 145.11L213.175 129.214C212.977 128.731 213.207 128.179 213.69 127.98L241.866 116.381C242.349 116.182 242.901 116.413 243.1 116.895ZM247.534 132.638L241.71 118.492L215.284 129.371L221.107 143.514L247.535 132.635L247.534 132.638Z" fill="black"/>
<path d="M226.292 131.219C228.099 135.674 221.346 138.453 219.493 134.018C217.686 129.563 224.439 126.783 226.292 131.219ZM221.241 133.298C222.093 135.452 225.453 134.069 224.542 131.939C223.691 129.788 220.331 131.171 221.241 133.298Z" fill="black"/>
</g>
<path d="M82.7029 67.8348L79.2733 70.5108C78.3709 71.2572 77.8405 72.3612 77.8261 73.5324C77.8069 75.0084 78.0973 77.2164 79.4053 79.9572C80.4709 82.1916 82.0981 84.1236 84.1741 85.4724C84.9037 85.9476 85.7317 86.382 86.6533 86.706C87.8317 87.1212 89.1373 86.9676 90.1837 86.2836L93.2581 84.2724L82.7029 67.8348Z" fill="#FAD100"/>
<path d="M87.9831 87.7596C87.4407 87.7596 86.8983 87.6708 86.3775 87.486C85.4751 87.1692 84.5823 86.7252 83.7231 86.166C81.5679 84.7644 79.8159 82.7412 78.6591 80.3148C77.2551 77.37 76.9839 74.9964 77.0007 73.5228C77.0175 72.1116 77.6559 70.782 78.7455 69.8772C78.7527 69.8724 78.7575 69.8676 78.7647 69.8628L82.1943 67.1868C82.3767 67.0452 82.6119 66.9852 82.8399 67.0236C83.0679 67.062 83.2695 67.1964 83.3943 67.3908L93.9471 83.8284C94.1919 84.21 94.0839 84.7164 93.7047 84.9636L90.6303 86.9748C89.8407 87.4908 88.9119 87.7596 87.9807 87.7596H87.9831ZM79.7919 71.154C79.0791 71.7492 78.6639 72.6204 78.6519 73.5444C78.6351 74.8428 78.8823 76.9476 80.1495 79.6044C81.1767 81.7572 82.7223 83.5476 84.6231 84.7836C85.3719 85.2708 86.1471 85.6572 86.9247 85.9308C87.8583 86.2596 88.9071 86.1348 89.7303 85.5948L92.1207 84.03L82.4991 69.042L79.7919 71.154Z" fill="#2E0F07"/>
<path d="M93.2844 84.5445C96.5507 82.5788 96.9102 77.1831 94.0875 72.4927C91.2647 67.8023 86.3287 65.5935 83.0625 67.5591C79.7962 69.5248 79.4367 74.9206 82.2594 79.6109C85.0821 84.3013 90.0182 86.5101 93.2844 84.5445Z" fill="#F6EB3A"/>
<path d="M95.9362 79.8996C91.0762 80.5716 85.3426 78.006 80.3818 73.866C80.5042 75.714 81.1234 77.718 82.261 79.6068C85.0834 84.2964 90.0202 86.5044 93.2842 84.5388C94.825 83.61 95.7178 81.918 95.9362 79.8972V79.8996Z" fill="#FAD100"/>
<path d="M91.4444 81.4867C93.534 80.2291 93.7636 76.7764 91.9572 73.7748C90.1508 70.7731 86.9925 69.3593 84.9028 70.6169C82.8131 71.8745 82.5835 75.3272 84.3899 78.3289C86.1963 81.3305 89.3547 82.7443 91.4444 81.4867Z" fill="#FAF495"/>
<path d="M89.7471 82.4652C87.6999 82.4652 85.3911 81.018 83.9367 78.5988C81.9831 75.3516 82.2927 71.5692 84.6303 70.1628C85.7943 69.462 87.2583 69.4452 88.7511 70.1148C90.1815 70.7556 91.4799 71.958 92.4087 73.5012C94.3623 76.7484 94.0503 80.5308 91.7151 81.9372C91.1199 82.2948 90.4479 82.4652 89.7471 82.4652ZM86.6199 70.6812C86.0919 70.6812 85.6023 70.8084 85.1751 71.0652C83.3367 72.1716 83.1879 75.306 84.8415 78.054C86.4951 80.802 89.3343 82.1364 91.1727 81.03C93.0111 79.9236 93.1599 76.7892 91.5063 74.0412C90.6879 72.6804 89.5575 71.6268 88.3215 71.0748C87.7335 70.8108 87.1575 70.6788 86.6199 70.6788V70.6812Z" fill="#2E0F07"/>
<path d="M89.6282 71.5536C90.4277 71.0724 90.5151 69.7507 89.8235 68.6014C89.1318 67.4521 87.923 66.9104 87.1234 67.3916C86.3239 67.8727 86.2365 69.1945 86.9282 70.3438C87.6198 71.4931 88.8287 72.0348 89.6282 71.5536Z" fill="#FDFAD0"/>
<path d="M84.9832 77.286C84.9856 77.2044 85.0312 77.1396 85.1152 77.0892L85.4224 76.9044C84.9736 76.05 84.7264 75.3708 84.6784 74.8668C84.6688 74.7588 84.6784 74.6964 84.7096 74.6772C84.7264 74.6676 84.7648 74.6652 84.8176 74.6772L85.3504 74.7756C85.4128 74.79 85.456 74.814 85.4752 74.8452C85.4944 74.8764 85.5088 74.9244 85.516 74.9892C85.576 75.3108 85.6744 75.6468 85.8088 75.9972C85.9432 76.3476 86.1064 76.6788 86.2936 76.9932C86.5672 77.4468 86.8192 77.7444 87.0472 77.8812C87.2752 78.018 87.4936 78.0252 87.7048 77.898C87.8464 77.8116 87.9328 77.6964 87.9592 77.5476C87.9856 77.4012 87.976 77.2188 87.928 77.0052C87.88 76.7892 87.784 76.446 87.64 75.9756C87.4264 75.2772 87.3136 74.6748 87.3064 74.1756C87.2992 73.674 87.4744 73.3164 87.8296 73.1004C88.1824 72.8892 88.5496 72.87 88.936 73.0476C89.3224 73.2252 89.7064 73.5732 90.0928 74.0916L90.4264 73.89C90.5104 73.8396 90.592 73.83 90.6664 73.8636C90.7408 73.8972 90.8176 73.9788 90.8944 74.106L91.1488 74.5284C91.2256 74.6556 91.2616 74.7612 91.2568 74.8428C91.252 74.9244 91.2064 74.9916 91.1224 75.042L90.808 75.2316C90.9976 75.5796 91.1416 75.8892 91.2328 76.1652C91.3264 76.4412 91.3816 76.7028 91.3984 76.9548C91.4056 77.0556 91.3912 77.1156 91.36 77.1348C91.3288 77.154 91.2952 77.1564 91.2568 77.1444L90.7432 77.0484C90.6808 77.034 90.6376 77.01 90.6184 76.9788C90.604 76.9524 90.592 76.9092 90.5824 76.8444C90.5584 76.614 90.4912 76.3524 90.3784 76.0572C90.2656 75.7644 90.1144 75.4596 89.9248 75.1452C89.6824 74.742 89.4496 74.4684 89.2288 74.3292C89.008 74.1876 88.7824 74.1852 88.5544 74.322C88.4248 74.3988 88.3456 74.5044 88.3192 74.634C88.2904 74.7636 88.2952 74.9172 88.3336 75.0972C88.372 75.2748 88.4392 75.5388 88.54 75.8892L88.6768 76.3572C88.84 76.9308 88.9432 77.3868 88.984 77.7228C89.0248 78.0588 89.0032 78.3396 88.9192 78.5676C88.8328 78.7932 88.6648 78.9828 88.4104 79.1364C88.084 79.3332 87.724 79.3404 87.3232 79.1628C86.9248 78.9852 86.5216 78.6156 86.1136 78.0612L85.8064 78.246C85.7224 78.2964 85.6432 78.306 85.5736 78.2748C85.504 78.2436 85.4272 78.1596 85.3456 78.0252L85.0912 77.6028C85.0144 77.4756 84.9784 77.37 84.9808 77.2908L84.9832 77.286Z" fill="#2E0F07"/>
<path d="M90.6066 86.0892C89.5386 86.0892 88.4106 85.8348 87.2706 85.3236C85.0362 84.3228 83.0058 82.446 81.5538 80.034C80.1018 77.622 79.3938 74.9508 79.5546 72.5076C79.725 69.954 80.8194 67.9452 82.6362 66.8508C84.453 65.7564 86.7402 65.73 89.0754 66.774C91.3098 67.7748 93.3402 69.6516 94.7922 72.0636C96.2442 74.4756 96.9522 77.1468 96.7914 79.59C96.621 82.1436 95.5266 84.1524 93.7098 85.2468C92.7786 85.806 91.725 86.0868 90.6066 86.0868V86.0892ZM85.7634 67.6572C84.9474 67.6572 84.1722 67.8516 83.4882 68.2644C80.6178 69.9924 80.385 74.8908 82.9674 79.182C85.5498 83.4732 89.9898 85.5612 92.8602 83.8332C95.7306 82.1052 95.9634 77.2068 93.381 72.9156C91.413 69.6468 88.3698 67.6572 85.7634 67.6572Z" fill="#2E0F07"/>
<path d="M77.9076 76.0812C77.7684 76.0812 77.634 76.0164 77.5452 75.8964C77.4012 75.6972 77.4492 75.4188 77.6484 75.2772L80.1228 73.506C80.322 73.362 80.6004 73.41 80.742 73.6092C80.886 73.8084 80.838 74.0868 80.6388 74.2284L78.1644 75.9996C78.0852 76.0548 77.9964 76.0836 77.9052 76.0836L77.9076 76.0812Z" fill="#2E0F07"/>
<path d="M79.1342 80.0916C78.995 80.0916 78.8606 80.0268 78.7718 79.9068C78.6278 79.7076 78.6758 79.4292 78.875 79.2876L81.3494 77.5164C81.5486 77.3724 81.827 77.4204 81.9686 77.6196C82.1126 77.8188 82.0646 78.0972 81.8654 78.2388L79.391 80.01C79.3118 80.0652 79.223 80.094 79.1318 80.094L79.1342 80.0916Z" fill="#2E0F07"/>
<path d="M81.4555 83.9484C81.3163 83.9484 81.1819 83.8836 81.0931 83.7636C80.9491 83.5644 80.9971 83.286 81.1963 83.1444L83.6707 81.3732C83.8699 81.2292 84.1483 81.2772 84.2899 81.4764C84.4339 81.6756 84.3859 81.954 84.1867 82.0956L81.7123 83.8668C81.6331 83.922 81.5443 83.9508 81.4531 83.9508L81.4555 83.9484Z" fill="#2E0F07"/>
<path d="M84.6234 86.5332C84.4842 86.5332 84.3498 86.4684 84.261 86.3484C84.117 86.1492 84.165 85.8708 84.3642 85.7292L86.8386 83.958C87.0378 83.814 87.3162 83.862 87.4578 84.0612C87.5994 84.2604 87.5538 84.5388 87.3546 84.6804L84.8802 86.4516C84.801 86.5068 84.7122 86.5356 84.621 86.5356L84.6234 86.5332Z" fill="#2E0F07"/>
<path d="M252.334 50.3413L255.807 52.9597C256.762 53.6365 257.967 53.8621 259.1 53.5741C260.53 53.2093 262.587 52.3573 264.896 50.3821C266.778 48.7717 268.22 46.7005 268.986 44.3461C269.254 43.5181 269.461 42.6037 269.535 41.6317C269.629 40.3861 269.144 39.1645 268.21 38.3317L265.47 35.8837L252.332 50.3389L252.334 50.3413Z" fill="#FAD100"/>
<path d="M258.116 54.5221C257.129 54.5221 256.155 54.2173 255.329 53.6317C255.322 53.6269 255.315 53.6221 255.31 53.6173L251.837 50.9989C251.653 50.8597 251.535 50.6485 251.513 50.4181C251.492 50.1877 251.569 49.9573 251.725 49.7869L264.862 35.3317C265.167 34.9957 265.685 34.9693 266.021 35.2717L268.762 37.7197C269.876 38.7133 270.473 40.2013 270.361 41.6965C270.289 42.6517 270.092 43.6285 269.775 44.6029C268.981 47.0485 267.481 49.2637 265.436 51.0109C262.957 53.1301 260.734 54.0109 259.309 54.3757C258.917 54.4765 258.517 54.5245 258.121 54.5245L258.116 54.5221ZM256.292 52.2925C257.053 52.8277 258.001 53.0029 258.896 52.7725C260.153 52.4509 262.121 51.6685 264.361 49.7533C266.173 48.2029 267.502 46.2445 268.203 44.0893C268.479 43.2397 268.652 42.3925 268.714 41.5693C268.789 40.5829 268.395 39.6037 267.663 38.9485L265.532 37.0453L253.553 50.2261L256.294 52.2925H256.292Z" fill="#2E0F07"/>
<path d="M263.819 47.7154C267.616 43.7723 268.469 38.4321 265.723 35.7879C262.977 33.1436 257.673 34.1966 253.875 38.1397C250.078 42.0829 249.226 47.423 251.972 50.0673C254.718 52.7115 260.022 51.6586 263.819 47.7154Z" fill="#F6EB3A"/>
<path d="M260.551 34.4317C262.459 38.9509 261.473 45.1525 258.761 51.0205C260.513 50.4229 262.289 49.3045 263.818 47.7157C267.614 43.7725 268.466 38.4325 265.721 35.7901C264.425 34.5421 262.56 34.1197 260.551 34.4341V34.4317Z" fill="#FAD100"/>
<path d="M262.028 45.9907C264.458 43.4673 265.004 40.0502 263.247 38.3585C261.491 36.6667 258.097 37.341 255.667 39.8644C253.237 42.3878 252.691 45.8049 254.447 47.4966C256.204 49.1884 259.598 48.5142 262.028 45.9907Z" fill="#FAF495"/>
<path d="M256.952 48.9469C255.843 48.9469 254.833 48.5989 254.082 47.8765C252.118 45.9853 252.658 42.2269 255.286 39.4981C257.914 36.7693 261.651 36.0877 263.614 37.9789C265.577 39.8701 265.037 43.6285 262.409 46.3573C260.787 48.0421 258.742 48.9469 256.952 48.9469ZM260.729 37.9477C259.237 37.9477 257.47 38.7541 256.047 40.2301C253.822 42.5389 253.27 45.6301 254.814 47.1157C256.359 48.6037 259.424 47.9341 261.649 45.6253C263.873 43.3165 264.425 40.2253 262.882 38.7397C262.325 38.2045 261.572 37.9477 260.729 37.9477Z" fill="#2E0F07"/>
<path d="M253.66 45.6104C254.59 44.6442 254.8 43.3362 254.128 42.6889C253.455 42.0416 252.156 42.3002 251.226 43.2664C250.295 44.2326 250.086 45.5406 250.758 46.1879C251.43 46.8352 252.729 46.5766 253.66 45.6104Z" fill="#FDFAD0"/>
<path d="M260.869 45.6877C260.789 45.7045 260.715 45.6805 260.643 45.6109L260.384 45.3613C259.673 46.0165 259.083 46.4317 258.608 46.6093C258.507 46.6477 258.442 46.6525 258.416 46.6285C258.401 46.6141 258.392 46.5781 258.387 46.5229L258.344 45.9829C258.341 45.9181 258.353 45.8725 258.38 45.8461C258.406 45.8197 258.449 45.7933 258.509 45.7693C258.805 45.6277 259.105 45.4477 259.407 45.2245C259.709 45.0037 259.988 44.7613 260.242 44.4973C260.609 44.1157 260.83 43.7965 260.905 43.5397C260.979 43.2829 260.926 43.0717 260.751 42.9013C260.631 42.7861 260.497 42.7333 260.348 42.7453C260.199 42.7573 260.026 42.8149 259.832 42.9157C259.635 43.0189 259.33 43.1989 258.91 43.4605C258.291 43.8493 257.739 44.1109 257.257 44.2501C256.774 44.3869 256.383 44.3125 256.083 44.0221C255.788 43.7365 255.675 43.3861 255.745 42.9661C255.817 42.5485 256.052 42.0853 256.453 41.5789L256.172 41.3077C256.1 41.2381 256.071 41.1637 256.085 41.0845C256.097 41.0029 256.157 40.9093 256.261 40.8013L256.604 40.4461C256.707 40.3381 256.801 40.2757 256.88 40.2613C256.961 40.2445 257.036 40.2709 257.108 40.3405L257.372 40.5949C257.657 40.3213 257.921 40.1029 258.164 39.9421C258.406 39.7813 258.646 39.6589 258.884 39.5773C258.98 39.5461 259.04 39.5413 259.066 39.5677C259.093 39.5941 259.105 39.6253 259.102 39.6661L259.143 40.1869C259.145 40.2517 259.133 40.2973 259.107 40.3237C259.085 40.3453 259.047 40.3693 258.985 40.3933C258.769 40.4749 258.533 40.6093 258.279 40.7941C258.025 40.9789 257.77 41.2045 257.516 41.4685C257.189 41.8069 256.985 42.1021 256.909 42.3541C256.829 42.6037 256.885 42.8221 257.077 43.0069C257.185 43.1125 257.307 43.1605 257.439 43.1533C257.571 43.1461 257.72 43.1029 257.883 43.0189C258.046 42.9373 258.281 42.8005 258.593 42.6133L259.009 42.3613C259.52 42.0541 259.933 41.8381 260.247 41.7109C260.561 41.5837 260.84 41.5309 261.08 41.5549C261.32 41.5789 261.548 41.6941 261.761 41.9005C262.035 42.1645 262.138 42.5125 262.069 42.9421C261.999 43.3741 261.749 43.8589 261.317 44.3965L261.577 44.6461C261.649 44.7157 261.677 44.7877 261.665 44.8645C261.653 44.9413 261.593 45.0349 261.483 45.1477L261.14 45.5029C261.037 45.6109 260.945 45.6733 260.866 45.6901L260.869 45.6877Z" fill="#2E0F07"/>
<path d="M255.883 52.3525C254.11 52.3525 252.554 51.7741 251.4 50.6629C249.871 49.1917 249.252 46.9885 249.655 44.4637C250.042 42.0469 251.328 39.5989 253.282 37.5709C255.233 35.5429 257.63 34.1653 260.033 33.6877C262.543 33.1885 264.766 33.7261 266.294 35.1973C267.823 36.6685 268.442 38.8717 268.039 41.3965C267.653 43.8133 266.366 46.2613 264.413 48.2893C262.462 50.3173 260.064 51.6949 257.662 52.1725C257.05 52.2949 256.454 52.3549 255.883 52.3549V52.3525ZM261.787 35.1469C259.454 35.1469 256.694 36.4069 254.472 38.7133C250.997 42.3229 250.133 47.1493 252.547 49.4725C253.675 50.5597 255.379 50.9413 257.342 50.5525C259.416 50.1397 261.506 48.9301 263.227 47.1445C264.948 45.3589 266.078 43.2253 266.412 41.1373C266.729 39.1597 266.28 37.4725 265.152 36.3853C264.283 35.5477 263.102 35.1469 261.79 35.1469H261.787Z" fill="#2E0F07"/>
<path d="M261.113 53.3941C261.015 53.3941 260.914 53.3605 260.832 53.2933L258.48 51.3637C258.291 51.2077 258.262 50.9293 258.418 50.7397C258.574 50.5501 258.852 50.5213 259.042 50.6773L261.394 52.6069C261.584 52.7629 261.612 53.0413 261.456 53.2309C261.368 53.3389 261.24 53.3941 261.113 53.3941Z" fill="#2E0F07"/>
<path d="M264.665 51.1693C264.567 51.1693 264.466 51.1357 264.384 51.0685L262.032 49.1389C261.843 48.9829 261.814 48.7045 261.97 48.5149C262.126 48.3253 262.404 48.2965 262.594 48.4525L264.946 50.3821C265.135 50.5381 265.164 50.8165 265.008 51.0061C264.919 51.1141 264.792 51.1693 264.665 51.1693Z" fill="#2E0F07"/>
<path d="M267.788 47.9269C267.69 47.9269 267.589 47.8933 267.507 47.8261L265.155 45.8965C264.966 45.7405 264.937 45.4621 265.093 45.2725C265.249 45.0829 265.527 45.0541 265.717 45.2101L268.069 47.1397C268.258 47.2957 268.287 47.5741 268.131 47.7637C268.042 47.8717 267.915 47.9269 267.788 47.9269Z" fill="#2E0F07"/>
<path d="M269.466 44.1973C269.367 44.1973 269.267 44.1637 269.185 44.0965L266.833 42.1669C266.643 42.0109 266.615 41.7325 266.771 41.5429C266.927 41.3533 267.205 41.3245 267.395 41.4805L269.747 43.4101C269.936 43.5661 269.965 43.8445 269.809 44.0341C269.72 44.1421 269.593 44.1973 269.466 44.1973Z" fill="#2E0F07"/>
<path d="M142.656 121.617C147.333 116.378 146.83 108.297 141.531 103.566C136.232 98.8351 128.145 99.2465 123.468 104.485C118.791 109.723 119.295 117.805 124.594 122.536C129.893 127.266 137.979 126.855 142.656 121.617Z" fill="#F6EB3A"/>
<path d="M145.854 112.956C138.452 117.485 129.056 117.965 120.551 115.593C121.103 118.183 122.459 120.633 124.592 122.539C129.889 127.269 137.977 126.859 142.655 121.62C144.863 119.148 145.914 116.042 145.854 112.953V112.956Z" fill="#FAD100"/>
<path d="M139.203 118.533C142.197 115.181 141.874 110.008 138.483 106.98C135.092 103.952 129.916 104.215 126.922 107.568C123.929 110.921 124.251 116.094 127.643 119.122C131.034 122.149 136.21 121.886 139.203 118.533Z" fill="#FAF495"/>
<path d="M133.151 121.759C131.068 121.759 128.97 121.02 127.29 119.52C123.688 116.304 123.347 110.786 126.529 107.222C129.712 103.658 135.232 103.375 138.834 106.593C140.579 108.151 141.618 110.287 141.762 112.608C141.906 114.931 141.136 117.163 139.595 118.891C137.896 120.792 135.532 121.759 133.151 121.759ZM132.973 105.408C130.88 105.408 128.807 106.257 127.316 107.925C124.52 111.055 124.825 115.903 127.993 118.733C131.161 121.562 136.012 121.317 138.808 118.188C140.161 116.673 140.836 114.715 140.708 112.675C140.581 110.633 139.664 108.753 138.131 107.381C136.652 106.061 134.807 105.408 132.973 105.408Z" fill="#2E0F07"/>
<path d="M134.435 105.474C135.581 104.191 135.458 102.211 134.16 101.051C132.862 99.892 130.88 99.9924 129.734 101.276C128.588 102.559 128.711 104.539 130.009 105.698C131.307 106.857 133.289 106.757 134.435 105.474Z" fill="#FDFAD0"/>
<path d="M128.357 117.18C128.345 117.06 128.403 116.933 128.523 116.798L128.964 116.304C128.103 115.392 127.584 114.59 127.412 113.894C127.376 113.745 127.378 113.647 127.424 113.597C127.45 113.568 127.505 113.541 127.592 113.517L128.436 113.27C128.537 113.244 128.607 113.249 128.643 113.28C128.679 113.311 128.71 113.371 128.736 113.46C128.892 113.882 129.108 114.297 129.387 114.705C129.665 115.113 129.982 115.478 130.335 115.793C130.848 116.251 131.295 116.496 131.676 116.527C132.058 116.558 132.399 116.407 132.699 116.071C132.903 115.843 133.011 115.613 133.025 115.38C133.037 115.147 132.987 114.893 132.869 114.614C132.754 114.336 132.536 113.909 132.221 113.333C131.751 112.476 131.46 111.686 131.352 110.966C131.242 110.244 131.444 109.598 131.955 109.027C132.459 108.463 133.028 108.168 133.661 108.141C134.295 108.115 134.96 108.338 135.66 108.809L136.14 108.273C136.263 108.137 136.383 108.067 136.505 108.06C136.628 108.053 136.762 108.115 136.906 108.245L137.384 108.672C137.528 108.801 137.604 108.926 137.612 109.049C137.619 109.171 137.561 109.301 137.441 109.435L136.99 109.939C137.355 110.301 137.636 110.649 137.832 110.981C138.032 111.312 138.168 111.653 138.245 112.003C138.274 112.145 138.267 112.241 138.221 112.291C138.176 112.341 138.123 112.37 138.063 112.38L137.247 112.615C137.146 112.641 137.076 112.637 137.04 112.605C137.012 112.579 136.983 112.524 136.959 112.435C136.877 112.118 136.721 111.789 136.488 111.446C136.256 111.103 135.963 110.774 135.608 110.457C135.152 110.049 134.739 109.826 134.367 109.783C133.995 109.74 133.647 109.901 133.32 110.265C133.136 110.472 133.035 110.681 133.016 110.889C132.999 111.098 133.035 111.319 133.128 111.549C133.222 111.78 133.38 112.111 133.606 112.543L133.908 113.121C134.273 113.834 134.523 114.417 134.652 114.876C134.782 115.334 134.804 115.757 134.717 116.148C134.628 116.539 134.403 116.937 134.038 117.345C133.572 117.866 133.013 118.145 132.358 118.178C131.705 118.212 131.007 117.974 130.265 117.465L129.824 117.96C129.701 118.097 129.584 118.166 129.468 118.173C129.353 118.178 129.219 118.113 129.068 117.979L128.59 117.552C128.446 117.422 128.367 117.3 128.357 117.18Z" fill="#2E0F07"/>
<path d="M133.201 126.653C129.947 126.653 126.671 125.498 124.045 123.153C118.417 118.128 117.882 109.507 122.855 103.939C127.827 98.3711 136.453 97.9295 142.081 102.955C147.709 107.981 148.244 116.601 143.271 122.169C140.617 125.141 136.923 126.653 133.201 126.653ZM132.925 101.105C129.656 101.105 126.414 102.429 124.086 105.038C119.718 109.929 120.193 117.504 125.144 121.925C130.093 126.345 137.675 125.961 142.04 121.073C146.408 116.181 145.933 108.607 140.982 104.186C138.671 102.122 135.786 101.105 132.923 101.105H132.925Z" fill="#2E0F07"/>
<g clip-path="url(#clip3_3674_1495)">
<path d="M231.942 40.0526C227.96 40.0526 225.766 37.8607 225.766 33.8771C225.766 33.24 225.249 32.7225 224.612 32.7225C223.975 32.7225 223.457 33.24 223.457 33.8771C223.457 37.8584 221.265 40.0526 217.282 40.0526C216.644 40.0526 216.127 40.5701 216.127 41.2072C216.127 41.8443 216.644 42.3618 217.282 42.3618C221.263 42.3618 223.457 44.5537 223.457 48.5373C223.457 49.1744 223.975 49.6919 224.612 49.6919C225.249 49.6919 225.766 49.1744 225.766 48.5373C225.766 44.556 227.958 42.3618 231.942 42.3618C232.579 42.3618 233.096 41.8443 233.096 41.2072C233.096 40.5701 232.579 40.0526 231.942 40.0526Z" fill="#FAD100"/>
<path d="M227.466 17.7679C224.876 17.7679 223.45 16.3419 223.45 13.7521C223.45 13.3381 223.114 13 222.698 13C222.281 13 221.946 13.3358 221.946 13.7521C221.946 16.3419 220.52 17.7679 217.93 17.7679C217.516 17.7679 217.178 18.1037 217.178 18.52C217.178 18.9363 217.514 19.2721 217.93 19.2721C220.52 19.2721 221.946 20.6981 221.946 23.2879C221.946 23.7019 222.281 24.04 222.698 24.04C223.114 24.04 223.45 23.7042 223.45 23.2879C223.45 20.6981 224.876 19.2721 227.466 19.2721C227.88 19.2721 228.218 18.9363 228.218 18.52C228.218 18.1037 227.882 17.7679 227.466 17.7679Z" fill="#FAD100"/>
<path d="M211.286 28.7113C208.696 28.7113 207.27 27.2853 207.27 24.6955C207.27 24.2815 206.934 23.9434 206.518 23.9434C206.102 23.9434 205.766 24.2792 205.766 24.6955C205.766 27.2853 204.34 28.7113 201.75 28.7113C201.336 28.7113 200.998 29.0471 200.998 29.4634C200.998 29.8797 201.334 30.2155 201.75 30.2155C204.34 30.2155 205.766 31.6415 205.766 34.2313C205.766 34.6453 206.102 34.9834 206.518 34.9834C206.934 34.9834 207.27 34.6476 207.27 34.2313C207.27 31.6415 208.696 30.2155 211.286 30.2155C211.7 30.2155 212.038 29.8797 212.038 29.4634C212.038 29.0471 211.702 28.7113 211.286 28.7113Z" fill="#FAD100"/>
</g>
<path d="M296.472 81.5403L286.954 72.2621C286.301 71.6255 285.255 71.6388 284.619 72.2919L262.256 95.232C261.619 95.8851 261.633 96.9306 262.286 97.5673L271.803 106.845C272.456 107.482 273.502 107.469 274.138 106.816L296.501 83.8755C297.138 83.2224 297.125 82.1769 296.472 81.5403Z" fill="#73C497"/>
<path d="M276.185 99.6972C270.89 100.606 266.458 98.1056 262.806 94.674L262.258 95.2352C261.621 95.8884 261.635 96.9349 262.288 97.572L271.805 106.853C272.459 107.49 273.503 107.476 274.14 106.823L282.471 98.2735C280.46 98.8784 278.358 99.3246 276.185 99.6995V99.6972Z" fill="#40AE71"/>
<path d="M272.958 108.111C272.319 108.111 271.714 107.865 271.254 107.416L261.736 98.1378C260.773 97.1971 260.752 95.6492 261.693 94.6855L284.049 71.7384C284.504 71.2715 285.113 71.0093 285.764 71.0001C286.418 70.9932 287.034 71.237 287.501 71.6924L297.018 80.9729C297.982 81.9136 298.003 83.4615 297.062 84.4252L274.706 107.372C274.251 107.839 273.641 108.101 272.988 108.111C272.976 108.111 272.967 108.111 272.956 108.111H272.958ZM285.797 72.5802C285.797 72.5802 285.79 72.5802 285.785 72.5802C285.555 72.5825 285.339 72.6745 285.18 72.8401L262.824 95.7895C262.493 96.1299 262.5 96.675 262.84 97.0062L272.358 106.287C272.523 106.448 272.739 106.533 272.969 106.531C273.199 106.528 273.416 106.436 273.574 106.271L295.93 83.3235C296.262 82.9831 296.255 82.438 295.914 82.1068L286.397 72.8263C286.236 72.6676 286.022 72.5825 285.797 72.5825V72.5802Z" fill="#2E0F07"/>
<path d="M292.195 81.1937C292.239 81.1477 292.285 81.1063 292.331 81.0649L287.726 76.5753C287.685 76.6213 287.643 76.6696 287.6 76.7133C286.484 77.8587 284.651 77.884 283.506 76.7685C283.464 76.7294 283.425 76.688 283.386 76.6443L266.73 93.7425C266.773 93.7793 266.815 93.8184 266.856 93.8575C268.001 94.973 268.024 96.8061 266.907 97.9538C266.826 98.0343 266.743 98.1102 266.658 98.1815L271.284 102.69C271.353 102.602 271.424 102.517 271.504 102.434C272.597 101.312 274.375 101.266 275.525 102.312L292.177 85.2187C291.103 84.0963 291.103 82.3184 292.195 81.196V81.1937Z" fill="#B2DFC6"/>
<path d="M277.655 99.3085C276.978 99.2556 276.24 99.1429 275.688 99.2119C272.535 99.6581 269.789 98.8278 267.259 97.5122C267.157 97.6663 267.04 97.8135 266.907 97.9515C266.826 98.032 266.743 98.1079 266.658 98.1792L271.284 102.687C271.353 102.6 271.424 102.515 271.504 102.432C272.597 101.31 274.375 101.264 275.525 102.31L278.512 99.2441C278.232 99.2809 277.947 99.3039 277.657 99.3085H277.655Z" fill="#99D4B3"/>
<path d="M288.408 82.3863C288.847 81.6822 288.631 80.7559 287.927 80.3175C287.223 79.879 286.297 80.0944 285.858 80.7985C285.42 81.5026 285.635 82.4289 286.339 82.8673C287.044 83.3058 287.97 83.0904 288.408 82.3863Z" fill="#45B075"/>
<path d="M283.344 92.0181C284.705 89.8247 284.031 86.9447 281.84 85.5855C279.649 84.2263 276.769 84.9026 275.409 87.096C274.048 89.2895 274.722 92.1695 276.913 93.5287C279.104 94.8879 281.984 94.2116 283.344 92.0181Z" fill="#45B075"/>
<path d="M273.228 97.9676C273.665 97.2625 273.448 96.3367 272.743 95.8998C272.038 95.4628 271.112 95.6801 270.675 96.3852C270.238 97.0902 270.455 98.016 271.16 98.453C271.865 98.8899 272.791 98.6726 273.228 97.9676Z" fill="#45B075"/>
<path d="M277.126 86.6884C277.197 86.6861 277.273 86.7229 277.351 86.7988L277.639 87.0794C278.207 86.5872 278.704 86.2997 279.125 86.2146C279.214 86.1962 279.274 86.2031 279.304 86.2307C279.32 86.2468 279.336 86.2813 279.348 86.3342L279.477 86.8494C279.49 86.9115 279.486 86.9529 279.465 86.9736C279.444 86.9943 279.408 87.0104 279.355 87.0242C279.097 87.1047 278.842 87.2243 278.589 87.3784C278.336 87.5348 278.11 87.7142 277.913 87.9166C277.625 88.211 277.466 88.4732 277.439 88.7032C277.411 88.9309 277.494 89.1402 277.689 89.3311C277.823 89.4599 277.959 89.5335 278.099 89.5473C278.239 89.5611 278.393 89.5381 278.563 89.476C278.734 89.4139 278.996 89.2966 279.35 89.1241C279.877 88.8665 280.357 88.7147 280.794 88.671C281.231 88.625 281.616 88.7653 281.949 89.0896C282.283 89.4139 282.441 89.7612 282.444 90.143C282.444 90.5248 282.296 90.9181 281.997 91.3252L282.31 91.6288C282.388 91.7047 282.43 91.7806 282.43 91.8542C282.43 91.9278 282.391 92.006 282.31 92.0888L282.043 92.3625C281.963 92.4453 281.885 92.4867 281.811 92.489C281.737 92.489 281.662 92.4522 281.581 92.374L281.289 92.0888C281.061 92.2981 280.845 92.4568 280.643 92.5649C280.438 92.6753 280.231 92.7466 280.017 92.7834C279.932 92.7972 279.874 92.7903 279.845 92.7604C279.815 92.7305 279.799 92.6983 279.794 92.6615L279.67 92.1647C279.656 92.1026 279.661 92.0612 279.681 92.0405C279.697 92.0244 279.732 92.0083 279.785 91.9968C279.978 91.9577 280.18 91.8726 280.392 91.7415C280.604 91.6104 280.808 91.4448 281.008 91.2401C281.264 90.9779 281.409 90.7364 281.443 90.5133C281.478 90.2902 281.388 90.0763 281.176 89.8693C281.057 89.752 280.932 89.6853 280.808 89.6669C280.682 89.6508 280.551 89.6669 280.408 89.7152C280.268 89.7635 280.063 89.8509 279.799 89.9728L279.444 90.1384C279.007 90.3362 278.651 90.4696 278.373 90.534C278.094 90.5984 277.839 90.5984 277.607 90.534C277.374 90.4696 277.14 90.3224 276.903 90.0901C276.599 89.7934 276.445 89.4484 276.441 89.0551C276.436 88.6618 276.595 88.2478 276.917 87.8177L276.629 87.5371C276.551 87.4612 276.51 87.3876 276.51 87.3163C276.51 87.2473 276.551 87.1668 276.636 87.0817L276.903 86.808C276.983 86.7252 277.059 86.6815 277.133 86.6792L277.126 86.6884Z" fill="#B2DFC6"/>
<path d="M131.145 43.2635L118.546 38.8809C117.682 38.5804 116.738 39.0371 116.437 39.9009L105.885 70.2375C105.584 71.1013 106.041 72.0451 106.905 72.3456L119.504 76.7283C120.368 77.0287 121.312 76.5721 121.613 75.7083L132.165 45.3717C132.466 44.5079 132.009 43.564 131.145 43.2635Z" fill="#73C497"/>
<path d="M120.438 68.3721C116.013 71.4472 110.923 71.0585 106.143 69.4968L105.886 70.2397C105.584 71.1045 106.042 72.0475 106.907 72.3488L119.506 76.7326C120.371 77.0339 121.314 76.5762 121.615 75.7114L125.548 64.4069C123.98 65.8122 122.257 67.1094 120.442 68.3721H120.438Z" fill="#40AE71"/>
<path d="M120.049 77.6135C119.778 77.6135 119.506 77.5675 119.244 77.4755L106.645 73.0917C106.028 72.8778 105.531 72.4339 105.246 71.8474C104.961 71.2586 104.922 70.5939 105.138 69.9775L115.69 39.6428C116.134 38.3686 117.53 37.6924 118.805 38.1363L131.404 42.5178C132.678 42.9617 133.354 44.3578 132.911 45.632L122.358 75.9667C122.144 76.5831 121.7 77.0799 121.114 77.3651C120.776 77.5284 120.415 77.6112 120.049 77.6112V77.6135ZM119.761 75.9828C119.98 76.0587 120.215 76.0449 120.424 75.9437C120.633 75.8425 120.79 75.6677 120.865 75.4492L131.418 45.1145C131.574 44.6637 131.335 44.1692 130.884 44.0128L118.285 39.6313C117.834 39.4749 117.34 39.7141 117.183 40.1649L106.631 70.4996C106.555 70.7181 106.569 70.9527 106.67 71.162C106.771 71.3713 106.946 71.5277 107.164 71.6036L119.764 75.9874L119.761 75.9828Z" fill="#2E0F07"/>
<path d="M127.115 44.7672C127.135 44.7074 127.158 44.6499 127.184 44.5924L121.089 42.4718C121.072 42.5316 121.054 42.5914 121.033 42.6512C120.507 44.1669 118.851 44.9673 117.337 44.4406C117.282 44.4222 117.229 44.4015 117.176 44.3785L109.312 66.9829C109.368 66.999 109.423 67.0151 109.476 67.0335C110.992 67.5602 111.792 69.2162 111.265 70.7296C111.228 70.8377 111.185 70.9412 111.136 71.0424L117.259 73.1722C117.284 73.0641 117.314 72.956 117.351 72.8479C117.866 71.3644 119.465 70.5663 120.953 71.0286L128.814 48.4311C127.361 47.8699 126.604 46.253 127.119 44.7695L127.115 44.7672Z" fill="#B2DFC6"/>
<path d="M121.608 67.3946C120.971 67.6338 120.251 67.8454 119.779 68.1421C117.105 69.8855 114.255 70.2995 111.396 70.1799C111.371 70.3639 111.327 70.5479 111.263 70.7296C111.226 70.8377 111.182 70.9412 111.134 71.0424L117.256 73.1722C117.282 73.0641 117.312 72.956 117.348 72.8479C117.864 71.3644 119.462 70.5663 120.95 71.0286L122.36 66.976C122.121 67.1301 121.872 67.2704 121.61 67.3969L121.608 67.3946Z" fill="#99D4B3"/>
<path d="M124.01 47.9974C124.406 47.2656 124.134 46.3515 123.402 45.9557C122.67 45.56 121.756 45.8325 121.36 46.5644C120.964 47.2963 121.237 48.2104 121.969 48.6061C122.701 49.0018 123.615 48.7293 124.01 47.9974Z" fill="#45B075"/>
<path d="M119.298 62.4811C121.881 62.3313 123.854 60.1157 123.704 57.5326C123.554 54.9494 121.339 52.9768 118.755 53.1266C116.172 53.2765 114.2 55.492 114.349 58.0752C114.499 60.6584 116.715 62.631 119.298 62.4811Z" fill="#45B075"/>
<path d="M115.607 69.3862C116.438 69.3381 117.072 68.6256 117.024 67.795C116.976 66.9644 116.263 66.3301 115.433 66.3783C114.602 66.4265 113.968 67.1389 114.016 67.9695C114.064 68.8001 114.777 69.4344 115.607 69.3862Z" fill="#45B075"/>
<path d="M115.757 56.1591C115.822 56.1269 115.904 56.1269 116.01 56.1637L116.39 56.2948C116.698 55.6071 117.024 55.1333 117.372 54.8803C117.445 54.8251 117.503 54.8067 117.542 54.8182C117.565 54.8251 117.593 54.8504 117.627 54.8941L117.965 55.3081C118.004 55.3587 118.018 55.3978 118.009 55.4254C118 55.453 117.972 55.4829 117.931 55.5174C117.731 55.7014 117.549 55.9176 117.386 56.166C117.222 56.4144 117.093 56.6743 116.999 56.9434C116.863 57.3344 116.831 57.638 116.903 57.8588C116.974 58.0773 117.139 58.2337 117.397 58.3234C117.574 58.3855 117.728 58.3924 117.862 58.3464C117.995 58.3004 118.126 58.213 118.253 58.0842C118.381 57.9554 118.568 57.7369 118.818 57.4287C119.186 56.971 119.561 56.6283 119.939 56.4029C120.316 56.1775 120.725 56.1407 121.164 56.2925C121.604 56.4443 121.898 56.6927 122.061 57.04C122.225 57.3873 122.257 57.8082 122.158 58.305L122.57 58.4476C122.673 58.4844 122.742 58.535 122.774 58.6017C122.807 58.6684 122.804 58.7558 122.765 58.8662L122.639 59.2296C122.6 59.34 122.549 59.4113 122.482 59.4435C122.416 59.4757 122.331 59.4734 122.225 59.4366L121.836 59.3009C121.719 59.5861 121.59 59.823 121.452 60.0093C121.314 60.1956 121.155 60.3497 120.976 60.4739C120.902 60.5222 120.847 60.5406 120.81 60.5268C120.773 60.513 120.744 60.49 120.723 60.4601L120.399 60.0599C120.359 60.0093 120.346 59.9702 120.355 59.9426C120.362 59.9196 120.387 59.892 120.431 59.8575C120.589 59.7402 120.737 59.5769 120.875 59.3676C121.013 59.1583 121.128 58.9214 121.222 58.65C121.342 58.3027 121.371 58.0221 121.307 57.8059C121.243 57.5897 121.072 57.4333 120.792 57.3344C120.633 57.2792 120.493 57.27 120.371 57.3091C120.249 57.3459 120.136 57.4172 120.028 57.523C119.92 57.6265 119.773 57.7921 119.584 58.0152L119.331 58.3165C119.019 58.6822 118.749 58.9536 118.524 59.133C118.299 59.3101 118.066 59.4182 117.827 59.4596C117.588 59.4987 117.312 59.4642 116.999 59.3561C116.597 59.2158 116.311 58.9697 116.139 58.6132C115.966 58.2567 115.937 57.8151 116.045 57.2861L115.665 57.155C115.562 57.1182 115.493 57.0699 115.463 57.0055C115.433 56.9434 115.437 56.8537 115.477 56.7387L115.603 56.3753C115.642 56.2649 115.693 56.1936 115.757 56.1614V56.1591Z" fill="#B2DFC6"/>
<path d="M93.4876 110.574C93.2185 110.574 93 110.356 93 110.087V107.488C93 107.218 93.2185 107 93.4876 107C93.7567 107 93.9752 107.218 93.9752 107.488V110.087C93.9752 110.356 93.7567 110.574 93.4876 110.574Z" fill="#2E0F07"/>
<path d="M114.488 83.5742C114.218 83.5742 114 83.3557 114 83.0866V80.4876C114 80.2185 114.218 80 114.488 80C114.757 80 114.975 80.2185 114.975 80.4876V83.0866C114.975 83.3557 114.757 83.5742 114.488 83.5742Z" fill="#2E0F07"/>
<path d="M288.488 106.574C288.218 106.574 288 106.356 288 106.087V103.488C288 103.218 288.218 103 288.488 103C288.757 103 288.975 103.218 288.975 103.488V106.087C288.975 106.356 288.757 106.574 288.488 106.574Z" fill="#2E0F07"/>
<path d="M93.4876 123.208C93.2185 123.208 93 122.99 93 122.721V112.127C93 111.858 93.2185 111.639 93.4876 111.639C93.7567 111.639 93.9752 111.858 93.9752 112.127V122.721C93.9752 122.99 93.7567 123.208 93.4876 123.208Z" fill="#2E0F07"/>
<path d="M114.488 96.2082C114.218 96.2082 114 95.9897 114 95.7206V85.1268C114 84.8577 114.218 84.6392 114.488 84.6392C114.757 84.6392 114.975 84.8577 114.975 85.1268V95.7206C114.975 95.9897 114.757 96.2082 114.488 96.2082Z" fill="#2E0F07"/>
<path d="M288.488 119.208C288.218 119.208 288 118.99 288 118.721V108.127C288 107.858 288.218 107.639 288.488 107.639C288.757 107.639 288.975 107.858 288.975 108.127V118.721C288.975 118.99 288.757 119.208 288.488 119.208Z" fill="#2E0F07"/>
<path d="M87.4876 99.2923C87.2185 99.2923 87 99.0738 87 98.8047V94.4876C87 94.2185 87.2185 94 87.4876 94C87.7567 94 87.9752 94.2185 87.9752 94.4876V98.8047C87.9752 99.0738 87.7567 99.2923 87.4876 99.2923Z" fill="#2E0F07"/>
<path d="M259.488 66.2923C259.218 66.2923 259 66.0738 259 65.8047V61.4876C259 61.2185 259.218 61 259.488 61C259.757 61 259.975 61.2185 259.975 61.4876V65.8047C259.975 66.0738 259.757 66.2923 259.488 66.2923Z" fill="#2E0F07"/>
<path d="M108.488 91.2923C108.218 91.2923 108 91.0738 108 90.8047V86.4876C108 86.2185 108.218 86 108.488 86C108.757 86 108.975 86.2185 108.975 86.4876V90.8047C108.975 91.0738 108.757 91.2923 108.488 91.2923Z" fill="#2E0F07"/>
<path d="M282.488 114.292C282.218 114.292 282 114.074 282 113.805V109.488C282 109.218 282.218 109 282.488 109C282.757 109 282.975 109.218 282.975 109.488V113.805C282.975 114.074 282.757 114.292 282.488 114.292Z" fill="#2E0F07"/>
<path d="M87.4876 113.608C87.2185 113.608 87 113.389 87 113.12V101.473C87 101.204 87.2185 100.985 87.4876 100.985C87.7567 100.985 87.9752 101.204 87.9752 101.473V113.12C87.9752 113.389 87.7567 113.608 87.4876 113.608Z" fill="#2E0F07"/>
<path d="M259.488 80.6075C259.218 80.6075 259 80.389 259 80.1199V68.4727C259 68.2036 259.218 67.9851 259.488 67.9851C259.757 67.9851 259.975 68.2036 259.975 68.4727V80.1199C259.975 80.389 259.757 80.6075 259.488 80.6075Z" fill="#2E0F07"/>
<path d="M108.488 105.608C108.218 105.608 108 105.389 108 105.12V93.4727C108 93.2036 108.218 92.9851 108.488 92.9851C108.757 92.9851 108.975 93.2036 108.975 93.4727V105.12C108.975 105.389 108.757 105.608 108.488 105.608Z" fill="#2E0F07"/>
<path d="M282.488 128.608C282.218 128.608 282 128.389 282 128.12V116.473C282 116.204 282.218 115.985 282.488 115.985C282.757 115.985 282.975 116.204 282.975 116.473V128.12C282.975 128.389 282.757 128.608 282.488 128.608Z" fill="#2E0F07"/>
</g>
<defs>
<clipPath id="clip0_3674_1495">
<rect width="384" height="152" fill="white"/>
</clipPath>
<clipPath id="clip1_3674_1495">
<rect width="42.78" height="69" fill="white" transform="translate(214.985 45.9358) rotate(99.2606)"/>
</clipPath>
<clipPath id="clip2_3674_1495">
<rect width="102.7" height="41.4621" fill="white" transform="translate(216.585 147.423) rotate(-112.375)"/>
</clipPath>
<clipPath id="clip3_3674_1495">
<rect width="32.0965" height="36.6919" fill="white" transform="translate(201 13)"/>
</clipPath>
</defs>
</svg>
