<svg width="384" height="152" viewBox="0 0 384 152" fill="none" xmlns="http://www.w3.org/2000/svg">
<g clip-path="url(#clip0_3228_72092)">
<rect width="384" height="152" fill="#F9FAFB"/>
<rect opacity="0.05" x="176.666" width="208" height="152" fill="#0D0E0F"/>
<g clip-path="url(#clip1_3228_72092)">
<path d="M273.096 30.7258C278.485 24.5596 281.52 16.3356 280.926 7.52086C279.738 -10.1111 264.481 -23.4428 246.849 -22.2539C238.034 -21.6607 230.293 -17.5499 224.904 -11.3813L273.096 30.7282V30.7258Z" fill="#33CC59"/>
<path d="M229.721 -7.17892C229.721 -7.17892 229.718 -7.17646 229.716 -7.174L224.901 -11.3808C219.515 -5.21461 216.48 3.00692 217.073 11.8242C218.262 29.4562 233.519 42.7878 251.151 41.5989C259.968 41.0057 267.707 36.8925 273.096 30.7263L229.721 -7.17892Z" fill="#0095FF"/>
<path d="M275.4 7.88567C274.418 -6.69402 261.8 -17.7193 247.22 -16.7371C239.929 -16.2448 233.529 -12.8454 229.074 -7.74756C224.619 -2.64725 222.108 4.15152 222.6 11.4426C223.582 26.0223 236.2 37.0475 250.78 36.0654C258.071 35.5731 264.471 32.1737 268.926 27.0758C273.382 21.9755 275.892 15.1767 275.4 7.88567Z" fill="black"/>
<path d="M235.846 -1.79951V2.02818H238.238V1.07064H259.762V2.02818H262.155V-1.79951H235.846Z" fill="white"/>
<path d="M239.912 7.63799V11.7044H242.302V11.1161H255.937V11.7044H258.327V7.63799H255.937V8.24599H242.302V7.63799H239.912Z" fill="white"/>
<path d="M259.762 17.3333H262.155V21.161H235.846V17.3333H238.238V18.2908H259.762V17.3333Z" fill="white"/>
</g>
<g clip-path="url(#clip2_3228_72092)">
<path d="M350.502 10.0534C355.89 3.88726 358.925 -4.33673 358.332 -13.1515C357.143 -30.7835 341.886 -44.1152 324.254 -42.9263C315.439 -42.333 307.698 -38.2223 302.31 -32.0537L350.502 10.0559V10.0534Z" fill="#33CC59"/>
<path d="M307.126 -27.8513C307.126 -27.8513 307.124 -27.8488 307.121 -27.8464L302.306 -32.0531C296.921 -25.887 293.886 -17.6654 294.479 -8.84821C295.668 8.78379 310.924 22.1155 328.556 20.9266C337.374 20.3333 345.113 16.2201 350.501 10.0539L307.126 -27.8513Z" fill="#0095FF"/>
<path d="M352.805 -12.7867C351.823 -27.3664 339.205 -38.3916 324.626 -37.4095C317.335 -36.9172 310.935 -33.5178 306.479 -28.4199C302.024 -23.3196 299.513 -16.5209 300.005 -9.22979C300.988 5.3499 313.605 16.3751 328.185 15.393C335.476 14.9007 341.876 11.5013 346.332 6.40344C350.787 1.30313 353.298 -5.49563 352.805 -12.7867Z" fill="black"/>
<path d="M313.251 -22.4719V-18.6442H315.644V-19.6017H337.167V-18.6442H339.56V-22.4719H313.251Z" fill="white"/>
<path d="M317.317 -13.0344V-8.96792H319.708V-9.55623H333.342V-8.96792H335.732V-13.0344H333.342V-12.4264H319.708V-13.0344H317.317Z" fill="white"/>
<path d="M337.167 -3.33907H339.56V0.488625H313.251V-3.33907H315.644V-2.38153H337.167V-3.33907Z" fill="white"/>
</g>
<g clip-path="url(#clip3_3228_72092)">
<path d="M341.028 159.045C346.416 152.879 349.451 144.655 348.858 135.84C347.669 118.208 332.413 104.876 314.781 106.065C305.966 106.658 298.224 110.769 292.836 116.938L341.028 159.047V159.045Z" fill="#33CC59"/>
<path d="M297.652 121.14C297.652 121.14 297.65 121.143 297.648 121.145L292.833 116.938C287.447 123.104 284.412 131.326 285.005 140.143C286.194 157.775 301.451 171.107 319.083 169.918C327.9 169.325 335.639 165.211 341.027 159.045L297.652 121.14Z" fill="#0095FF"/>
<path d="M343.332 136.205C342.35 121.625 329.732 110.6 315.152 111.582C307.861 112.074 301.461 115.474 297.006 120.571C292.55 125.672 290.04 132.47 290.532 139.762C291.514 154.341 304.132 165.366 318.712 164.384C326.003 163.892 332.403 160.493 336.858 155.395C341.313 150.294 343.824 143.496 343.332 136.205Z" fill="black"/>
<path d="M303.777 126.519V130.347H306.17V129.39H327.694V130.347H330.086V126.519H303.777Z" fill="white"/>
<path d="M307.844 135.957V140.023H310.234V139.435H323.868V140.023H326.259V135.957H323.868V136.565H310.234V135.957H307.844Z" fill="white"/>
<path d="M327.694 145.652H330.086V149.48H303.777V145.652H306.17V146.61H327.694V145.652Z" fill="white"/>
</g>
<g clip-path="url(#clip4_3228_72092)">
<path d="M359.096 177.493C364.485 171.327 367.52 163.103 366.926 154.288C365.738 136.656 350.481 123.325 332.849 124.513C324.034 125.107 316.293 129.217 310.904 135.386L359.096 177.496V177.493Z" fill="#33CC59"/>
<path d="M315.721 139.588C315.721 139.588 315.718 139.591 315.716 139.593L310.901 135.387C305.515 141.553 302.48 149.774 303.073 158.591C304.262 176.223 319.519 189.555 337.151 188.366C345.968 187.773 353.707 183.66 359.096 177.494L315.721 139.588Z" fill="#0095FF"/>
<path d="M361.4 154.653C360.418 140.073 347.8 129.048 333.22 130.03C325.929 130.523 319.529 133.922 315.074 139.02C310.619 144.12 308.108 150.919 308.6 158.21C309.582 172.79 322.2 183.815 336.78 182.833C344.071 182.34 350.471 178.941 354.926 173.843C359.382 168.743 361.892 161.944 361.4 154.653Z" fill="black"/>
<path d="M321.846 144.968V148.796H324.238V147.838H345.762V148.796H348.155V144.968H321.846Z" fill="white"/>
<path d="M325.912 154.405V158.472H328.302V157.883H341.937V158.472H344.327V154.405H341.937V155.013H328.302V154.405H325.912Z" fill="white"/>
<path d="M345.762 164.101H348.155V167.928H321.846V164.101H324.238V165.058H345.762V164.101Z" fill="white"/>
</g>
<g clip-path="url(#clip5_3228_72092)">
<path d="M275.838 163.657C281.226 157.491 284.261 149.267 283.668 140.452C282.479 122.82 267.222 109.488 249.59 110.677C240.775 111.27 233.034 115.381 227.646 121.55L275.838 163.659V163.657Z" fill="#33CC59"/>
<path d="M232.462 125.752C232.462 125.752 232.46 125.755 232.457 125.757L227.642 121.55C222.257 127.716 219.221 135.938 219.815 144.755C221.004 162.387 236.26 175.719 253.892 174.53C262.709 173.937 270.449 169.823 275.837 163.657L232.462 125.752Z" fill="#0095FF"/>
<path d="M278.141 140.817C277.159 126.237 264.541 115.212 249.962 116.194C242.671 116.686 236.271 120.086 231.815 125.183C227.36 130.284 224.849 137.083 225.341 144.374C226.324 158.953 238.941 169.979 253.521 168.996C260.812 168.504 267.212 165.105 271.668 160.007C276.123 154.907 278.634 148.108 278.141 140.817Z" fill="black"/>
<path d="M238.587 131.132V134.959H240.98V134.002H262.503V134.959H264.896V131.132H238.587Z" fill="white"/>
<path d="M242.653 140.569V144.635H245.043V144.047H258.678V144.635H261.068V140.569H258.678V141.177H245.043V140.569H242.653Z" fill="white"/>
<path d="M262.503 150.264H264.896V154.092H238.587V150.264H240.98V151.222H262.503V150.264Z" fill="white"/>
</g>
<g clip-path="url(#clip6_3228_72092)">
<path d="M308.148 72.2344C313.536 66.0683 316.571 57.8443 315.978 49.0295C314.789 31.3975 299.533 18.0658 281.901 19.2548C273.086 19.848 265.344 23.9588 259.956 30.1274L308.148 72.2369V72.2344Z" fill="#33CC59"/>
<path d="M264.773 34.3298C264.773 34.3298 264.77 34.3322 264.768 34.3347L259.953 30.1279C254.567 36.2941 251.532 44.5156 252.125 53.3328C253.314 70.9648 268.571 84.2965 286.203 83.1076C295.02 82.5144 302.759 78.4011 308.147 72.235L264.773 34.3298Z" fill="#0095FF"/>
<path d="M310.452 49.3943C309.47 34.8146 296.852 23.7894 282.272 24.7716C274.981 25.2639 268.581 28.6633 264.126 33.7611C259.67 38.8614 257.16 45.6602 257.652 52.9513C258.634 67.5309 271.252 78.5562 285.832 77.574C293.123 77.0817 299.523 73.6823 303.978 68.5845C308.433 63.4842 310.944 56.6854 310.452 49.3943Z" fill="black"/>
<path d="M270.897 39.7092V43.5368H273.29V42.5793H294.814V43.5368H297.206V39.7092H270.897Z" fill="white"/>
<path d="M274.964 49.1467V53.2131H277.354V52.6248H290.988V53.2131H293.379V49.1467H290.988V49.7547H277.354V49.1467H274.964Z" fill="white"/>
<path d="M294.814 58.842H297.206V62.6697H270.897V58.842H273.29V59.7995H294.814V58.842Z" fill="white"/>
</g>
<g clip-path="url(#clip7_3228_72092)">
<path d="M320.475 173.415C325.864 167.249 328.899 159.025 328.305 150.211C327.116 132.579 311.86 119.247 294.228 120.436C285.413 121.029 277.672 125.14 272.283 131.308L320.475 173.418V173.415Z" fill="#33CC59"/>
<path d="M277.1 135.511C277.1 135.511 277.097 135.513 277.095 135.516L272.28 131.309C266.894 137.475 263.859 145.697 264.452 154.514C265.641 172.146 280.898 185.478 298.53 184.289C307.347 183.695 315.086 179.582 320.475 173.416L277.1 135.511Z" fill="#0095FF"/>
<path d="M322.779 150.575C321.797 135.996 309.179 124.97 294.599 125.953C287.308 126.445 280.908 129.844 276.453 134.942C271.998 140.042 269.487 146.841 269.979 154.132C270.961 168.712 283.579 179.737 298.159 178.755C305.45 178.263 311.85 174.863 316.305 169.766C320.761 164.665 323.271 157.866 322.779 150.575Z" fill="black"/>
<path d="M283.225 140.89V144.718H285.617V143.76H307.141V144.718H309.534V140.89H283.225Z" fill="white"/>
<path d="M287.291 150.328V154.394H289.681V153.806H303.316V154.394H305.706V150.328H303.316V150.936H289.681V150.328H287.291Z" fill="white"/>
<path d="M307.141 160.023H309.534V163.851H283.225V160.023H285.617V160.981H307.141V160.023Z" fill="white"/>
</g>
<g clip-path="url(#clip8_3228_72092)">
<path d="M253.096 171.036C258.485 164.87 261.52 156.646 260.926 147.831C259.738 130.199 244.481 116.868 226.849 118.057C218.034 118.65 210.293 122.761 204.904 128.929L253.096 171.039V171.036Z" fill="#33CC59"/>
<path d="M209.721 133.132C209.721 133.132 209.718 133.134 209.716 133.136L204.901 128.93C199.515 135.096 196.48 143.317 197.073 152.135C198.262 169.767 213.519 183.098 231.151 181.909C239.968 181.316 247.707 177.203 253.096 171.037L209.721 133.132Z" fill="#0095FF"/>
<path d="M255.4 148.196C254.418 133.616 241.8 122.591 227.22 123.573C219.929 124.066 213.529 127.465 209.074 132.563C204.619 137.663 202.108 144.462 202.6 151.753C203.582 166.333 216.2 177.358 230.78 176.376C238.071 175.883 244.471 172.484 248.926 167.386C253.382 162.286 255.892 155.487 255.4 148.196Z" fill="black"/>
<path d="M215.846 138.511V142.339H218.238V141.381H239.762V142.339H242.155V138.511H215.846Z" fill="white"/>
<path d="M219.912 147.948V152.015H222.302V151.427H235.937V152.015H238.327V147.948H235.937V148.556H222.302V147.948H219.912Z" fill="white"/>
<path d="M239.762 157.644H242.155V161.471H215.846V157.644H218.238V158.601H239.762V157.644Z" fill="white"/>
</g>
<g clip-path="url(#clip9_3228_72092)">
<path d="M276.596 185.64C281.985 179.473 285.02 171.249 284.426 162.435C283.238 144.803 267.981 131.471 250.349 132.66C241.534 133.253 233.793 137.364 228.404 143.533L276.596 185.642V185.64Z" fill="#33CC59"/>
<path d="M233.221 147.735C233.221 147.735 233.218 147.737 233.216 147.74L228.401 143.533C223.015 149.699 219.98 157.921 220.573 166.738C221.762 184.37 237.019 197.702 254.651 196.513C263.468 195.92 271.207 191.806 276.596 185.64L233.221 147.735Z" fill="#0095FF"/>
<path d="M278.9 162.799C277.918 148.22 265.3 137.195 250.72 138.177C243.429 138.669 237.029 142.068 232.574 147.166C228.119 152.267 225.608 159.065 226.1 166.356C227.082 180.936 239.7 191.961 254.28 190.979C261.571 190.487 267.971 187.087 272.426 181.99C276.882 176.889 279.392 170.091 278.9 162.799Z" fill="black"/>
</g>
<g clip-path="url(#clip10_3228_72092)">
<path d="M64.8717 69.4348L58.2111 78.5167L51.4795 87.6957H56.2051L63.0086 78.5167L69.7404 69.4348H64.8717Z" fill="url(#paint0_linear_3228_72092)"/>
<path fill-rule="evenodd" clip-rule="evenodd" d="M62.4734 79.2392L61.9436 78.5167L60.0776 75.9722L58.2115 78.5167L57.6816 79.2392L59.5449 81.753L60.0776 82.4717L62.4734 79.2392Z" fill="#1E1E1E" fill-opacity="0.5"/>
<path d="M63.0086 78.5167L56.3481 69.4348H51.4795L60.6099 81.753L65.0148 87.6957H69.7404L63.0086 78.5167Z" fill="url(#paint1_linear_3228_72092)"/>
<path d="M49.0445 87.6957V83.1304H40.0657C38.1326 83.1304 36.5655 81.5635 36.5655 79.6304C36.5655 77.6974 38.1326 76.1304 40.0657 76.1304H47.3598V71.5652H40.0657C35.6112 71.5652 32 75.1761 32 79.6304C32 84.0847 35.6112 87.6957 40.0657 87.6957H49.0445Z" fill="url(#paint2_linear_3228_72092)"/>
<path fill-rule="evenodd" clip-rule="evenodd" d="M46.9821 71.5652C45.2766 74.306 42.237 76.1304 38.7715 76.1304C36.9077 76.1304 35.1672 75.6027 33.6909 74.6885C35.1666 72.7881 37.4733 71.5652 40.0656 71.5652H46.9821Z" fill="#1E1E1E" fill-opacity="0.5"/>
<path d="M49.0445 60V64.5652H40.0657C38.1326 64.5652 36.5655 66.1322 36.5655 68.0652C36.5655 69.9982 38.1326 71.5652 40.0657 71.5652H47.3598V76.1304H40.0657C35.6112 76.1304 32 72.5195 32 68.0652C32 63.6109 35.6112 60 40.0657 60H49.0445Z" fill="url(#paint3_linear_3228_72092)"/>
<path d="M77.4983 72.5004V82.6194C77.4983 83.3051 77.6575 83.7973 77.9761 84.0958C78.2946 84.3945 78.8383 84.5438 79.6074 84.5438H81.9142V87.6956H78.9482C77.2566 87.6956 75.9604 87.2976 75.0596 86.5012C74.1588 85.7051 73.7084 84.4111 73.7084 82.6194V72.5004H71.5664V69.4149H73.7084V64.8696H77.4983V69.4149H81.9142V72.5004H77.4983Z" fill="#2A2F33"/>
<path d="M88.7509 72.081C89.3055 71.1527 90.0429 70.4289 90.9634 69.9095C91.8839 69.3901 92.9764 69.1304 94.2406 69.1304V73.0424H93.2757C91.7896 73.0424 90.6639 73.4181 89.8988 74.1696C89.1335 74.921 88.7509 76.2249 88.7509 78.0815V87.6957H84.958V69.4288H88.7509V72.081Z" fill="#2A2F33"/>
<path d="M96.0664 78.4823C96.0664 76.6474 96.4467 75.0223 97.2073 73.6074C97.9678 72.1925 99.0041 71.0926 100.316 70.3077C101.628 69.5229 103.077 69.1304 104.665 69.1304C106.098 69.1304 107.349 69.4123 108.418 69.9761C109.487 70.5399 110.341 71.2418 110.981 72.0819V69.4289H114.784V87.7016H110.981V84.9822C110.341 85.8445 109.471 86.563 108.368 87.1378C107.266 87.7125 106.009 88 104.598 88C103.033 88 101.6 87.5966 100.299 86.7896C98.9985 85.9826 97.9678 84.855 97.2073 83.4069C96.4467 81.9588 96.0664 80.3173 96.0664 78.4823ZM110.981 78.5486C110.981 77.2885 110.722 76.194 110.204 75.2655C109.686 74.337 109.008 73.6295 108.17 73.1431C107.332 72.6567 106.428 72.4135 105.458 72.4135C104.488 72.4135 103.584 72.6512 102.746 73.1265C101.909 73.6019 101.231 74.2983 100.713 75.2158C100.195 76.1333 99.9356 77.2221 99.9356 78.4823C99.9356 79.7424 100.195 80.848 100.713 81.7986C101.231 82.7492 101.914 83.4733 102.763 83.9707C103.612 84.4682 104.51 84.7168 105.458 84.7168C106.428 84.7168 107.332 84.4737 108.17 83.9873C109.008 83.501 109.686 82.7879 110.204 81.8484C110.722 80.9087 110.981 79.8088 110.981 78.5486Z" fill="#2A2F33"/>
<path d="M126.957 72.5287H123.6V87.6957H119.814V72.5287H117.675V69.449H119.814V68.1575C119.814 66.0601 120.368 64.5313 121.477 63.571C122.585 62.6106 124.324 62.1304 126.694 62.1304V65.2764C125.553 65.2764 124.752 65.4917 124.291 65.9222C123.83 66.3527 123.6 67.0978 123.6 68.1575V69.449H126.957V72.5287Z" fill="#2A2F33"/>
<path d="M131.844 66.9779C131.15 66.9779 130.568 66.7455 130.098 66.2806C129.628 65.8158 129.393 65.2403 129.393 64.5542C129.393 63.868 129.628 63.2925 130.098 62.8277C130.568 62.3628 131.15 62.1304 131.844 62.1304C132.516 62.1304 133.087 62.3628 133.557 62.8277C134.027 63.2925 134.262 63.868 134.262 64.5542C134.262 65.2403 134.027 65.8158 133.557 66.2806C133.087 66.7455 132.516 66.9779 131.844 66.9779ZM133.725 69.4016V87.6957H129.896V69.4016H133.725Z" fill="#2A2F33"/>
</g>
</g>
<defs>
<linearGradient id="paint0_linear_3228_72092" x1="69.7391" y1="69.4348" x2="50.5322" y2="86.638" gradientUnits="userSpaceOnUse">
<stop stop-color="#3B8FFF"/>
<stop offset="1" stop-color="#086AED"/>
</linearGradient>
<linearGradient id="paint1_linear_3228_72092" x1="69.7391" y1="69.4348" x2="50.5322" y2="86.638" gradientUnits="userSpaceOnUse">
<stop stop-color="#3B8FFF"/>
<stop offset="1" stop-color="#086AED"/>
</linearGradient>
<linearGradient id="paint2_linear_3228_72092" x1="49.0435" y1="59.9239" x2="32" y2="79.6304" gradientUnits="userSpaceOnUse">
<stop stop-color="#3B8FFF"/>
<stop offset="1" stop-color="#086AED"/>
</linearGradient>
<linearGradient id="paint3_linear_3228_72092" x1="49.0435" y1="60" x2="32" y2="76.1304" gradientUnits="userSpaceOnUse">
<stop stop-color="#3B8FFF"/>
<stop offset="1" stop-color="#086AED"/>
</linearGradient>
<clipPath id="clip0_3228_72092">
<rect width="384" height="152" fill="white"/>
</clipPath>
<clipPath id="clip1_3228_72092">
<rect width="64" height="64" fill="white" transform="translate(217 -22.3276)"/>
</clipPath>
<clipPath id="clip2_3228_72092">
<rect width="64" height="64" fill="white" transform="translate(294.405 -43)"/>
</clipPath>
<clipPath id="clip3_3228_72092">
<rect width="64" height="64" fill="white" transform="translate(284.932 105.991)"/>
</clipPath>
<clipPath id="clip4_3228_72092">
<rect width="64" height="64" fill="white" transform="translate(303 124.44)"/>
</clipPath>
<clipPath id="clip5_3228_72092">
<rect width="64" height="64" fill="white" transform="translate(219.741 110.603)"/>
</clipPath>
<clipPath id="clip6_3228_72092">
<rect width="64" height="64" fill="white" transform="translate(252.052 19.181)"/>
</clipPath>
<clipPath id="clip7_3228_72092">
<rect width="64" height="64" fill="white" transform="translate(264.379 120.362)"/>
</clipPath>
<clipPath id="clip8_3228_72092">
<rect width="64" height="64" fill="white" transform="translate(197 117.983)"/>
</clipPath>
<clipPath id="clip9_3228_72092">
<rect width="64" height="64" fill="white" transform="translate(220.5 132.586)"/>
</clipPath>
<clipPath id="clip10_3228_72092">
<rect width="102.413" height="28" fill="white" transform="translate(32 60)"/>
</clipPath>
</defs>
</svg>
