<svg width="384" height="152" viewBox="0 0 384 152" fill="none" xmlns="http://www.w3.org/2000/svg">
<g clip-path="url(#clip0_3261_1601)">
<rect width="384" height="152" fill="#F9FAFB"/>
<circle opacity="0.04" cx="260" cy="76" r="108" fill="#0D0E0F"/>
<path d="M207 110V100" stroke="black" stroke-width="2" stroke-linecap="round"/>
<path d="M207 93V89" stroke="black" stroke-width="2" stroke-linecap="round"/>
<path d="M327.911 39.7305C327.911 52.5327 317.533 62.9109 304.731 62.9109C291.928 62.9109 281.55 52.5327 281.55 39.7305C281.55 26.9283 291.928 16.55 304.731 16.55C317.533 16.55 327.911 26.9283 327.911 39.7305Z" fill="black" stroke="#EDEFF2" stroke-width="1.1"/>
<g clip-path="url(#clip1_3261_1601)">
<path d="M317.199 50.6248C319.987 47.434 321.558 43.1785 321.251 38.6172C320.636 29.4934 312.741 22.5948 303.617 23.21C299.056 23.517 295.05 25.6442 292.262 28.8362L317.199 50.626V50.6248Z" fill="#33CC59"/>
<path d="M294.754 31.0107C294.754 31.0107 294.753 31.012 294.752 31.0133L292.26 28.8364C289.473 32.0272 287.903 36.2814 288.21 40.844C288.825 49.9678 296.72 56.8664 305.844 56.2512C310.406 55.9442 314.411 53.8158 317.199 50.625L294.754 31.0107Z" fill="#0095FF"/>
<path d="M318.391 38.806C317.883 31.2616 311.354 25.5565 303.81 26.0648C300.037 26.3195 296.725 28.0785 294.42 30.7165C292.114 33.3556 290.815 36.8737 291.07 40.6465C291.578 48.1909 298.107 53.896 305.651 53.3878C309.424 53.133 312.736 51.374 315.042 48.7361C317.347 46.0969 318.646 42.5788 318.391 38.806Z" fill="black"/>
<path d="M297.924 33.7943V35.775H299.162V35.2795H310.299V35.775H311.538V33.7943H297.924Z" fill="white"/>
<path d="M300.028 38.6778V40.782H301.265V40.4776H308.32V40.782H309.557V38.6778H308.32V38.9924H301.265V38.6778H300.028Z" fill="white"/>
<path d="M310.299 43.6947H311.538V45.6754H297.924V43.6947H299.162V44.1902H310.299V43.6947Z" fill="white"/>
</g>
<rect x="288.594" y="23.5938" width="32.2735" height="32.2735" rx="16.1368" stroke="#031D30" stroke-width="0.843752"/>
<path d="M304.73 61.0125L304.73 58.103" stroke="#F9FAFB" stroke-width="1.1" stroke-linecap="round"/>
<path d="M304.73 18.4484L304.73 21.3579" stroke="#F9FAFB" stroke-width="1.1" stroke-linecap="round"/>
<path d="M289.843 54.618L291.9 52.5607" stroke="#F9FAFB" stroke-width="1.1" stroke-linecap="round"/>
<path d="M319.618 24.8429L317.561 26.9002" stroke="#F9FAFB" stroke-width="1.1" stroke-linecap="round"/>
<path d="M283.448 39.7305L286.358 39.7305" stroke="#F9FAFB" stroke-width="1.1" stroke-linecap="round"/>
<path d="M326.013 39.7305L323.103 39.7305" stroke="#F9FAFB" stroke-width="1.1" stroke-linecap="round"/>
<path d="M289.843 24.8429L291.9 26.9002" stroke="#F9FAFB" stroke-width="1.1" stroke-linecap="round"/>
<path d="M319.618 54.618L317.561 52.5607" stroke="#F9FAFB" stroke-width="1.1" stroke-linecap="round"/>
<path d="M312.44 10.0451C312.44 25.175 300.175 37.4402 285.045 37.4402C269.915 37.4402 257.65 25.175 257.65 10.0451C257.65 -5.08479 269.915 -17.35 285.045 -17.35C300.175 -17.35 312.44 -5.08479 312.44 10.0451Z" fill="black" stroke="#EDEFF2" stroke-width="1.3"/>
<g clip-path="url(#clip2_3261_1601)">
<path d="M299.782 22.9202C303.077 19.1493 304.933 14.12 304.57 8.72943C303.843 -2.05324 294.513 -10.2061 283.731 -9.47904C278.34 -9.11625 273.606 -6.60235 270.311 -2.83L299.782 22.9217V22.9202Z" fill="#33CC59"/>
<path d="M273.256 -0.260068C273.256 -0.260068 273.254 -0.258563 273.253 -0.257057L270.308 -2.82967C267.015 0.941185 265.159 5.96899 265.521 11.3611C266.249 22.1438 275.579 30.2966 286.361 29.5695C291.753 29.2068 296.486 26.6914 299.781 22.9205L273.256 -0.260068Z" fill="#0095FF"/>
<path d="M301.191 8.95253C300.59 0.0364594 292.874 -6.70591 283.958 -6.10529C279.499 -5.80422 275.585 -3.72536 272.861 -0.607821C270.136 2.51122 268.601 6.66894 268.902 11.1277C269.502 20.0438 277.219 26.7862 286.135 26.1855C290.593 25.8845 294.507 23.8056 297.232 20.6881C299.957 17.569 301.492 13.4113 301.191 8.95253Z" fill="black"/>
<path d="M277.002 3.02965V5.37043H278.465V4.78486H291.628V5.37043H293.091V3.02965H277.002Z" fill="white"/>
<path d="M279.489 8.80106V11.2879H280.95V10.9281H289.288V11.2879H290.75V8.80106H289.288V9.17288H280.95V8.80106H279.489Z" fill="white"/>
<path d="M291.628 14.7301H293.091V17.0709H277.002V14.7301H278.465V15.3157H291.628V14.7301Z" fill="white"/>
</g>
<rect x="265.975" y="-9.02554" width="38.1414" height="38.1414" rx="19.0707" stroke="#031D30" stroke-width="0.997161"/>
<path d="M285.045 35.1966L285.045 31.7581" stroke="#F9FAFB" stroke-width="1.3" stroke-linecap="round"/>
<path d="M267.451 27.6395L269.883 25.2081" stroke="#F9FAFB" stroke-width="1.3" stroke-linecap="round"/>
<path d="M259.894 10.0451L263.332 10.0451" stroke="#F9FAFB" stroke-width="1.3" stroke-linecap="round"/>
<path d="M310.196 10.0451L306.758 10.0451" stroke="#F9FAFB" stroke-width="1.3" stroke-linecap="round"/>
<path d="M302.64 27.6395L300.208 25.2081" stroke="#F9FAFB" stroke-width="1.3" stroke-linecap="round"/>
<path d="M254.234 50.517C254.234 69.1385 239.139 84.2341 220.517 84.2341C201.896 84.2341 186.8 69.1385 186.8 50.517C186.8 31.8956 201.896 16.8 220.517 16.8C239.139 16.8 254.234 31.8956 254.234 50.517Z" fill="black" stroke="#EDEFF2" stroke-width="1.6"/>
<g clip-path="url(#clip3_3261_1601)">
<path d="M238.654 66.3633C242.71 61.7222 244.994 55.5323 244.548 48.8978C243.653 35.6268 232.17 25.5925 218.899 26.4873C212.264 26.9338 206.437 30.0279 202.382 34.6708L238.654 66.3651V66.3633Z" fill="#33CC59"/>
<path d="M206.007 37.8338C206.007 37.8338 206.005 37.8356 206.003 37.8375L202.38 34.6712C198.326 39.3122 196.041 45.5003 196.488 52.1367C197.383 65.4077 208.866 75.442 222.137 74.5471C228.773 74.1006 234.598 71.0047 238.654 66.3637L206.007 37.8338Z" fill="#0095FF"/>
<path d="M240.388 49.1723C239.649 38.1987 230.152 29.9004 219.178 30.6396C213.691 31.0102 208.874 33.5688 205.52 37.4058C202.167 41.2446 200.277 46.3618 200.648 51.8495C201.387 62.8231 210.884 71.1214 221.857 70.3822C227.345 70.0117 232.162 67.4531 235.516 63.6161C238.869 59.7773 240.759 54.6601 240.388 49.1723Z" fill="black"/>
<path d="M210.617 41.8826V44.7636H212.418V44.0429H228.618V44.7636H230.419V41.8826H210.617Z" fill="white"/>
<path d="M213.678 48.9859V52.0466H215.477V51.6038H225.739V52.0466H227.538V48.9859H225.739V49.4435H215.477V48.9859H213.678Z" fill="white"/>
<path d="M228.618 56.2832H230.419V59.1642H210.617V56.2832H212.418V57.0039H228.618V56.2832Z" fill="white"/>
</g>
<rect x="197.046" y="27.0455" width="46.9433" height="46.9433" rx="23.4716" stroke="#031D30" stroke-width="1.22728"/>
<path d="M220.518 81.4727L220.518 77.2407" stroke="#F9FAFB" stroke-width="1.6" stroke-linecap="round"/>
<path d="M220.518 19.5614L220.518 23.7934" stroke="#F9FAFB" stroke-width="1.6" stroke-linecap="round"/>
<path d="M198.862 72.1717L201.855 69.1792" stroke="#F9FAFB" stroke-width="1.6" stroke-linecap="round"/>
<path d="M242.172 28.8624L239.179 31.8549" stroke="#F9FAFB" stroke-width="1.6" stroke-linecap="round"/>
<path d="M189.561 50.517L193.793 50.517" stroke="#F9FAFB" stroke-width="1.6" stroke-linecap="round"/>
<path d="M251.473 50.517L247.241 50.517" stroke="#F9FAFB" stroke-width="1.6" stroke-linecap="round"/>
<path d="M198.862 28.8624L201.855 31.8549" stroke="#F9FAFB" stroke-width="1.6" stroke-linecap="round"/>
<path d="M242.172 72.1717L239.179 69.1792" stroke="#F9FAFB" stroke-width="1.6" stroke-linecap="round"/>
<ellipse cx="260" cy="151.5" rx="102" ry="33.5" fill="#D9D9D9"/>
<g filter="url(#filter0_i_3261_1601)">
<path d="M226.066 135.899C223.382 136.209 221 134.131 221 131.429C221 129.199 222.647 127.308 224.861 127.041C235.816 125.721 247.652 125 260 125C271.966 125 283.451 125.677 294.119 126.92C296.342 127.179 298 129.075 298 131.313C298 134.009 295.628 136.087 292.95 135.786C282.613 134.628 271.53 134 260 134C248.103 134 236.682 134.669 226.066 135.899Z" fill="#757A80"/>
</g>
<path fill-rule="evenodd" clip-rule="evenodd" d="M223.487 135.442C224.255 135.83 225.143 136.006 226.066 135.899C236.682 134.669 248.103 134 260 134C271.53 134 282.614 134.628 292.95 135.786C293.87 135.889 294.753 135.712 295.517 135.326C295.087 135.118 294.618 134.978 294.12 134.92C283.451 133.677 271.967 133 260 133C247.652 133 235.816 133.721 224.862 135.041C224.372 135.1 223.91 135.238 223.487 135.442Z" fill="#181A1B"/>
<mask id="mask0_3261_1601" style="mask-type:alpha" maskUnits="userSpaceOnUse" x="198" y="53" width="123" height="83">
<path d="M225.239 134.996C222.795 135.287 220.479 133.799 219.772 131.442L198.681 61.1387C197.798 58.1965 199.75 55.189 202.812 54.9396C218.23 53.6838 247.971 53 260 53C271.662 53 300.961 53.6428 316.165 54.8264C319.235 55.0654 321.197 58.0776 320.312 61.0276L299.223 131.325C298.518 133.675 296.213 135.161 293.776 134.88C283.205 133.662 271.838 133 260 133C247.793 133 236.088 133.704 225.239 134.996Z" fill="#757A80"/>
</mask>
<g mask="url(#mask0_3261_1601)">
<circle cx="260.146" cy="98.1463" r="42.1463" fill="black" stroke="#EDEFF2" stroke-width="2"/>
<g clip-path="url(#clip4_3261_1601)">
<path d="M282.817 117.954C287.886 112.153 290.742 104.415 290.184 96.1221C289.065 79.5334 274.711 66.9906 258.123 68.1092C249.83 68.6673 242.546 72.5348 237.477 78.3384L282.817 117.956V117.954Z" fill="#33CC59"/>
<path d="M242.008 82.2922C242.008 82.2922 242.006 82.2945 242.004 82.2968L237.474 78.339C232.407 84.1403 229.551 91.8753 230.109 100.171C231.228 116.76 245.582 129.302 262.17 128.184C270.466 127.626 277.747 123.756 282.816 117.955L242.008 82.2922Z" fill="#0095FF"/>
<path d="M284.984 96.4654C284.06 82.7484 272.189 72.3755 258.472 73.2995C251.612 73.7627 245.591 76.961 241.399 81.7572C237.208 86.5557 234.845 92.9522 235.308 99.8118C236.233 113.529 248.104 123.902 261.821 122.978C268.68 122.514 274.702 119.316 278.893 114.52C283.085 109.722 285.447 103.325 284.984 96.4654Z" fill="black"/>
<path d="M247.771 87.3533V90.9545H250.023V90.0536H270.273V90.9545H272.524V87.3533H247.771Z" fill="white"/>
<path d="M251.597 96.2323V100.058H253.846V99.5047H266.674V100.058H268.922V96.2323H266.674V96.8044H253.846V96.2323H251.597Z" fill="white"/>
<path d="M270.273 105.354H272.524V108.955H247.771V105.354H250.023V106.255H270.273V105.354Z" fill="white"/>
</g>
<rect x="230.807" y="68.8069" width="58.679" height="58.679" rx="29.3395" stroke="#031D30" stroke-width="1.53409"/>
<path d="M260.146 136.841L260.146 131.551" stroke="#F9FAFB" stroke-width="2" stroke-linecap="round"/>
<path d="M260.146 59.4517L260.146 64.7417" stroke="#F9FAFB" stroke-width="2" stroke-linecap="round"/>
<path d="M233.078 125.215L236.819 121.474" stroke="#F9FAFB" stroke-width="2" stroke-linecap="round"/>
<path d="M287.215 71.078L283.474 74.8186" stroke="#F9FAFB" stroke-width="2" stroke-linecap="round"/>
<path d="M221.451 98.1463L226.741 98.1463" stroke="#F9FAFB" stroke-width="2" stroke-linecap="round"/>
<path d="M298.841 98.1463L293.551 98.1463" stroke="#F9FAFB" stroke-width="2" stroke-linecap="round"/>
<path d="M233.078 71.078L236.819 74.8186" stroke="#F9FAFB" stroke-width="2" stroke-linecap="round"/>
<path d="M287.215 125.215L283.474 121.474" stroke="#F9FAFB" stroke-width="2" stroke-linecap="round"/>
</g>
<g clip-path="url(#clip5_3261_1601)">
<path d="M64.8717 69.4348L58.2111 78.5167L51.4795 87.6957H56.2051L63.0086 78.5167L69.7404 69.4348H64.8717Z" fill="url(#paint0_linear_3261_1601)"/>
<path fill-rule="evenodd" clip-rule="evenodd" d="M62.4734 79.2392L61.9436 78.5167L60.0776 75.9722L58.2115 78.5167L57.6816 79.2392L59.5449 81.753L60.0776 82.4717L62.4734 79.2392Z" fill="#1E1E1E" fill-opacity="0.5"/>
<path d="M63.0086 78.5167L56.3481 69.4348H51.4795L60.6099 81.753L65.0148 87.6957H69.7404L63.0086 78.5167Z" fill="url(#paint1_linear_3261_1601)"/>
<path d="M49.0445 87.6957V83.1304H40.0657C38.1326 83.1304 36.5655 81.5635 36.5655 79.6304C36.5655 77.6974 38.1326 76.1304 40.0657 76.1304H47.3598V71.5652H40.0657C35.6112 71.5652 32 75.1761 32 79.6304C32 84.0847 35.6112 87.6957 40.0657 87.6957H49.0445Z" fill="url(#paint2_linear_3261_1601)"/>
<path fill-rule="evenodd" clip-rule="evenodd" d="M46.9821 71.5652C45.2766 74.306 42.237 76.1304 38.7715 76.1304C36.9077 76.1304 35.1672 75.6027 33.6909 74.6885C35.1666 72.7881 37.4733 71.5652 40.0656 71.5652H46.9821Z" fill="#1E1E1E" fill-opacity="0.5"/>
<path d="M49.0445 60V64.5652H40.0657C38.1326 64.5652 36.5655 66.1322 36.5655 68.0652C36.5655 69.9982 38.1326 71.5652 40.0657 71.5652H47.3598V76.1304H40.0657C35.6112 76.1304 32 72.5195 32 68.0652C32 63.6109 35.6112 60 40.0657 60H49.0445Z" fill="url(#paint3_linear_3261_1601)"/>
<path d="M77.4983 72.5004V82.6194C77.4983 83.3051 77.6575 83.7973 77.9761 84.0958C78.2946 84.3945 78.8383 84.5438 79.6074 84.5438H81.9142V87.6956H78.9482C77.2566 87.6956 75.9604 87.2976 75.0596 86.5012C74.1588 85.7051 73.7084 84.4111 73.7084 82.6194V72.5004H71.5664V69.4149H73.7084V64.8696H77.4983V69.4149H81.9142V72.5004H77.4983Z" fill="#2A2F33"/>
<path d="M88.7509 72.081C89.3055 71.1527 90.0429 70.4289 90.9634 69.9095C91.8839 69.3901 92.9764 69.1304 94.2406 69.1304V73.0424H93.2757C91.7896 73.0424 90.6639 73.4181 89.8988 74.1696C89.1335 74.921 88.7509 76.2249 88.7509 78.0815V87.6957H84.958V69.4288H88.7509V72.081Z" fill="#2A2F33"/>
<path d="M96.0664 78.4823C96.0664 76.6474 96.4467 75.0223 97.2073 73.6074C97.9678 72.1925 99.0041 71.0926 100.316 70.3077C101.628 69.5229 103.077 69.1304 104.665 69.1304C106.098 69.1304 107.349 69.4123 108.418 69.9761C109.487 70.5399 110.341 71.2418 110.981 72.0819V69.4289H114.784V87.7016H110.981V84.9822C110.341 85.8445 109.471 86.563 108.368 87.1378C107.266 87.7125 106.009 88 104.598 88C103.033 88 101.6 87.5966 100.299 86.7896C98.9985 85.9826 97.9678 84.855 97.2073 83.4069C96.4467 81.9588 96.0664 80.3173 96.0664 78.4823ZM110.981 78.5486C110.981 77.2885 110.722 76.194 110.204 75.2655C109.686 74.337 109.008 73.6295 108.17 73.1431C107.332 72.6567 106.428 72.4135 105.458 72.4135C104.488 72.4135 103.584 72.6512 102.746 73.1265C101.909 73.6019 101.231 74.2983 100.713 75.2158C100.195 76.1333 99.9356 77.2221 99.9356 78.4823C99.9356 79.7424 100.195 80.848 100.713 81.7986C101.231 82.7492 101.914 83.4733 102.763 83.9707C103.612 84.4682 104.51 84.7168 105.458 84.7168C106.428 84.7168 107.332 84.4737 108.17 83.9873C109.008 83.501 109.686 82.7879 110.204 81.8484C110.722 80.9087 110.981 79.8088 110.981 78.5486Z" fill="#2A2F33"/>
<path d="M126.957 72.5287H123.6V87.6957H119.814V72.5287H117.675V69.449H119.814V68.1575C119.814 66.0601 120.368 64.5313 121.477 63.571C122.585 62.6106 124.324 62.1304 126.694 62.1304V65.2764C125.553 65.2764 124.752 65.4917 124.291 65.9222C123.83 66.3527 123.6 67.0978 123.6 68.1575V69.449H126.957V72.5287Z" fill="#2A2F33"/>
<path d="M131.844 66.9779C131.15 66.9779 130.568 66.7455 130.098 66.2806C129.628 65.8158 129.393 65.2403 129.393 64.5542C129.393 63.868 129.628 63.2925 130.098 62.8277C130.568 62.3628 131.15 62.1304 131.844 62.1304C132.516 62.1304 133.087 62.3628 133.557 62.8277C134.027 63.2925 134.262 63.868 134.262 64.5542C134.262 65.2403 134.027 65.8158 133.557 66.2806C133.087 66.7455 132.516 66.9779 131.844 66.9779ZM133.725 69.4016V87.6957H129.896V69.4016H133.725Z" fill="#2A2F33"/>
</g>
<path d="M300.155 73.9289C300.231 73.0724 301.483 73.0724 301.558 73.9289L301.806 76.7211C301.979 78.6844 303.487 80.2671 305.44 80.5358L308.643 80.9767C309.454 81.0883 309.454 82.2608 308.643 82.3724L305.44 82.8133C303.487 83.0821 301.979 84.6647 301.806 86.628L301.558 89.4202C301.483 90.2767 300.231 90.2767 300.155 89.4202L299.908 86.628C299.734 84.6647 298.226 83.0821 296.274 82.8133L293.071 82.3724C292.259 82.2608 292.259 81.0883 293.071 80.9767L296.274 80.5358C298.226 80.2671 299.734 78.6844 299.908 76.7211L300.155 73.9289Z" fill="#B4BABF"/>
<path d="M181.965 21.5435C182.009 21.0527 182.726 21.0527 182.769 21.5435L182.911 23.1435C183.011 24.2686 183.875 25.1755 184.993 25.3295L186.829 25.5821C187.294 25.6461 187.294 26.318 186.829 26.382L184.993 26.6346C183.875 26.7886 183.011 27.6955 182.911 28.8206L182.769 30.4206C182.726 30.9114 182.009 30.9114 181.965 30.4206L181.824 28.8206C181.724 27.6955 180.86 26.7886 179.741 26.6346L177.906 26.382C177.441 26.318 177.441 25.6461 177.906 25.5821L179.741 25.3295C180.86 25.1755 181.724 24.2686 181.824 23.1435L181.965 21.5435Z" fill="#B4BABF"/>
<path d="M336 43V53" stroke="black" stroke-width="2" stroke-linecap="round"/>
<path d="M336 60V86" stroke="black" stroke-width="2" stroke-linecap="round"/>
<path d="M248 8V-2" stroke="black" stroke-width="2" stroke-linecap="round"/>
<path d="M248 19V13" stroke="black" stroke-width="2" stroke-linecap="round"/>
</g>
<defs>
<filter id="filter0_i_3261_1601" x="221" y="125" width="77" height="12.9294" filterUnits="userSpaceOnUse" color-interpolation-filters="sRGB">
<feFlood flood-opacity="0" result="BackgroundImageFix"/>
<feBlend mode="normal" in="SourceGraphic" in2="BackgroundImageFix" result="shape"/>
<feColorMatrix in="SourceAlpha" type="matrix" values="0 0 0 0 0 0 0 0 0 0 0 0 0 0 0 0 0 0 127 0" result="hardAlpha"/>
<feOffset dy="2"/>
<feGaussianBlur stdDeviation="2"/>
<feComposite in2="hardAlpha" operator="arithmetic" k2="-1" k3="1"/>
<feColorMatrix type="matrix" values="0 0 0 0 0 0 0 0 0 0 0 0 0 0 0 0 0 0 0.4 0"/>
<feBlend mode="normal" in2="shape" result="effect1_innerShadow_3261_1601"/>
</filter>
<linearGradient id="paint0_linear_3261_1601" x1="69.7391" y1="69.4348" x2="50.5322" y2="86.638" gradientUnits="userSpaceOnUse">
<stop stop-color="#3B8FFF"/>
<stop offset="1" stop-color="#086AED"/>
</linearGradient>
<linearGradient id="paint1_linear_3261_1601" x1="69.7391" y1="69.4348" x2="50.5322" y2="86.638" gradientUnits="userSpaceOnUse">
<stop stop-color="#3B8FFF"/>
<stop offset="1" stop-color="#086AED"/>
</linearGradient>
<linearGradient id="paint2_linear_3261_1601" x1="49.0435" y1="59.9239" x2="32" y2="79.6304" gradientUnits="userSpaceOnUse">
<stop stop-color="#3B8FFF"/>
<stop offset="1" stop-color="#086AED"/>
</linearGradient>
<linearGradient id="paint3_linear_3261_1601" x1="49.0435" y1="60" x2="32" y2="76.1304" gradientUnits="userSpaceOnUse">
<stop stop-color="#3B8FFF"/>
<stop offset="1" stop-color="#086AED"/>
</linearGradient>
<clipPath id="clip0_3261_1601">
<rect width="384" height="152" fill="white"/>
</clipPath>
<clipPath id="clip1_3261_1601">
<rect x="288.172" y="23.1719" width="33.1173" height="33.1173" rx="16.5586" fill="white"/>
</clipPath>
<clipPath id="clip2_3261_1601">
<rect x="265.477" y="-9.52412" width="39.1386" height="39.1386" rx="19.5693" fill="white"/>
</clipPath>
<clipPath id="clip3_3261_1601">
<rect x="196.433" y="26.4318" width="48.1706" height="48.1706" rx="24.0853" fill="white"/>
</clipPath>
<clipPath id="clip4_3261_1601">
<rect x="230.04" y="68.0398" width="60.2131" height="60.2131" rx="30.1065" fill="white"/>
</clipPath>
<clipPath id="clip5_3261_1601">
<rect width="102.413" height="28" fill="white" transform="translate(32 60)"/>
</clipPath>
</defs>
</svg>
