<svg width="384" height="152" viewBox="0 0 384 152" fill="none" xmlns="http://www.w3.org/2000/svg">
<rect width="384" height="152" fill="#F9FAFB"/>
<rect x="104.959" y="104.122" width="45.0639" height="36.3904" rx="3.85057" fill="#B4BABF" stroke="#0D0E0F" stroke-width="1.91761"/>
<rect x="108.027" y="110.827" width="38.9276" height="26.6548" rx="2.89117" fill="#F9FDFC"/>
<mask id="path-7-inside-1_3228_72065" fill="white">
<rect x="109.753" y="112.936" width="7.22793" height="6.02327" rx="1.08419"/>
</mask>
<rect x="109.753" y="112.936" width="7.22793" height="6.02327" rx="1.08419" stroke="black" stroke-width="2.30114" mask="url(#path-7-inside-1_3228_72065)"/>
<mask id="path-8-inside-2_3228_72065" fill="white">
<rect x="119.149" y="112.936" width="7.22793" height="6.02327" rx="1.08419"/>
</mask>
<rect x="119.149" y="112.936" width="7.22793" height="6.02327" rx="1.08419" stroke="black" stroke-width="2.30114" mask="url(#path-8-inside-2_3228_72065)"/>
<mask id="path-9-inside-3_3228_72065" fill="white">
<rect x="128.545" y="112.936" width="7.22793" height="6.02327" rx="1.08419"/>
</mask>
<rect x="128.545" y="112.936" width="7.22793" height="6.02327" rx="1.08419" stroke="black" stroke-width="2.30114" mask="url(#path-9-inside-3_3228_72065)"/>
<mask id="path-10-inside-4_3228_72065" fill="white">
<rect x="137.942" y="112.936" width="7.22793" height="6.02327" rx="1.08419"/>
</mask>
<rect x="137.942" y="112.936" width="7.22793" height="6.02327" rx="1.08419" stroke="black" stroke-width="2.30114" mask="url(#path-10-inside-4_3228_72065)"/>
<mask id="path-11-inside-5_3228_72065" fill="white">
<rect x="109.753" y="121.128" width="7.22793" height="6.02327" rx="1.08419"/>
</mask>
<rect x="109.753" y="121.128" width="7.22793" height="6.02327" rx="1.08419" stroke="black" stroke-width="2.30114" mask="url(#path-11-inside-5_3228_72065)"/>
<mask id="path-12-inside-6_3228_72065" fill="white">
<rect x="119.149" y="121.128" width="7.22793" height="6.02327" rx="1.08419"/>
</mask>
<rect x="119.149" y="121.128" width="7.22793" height="6.02327" rx="1.08419" stroke="black" stroke-width="2.30114" mask="url(#path-12-inside-6_3228_72065)"/>
<mask id="path-13-inside-7_3228_72065" fill="white">
<rect x="128.545" y="121.128" width="7.22793" height="6.02327" rx="1.08419"/>
</mask>
<rect x="128.545" y="121.128" width="7.22793" height="6.02327" rx="1.08419" fill="#33CC59" stroke="black" stroke-width="2.30114" mask="url(#path-13-inside-7_3228_72065)"/>
<mask id="path-14-inside-8_3228_72065" fill="white">
<rect x="137.942" y="121.128" width="7.22793" height="6.02327" rx="1.08419"/>
</mask>
<rect x="137.942" y="121.128" width="7.22793" height="6.02327" rx="1.08419" stroke="black" stroke-width="2.30114" mask="url(#path-14-inside-8_3228_72065)"/>
<mask id="path-15-inside-9_3228_72065" fill="white">
<rect x="109.753" y="129.319" width="7.22793" height="6.02327" rx="1.08419"/>
</mask>
<rect x="109.753" y="129.319" width="7.22793" height="6.02327" rx="1.08419" stroke="black" stroke-width="2.30114" mask="url(#path-15-inside-9_3228_72065)"/>
<mask id="path-16-inside-10_3228_72065" fill="white">
<rect x="119.149" y="129.319" width="7.22793" height="6.02327" rx="1.08419"/>
</mask>
<rect x="119.149" y="129.319" width="7.22793" height="6.02327" rx="1.08419" stroke="black" stroke-width="2.30114" mask="url(#path-16-inside-10_3228_72065)"/>
<mask id="path-17-inside-11_3228_72065" fill="white">
<rect x="128.545" y="129.319" width="7.22793" height="6.02327" rx="1.08419"/>
</mask>
<rect x="128.545" y="129.319" width="7.22793" height="6.02327" rx="1.08419" stroke="black" stroke-width="2.30114" mask="url(#path-17-inside-11_3228_72065)"/>
<mask id="path-18-inside-12_3228_72065" fill="white">
<rect x="137.942" y="129.319" width="7.22793" height="6.02327" rx="1.08419"/>
</mask>
<rect x="137.942" y="129.319" width="7.22793" height="6.02327" rx="1.08419" stroke="black" stroke-width="2.30114" mask="url(#path-18-inside-12_3228_72065)"/>
<rect x="117.01" y="97.5952" width="4.69815" height="10.1191" rx="2.34908" fill="#0D0E0F"/>
<rect x="133.273" y="97.5952" width="4.69815" height="10.1191" rx="2.34908" fill="#0D0E0F"/>
<path d="M293.465 140.113H282.017M274.796 140.113H88" stroke="#0D0E0F" stroke-width="2.8179" stroke-linecap="round"/>
<path d="M119.155 52.7468C119.231 51.8903 120.483 51.8903 120.558 52.7468L120.806 55.5389C120.979 57.5023 122.487 59.0849 124.44 59.3537L127.643 59.7945C128.454 59.9062 128.454 61.0787 127.643 61.1903L124.44 61.6312C122.487 61.8999 120.979 63.4826 120.806 65.4459L120.558 68.2381C120.483 69.0946 119.231 69.0946 119.155 68.2381L118.908 65.4459C118.734 63.4826 117.226 61.8999 115.274 61.6312L112.071 61.1903C111.259 61.0787 111.259 59.9062 112.071 59.7945L115.274 59.3537C117.226 59.0849 118.734 57.5023 118.908 55.5389L119.155 52.7468Z" fill="#B4BABF"/>
<path d="M133.338 46.5435C133.382 46.0527 134.099 46.0527 134.142 46.5435L134.284 48.1435C134.384 49.2686 135.248 50.1755 136.367 50.3295L138.202 50.5821C138.667 50.6461 138.667 51.318 138.202 51.382L136.367 51.6346C135.248 51.7886 134.384 52.6955 134.284 53.8206L134.142 55.4206C134.099 55.9114 133.382 55.9114 133.338 55.4206L133.197 53.8206C133.097 52.6955 132.233 51.7886 131.114 51.6346L129.279 51.382C128.814 51.318 128.814 50.6461 129.279 50.5821L131.114 50.3295C132.233 50.1755 133.097 49.2686 133.197 48.1435L133.338 46.5435Z" fill="#B4BABF"/>
<circle cx="187.032" cy="98.3623" r="42.1463" fill="#2775CA" stroke="black" stroke-width="2"/>
<g clip-path="url(#clip0_3228_72065)">
<path d="M186.826 123.54C200.845 123.54 212.21 112.175 212.21 98.1557C212.21 84.1365 200.845 72.7717 186.826 72.7717C172.807 72.7717 161.442 84.1365 161.442 98.1557C161.442 112.175 172.807 123.54 186.826 123.54Z" fill="white"/>
<path fill-rule="evenodd" clip-rule="evenodd" d="M187.032 68.2558C203.66 68.2558 217.139 81.7349 217.139 98.3623C217.139 114.99 203.66 128.469 187.032 128.469C170.405 128.469 156.926 114.99 156.926 98.3623C156.926 81.7349 170.405 68.2558 187.032 68.2558ZM193.911 77.163C193.232 76.9462 192.677 77.3491 192.677 78.0619V79.8148C192.677 80.2927 193.038 80.8366 193.486 81.0011C200.692 83.6404 205.849 90.5668 205.849 98.676C205.849 106.785 200.692 113.711 193.486 116.351C192.994 116.531 192.677 117.013 192.677 117.537V119.29C192.677 120.003 193.232 120.406 193.911 120.189C203.018 117.279 209.612 108.748 209.612 98.676C209.612 88.6041 203.018 80.0726 193.911 77.163ZM181.387 78.0619C181.387 77.3491 180.832 76.9462 180.153 77.163C171.047 80.0726 164.452 88.6041 164.452 98.676C164.452 108.748 171.047 117.279 180.153 120.189C180.832 120.406 181.387 120.003 181.387 119.29V117.537C181.387 117.059 181.027 116.515 180.578 116.351C173.372 113.711 168.216 106.785 168.216 98.676C168.216 90.5668 173.372 83.6404 180.578 81.0011C181.027 80.8366 181.387 80.2927 181.387 79.8148V78.0619ZM187.973 83.6227H186.092C185.572 83.6227 185.151 84.0439 185.151 84.5635V87.4782C181.42 88.0086 179.009 90.491 179.009 93.6757C179.009 97.7979 181.501 99.3975 186.761 100.105C190.329 100.69 191.345 101.458 191.345 103.489C191.345 105.519 189.621 106.873 187.192 106.873C183.907 106.873 182.826 105.435 182.427 103.575C182.333 103.134 181.955 102.812 181.505 102.812H179.358C178.818 102.812 178.395 103.299 178.488 103.831C179.035 106.963 181.046 109.261 185.151 109.818V112.788C185.151 113.308 185.572 113.729 186.092 113.729H187.973C188.493 113.729 188.914 113.308 188.914 112.788V109.816C192.8 109.199 195.283 106.494 195.283 103.151C195.283 98.7517 192.606 97.2748 187.438 96.5676C183.623 96.0137 182.885 95.1214 182.885 93.3371C182.885 91.6456 184.177 90.4453 186.669 90.4453C188.923 90.4453 190.219 91.232 190.755 93.0459C190.874 93.4508 191.236 93.737 191.659 93.737H193.638C194.19 93.737 194.619 93.2298 194.501 92.6905C193.875 89.8238 191.943 88.1036 188.914 87.561V84.5635C188.914 84.0439 188.493 83.6227 187.973 83.6227Z" fill="#2775CA"/>
</g>
<rect x="157.693" y="69.0228" width="58.679" height="58.679" rx="29.3395" stroke="#031D30" stroke-width="1.53409"/>
<path d="M187.032 137.057L187.032 131.767" stroke="black" stroke-width="2" stroke-linecap="round"/>
<path d="M187.032 59.6677L187.032 64.9577" stroke="black" stroke-width="2" stroke-linecap="round"/>
<path d="M159.964 125.431L163.704 121.69" stroke="black" stroke-width="2" stroke-linecap="round"/>
<path d="M214.1 71.294L210.36 75.0346" stroke="black" stroke-width="2" stroke-linecap="round"/>
<path d="M148.337 98.3622L153.627 98.3622" stroke="black" stroke-width="2" stroke-linecap="round"/>
<path d="M225.727 98.3622L220.437 98.3622" stroke="black" stroke-width="2" stroke-linecap="round"/>
<path d="M159.964 71.294L163.704 75.0346" stroke="black" stroke-width="2" stroke-linecap="round"/>
<path d="M214.1 125.431L210.36 121.69" stroke="black" stroke-width="2" stroke-linecap="round"/>
<circle cx="187.032" cy="37.1903" r="13.3274" fill="#E3E5E8" stroke="black" stroke-width="1.72585"/>
<path d="M187.032 50.2454L187.032 47.0814" stroke="black" stroke-width="1.53409" stroke-linecap="round"/>
<path d="M187.032 24.1352L187.032 27.2993" stroke="black" stroke-width="1.53409" stroke-linecap="round"/>
<path d="M187.032 32.7799L187.032 37.0945" stroke="black" stroke-width="1.53409" stroke-linecap="round"/>
<path d="M177.8 46.4217L180.038 44.1844" stroke="black" stroke-width="1.53409" stroke-linecap="round"/>
<path d="M196.263 27.959L194.026 30.1963" stroke="black" stroke-width="1.53409" stroke-linecap="round"/>
<path d="M173.977 37.1904L177.141 37.1904" stroke="black" stroke-width="1.53409" stroke-linecap="round"/>
<path d="M200.087 37.1904L196.923 37.1904" stroke="black" stroke-width="1.53409" stroke-linecap="round"/>
<path d="M177.8 27.959L180.038 30.1963" stroke="black" stroke-width="1.53409" stroke-linecap="round"/>
<path d="M196.263 46.4217L194.026 44.1844" stroke="black" stroke-width="1.53409" stroke-linecap="round"/>
<path d="M190.448 40.7972L185.499 35.848" stroke="black" stroke-width="0.958807" stroke-linecap="round"/>
<circle cx="187.032" cy="37.1903" r="1.91761" fill="black"/>
<rect x="222" y="95" width="49" height="45" rx="3" fill="#E3E5E8"/>
<rect x="227" y="100" width="39" height="35" rx="4" fill="#33CC59"/>
<path d="M245.415 121.542V125H234.001V122.114C234.885 121.403 235.726 120.719 236.523 120.06C237.321 119.384 238.213 118.595 239.201 117.694C239.687 117.261 240.042 116.793 240.267 116.29C240.493 115.787 240.605 115.311 240.605 114.86C240.605 114.392 240.493 114.028 240.267 113.768C240.077 113.577 239.071 113.482 237.251 113.482L235.509 113.508C235.284 113.525 235.007 113.534 234.677 113.534C234.625 113.291 234.565 112.815 234.495 112.104C234.443 111.393 234.417 110.865 234.417 110.518C236.376 110.171 238.005 109.998 239.305 109.998C241.073 109.998 242.477 110.336 243.517 111.012C244.575 111.671 245.103 112.815 245.103 114.444C245.103 115.224 244.904 116.03 244.505 116.862C244.107 117.677 243.327 118.535 242.165 119.436C241.385 120.043 240.363 120.762 239.097 121.594L245.415 121.542ZM253.085 109.998C255.269 109.998 256.855 110.605 257.843 111.818C258.849 113.031 259.351 114.869 259.351 117.33C259.351 119.965 258.779 121.949 257.635 123.284C256.491 124.619 254.871 125.286 252.773 125.286C251.924 125.286 251.127 125.243 250.381 125.156C249.636 125.069 249.055 124.957 248.639 124.818L249.133 122.062C250.069 122.131 250.728 122.166 251.109 122.166C252.34 122.166 253.267 121.949 253.891 121.516C254.533 121.065 254.905 120.242 255.009 119.046C254.489 119.341 253.935 119.566 253.345 119.722C252.756 119.878 252.227 119.956 251.759 119.956C249.939 119.956 248.709 119.462 248.067 118.474C247.443 117.486 247.131 116.403 247.131 115.224C247.131 113.629 247.617 112.364 248.587 111.428C249.575 110.475 251.075 109.998 253.085 109.998ZM254.905 116.602C254.94 116.29 254.957 116.039 254.957 115.848C254.957 115.12 254.81 114.496 254.515 113.976C254.221 113.456 253.779 113.196 253.189 113.196C252.011 113.196 251.421 113.855 251.421 115.172C251.421 115.779 251.534 116.238 251.759 116.55C251.915 116.723 252.349 116.81 253.059 116.81C253.701 116.81 254.316 116.741 254.905 116.602Z" fill="#F9FAFB"/>
<rect x="222" y="95" width="49" height="45" rx="3" stroke="black" stroke-width="2"/>
<path d="M269.155 88.9289C269.231 88.0724 270.483 88.0724 270.558 88.9289L270.806 91.7211C270.979 93.6844 272.487 95.2671 274.44 95.5358L277.643 95.9767C278.454 96.0883 278.454 97.2608 277.643 97.3724L274.44 97.8133C272.487 98.0821 270.979 99.6647 270.806 101.628L270.558 104.42C270.483 105.277 269.231 105.277 269.155 104.42L268.908 101.628C268.734 99.6647 267.226 98.0821 265.274 97.8133L262.071 97.3724C261.259 97.2608 261.259 96.0883 262.071 95.9767L265.274 95.5358C267.226 95.2671 268.734 93.6844 268.908 91.7211L269.155 88.9289Z" fill="#B4BABF"/>
<path d="M128.436 86.414C128.664 86.7257 129.102 86.7931 129.414 86.5645L134.494 82.8389C134.806 82.6103 134.873 82.1722 134.645 81.8605C134.416 81.5487 133.978 81.4813 133.666 81.7099L129.151 85.0216L125.839 80.5057C125.61 80.1939 125.172 80.1265 124.86 80.3552C124.549 80.5838 124.481 81.0218 124.71 81.3336L128.436 86.414ZM159.159 46.7371C159.29 46.3734 159.101 45.9723 158.737 45.8414L152.81 43.7074C152.446 43.5765 152.045 43.7652 151.914 44.129C151.783 44.4927 151.972 44.8937 152.335 45.0247L157.604 46.9215L155.707 52.1905C155.576 52.5542 155.765 52.9553 156.129 53.0862C156.493 53.2172 156.894 53.0284 157.025 52.6647L159.159 46.7371ZM130.068 84.1609C130.154 83.784 129.919 83.4085 129.542 83.3222C129.165 83.2359 128.79 83.4714 128.703 83.8482L130.068 84.1609ZM130.545 77.9276C130.406 78.2886 130.587 78.6934 130.948 78.8318C131.309 78.9701 131.713 78.7896 131.852 78.4286L130.545 77.9276ZM133.423 74.7238C133.586 74.3731 133.434 73.9569 133.083 73.7942C132.732 73.6314 132.316 73.7837 132.153 74.1344L133.423 74.7238ZM135.007 68.6617C134.813 68.9961 134.927 69.4244 135.261 69.6184C135.596 69.8123 136.024 69.6984 136.218 69.3639L135.007 68.6617ZM138.342 65.9372C138.555 65.6147 138.466 65.1804 138.144 64.9672C137.822 64.754 137.387 64.8425 137.174 65.165L138.342 65.9372ZM140.807 60.1761C140.565 60.4778 140.613 60.9184 140.915 61.1601C141.217 61.4019 141.657 61.3533 141.899 61.0516L140.807 60.1761ZM144.517 57.9933C144.778 57.7081 144.759 57.2654 144.474 57.0043C144.189 56.7432 143.746 56.7627 143.485 57.0479L144.517 57.9933ZM147.899 52.7183C147.608 52.9731 147.579 53.4153 147.834 53.7061C148.089 53.997 148.531 54.0262 148.822 53.7715L147.899 52.7183ZM151.946 51.2532C152.257 51.0236 152.323 50.5853 152.094 50.2743C151.864 49.9632 151.426 49.8972 151.115 50.1269L151.946 51.2532ZM156.35 46.799C156.01 46.9819 155.882 47.4063 156.065 47.7469C156.248 48.0875 156.672 48.2153 157.013 48.0325L156.35 46.799ZM129.692 86.1064C129.786 85.4918 129.912 84.8418 130.068 84.1609L128.703 83.8482C128.54 84.5587 128.408 85.2421 128.308 85.8936L129.692 86.1064ZM131.852 78.4286C132.312 77.2287 132.836 75.9888 133.423 74.7238L132.153 74.1344C131.553 75.4273 131.016 76.6967 130.545 77.9276L131.852 78.4286ZM136.218 69.3639C136.881 68.2211 137.589 67.0756 138.342 65.9372L137.174 65.165C136.406 66.3267 135.683 67.4956 135.007 68.6617L136.218 69.3639ZM141.899 61.0516C142.734 60.0094 143.607 58.9872 144.517 57.9933L143.485 57.0479C142.553 58.0654 141.66 59.111 140.807 60.1761L141.899 61.0516ZM148.822 53.7715C149.83 52.8888 150.872 52.0466 151.946 51.2532L151.115 50.1269C150.007 50.9446 148.935 51.8113 147.899 52.7183L148.822 53.7715ZM157.013 48.0325C157.6 47.7171 158.195 47.4171 158.798 47.1334L158.202 45.8666C157.576 46.1611 156.959 46.4722 156.35 46.799L157.013 48.0325Z" fill="#B4BABF"/>
<path d="M242.064 86.414C241.836 86.7257 241.398 86.7931 241.086 86.5645L236.006 82.8389C235.694 82.6103 235.627 82.1722 235.855 81.8605C236.084 81.5487 236.522 81.4813 236.834 81.7099L241.349 85.0216L244.661 80.5057C244.89 80.1939 245.328 80.1265 245.64 80.3552C245.951 80.5838 246.019 81.0218 245.79 81.3336L242.064 86.414ZM211.341 46.7371C211.21 46.3734 211.399 45.9723 211.763 45.8414L217.69 43.7074C218.054 43.5765 218.455 43.7652 218.586 44.129C218.717 44.4927 218.528 44.8937 218.165 45.0247L212.896 46.9215L214.793 52.1905C214.924 52.5542 214.735 52.9553 214.371 53.0862C214.007 53.2172 213.606 53.0284 213.475 52.6647L211.341 46.7371ZM240.432 84.1609C240.346 83.784 240.581 83.4085 240.958 83.3222C241.335 83.2359 241.71 83.4714 241.797 83.8482L240.432 84.1609ZM239.955 77.9276C240.094 78.2886 239.913 78.6934 239.552 78.8318C239.191 78.9701 238.787 78.7896 238.648 78.4286L239.955 77.9276ZM237.077 74.7238C236.914 74.3731 237.066 73.9569 237.417 73.7942C237.768 73.6314 238.184 73.7837 238.347 74.1344L237.077 74.7238ZM235.493 68.6617C235.687 68.9961 235.573 69.4244 235.239 69.6184C234.904 69.8123 234.476 69.6984 234.282 69.3639L235.493 68.6617ZM232.158 65.9372C231.945 65.6147 232.034 65.1804 232.356 64.9672C232.678 64.754 233.113 64.8425 233.326 65.165L232.158 65.9372ZM229.693 60.1761C229.935 60.4778 229.887 60.9184 229.585 61.1601C229.283 61.4019 228.843 61.3533 228.601 61.0516L229.693 60.1761ZM225.983 57.9933C225.722 57.7081 225.741 57.2654 226.026 57.0043C226.311 56.7432 226.754 56.7627 227.015 57.0479L225.983 57.9933ZM222.601 52.7183C222.892 52.9731 222.921 53.4153 222.666 53.7061C222.411 53.997 221.969 54.0262 221.678 53.7715L222.601 52.7183ZM218.554 51.2532C218.243 51.0236 218.177 50.5853 218.406 50.2743C218.636 49.9632 219.074 49.8972 219.385 50.1269L218.554 51.2532ZM214.15 46.799C214.49 46.9819 214.618 47.4063 214.435 47.7469C214.252 48.0875 213.828 48.2153 213.487 48.0325L214.15 46.799ZM240.808 86.1064C240.714 85.4918 240.588 84.8418 240.432 84.1609L241.797 83.8482C241.96 84.5587 242.092 85.2421 242.192 85.8936L240.808 86.1064ZM238.648 78.4286C238.188 77.2287 237.664 75.9888 237.077 74.7238L238.347 74.1344C238.947 75.4273 239.484 76.6967 239.955 77.9276L238.648 78.4286ZM234.282 69.3639C233.619 68.2211 232.911 67.0756 232.158 65.9372L233.326 65.165C234.094 66.3267 234.817 67.4956 235.493 68.6617L234.282 69.3639ZM228.601 61.0516C227.766 60.0094 226.893 58.9872 225.983 57.9933L227.015 57.0479C227.947 58.0654 228.84 59.111 229.693 60.1761L228.601 61.0516ZM221.678 53.7715C220.67 52.8888 219.628 52.0466 218.554 51.2532L219.385 50.1269C220.493 50.9446 221.565 51.8113 222.601 52.7183L221.678 53.7715ZM213.487 48.0325C212.9 47.7171 212.305 47.4171 211.702 47.1334L212.298 45.8666C212.924 46.1611 213.541 46.4722 214.15 46.799L213.487 48.0325Z" fill="#B4BABF"/>
<defs>
<clipPath id="clip0_3228_72065">
<rect x="156.926" y="68.2558" width="60.2131" height="60.2131" rx="30.1065" fill="white"/>
</clipPath>
</defs>
</svg>
