<svg width="384" height="152" viewBox="0 0 384 152" fill="none" xmlns="http://www.w3.org/2000/svg">
<g clip-path="url(#clip0_4689_9882)">
<rect width="384" height="152" fill="#F9FAFB"/>
<circle opacity="0.04" cx="192" cy="76" r="108" fill="#0D0E0F"/>
<path d="M139 110V100" stroke="black" stroke-width="2" stroke-linecap="round"/>
<path d="M139 93V89" stroke="black" stroke-width="2" stroke-linecap="round"/>
<ellipse cx="192" cy="151.5" rx="102" ry="33.5" fill="#D9D9D9"/>
<g filter="url(#filter0_i_4689_9882)">
<path d="M158.066 135.899C155.382 136.209 153 134.131 153 131.429C153 129.199 154.647 127.308 156.861 127.041C167.816 125.721 179.652 125 192 125C203.966 125 215.451 125.677 226.119 126.92C228.342 127.179 230 129.075 230 131.313C230 134.009 227.628 136.087 224.95 135.786C214.613 134.628 203.53 134 192 134C180.103 134 168.682 134.669 158.066 135.899Z" fill="#757A80"/>
</g>
<path fill-rule="evenodd" clip-rule="evenodd" d="M155.486 135.442C156.254 135.83 157.142 136.006 158.065 135.899C168.681 134.669 180.102 134 191.999 134C203.529 134 214.613 134.628 224.949 135.786C225.869 135.889 226.752 135.712 227.516 135.326C227.086 135.118 226.617 134.978 226.119 134.92C215.45 133.677 203.966 133 191.999 133C179.651 133 167.815 133.721 156.861 135.041C156.371 135.1 155.909 135.238 155.486 135.442Z" fill="#181A1B"/>
<path d="M268 43V53" stroke="black" stroke-width="2" stroke-linecap="round"/>
<path d="M268 60V86" stroke="black" stroke-width="2" stroke-linecap="round"/>
<path d="M180 8V-2" stroke="black" stroke-width="2" stroke-linecap="round"/>
<path d="M180 19V13" stroke="black" stroke-width="2" stroke-linecap="round"/>
<mask id="mask0_4689_9882" style="mask-type:alpha" maskUnits="userSpaceOnUse" x="130" y="53" width="123" height="83">
<path d="M157.239 135.087C154.795 135.378 152.479 133.891 151.772 131.533L130.681 61.2298C129.798 58.2876 131.75 55.28 134.812 55.0307C150.23 53.7749 179.971 53.0911 192 53.0911C203.662 53.0911 232.961 53.7339 248.165 54.9174C251.235 55.1565 253.197 58.1687 252.312 61.1186L231.223 131.416C230.518 133.766 228.213 135.252 225.776 134.971C215.205 133.753 203.838 133.091 192 133.091C179.793 133.091 168.088 133.795 157.239 135.087Z" fill="#757A80"/>
</mask>
<g mask="url(#mask0_4689_9882)">
<g clip-path="url(#clip1_4689_9882)">
<path d="M217.381 135.942C223.256 129.218 226.566 120.25 225.919 110.639C224.622 91.4122 207.986 76.8751 188.76 78.1715C179.148 78.8184 170.707 83.3009 164.831 90.0272L217.381 135.944V135.942Z" fill="#33CC59"/>
<path d="M170.084 94.6097C170.084 94.6097 170.081 94.6124 170.079 94.615L164.828 90.0279C158.956 96.7516 155.646 105.717 156.293 115.331C157.589 134.557 174.226 149.094 193.452 147.798C203.066 147.151 211.505 142.666 217.381 135.942L170.084 94.6097Z" fill="#0095FF"/>
<path d="M219.894 111.036C218.823 95.1384 205.064 83.1162 189.166 84.1872C181.216 84.724 174.237 88.4308 169.379 93.9896C164.521 99.5511 161.783 106.965 162.32 114.915C163.391 130.813 177.149 142.835 193.047 141.764C200.998 141.227 207.976 137.521 212.835 131.962C217.693 126.4 220.431 118.987 219.894 111.036Z" fill="black"/>
<path d="M176.763 100.475V104.649H179.372V103.605H202.842V104.649H205.45V100.475H176.763Z" fill="white"/>
<path d="M181.197 110.766V115.2H183.803V114.559H198.67V115.2H201.277V110.766H198.67V111.429H183.803V110.766H181.197Z" fill="white"/>
<path d="M202.842 121.338H205.45V125.512H176.763V121.338H179.372V122.382H202.842V121.338Z" fill="white"/>
</g>
<rect x="155.865" y="77.7434" width="70.4823" height="70.4823" rx="35.2412" stroke="#031D30" stroke-width="0.6954"/>
</g>
<g clip-path="url(#clip2_4689_9882)">
<path d="M249.65 69.9941C254.515 64.4265 257.256 57.0009 256.72 49.0419C255.647 33.1216 241.871 21.0841 225.951 22.1576C217.992 22.6933 211.002 26.405 206.137 31.9747L249.65 69.9963V69.9941Z" fill="#33CC59"/>
<path d="M210.486 35.7692C210.486 35.7692 210.484 35.7714 210.481 35.7737L206.134 31.9753C201.271 37.5428 198.531 44.9662 199.066 52.9275C200.14 68.8478 213.915 80.8853 229.836 79.8118C237.797 79.2761 244.785 75.5622 249.65 69.9946L210.486 35.7692Z" fill="#0095FF"/>
<path d="M251.73 49.3714C250.844 36.2071 239.451 26.2521 226.286 27.139C219.703 27.5835 213.924 30.6528 209.902 35.2558C205.879 39.861 203.612 45.9997 204.056 52.583C204.943 65.7473 216.336 75.7022 229.5 74.8154C236.083 74.3709 241.862 71.3015 245.885 66.6985C249.908 62.0934 252.175 55.9546 251.73 49.3714Z" fill="black"/>
<path d="M216.017 40.6264V44.0825H218.177V43.218H237.611V44.0825H239.771V40.6264H216.017Z" fill="white"/>
<path d="M219.688 49.1477V52.8194H221.846V52.2882H234.157V52.8194H236.315V49.1477H234.157V49.6967H221.846V49.1477H219.688Z" fill="white"/>
<path d="M237.611 57.9018H239.771V61.358H216.017V57.9018H218.177V58.7664H237.611V57.9018Z" fill="white"/>
</g>
<rect x="198.712" y="21.8032" width="58.3628" height="58.3628" rx="29.1814" stroke="#031D30" stroke-width="0.575824"/>
<g clip-path="url(#clip3_4689_9882)">
<path d="M191.391 38.0203C195.751 33.0309 198.207 26.3762 197.727 19.2436C196.765 4.9763 184.42 -5.81132 170.152 -4.84928C163.02 -4.36925 156.756 -1.04294 152.396 3.94852L191.391 38.0223V38.0203Z" fill="#33CC59"/>
<path d="M156.293 7.34908C156.293 7.34908 156.291 7.35107 156.289 7.35306L152.393 3.94907C148.035 8.93854 145.579 15.5912 146.059 22.7258C147.021 36.9931 159.367 47.7807 173.634 46.8187C180.769 46.3387 187.031 43.0104 191.391 38.0209L156.293 7.34908Z" fill="#0095FF"/>
<path d="M193.256 19.5388C192.461 7.74138 182.251 -1.17992 170.454 -0.385185C164.554 0.0131758 159.375 2.76386 155.77 6.88889C152.165 11.0159 150.134 16.5173 150.532 22.417C151.327 34.2145 161.537 43.1358 173.334 42.341C179.234 41.9427 184.412 39.192 188.018 35.067C191.623 30.9399 193.654 25.4386 193.256 19.5388Z" fill="black"/>
<path d="M161.25 11.7019V14.7992H163.186V14.0244H180.602V14.7992H182.538V11.7019H161.25Z" fill="white"/>
<path d="M164.54 19.3385V22.6289H166.474V22.1529H177.507V22.6289H179.441V19.3385H177.507V19.8305H166.474V19.3385H164.54Z" fill="white"/>
<path d="M180.602 27.1836H182.538V30.2809H161.25V27.1836H163.186V27.9585H180.602V27.1836Z" fill="white"/>
</g>
<rect x="145.742" y="-5.16695" width="52.303" height="52.303" rx="26.1515" stroke="#031D30" stroke-width="0.516037"/>
<path d="M245.155 95.02C245.231 94.1635 246.483 94.1635 246.558 95.02L246.806 97.8121C246.979 99.7755 248.487 101.358 250.44 101.627L253.643 102.068C254.454 102.179 254.454 103.352 253.643 103.464L250.44 103.904C248.487 104.173 246.979 105.756 246.806 107.719L246.558 110.511C246.483 111.368 245.231 111.368 245.155 110.511L244.908 107.719C244.734 105.756 243.226 104.173 241.274 103.904L238.071 103.464C237.259 103.352 237.259 102.179 238.071 102.068L241.274 101.627C243.226 101.358 244.734 99.7755 244.908 97.8121L245.155 95.02Z" fill="#B4BABF"/>
<path d="M113.965 45.5435C114.009 45.0527 114.726 45.0527 114.769 45.5435L114.911 47.1435C115.011 48.2686 115.875 49.1755 116.993 49.3295L118.829 49.5821C119.294 49.6461 119.294 50.318 118.829 50.382L116.993 50.6346C115.875 50.7886 115.011 51.6955 114.911 52.8206L114.769 54.4206C114.726 54.9114 114.009 54.9114 113.965 54.4206L113.824 52.8206C113.724 51.6955 112.86 50.7886 111.741 50.6346L109.906 50.382C109.441 50.318 109.441 49.6461 109.906 49.5821L111.741 49.3295C112.86 49.1755 113.724 48.2686 113.824 47.1435L113.965 45.5435Z" fill="#B4BABF"/>
</g>
<defs>
<filter id="filter0_i_4689_9882" x="153" y="125" width="77" height="12.9294" filterUnits="userSpaceOnUse" color-interpolation-filters="sRGB">
<feFlood flood-opacity="0" result="BackgroundImageFix"/>
<feBlend mode="normal" in="SourceGraphic" in2="BackgroundImageFix" result="shape"/>
<feColorMatrix in="SourceAlpha" type="matrix" values="0 0 0 0 0 0 0 0 0 0 0 0 0 0 0 0 0 0 127 0" result="hardAlpha"/>
<feOffset dy="2"/>
<feGaussianBlur stdDeviation="2"/>
<feComposite in2="hardAlpha" operator="arithmetic" k2="-1" k3="1"/>
<feColorMatrix type="matrix" values="0 0 0 0 0 0 0 0 0 0 0 0 0 0 0 0 0 0 0.4 0"/>
<feBlend mode="normal" in2="shape" result="effect1_innerShadow_4689_9882"/>
</filter>
<clipPath id="clip0_4689_9882">
<rect width="384" height="152" fill="white"/>
</clipPath>
<clipPath id="clip1_4689_9882">
<rect x="156.213" y="78.0911" width="69.7869" height="69.7869" rx="34.8935" fill="white"/>
</clipPath>
<clipPath id="clip2_4689_9882">
<rect x="199" y="22.0911" width="57.7869" height="57.7869" rx="28.8935" fill="white"/>
</clipPath>
<clipPath id="clip3_4689_9882">
<rect x="146" y="-4.90894" width="51.7869" height="51.7869" rx="25.8935" fill="white"/>
</clipPath>
</defs>
</svg>
