<svg width="384" height="152" viewBox="0 0 384 152" fill="none" xmlns="http://www.w3.org/2000/svg">
<g clip-path="url(#clip0_3228_72038)">
<rect width="384" height="152" fill="#F9FAFB"/>
<circle opacity="0.04" cx="192" cy="76" r="84" fill="#0D0E0F"/>
<path d="M136.859 25.8746H242.531" stroke="#B4BABF" stroke-width="2.8179" stroke-linecap="round"/>
<path d="M240.417 23.7612L240.417 129.432" stroke="#B4BABF" stroke-width="2.8179" stroke-linecap="round"/>
<path d="M136.859 42.782H242.531" stroke="#B4BABF" stroke-width="2.8179" stroke-linecap="round"/>
<path d="M223.51 23.7612L223.51 129.432" stroke="#B4BABF" stroke-width="2.8179" stroke-linecap="round"/>
<path d="M136.859 59.6894H242.531" stroke="#B4BABF" stroke-width="2.8179" stroke-linecap="round"/>
<path d="M206.603 23.7612L206.603 129.432" stroke="#B4BABF" stroke-width="2.8179" stroke-linecap="round"/>
<path d="M136.859 76.5968H242.531" stroke="#B4BABF" stroke-width="2.8179" stroke-linecap="round"/>
<path d="M189.695 23.7612L189.695 129.432" stroke="#B4BABF" stroke-width="2.8179" stroke-linecap="round"/>
<path d="M136.859 93.5041H242.531" stroke="#B4BABF" stroke-width="2.8179" stroke-linecap="round"/>
<path d="M172.788 23.7612L172.788 129.432" stroke="#B4BABF" stroke-width="2.8179" stroke-linecap="round"/>
<path d="M136.859 110.412H242.531" stroke="#B4BABF" stroke-width="2.8179" stroke-linecap="round"/>
<path d="M155.88 23.7612L155.88 129.432" stroke="#B4BABF" stroke-width="2.8179" stroke-linecap="round"/>
<path d="M136.859 127.319H242.531" stroke="#B4BABF" stroke-width="2.8179" stroke-linecap="round"/>
<path d="M138.973 23.7612L138.973 129.432" stroke="#B4BABF" stroke-width="2.8179" stroke-linecap="round"/>
<path d="M232.193 42.0812C233.815 39.7611 236.467 38.379 239.298 38.379C242.129 38.379 244.781 39.7611 246.403 42.0812L263.347 66.3212C266.53 70.874 263.272 77.1251 257.718 77.1251H255.677V135.068C255.677 138.862 252.602 141.937 248.808 141.937H229.787C225.994 141.937 222.919 138.862 222.919 135.068V77.1251H220.878C215.323 77.1251 212.066 70.8741 215.249 66.3212L232.193 42.0812ZM232.193 42.0812L215.249 66.3212L232.193 42.0812Z" fill="#33CC59" stroke="#0D0E0F" stroke-width="2.46566"/>
<path d="M138.621 70.0804L148.835 51.764L168.561 35.0328L197.444 50.3551L226.68 24.994" stroke="#0D0E0F" stroke-width="2.8179" stroke-linecap="round"/>
<circle cx="226.504" cy="24.8179" r="3.87461" fill="#33CC59" stroke="#0D0E0F" stroke-width="2.11342"/>
<circle cx="197.973" cy="50.179" r="3.87461" fill="#33CC59" stroke="#0D0E0F" stroke-width="2.11342"/>
<circle cx="168.385" cy="35.385" r="3.87461" fill="#33CC59" stroke="#0D0E0F" stroke-width="2.11342"/>
<circle cx="148.66" cy="52.2924" r="3.87461" fill="#33CC59" stroke="#0D0E0F" stroke-width="2.11342"/>
<circle cx="138.797" cy="69.9042" r="3.87461" fill="#33CC59" stroke="#0D0E0F" stroke-width="2.11342"/>
<rect x="118.719" y="108.65" width="40.8595" height="8.45369" fill="#627EEA" stroke="#0D0E0F" stroke-width="2.11342" stroke-linejoin="round"/>
<rect x="124.355" y="117.104" width="40.8595" height="8.45369" fill="#627EEA" stroke="#0D0E0F" stroke-width="2.11342" stroke-linejoin="round"/>
<rect x="124.355" y="125.205" width="40.8595" height="8.45369" fill="#627EEA" stroke="#0D0E0F" stroke-width="2.11342" stroke-linejoin="round"/>
<rect x="120.481" y="133.307" width="40.8595" height="8.45369" fill="#627EEA" stroke="#0D0E0F" stroke-width="2.11342" stroke-linejoin="round"/>
<path d="M96 142.113H107.448M114.669 142.113H275.465" stroke="#0D0E0F" stroke-width="2.8179" stroke-linecap="round"/>
<g clip-path="url(#clip1_3228_72038)">
<path d="M176.839 140.352C187.733 140.352 196.564 131.52 196.564 120.626C196.564 109.732 187.733 100.901 176.839 100.901C165.945 100.901 157.113 109.732 157.113 120.626C157.113 131.52 165.945 140.352 176.839 140.352Z" fill="#627EEA"/>
<path d="M177.453 105.832V116.768L186.695 120.898L177.453 105.832Z" fill="white" fill-opacity="0.602"/>
<path d="M177.453 105.832L168.209 120.898L177.453 116.768V105.832Z" fill="white"/>
<path d="M177.453 127.984V135.414L186.701 122.619L177.453 127.984Z" fill="white" fill-opacity="0.602"/>
<path d="M177.453 135.414V127.983L168.209 122.619L177.453 135.414Z" fill="white"/>
<path d="M177.453 126.264L186.695 120.898L177.453 116.77V126.264Z" fill="white" fill-opacity="0.2"/>
<path d="M168.209 120.898L177.453 126.264V116.77L168.209 120.898Z" fill="white" fill-opacity="0.602"/>
</g>
<rect x="155.88" y="99.6683" width="41.9162" height="41.9162" rx="20.9581" stroke="#0D0E0F" stroke-width="2.46566"/>
<path d="M266.637 39.4393C266.713 38.5828 267.965 38.5828 268.041 39.4393L268.288 42.2315C268.462 44.1948 269.969 45.7775 271.922 46.0462L275.125 46.4871C275.936 46.5987 275.936 47.7712 275.125 47.8828L271.922 48.3237C269.969 48.5925 268.462 50.1751 268.288 52.1384L268.041 54.9306C267.965 55.7871 266.713 55.7871 266.637 54.9306L266.39 52.1384C266.216 50.1751 264.709 48.5925 262.756 48.3237L259.553 47.8828C258.742 47.7712 258.742 46.5987 259.553 46.4871L262.756 46.0462C264.709 45.7775 266.216 44.1948 266.39 42.2315L266.637 39.4393Z" fill="#B4BABF"/>
<path d="M116.637 98.9289C116.713 98.0724 117.965 98.0724 118.041 98.9289L118.288 101.721C118.462 103.684 119.969 105.267 121.922 105.536L125.125 105.977C125.936 106.088 125.936 107.261 125.125 107.372L121.922 107.813C119.969 108.082 118.462 109.665 118.288 111.628L118.041 114.42C117.965 115.277 116.713 115.277 116.637 114.42L116.39 111.628C116.216 109.665 114.709 108.082 112.756 107.813L109.553 107.372C108.742 107.261 108.742 106.088 109.553 105.977L112.756 105.536C114.709 105.267 116.216 103.684 116.39 101.721L116.637 98.9289Z" fill="#B4BABF"/>
<path d="M280.821 33.236C280.864 32.7452 281.581 32.7452 281.625 33.236L281.766 34.836C281.866 35.9611 282.73 36.868 283.849 37.022L285.684 37.2746C286.149 37.3386 286.149 38.0105 285.684 38.0745L283.849 38.3271C282.73 38.4811 281.866 39.388 281.766 40.5131L281.625 42.1131C281.581 42.6039 280.864 42.6039 280.821 42.1131L280.679 40.5131C280.579 39.388 279.716 38.4811 278.597 38.3271L276.761 38.0745C276.296 38.0105 276.296 37.3386 276.761 37.2746L278.597 37.022C279.716 36.868 280.579 35.9611 280.679 34.836L280.821 33.236Z" fill="#B4BABF"/>
</g>
<defs>
<clipPath id="clip0_3228_72038">
<rect width="384" height="152" fill="white"/>
</clipPath>
<clipPath id="clip1_3228_72038">
<rect x="157.113" y="100.901" width="39.4506" height="39.4506" rx="19.7253" fill="white"/>
</clipPath>
</defs>
</svg>
