<svg width="384" height="152" viewBox="0 0 384 152" fill="none" xmlns="http://www.w3.org/2000/svg">
<g clip-path="url(#clip0_3513_30643)">
<rect width="384" height="152" fill="#F9FAFB"/>
<circle opacity="0.04" cx="192" cy="76" r="84" fill="#0D0E0F"/>
<path d="M82.1549 48.7468C82.2307 47.8903 83.4826 47.8903 83.5584 48.7468L83.8055 51.5389C83.9793 53.5023 85.4869 55.0849 87.4396 55.3537L90.6427 55.7945C91.4539 55.9062 91.4539 57.0787 90.6427 57.1903L87.4396 57.6312C85.4869 57.8999 83.9793 59.4826 83.8055 61.4459L83.5584 64.2381C83.4826 65.0946 82.2307 65.0946 82.1549 64.2381L81.9078 61.4459C81.734 59.4826 80.2264 57.8999 78.2737 57.6312L75.0706 57.1903C74.2594 57.0787 74.2594 55.9062 75.0706 55.7945L78.2737 55.3537C80.2264 55.0849 81.734 53.5023 81.9078 51.5389L82.1549 48.7468Z" fill="#B4BABF"/>
<path d="M96.3382 42.5435C96.3817 42.0527 97.099 42.0527 97.1425 42.5435L97.2841 44.1435C97.3836 45.2686 98.2476 46.1755 99.3665 46.3295L101.202 46.5821C101.667 46.6461 101.667 47.318 101.202 47.382L99.3665 47.6346C98.2476 47.7886 97.3836 48.6955 97.2841 49.8206L97.1425 51.4206C97.099 51.9114 96.3817 51.9114 96.3382 51.4206L96.1966 49.8206C96.097 48.6955 95.2331 47.7886 94.1142 47.6346L92.2787 47.382C91.8138 47.318 91.8138 46.6461 92.2787 46.5821L94.1142 46.3295C95.2331 46.1755 96.097 45.2686 96.1966 44.1435L96.3382 42.5435Z" fill="#B4BABF"/>
<path d="M288.155 116.929C288.231 116.072 289.483 116.072 289.558 116.929L289.806 119.721C289.979 121.684 291.487 123.267 293.44 123.536L296.643 123.977C297.454 124.088 297.454 125.261 296.643 125.372L293.44 125.813C291.487 126.082 289.979 127.665 289.806 129.628L289.558 132.42C289.483 133.277 288.231 133.277 288.155 132.42L287.908 129.628C287.734 127.665 286.226 126.082 284.274 125.813L281.071 125.372C280.259 125.261 280.259 124.088 281.071 123.977L284.274 123.536C286.226 123.267 287.734 121.684 287.908 119.721L288.155 116.929Z" fill="#B4BABF"/>
<circle cx="192" cy="76" r="34.4467" fill="#0095FF" stroke="black" stroke-width="3.10653"/>
<circle cx="192.343" cy="76.3426" r="25.5426" fill="#B4BABF"/>
<path d="M192.342 101.885C206.449 101.885 217.884 90.4494 217.884 76.3426C217.884 70.6667 216.033 65.4232 212.901 61.183C208.661 58.0513 203.418 56.2 197.742 56.2C183.635 56.2 172.199 67.6358 172.199 81.7426C172.199 87.4185 174.051 92.662 177.182 96.9022C181.422 100.034 186.666 101.885 192.342 101.885Z" fill="white"/>
<path d="M192.343 99.8418L192.343 94.1465" stroke="black" stroke-width="2.76136" stroke-linecap="round"/>
<path d="M192.343 52.8434L192.343 58.5387" stroke="black" stroke-width="2.76136" stroke-linecap="round"/>
<path d="M192.343 68.4037L192.343 76.1701" stroke="black" stroke-width="2.76136" stroke-linecap="round"/>
<path d="M175.727 92.959L179.754 88.9319" stroke="black" stroke-width="2.76136" stroke-linecap="round"/>
<path d="M208.959 59.7262L204.932 63.7534" stroke="black" stroke-width="2.76136" stroke-linecap="round"/>
<path d="M168.845 76.3427L174.54 76.3427" stroke="black" stroke-width="2.76136" stroke-linecap="round"/>
<path d="M215.841 76.3427L210.146 76.3427" stroke="black" stroke-width="2.76136" stroke-linecap="round"/>
<path d="M175.727 59.7262L179.754 63.7534" stroke="black" stroke-width="2.76136" stroke-linecap="round"/>
<path d="M208.959 92.959L204.932 88.9319" stroke="black" stroke-width="2.76136" stroke-linecap="round"/>
<path d="M198.49 82.835L189.582 73.9264" stroke="black" stroke-width="1.72585" stroke-linecap="round"/>
<circle cx="192.344" cy="76.3425" r="3.4517" fill="black"/>
<circle cx="192.343" cy="76.3426" r="23.9893" stroke="black" stroke-width="3.10653"/>
<g clip-path="url(#clip1_3513_30643)">
<path d="M141.06 89.1584C144.428 85.3045 146.325 80.1645 145.954 74.6553C145.211 63.6353 135.676 55.303 124.656 56.0461C119.147 56.4168 114.308 58.9861 110.94 62.8415L141.06 89.1599V89.1584Z" fill="#33CC59"/>
<path d="M113.951 65.468C113.951 65.468 113.949 65.4695 113.947 65.471L110.938 62.8418C107.572 66.6956 105.675 71.8341 106.046 77.3449C106.789 88.3649 116.324 96.6972 127.344 95.9541C132.855 95.5833 137.692 93.0126 141.06 89.1587L113.951 65.468Z" fill="#0095FF"/>
<path d="M142.5 74.8833C141.886 65.771 134 58.8802 124.888 59.4941C120.331 59.8018 116.331 61.9264 113.546 65.1125C110.762 68.3002 109.192 72.5495 109.5 77.1064C110.114 86.2187 118 93.1095 127.112 92.4956C131.669 92.1879 135.669 90.0633 138.454 86.8772C141.239 83.6895 142.808 79.4402 142.5 74.8833Z" fill="black"/>
<path d="M117.778 68.8301V71.2224H119.274V70.6239H132.726V71.2224H134.221V68.8301H117.778Z" fill="white"/>
<path d="M120.32 74.7285V77.2701H121.814V76.9024H130.335V77.2701H131.829V74.7285H130.335V75.1085H121.814V74.7285H120.32Z" fill="white"/>
<path d="M132.726 80.7881H134.221V83.1804H117.778V80.7881H119.274V81.3865H132.726V80.7881Z" fill="white"/>
</g>
<rect x="105.327" y="55.3274" width="41.3451" height="41.3451" rx="20.6726" stroke="#031D30" stroke-width="1.34511"/>
<g clip-path="url(#clip2_3513_30643)">
<path d="M273.06 89.1584C276.428 85.3045 278.325 80.1645 277.954 74.6553C277.211 63.6353 267.676 55.303 256.656 56.0461C251.147 56.4168 246.308 58.9861 242.94 62.8415L273.06 89.1599V89.1584Z" fill="#33CC59"/>
<path d="M245.951 65.468C245.951 65.468 245.949 65.4695 245.947 65.471L242.938 62.8418C239.572 66.6956 237.675 71.8341 238.046 77.3449C238.789 88.3649 248.324 96.6972 259.344 95.9541C264.855 95.5833 269.692 93.0126 273.06 89.1587L245.951 65.468Z" fill="#0095FF"/>
<path d="M274.5 74.8833C273.886 65.771 266 58.8802 256.888 59.4941C252.331 59.8018 248.331 61.9264 245.546 65.1125C242.762 68.3002 241.192 72.5495 241.5 77.1064C242.114 86.2187 250 93.1095 259.112 92.4956C263.669 92.1879 267.669 90.0633 270.454 86.8772C273.239 83.6895 274.808 79.4402 274.5 74.8833Z" fill="white"/>
<path d="M249.778 68.8301V71.2224H251.274V70.6239H264.726V71.2224H266.221V68.8301H249.778Z" fill="#0D0E0F"/>
<path d="M252.32 74.7285V77.2701H253.814V76.9024H262.335V77.2701H263.829V74.7285H262.335V75.1085H253.814V74.7285H252.32Z" fill="#0D0E0F"/>
<path d="M264.726 80.7881H266.221V83.1804H249.778V80.7881H251.274V81.3865H264.726V80.7881Z" fill="#0D0E0F"/>
</g>
<rect x="237.327" y="55.3274" width="41.3451" height="41.3451" rx="20.6726" stroke="#031D30" stroke-width="1.34511"/>
<path d="M130.071 47.1307C129.867 47.6439 130.117 48.2253 130.631 48.4293C131.144 48.6333 131.725 48.3826 131.929 47.8693L130.071 47.1307ZM252.584 48.4092C253.086 48.6391 253.679 48.4185 253.909 47.9164L257.656 39.7336C257.886 39.2314 257.666 38.638 257.164 38.408C256.661 38.1781 256.068 38.3987 255.838 38.9008L252.507 46.1744L245.234 42.8435C244.731 42.6136 244.138 42.8342 243.908 43.3364C243.678 43.8385 243.899 44.432 244.401 44.6619L252.584 48.4092ZM131.929 47.8693C136.995 35.1237 156.231 9.5 192.5 9.5V7.5C155.169 7.5 135.338 33.8763 130.071 47.1307L131.929 47.8693ZM192.5 9.5C228.762 9.5 247.328 35.1136 252.063 47.8485L253.937 47.1515C249.005 33.8864 229.838 7.5 192.5 7.5V9.5Z" fill="#757A80"/>
<path d="M253.929 105.369C254.133 104.856 253.883 104.275 253.369 104.071C252.856 103.867 252.275 104.117 252.071 104.631L253.929 105.369ZM131.416 104.091C130.914 103.861 130.321 104.082 130.091 104.584L126.344 112.766C126.114 113.269 126.334 113.862 126.836 114.092C127.339 114.322 127.932 114.101 128.162 113.599L131.493 106.326L138.766 109.656C139.269 109.886 139.862 109.666 140.092 109.164C140.322 108.661 140.101 108.068 139.599 107.838L131.416 104.091ZM252.071 104.631C247.005 117.376 227.769 143 191.5 143V145C228.831 145 248.662 118.624 253.929 105.369L252.071 104.631ZM191.5 143C155.238 143 136.672 117.386 131.937 104.652L130.063 105.348C134.995 118.614 154.162 145 191.5 145V143Z" fill="#757A80"/>
</g>
<defs>
<clipPath id="clip0_3513_30643">
<rect width="384" height="152" fill="white"/>
</clipPath>
<clipPath id="clip1_3513_30643">
<rect x="106" y="56" width="40" height="40" rx="20" fill="white"/>
</clipPath>
<clipPath id="clip2_3513_30643">
<rect x="238" y="56" width="40" height="40" rx="20" fill="white"/>
</clipPath>
</defs>
</svg>
