<svg width="20" height="20" viewBox="0 0 20 20" fill="none" xmlns="http://www.w3.org/2000/svg">
<g id="lucide/notebook-pen" clip-path="url(#clip0_1122_6650)">
<path id="Vector" d="M11.166 1.66663H4.99935C4.55732 1.66663 4.1334 1.84222 3.82084 2.15478C3.50828 2.46734 3.33268 2.89127 3.33268 3.33329V16.6666C3.33268 17.1087 3.50828 17.5326 3.82084 17.8451C4.1334 18.1577 4.55732 18.3333 4.99935 18.3333H14.9993C15.4414 18.3333 15.8653 18.1577 16.1779 17.8451C16.4904 17.5326 16.666 17.1087 16.666 16.6666V10.5M1.66602 4.99996H4.99935M1.66602 8.33329H4.99935M1.66602 11.6666H4.99935M1.66602 15H4.99935M17.8143 4.68829C18.1463 4.35633 18.3328 3.90609 18.3328 3.43663C18.3328 2.96716 18.1463 2.51692 17.8143 2.18496C17.4824 1.853 17.0321 1.6665 16.5627 1.6665C16.0932 1.6665 15.643 1.853 15.311 2.18496L11.136 6.36163C10.9379 6.55965 10.7929 6.80441 10.7143 7.07329L10.0168 9.46496C9.99593 9.53667 9.99468 9.61268 10.0132 9.68504C10.0318 9.75739 10.0694 9.82344 10.1222 9.87626C10.175 9.92907 10.2411 9.96672 10.3134 9.98526C10.3858 10.0038 10.4618 10.0025 10.5335 9.98163L12.9252 9.28413C13.1941 9.20561 13.4388 9.06059 13.6368 8.86246L17.8143 4.68829Z" stroke="#E0F8F3" stroke-width="1.5" stroke-linecap="round" stroke-linejoin="round"/>
</g>
<defs>
<clipPath id="clip0_1122_6650">
<rect width="20" height="20" fill="white"/>
</clipPath>
</defs>
</svg>
