<svg width="40" height="40" viewBox="0 0 40 40" fill="none" xmlns="http://www.w3.org/2000/svg">
<g clip-path="url(#clip0_1212_22270)">
<path d="M19.8627 36.7255C29.1758 36.7255 36.7255 29.1758 36.7255 19.8627C36.7255 10.5497 29.1758 3 19.8627 3C10.5497 3 3 10.5497 3 19.8627C3 29.1758 10.5497 36.7255 19.8627 36.7255Z" fill="white"/>
<path fill-rule="evenodd" clip-rule="evenodd" d="M20 0C31.0457 0 40 8.95428 40 20C40 31.0457 31.0457 40 20 40C8.95428 40 0 31.0457 0 20C0 8.95428 8.95428 0 20 0ZM24.5698 5.91718C24.1188 5.7731 23.75 6.04078 23.75 6.51427V7.67875C23.75 7.99624 23.9893 8.35757 24.2874 8.46682C29.0744 10.2202 32.5 14.8214 32.5 20.2084C32.5 25.5953 29.0744 30.1965 24.2874 31.9499C23.9605 32.0696 23.75 32.3898 23.75 32.738V33.9024C23.75 34.3758 24.1188 34.6436 24.5698 34.4995C30.6194 32.5667 35 26.8991 35 20.2084C35 13.5176 30.6194 7.85004 24.5698 5.91718ZM16.25 6.51427C16.25 6.04078 15.8813 5.7731 15.4303 5.91718C9.38063 7.85004 5 13.5176 5 20.2084C5 26.8991 9.38063 32.5667 15.4303 34.4995C15.8813 34.6436 16.25 34.3758 16.25 33.9024V32.738C16.25 32.4205 16.0107 32.0591 15.7126 31.9499C10.9256 30.1965 7.5 25.5953 7.5 20.2084C7.5 14.8214 10.9256 10.2202 15.7126 8.46682C16.0107 8.35757 16.25 7.99624 16.25 7.67875V6.51427ZM20.625 10.2084H19.3751C19.0299 10.2084 18.75 10.4882 18.75 10.8333V12.7696C16.272 13.122 14.67 14.7711 14.67 16.8867C14.67 19.6251 16.3255 20.6877 19.8197 21.1579C22.1902 21.5462 22.8649 22.0567 22.8649 23.4058C22.8649 24.7544 21.72 25.6536 20.1061 25.6536C17.9238 25.6536 17.2057 24.6987 16.9409 23.4627C16.8781 23.17 16.6274 22.9559 16.3279 22.9559H14.9022C14.5431 22.9559 14.2623 23.2794 14.324 23.6332C14.6871 25.7136 16.0231 27.24 18.75 27.61V29.5834C18.75 29.9286 19.0299 30.2084 19.3751 30.2084H20.625C20.9702 30.2084 21.25 29.9286 21.25 29.5834V27.6089C23.8315 27.1989 25.4807 25.4019 25.4807 23.1809C25.4807 20.2587 23.7027 19.2776 20.2692 18.8078C17.7352 18.4398 17.2451 17.8471 17.2451 16.6617C17.2451 15.538 18.1031 14.7407 19.7586 14.7407C21.2559 14.7407 22.117 15.2633 22.4728 16.4683C22.5522 16.7373 22.7928 16.9274 23.0733 16.9274H24.3881C24.7547 16.9274 25.0401 16.5904 24.9618 16.2322C24.5456 14.3278 23.2621 13.1851 21.25 12.8246V10.8333C21.25 10.4882 20.9702 10.2084 20.625 10.2084Z" fill="#2775CA"/>
</g>
<defs>
<clipPath id="clip0_1212_22270">
<rect width="40" height="40" fill="white"/>
</clipPath>
</defs>
</svg>
