<svg width="360" height="308" viewBox="0 0 360 308" fill="none" xmlns="http://www.w3.org/2000/svg">
<g clip-path="url(#clip0_4705_11346)">
<rect width="360" height="308" fill="#F9FAFB"/>
<circle opacity="0.04" cx="180" cy="185.521" r="150.521" fill="#0D0E0F"/>
<path d="M86.2129 242.34V224.644" stroke="black" stroke-width="3.53915" stroke-linecap="round"/>
<path d="M86.2129 212.257V205.179" stroke="black" stroke-width="3.53915" stroke-linecap="round"/>
<ellipse cx="180" cy="315.778" rx="180.497" ry="59.2808" fill="#D9D9D9"/>
<g filter="url(#filter0_i_4705_11346)">
<path d="M119.95 288.17C115.201 288.72 110.986 285.042 110.986 280.261C110.986 276.315 113.9 272.968 117.819 272.495C137.204 270.159 158.148 268.884 179.999 268.884C201.174 268.884 221.498 270.081 240.376 272.282C244.31 272.74 247.243 276.095 247.243 280.056C247.243 284.826 243.047 288.502 238.306 287.971C220.015 285.922 200.403 284.81 179.999 284.81C158.947 284.81 138.736 285.994 119.95 288.17Z" fill="#757A80"/>
</g>
<path fill-rule="evenodd" clip-rule="evenodd" d="M115.386 287.363C116.744 288.048 118.315 288.359 119.949 288.17C138.735 285.994 158.946 284.81 179.998 284.81C200.402 284.81 220.014 285.922 238.305 287.971C239.933 288.154 241.496 287.84 242.847 287.157C242.088 286.789 241.256 286.541 240.375 286.438C221.497 284.238 201.173 283.041 179.998 283.041C158.147 283.041 137.203 284.316 117.818 286.652C116.951 286.757 116.133 287.002 115.386 287.363Z" fill="#181A1B"/>
<path d="M314.488 123.779V141.474" stroke="black" stroke-width="3.53915" stroke-linecap="round"/>
<path d="M314.488 153.861V199.87" stroke="black" stroke-width="3.53915" stroke-linecap="round"/>
<path d="M158.766 61.8434V44.1476" stroke="black" stroke-width="3.53915" stroke-linecap="round"/>
<path d="M158.766 81.3087V70.6913" stroke="black" stroke-width="3.53915" stroke-linecap="round"/>
<mask id="mask0_4705_11346" style="mask-type:alpha" maskUnits="userSpaceOnUse" x="71" y="141" width="217" height="146">
<path d="M118.487 286.733C114.163 287.248 110.064 284.616 108.813 280.445L71.4905 156.038C69.9285 150.831 73.3833 145.509 78.801 145.068C106.084 142.846 158.714 141.635 179.999 141.635C200.636 141.635 252.483 142.773 279.387 144.867C284.821 145.29 288.293 150.621 286.727 155.841L249.408 280.237C248.16 284.396 244.082 287.026 239.769 286.529C221.062 284.374 200.948 283.202 179.999 283.202C158.399 283.202 137.685 284.448 118.487 286.733Z" fill="#757A80"/>
</mask>
<g mask="url(#mask0_4705_11346)">
<g clip-path="url(#clip1_4705_11346)">
<path d="M224.912 288.246C235.31 276.348 241.166 260.479 240.021 243.47C237.727 209.448 208.288 183.723 174.266 186.017C157.257 187.162 142.319 195.094 131.922 206.997L224.912 288.251V288.246Z" fill="#33CC59"/>
<path d="M141.218 215.106C141.218 215.106 141.213 215.111 141.208 215.115L131.918 206.998C121.525 218.896 115.669 234.76 116.814 251.774C119.108 285.796 148.547 311.521 182.569 309.227C199.583 308.082 214.516 300.145 224.913 288.247L141.218 215.106Z" fill="#0095FF"/>
<path d="M229.36 244.174C227.465 216.041 203.118 194.767 174.985 196.662C160.916 197.612 148.567 204.172 139.97 214.009C131.373 223.85 126.528 236.969 127.478 251.038C129.373 279.17 153.72 300.444 181.853 298.549C195.922 297.599 208.271 291.04 216.868 281.203C225.465 271.362 230.31 258.243 229.36 244.174Z" fill="black"/>
<path d="M153.036 225.486V232.872H157.652V231.024H199.184V232.872H203.801V225.486H153.036Z" fill="white"/>
<path d="M160.882 243.696V251.543H165.494V250.408H191.803V251.543H196.415V243.696H191.803V244.869H165.494V243.696H160.882Z" fill="white"/>
<path d="M199.184 262.404H203.801V269.79H153.036V262.404H157.652V264.252H199.184V262.404Z" fill="white"/>
</g>
<rect x="116.057" y="185.26" width="124.724" height="124.724" rx="62.362" stroke="#031D30" stroke-width="1.23056"/>
</g>
<g clip-path="url(#clip2_4705_11346)">
<path d="M282.016 156.547C290.625 146.694 295.475 133.554 294.527 119.47C292.627 91.298 268.25 69.9967 240.078 71.8964C225.994 72.8442 213.625 79.4124 205.015 89.2685L282.016 156.551V156.547Z" fill="#33CC59"/>
<path d="M212.711 95.9831C212.711 95.9831 212.707 95.9871 212.703 95.991L205.01 89.2695C196.405 99.1217 191.555 112.258 192.503 126.346C194.403 154.518 218.78 175.819 246.952 173.92C261.04 172.972 273.405 166.4 282.015 156.548L212.711 95.9831Z" fill="#0095FF"/>
<path d="M285.697 120.053C284.128 96.7579 263.967 79.1419 240.672 80.7112C229.022 81.4978 218.797 86.9293 211.678 95.0746C204.559 103.224 200.547 114.087 201.334 125.736C202.903 149.032 223.064 166.648 246.359 165.078C258.009 164.292 268.235 158.86 275.353 150.715C282.472 142.566 286.484 131.703 285.697 120.053Z" fill="black"/>
<path d="M222.498 104.578V110.694H226.321V109.164H260.711V110.694H264.534V104.578H222.498Z" fill="white"/>
<path d="M228.995 119.657V126.155H232.814V125.215H254.599V126.155H258.418V119.657H254.599V120.629H232.814V119.657H228.995Z" fill="white"/>
<path d="M260.711 135.149H264.534V141.264H222.498V135.149H226.321V136.678H260.711V135.149Z" fill="white"/>
</g>
<rect x="191.877" y="71.2691" width="103.277" height="103.277" rx="51.6387" stroke="#031D30" stroke-width="1.01897"/>
<g clip-path="url(#clip3_4705_11346)">
<path d="M162.922 98.9667C170.637 90.1374 174.983 78.3616 174.134 65.7398C172.431 40.4927 150.585 21.4032 125.338 23.1056C112.717 23.955 101.631 29.8412 93.916 38.674L162.922 98.9702V98.9667Z" fill="#33CC59"/>
<path d="M100.813 44.6915C100.813 44.6915 100.81 44.695 100.806 44.6986L93.9122 38.6749C86.2003 47.5042 81.8544 59.2765 82.7038 71.9018C84.4062 97.1489 106.252 116.238 131.499 114.536C144.124 113.687 155.206 107.797 162.921 98.9676L100.813 44.6915Z" fill="#0095FF"/>
<path d="M166.222 66.2622C164.816 45.3857 146.748 29.5988 125.872 31.0051C115.432 31.7101 106.268 36.5776 99.8881 43.8772C93.5085 51.1802 89.9134 60.9153 90.6183 71.3553C92.0246 92.2319 110.092 108.019 130.969 106.612C141.409 105.908 150.573 101.04 156.952 93.7404C163.332 86.4373 166.927 76.7022 166.222 66.2622Z" fill="black"/>
<path d="M109.584 52.3942V57.8751H113.01V56.504H143.83V57.8751H147.256V52.3942H109.584Z" fill="white"/>
<path d="M115.407 65.9077V71.7304H118.83V70.888H138.353V71.7304H141.775V65.9077H138.353V66.7783H118.83V65.9077H115.407Z" fill="white"/>
<path d="M143.83 79.7903H147.256V85.2711H109.584V79.7903H113.01V81.1614H143.83V79.7903Z" fill="white"/>
</g>
<rect x="82.142" y="22.5434" width="92.5541" height="92.5541" rx="46.2771" stroke="#031D30" stroke-width="0.913167"/>
<path d="M274.062 215.832C274.196 214.316 276.411 214.316 276.545 215.832L276.983 220.773C277.29 224.247 279.958 227.048 283.413 227.523L289.082 228.303C290.517 228.501 290.517 230.576 289.082 230.773L283.413 231.554C279.958 232.029 277.29 234.83 276.983 238.304L276.545 243.245C276.411 244.761 274.196 244.761 274.062 243.245L273.625 238.304C273.317 234.83 270.649 232.029 267.194 231.554L261.526 230.773C260.09 230.576 260.09 228.501 261.526 228.303L267.194 227.523C270.649 227.048 273.317 224.247 273.625 220.773L274.062 215.832Z" fill="#B4BABF"/>
<path d="M72.3254 141.04C72.4023 140.172 73.6717 140.172 73.7486 141.04L73.9992 143.871C74.1754 145.862 75.7042 147.467 77.6842 147.74L80.9322 148.187C81.7548 148.3 81.7548 149.489 80.9322 149.602L77.6842 150.049C75.7042 150.322 74.1754 151.927 73.9992 153.917L73.7486 156.749C73.6717 157.617 72.4023 157.617 72.3254 156.749L72.0748 153.917C71.8986 151.927 70.3698 150.322 68.3898 150.049L65.1418 149.602C64.3192 149.489 64.3192 148.3 65.1418 148.187L68.3898 147.74C70.3698 147.467 71.8986 145.862 72.0748 143.871L72.3254 141.04Z" fill="#B4BABF"/>
</g>
<defs>
<filter id="filter0_i_4705_11346" x="110.986" y="268.884" width="136.257" height="22.8796" filterUnits="userSpaceOnUse" color-interpolation-filters="sRGB">
<feFlood flood-opacity="0" result="BackgroundImageFix"/>
<feBlend mode="normal" in="SourceGraphic" in2="BackgroundImageFix" result="shape"/>
<feColorMatrix in="SourceAlpha" type="matrix" values="0 0 0 0 0 0 0 0 0 0 0 0 0 0 0 0 0 0 127 0" result="hardAlpha"/>
<feOffset dy="3.53915"/>
<feGaussianBlur stdDeviation="3.53915"/>
<feComposite in2="hardAlpha" operator="arithmetic" k2="-1" k3="1"/>
<feColorMatrix type="matrix" values="0 0 0 0 0 0 0 0 0 0 0 0 0 0 0 0 0 0 0.4 0"/>
<feBlend mode="normal" in2="shape" result="effect1_innerShadow_4705_11346"/>
</filter>
<clipPath id="clip0_4705_11346">
<rect width="360" height="308" fill="white"/>
</clipPath>
<clipPath id="clip1_4705_11346">
<rect x="116.672" y="185.875" width="123.493" height="123.493" rx="61.7467" fill="white"/>
</clipPath>
<clipPath id="clip2_4705_11346">
<rect x="192.386" y="71.7786" width="102.258" height="102.258" rx="51.1292" fill="white"/>
</clipPath>
<clipPath id="clip3_4705_11346">
<rect x="82.5986" y="23" width="91.641" height="91.641" rx="45.8205" fill="white"/>
</clipPath>
</defs>
</svg>
