<svg width="59" height="24" viewBox="0 0 59 24" fill="none" xmlns="http://www.w3.org/2000/svg">
<g id="Group">
<g id="Group_2">
<path id="Vector" d="M10.7741 3.09491C11.4402 2.26178 11.8922 1.14313 11.773 0C10.7979 0.0484842 9.60807 0.643281 8.91919 1.47707C8.30065 2.19108 7.7532 3.35657 7.89592 4.45178C8.99047 4.54672 10.084 3.90467 10.7741 3.09491Z" fill="#EEF1F0"/>
<path id="Vector_2" d="M11.7611 4.66577C10.1716 4.57108 8.82005 5.56792 8.06095 5.56792C7.30144 5.56792 6.13902 4.71348 4.88176 4.73651C3.24536 4.76054 1.72697 5.68578 0.896572 7.15733C-0.811425 10.1012 0.445832 14.4679 2.10677 16.8655C2.91336 18.0516 3.88543 19.3577 5.16629 19.3108C6.37649 19.2633 6.85084 18.5272 8.32188 18.5272C9.79185 18.5272 10.2191 19.3108 11.5002 19.287C12.8287 19.2633 13.6592 18.1003 14.4658 16.913C15.3911 15.5608 15.7699 14.2552 15.7937 14.1835C15.7699 14.1598 13.232 13.1862 13.2085 10.2668C13.1845 7.82238 15.201 6.65967 15.2959 6.58757C14.1572 4.90338 12.378 4.71348 11.7611 4.66577Z" fill="#EEF1F0"/>
</g>
<g id="Group_3">
<path id="Vector_3" d="M27.1013 1.35767C30.5562 1.35767 32.962 3.73915 32.962 7.2064C32.962 10.686 30.5067 13.0799 27.0147 13.0799H23.1895V19.1631H20.4258V1.35767L27.1013 1.35767ZM23.1895 10.7601H26.3607C28.7669 10.7601 30.1364 9.46459 30.1364 7.21878C30.1364 4.9732 28.7669 3.68988 26.373 3.68988H23.1895V10.7601Z" fill="#EEF1F0"/>
<path id="Vector_4" d="M33.6836 15.4734C33.6836 13.2029 35.4234 11.8086 38.5084 11.6358L42.0618 11.4261V10.4268C42.0618 8.98303 41.087 8.11931 39.4585 8.11931C37.9158 8.11931 36.9533 8.8595 36.7191 10.0195H34.202C34.35 7.67495 36.3488 5.94751 39.5571 5.94751C42.7035 5.94751 44.7146 7.61331 44.7146 10.2168V19.1627H42.1604V17.0281H42.099C41.3464 18.4718 39.7051 19.3848 38.0024 19.3848C35.4605 19.3848 33.6836 17.8054 33.6836 15.4734ZM42.0618 14.3012V13.2771L38.8659 13.4744C37.2741 13.5856 36.3735 14.2889 36.3735 15.3994C36.3735 16.5345 37.3113 17.2749 38.7426 17.2749C40.6057 17.2749 42.0618 15.9916 42.0618 14.3012Z" fill="#EEF1F0"/>
<path id="Vector_5" d="M47.1271 23.9383V21.7788C47.3241 21.8281 47.7683 21.8281 47.9906 21.8281C49.2244 21.8281 49.8908 21.31 50.2978 19.9774C50.2978 19.9526 50.5324 19.1877 50.5324 19.1753L45.8438 6.18213H48.7307L52.0133 16.7446H52.0623L55.3449 6.18213H58.1581L53.2962 19.8415C52.1861 22.9881 50.9028 23.9999 48.2129 23.9999C47.9906 23.9999 47.3241 23.9751 47.1271 23.9383Z" fill="#EEF1F0"/>
</g>
</g>
</svg>
