<svg width="1050" height="201" viewBox="0 0 1050 201" fill="none" xmlns="http://www.w3.org/2000/svg">
<path d="M0 3.84302H166.316L166.317 27.858H151.198V21.854H15.121V27.858H0.0019989V21.854H0V3.84302Z" fill="white"/>
<path fill-rule="evenodd" clip-rule="evenodd" d="M923.51 3.63391V25.9139C935.31 9.67491 956.99 0.555908 976.91 0.555908C999.26 0.555908 1017.42 9.22591 1029.98 23.2699C1042.51 37.2919 1049.37 56.5759 1049.37 77.7219C1049.37 98.8719 1042.51 117.555 1030.03 130.969C1017.54 144.398 999.54 152.425 977.53 152.425C956.59 152.425 936.06 143.974 923.51 127.672V200.459H906V3.63391H923.51ZM936.68 35.7039C927.45 47.1419 922.58 62.8079 922.58 79.5679C922.58 95.7859 928.1 109.874 937.71 119.896C947.31 129.908 961.09 135.965 977.84 135.965C1010.14 135.965 1031.86 108.962 1031.86 78.0299C1031.86 46.0639 1010.98 17.0159 977.22 17.0159C959.48 17.0159 945.88 24.3069 936.68 35.7039Z" fill="white"/>
<path fill-rule="evenodd" clip-rule="evenodd" d="M708.561 147.933V4.40591H690.222V30.7899C682.958 20.7639 674.497 13.2439 664.841 8.23091C655.273 3.21891 644.554 0.711914 632.682 0.711914C612.128 0.711914 594.544 8.0559 579.926 22.7429C565.309 37.4299 558 55.1069 558 75.7739C558 96.8799 565.22 114.821 579.66 129.596C594.189 144.283 611.685 151.627 632.151 151.627C643.668 151.627 654.254 149.253 663.911 144.504C673.656 139.755 682.427 132.675 690.222 123.264V147.933H708.561ZM605.441 26.1719C614.21 21.0719 623.779 18.5209 634.144 18.5209C650.267 18.5209 663.822 24.1059 674.808 35.2749C685.882 46.4439 691.418 60.3389 691.418 76.9609C691.418 87.8659 688.937 97.6729 683.977 106.378C679.103 115.085 672.105 121.99 662.98 127.09C653.855 132.191 644.198 134.742 634.011 134.742C623.911 134.742 614.432 132.191 605.574 127.09C596.803 121.901 589.804 114.69 584.577 105.455C579.35 96.2209 576.736 86.5479 576.736 76.4329C576.736 66.2319 579.305 56.5579 584.444 47.4109C589.671 38.2649 596.67 31.1849 605.441 26.1719Z" fill="white"/>
<path fill-rule="evenodd" clip-rule="evenodd" d="M759.511 3.63391V25.9139C771.312 9.67491 792.987 0.555908 812.91 0.555908C835.26 0.555908 853.42 9.22591 865.98 23.2699C878.51 37.2919 885.37 56.5759 885.37 77.7219C885.37 98.8719 878.51 117.555 866.03 130.969C853.54 144.398 835.54 152.425 813.53 152.425C792.592 152.425 772.065 143.974 759.511 127.672V200.459H742V3.63391H759.511ZM772.683 35.7039C763.451 47.1419 758.581 62.8079 758.581 79.5679C758.581 95.7859 764.098 109.874 773.707 119.896C783.307 129.908 797.09 135.965 813.84 135.965C846.14 135.965 867.86 108.962 867.86 78.0299C867.86 46.0639 846.98 17.0159 813.22 17.0159C795.479 17.0159 781.882 24.3069 772.683 35.7039Z" fill="white"/>
<path fill-rule="evenodd" clip-rule="evenodd" d="M472.139 147.933V4.40591H453.8V30.7899C446.535 20.7639 438.074 13.2439 428.419 8.23091C418.851 3.21891 408.132 0.711914 396.26 0.711914C375.706 0.711914 358.122 8.0559 343.504 22.7429C328.887 37.4299 321.578 55.1069 321.578 75.7739C321.578 96.8799 328.797 114.821 343.238 129.596C357.767 144.283 375.263 151.627 395.729 151.627C407.245 151.627 417.832 149.253 427.489 144.504C437.234 139.755 446.005 132.675 453.8 123.264V147.933H472.139ZM369.019 26.1719C377.788 21.0719 387.357 18.5209 397.722 18.5209C413.845 18.5209 427.4 24.1059 438.386 35.2749C449.459 46.4439 454.996 60.3389 454.996 76.9609C454.996 87.8659 452.515 97.6729 447.554 106.378C442.681 115.085 435.682 121.99 426.558 127.09C417.433 132.191 407.776 134.742 397.589 134.742C387.489 134.742 378.01 132.191 369.152 127.09C360.381 121.901 353.382 114.69 348.155 105.455C342.928 96.2209 340.314 86.5479 340.314 76.4329C340.314 66.2319 342.883 56.5579 348.022 47.4109C353.249 38.2649 360.248 31.1849 369.019 26.1719Z" fill="white"/>
<path d="M214.062 4.40601H191.736L241.304 72.608L186.555 147.933H208.746L252.334 87.646L296.585 147.933H319.176L263.495 72.608L312.93 4.40601H290.605L252.334 57.569L214.062 4.40601Z" fill="white"/>
<path d="M40.8251 66.883V63.071H25.7051V88.587H40.8251V84.894H127.007V88.587H142.126V63.071H127.007V66.883H40.8251Z" fill="white"/>
<path d="M15.121 123.918V129.922H151.198V123.918H166.317V147.934H0.00195312V123.918H15.121Z" fill="white"/>
</svg>
