<svg width="129" height="37" viewBox="0 0 129 37" fill="none" xmlns="http://www.w3.org/2000/svg">
<path d="M1.27832 9.7168H22.16Z" fill="white"/>
<path d="M1.27832 9.7168H22.16" stroke="white" stroke-width="2.55694" stroke-linecap="square"/>
<path d="M4.90088 18.666H18.6444Z" fill="white"/>
<path d="M4.90088 18.666H18.6444" stroke="white" stroke-width="2.55694" stroke-linecap="square"/>
<path d="M1.27856 27.6152H22.1602Z" fill="white"/>
<path d="M1.27856 27.6152H22.1602" stroke="white" stroke-width="2.55694" stroke-linecap="square"/>
<path d="M27.0207 8.51818H30.1671L35.5607 16.0654L40.9541 8.51818H44.1005L37.1336 18.2003L44.9807 28.8938H41.7969L35.5607 20.3353L29.4179 28.8938H26.2905L34.0063 18.2003L27.0207 8.51818ZM66.5376 8.51818V28.8938H63.9532V25.3916C62.8545 26.7276 61.6185 27.7327 60.2452 28.4069C58.8842 29.0811 57.3923 29.4182 55.7692 29.4182C52.885 29.4182 50.4193 28.3756 48.3718 26.2906C46.3367 24.1931 45.3193 21.6461 45.3193 18.6498C45.3193 15.7158 46.3493 13.2063 48.4093 11.1213C50.4694 9.0363 52.9475 7.99381 55.844 7.99381C57.5171 7.99381 59.0279 8.34963 60.3762 9.06127C61.7369 9.77293 62.9293 10.8404 63.9532 12.2637V8.51818H66.5376ZM56.0501 10.522C54.5894 10.522 53.2409 10.8841 52.005 11.6082C50.7689 12.3199 49.7826 13.3249 49.046 14.6234C48.3217 15.9218 47.9597 17.2952 47.9597 18.7434C47.9597 20.1793 48.3281 21.5526 49.0647 22.8635C49.8014 24.1745 50.7877 25.1982 52.0238 25.9348C53.2722 26.659 54.608 27.021 56.0313 27.021C57.4671 27.021 58.828 26.659 60.1139 25.9348C61.3998 25.2107 62.3862 24.2306 63.0729 22.9945C63.772 21.7586 64.1217 20.3664 64.1217 18.8183C64.1217 16.4587 63.3414 14.486 61.7808 12.9004C60.2326 11.3148 58.3223 10.522 56.0501 10.522ZM90.6977 12.7506L88.6189 14.0428C86.8209 11.6582 84.3677 10.4658 81.2589 10.4658C78.7744 10.4658 76.708 11.2649 75.0601 12.863C73.4245 14.4611 72.6067 16.4025 72.6067 18.6872C72.6067 20.1729 72.9813 21.5713 73.7305 22.8822C74.492 24.1931 75.5282 25.2107 76.8393 25.9348C78.1627 26.659 79.6421 27.021 81.2777 27.021C84.274 27.021 86.7212 25.8286 88.6189 23.4441L90.6977 24.8112C89.7237 26.2718 88.4128 27.408 86.7649 28.2196C85.1293 29.0186 83.2627 29.4182 81.1652 29.4182C77.9441 29.4182 75.2723 28.3943 73.1498 26.3469C71.0273 24.2994 69.9662 21.8085 69.9662 18.8745C69.9662 16.9019 70.4593 15.0728 71.4456 13.3874C72.4445 11.6894 73.8116 10.366 75.5469 9.41711C77.2825 8.46823 79.2238 7.99381 81.3712 7.99381C82.7196 7.99381 84.0181 8.19982 85.2665 8.61182C86.5275 9.02381 87.595 9.56068 88.4691 10.2224C89.3429 10.8841 90.0859 11.7268 90.6977 12.7506ZM96.5047 0.95224H99.1451V8.51818H103.303V10.7655H99.1451V28.8938H96.5047V10.7655H92.9277V8.51818H96.5047V0.95224ZM105.289 0.652588H107.911V28.8938H105.289V0.652588ZM109.636 8.51818H112.407L119.411 24.2118L126.209 8.51818H129L116.846 36.3472H114.074L118.007 27.3581L109.636 8.51818Z" fill="white"/>
<line x1="1.06539" y1="9.29053" x2="1.06539" y2="11.8475" stroke="white" stroke-width="2.13078"/>
<path d="M4.68774 16.8464L4.68774 20.4688" stroke="white" stroke-width="2.13078"/>
<path d="M18.9641 16.8464L18.9641 20.4688" stroke="white" stroke-width="2.13078"/>
<line x1="1.06539" y1="25.4846" x2="1.06539" y2="28.0416" stroke="white" stroke-width="2.13078"/>
<line x1="22.3733" y1="25.4846" x2="22.3733" y2="28.0416" stroke="white" stroke-width="2.13078"/>
<line x1="22.3733" y1="9.29053" x2="22.3733" y2="11.8475" stroke="white" stroke-width="2.13078"/>
</svg>
