<svg width="368" height="234" viewBox="0 0 368 234" fill="none" xmlns="http://www.w3.org/2000/svg">
<g clip-path="url(#clip0_1001_5429)">
<rect y="0.951904" width="368" height="232.096" rx="15.9722" fill="#1A191B"/>
<path fill-rule="evenodd" clip-rule="evenodd" d="M73.3793 38.4468V20.2184H71.0502V23.5692C70.1275 22.2959 69.053 21.3409 67.8267 20.7042C66.6116 20.0676 65.2501 19.7493 63.7424 19.7493C61.132 19.7493 58.8988 20.6819 57.0423 22.5472C55.1858 24.4125 54.2575 26.6575 54.2575 29.2823C54.2575 31.9629 55.1745 34.2415 57.0085 36.118C58.8536 37.9832 61.0757 38.9159 63.675 38.9159C65.1376 38.9159 66.4822 38.6144 67.7086 38.0112C68.9462 37.4081 70.0601 36.5089 71.0502 35.3137V38.4468H73.3793ZM60.2827 22.9828C61.3964 22.335 62.6117 22.0111 63.9281 22.0111C65.9758 22.0111 67.6973 22.7203 69.0925 24.1388C70.4989 25.5573 71.2021 27.3221 71.2021 29.4331C71.2021 30.818 70.887 32.0636 70.257 33.1692C69.6381 34.275 68.7492 35.1519 67.5903 35.7996C66.4315 36.4475 65.205 36.7714 63.9112 36.7714C62.6284 36.7714 61.4246 36.4475 60.2996 35.7996C59.1856 35.1406 58.2968 34.2249 57.6329 33.052C56.9691 31.8792 56.6371 30.6507 56.6371 29.3661C56.6371 28.0704 56.9633 26.8418 57.616 25.6802C58.2799 24.5186 59.1687 23.6195 60.2827 22.9828Z" fill="white"/>
<path d="M40.6025 20.2184H37.7671L44.0624 28.8802L37.1091 38.4468H39.9274L45.4632 30.7902L51.0832 38.4468H53.9524L46.8808 28.8802L53.1592 20.2184H50.3237L45.4632 26.9703L40.6025 20.2184Z" fill="white"/>
<path d="M34.5386 20.1469H13.416V22.4344L13.4162 23.1969H15.3365V22.4344H32.6186V23.1969H34.5388V20.9094L34.5386 20.1469Z" fill="white"/>
<path d="M18.6009 28.1531V27.6691L16.6806 27.6691L16.6806 30.9097H18.6009V30.4406H29.5463V30.9097H31.4665L31.4665 27.6691L29.5463 27.6691V28.1531H18.6009Z" fill="white"/>
<path d="M15.3365 36.1594V35.3968H13.4162L13.4162 38.4468H34.5388L34.5388 35.3968H32.6186V36.1594H15.3365Z" fill="white"/>
<path d="M14.5698 216.166C14.5698 215.808 14.6503 215.49 14.8113 215.213C14.9813 214.927 15.2049 214.703 15.4822 214.542C15.7595 214.372 16.068 214.287 16.4079 214.287C16.7568 214.287 17.0743 214.372 17.3605 214.542C17.6467 214.703 17.8703 214.927 18.0313 215.213C18.2013 215.49 18.2863 215.808 18.2863 216.166C18.2863 216.497 18.2013 216.801 18.0313 217.078C17.8703 217.355 17.6467 217.579 17.3605 217.749C17.0743 217.91 16.7568 217.99 16.4079 217.99C16.068 217.99 15.7595 217.91 15.4822 217.749C15.2049 217.579 14.9813 217.355 14.8113 217.078C14.6503 216.801 14.5698 216.497 14.5698 216.166ZM23.8069 216.166C23.8069 215.808 23.8874 215.49 24.0484 215.213C24.2184 214.927 24.442 214.703 24.7192 214.542C24.9965 214.372 25.3051 214.287 25.645 214.287C25.9938 214.287 26.3114 214.372 26.5976 214.542C26.8838 214.703 27.1074 214.927 27.2684 215.213C27.4384 215.49 27.5233 215.808 27.5233 216.166C27.5233 216.497 27.4384 216.801 27.2684 217.078C27.1074 217.355 26.8838 217.579 26.5976 217.749C26.3114 217.91 25.9938 217.99 25.645 217.99C25.3051 217.99 24.9965 217.91 24.7192 217.749C24.442 217.579 24.2184 217.355 24.0484 217.078C23.8874 216.801 23.8069 216.497 23.8069 216.166ZM33.044 216.166C33.044 215.808 33.1245 215.49 33.2855 215.213C33.4554 214.927 33.679 214.703 33.9563 214.542C34.2336 214.372 34.5422 214.287 34.8821 214.287C35.2309 214.287 35.5484 214.372 35.8346 214.542C36.1209 214.703 36.3445 214.927 36.5055 215.213C36.6754 215.49 36.7604 215.808 36.7604 216.166C36.7604 216.497 36.6754 216.801 36.5055 217.078C36.3445 217.355 36.1209 217.579 35.8346 217.749C35.5484 217.91 35.2309 217.99 34.8821 217.99C34.5422 217.99 34.2336 217.91 33.9563 217.749C33.679 217.579 33.4554 217.355 33.2855 217.078C33.1245 216.801 33.044 216.497 33.044 216.166ZM42.281 216.166C42.281 215.808 42.3615 215.49 42.5225 215.213C42.6925 214.927 42.9161 214.703 43.1934 214.542C43.4706 214.372 43.7792 214.287 44.1191 214.287C44.468 214.287 44.7855 214.372 45.0717 214.542C45.3579 214.703 45.5815 214.927 45.7425 215.213C45.9125 215.49 45.9975 215.808 45.9975 216.166C45.9975 216.497 45.9125 216.801 45.7425 217.078C45.5815 217.355 45.3579 217.579 45.0717 217.749C44.7855 217.91 44.468 217.99 44.1191 217.99C43.7792 217.99 43.4706 217.91 43.1934 217.749C42.9161 217.579 42.6925 217.355 42.5225 217.078C42.3615 216.801 42.281 216.497 42.281 216.166ZM54.6442 220.003C53.7855 220.003 53.0923 219.793 52.5646 219.372C52.0458 218.952 51.6657 218.366 51.4242 217.615C51.1827 216.854 51.0619 215.973 51.0619 214.972C51.0619 213.764 51.2095 212.794 51.5047 212.06C51.8088 211.327 52.2292 210.795 52.7658 210.464C53.3025 210.124 53.9286 209.954 54.6442 209.954C55.5028 209.954 56.196 210.164 56.7238 210.584C57.2515 211.005 57.6316 211.591 57.8642 212.342C58.1057 213.093 58.2264 213.97 58.2264 214.972C58.2264 216.179 58.0744 217.154 57.7703 217.896C57.4751 218.63 57.0592 219.167 56.5225 219.506C55.9858 219.837 55.3597 220.003 54.6442 220.003ZM54.6442 218.782C55.1898 218.782 55.6191 218.625 55.9322 218.312C56.2452 217.99 56.4689 217.543 56.603 216.971C56.7461 216.398 56.8177 215.732 56.8177 214.972C56.8177 214.006 56.7238 213.25 56.5359 212.704C56.357 212.15 56.1021 211.756 55.7712 211.523C55.4492 211.291 55.0735 211.175 54.6442 211.175C54.1075 211.175 53.6782 211.336 53.3562 211.658C53.0431 211.971 52.815 212.413 52.6719 212.986C52.5378 213.549 52.4707 214.211 52.4707 214.972C52.4707 215.938 52.5601 216.698 52.739 217.252C52.9268 217.807 53.1862 218.201 53.5172 218.433C53.8481 218.666 54.2238 218.782 54.6442 218.782ZM66.5438 220.003C65.2469 220.003 64.2898 219.569 63.6727 218.701C63.0644 217.825 62.7648 216.564 62.7737 214.918C62.7827 213.979 62.9213 213.138 63.1897 212.396C63.458 211.644 63.8739 211.049 64.4374 210.611C65.0009 210.173 65.7299 209.954 66.6243 209.954C67.5724 209.954 68.3417 210.2 68.932 210.692C69.5223 211.175 69.8712 211.837 69.9785 212.677L68.6637 212.852C68.61 212.342 68.4177 211.935 68.0867 211.631C67.7647 211.318 67.2907 211.161 66.6646 211.161C65.7433 211.161 65.0814 211.492 64.6789 212.154C64.2853 212.807 64.102 213.777 64.1288 215.065C64.3972 214.609 64.7594 214.265 65.2156 214.032C65.6807 213.791 66.195 213.67 66.7585 213.67C67.3488 213.67 67.8855 213.8 68.3685 214.059C68.8604 214.31 69.2495 214.667 69.5357 215.133C69.8309 215.589 69.9785 216.13 69.9785 216.756C69.9785 217.391 69.8354 217.955 69.5492 218.446C69.2629 218.929 68.8604 219.31 68.3417 219.587C67.8318 219.864 67.2325 220.003 66.5438 220.003ZM66.517 218.795C67.1342 218.795 67.6306 218.612 68.0062 218.245C68.3819 217.879 68.5697 217.396 68.5697 216.796C68.5697 216.161 68.3819 215.669 68.0062 215.32C67.6306 214.972 67.1342 214.797 66.517 214.797C65.9088 214.797 65.4123 214.981 65.0277 215.347C64.6521 215.714 64.4642 216.197 64.4642 216.796C64.4642 217.431 64.6521 217.923 65.0277 218.272C65.4034 218.621 65.8998 218.795 66.517 218.795ZM74.4101 219.869C74.4101 219.332 74.4682 218.862 74.5845 218.46C74.7097 218.057 74.8975 217.695 75.148 217.373C75.4074 217.051 75.7294 216.734 76.114 216.421C76.4986 216.108 76.9548 215.768 77.4825 215.401C78.037 215.016 78.4619 214.681 78.7571 214.395C79.0522 214.108 79.2535 213.84 79.3608 213.59C79.4682 213.339 79.5218 213.084 79.5218 212.825C79.5218 212.297 79.3653 211.89 79.0522 211.604C78.7481 211.318 78.3277 211.175 77.7911 211.175C77.1381 211.175 76.6462 211.349 76.3152 211.698C75.9932 212.047 75.8233 212.507 75.8054 213.08L74.4772 212.986C74.5219 212.065 74.8439 211.331 75.4432 210.786C76.0514 210.24 76.8564 209.967 77.8582 209.967C78.4664 209.967 78.9986 210.083 79.4547 210.316C79.9199 210.54 80.2821 210.862 80.5415 211.282C80.8009 211.693 80.9306 212.176 80.9306 212.731C80.9306 213.223 80.8322 213.666 80.6354 214.059C80.4386 214.444 80.1435 214.82 79.7499 215.186C79.3653 215.544 78.8778 215.929 78.2875 216.34C77.9208 216.591 77.5675 216.845 77.2276 217.105C76.8966 217.355 76.6238 217.61 76.4092 217.87C76.2034 218.12 76.1006 218.384 76.1006 218.661H81.1184V219.869H74.4101ZM89.4334 220.003C88.1364 220.003 87.1794 219.569 86.5622 218.701C85.954 217.825 85.6544 216.564 85.6633 214.918C85.6723 213.979 85.8109 213.138 86.0792 212.396C86.3476 211.644 86.7635 211.049 87.327 210.611C87.8905 210.173 88.6194 209.954 89.5139 209.954C90.462 209.954 91.2312 210.2 91.8216 210.692C92.4119 211.175 92.7607 211.837 92.8681 212.677L91.5532 212.852C91.4996 212.342 91.3073 211.935 90.9763 211.631C90.6543 211.318 90.1803 211.161 89.5541 211.161C88.6329 211.161 87.971 211.492 87.5685 212.154C87.1749 212.807 86.9916 213.777 87.0184 215.065C87.2867 214.609 87.649 214.265 88.1051 214.032C88.5703 213.791 89.0846 213.67 89.6481 213.67C90.2384 213.67 90.7751 213.8 91.2581 214.059C91.75 214.31 92.1391 214.667 92.4253 215.133C92.7205 215.589 92.8681 216.13 92.8681 216.756C92.8681 217.391 92.7249 217.955 92.4387 218.446C92.1525 218.929 91.75 219.31 91.2312 219.587C90.7214 219.864 90.1221 220.003 89.4334 220.003ZM89.4066 218.795C90.0237 218.795 90.5201 218.612 90.8958 218.245C91.2715 217.879 91.4593 217.396 91.4593 216.796C91.4593 216.161 91.2715 215.669 90.8958 215.32C90.5201 214.972 90.0237 214.797 89.4066 214.797C88.7983 214.797 88.3019 214.981 87.9173 215.347C87.5416 215.714 87.3538 216.197 87.3538 216.796C87.3538 217.431 87.5416 217.923 87.9173 218.272C88.293 218.621 88.7894 218.795 89.4066 218.795Z" fill="white"/>
<g clip-path="url(#clip1_1001_5429)">
<path d="M304.611 179.429L294.063 204.608H287.177L281.979 184.522C281.662 183.287 281.391 182.835 280.427 182.307C278.86 181.464 276.283 180.665 274.008 180.168L274.158 179.429H285.249C286.665 179.429 287.931 180.364 288.247 181.991L290.99 196.562L297.77 179.429H304.611ZM331.583 196.381C331.613 189.736 322.392 189.374 322.452 186.406C322.467 185.502 323.326 184.537 325.209 184.296C326.144 184.176 328.72 184.085 331.628 185.426L332.774 180.092C331.206 179.52 329.187 178.977 326.686 178.977C320.252 178.977 315.716 182.398 315.686 187.295C315.641 190.911 318.926 192.945 321.397 194.151C323.929 195.386 324.787 196.17 324.772 197.285C324.757 198.973 322.753 199.726 320.87 199.741C317.6 199.801 315.686 198.852 314.179 198.159L313.004 203.674C314.526 204.367 317.329 204.985 320.252 205.015C327.093 205.015 331.568 201.64 331.598 196.396M348.595 204.623H354.622L349.364 179.429H343.803C342.553 179.429 341.498 180.153 341.031 181.283L331.267 204.608H338.108L339.464 200.856H347.812L348.595 204.608V204.623ZM341.332 195.703L344.768 186.24L346.742 195.703H341.347H341.332ZM313.923 179.429L308.544 204.608H302.035L307.399 179.429H313.908H313.923Z" fill="white"/>
<path d="M259.709 219.541V211.524H262.361C263.22 211.524 263.898 211.735 264.41 212.142C264.923 212.549 265.164 213.167 265.164 213.981C265.164 214.794 264.907 215.427 264.41 215.834C263.898 216.241 263.22 216.437 262.361 216.437H260.749V219.541H259.709ZM262.21 212.353H260.749V215.638H262.21C262.813 215.638 263.28 215.517 263.597 215.261C263.913 215.005 264.079 214.583 264.079 213.996C264.079 213.408 263.913 212.986 263.597 212.73C263.28 212.474 262.813 212.353 262.21 212.353Z" fill="white"/>
<path d="M267.499 211.208V219.541H266.564V211.208H267.499Z" fill="white"/>
<path d="M269.277 214.9L269.383 213.98C269.609 213.83 269.895 213.694 270.227 213.589C270.558 213.483 270.935 213.438 271.327 213.438C272.095 213.438 272.668 213.589 273.029 213.89C273.406 214.191 273.587 214.689 273.587 215.382V219.541H272.683V218.395H272.638C272.487 218.832 272.246 219.164 271.914 219.375C271.598 219.586 271.191 219.691 270.694 219.691C270.362 219.691 270.061 219.631 269.775 219.51C269.503 219.39 269.277 219.194 269.112 218.953C268.946 218.697 268.855 218.38 268.855 218.004C268.855 217.627 268.931 217.311 269.097 217.069C269.262 216.828 269.488 216.648 269.775 216.527C270.061 216.406 270.423 216.301 270.829 216.226C271.327 216.135 271.718 216.06 272.02 216C272.306 215.924 272.517 215.834 272.653 215.713V215.442C272.653 215.005 272.547 214.689 272.351 214.493C272.155 214.297 271.779 214.191 271.221 214.191C270.875 214.191 270.528 214.252 270.181 214.372C269.835 214.493 269.534 214.674 269.262 214.915H269.247L269.277 214.9ZM272.668 217.537V216.301C272.562 216.406 272.351 216.482 272.065 216.557C271.779 216.632 271.432 216.708 271.01 216.783C270.649 216.843 270.362 216.949 270.136 217.1C269.91 217.25 269.805 217.537 269.805 217.928C269.805 218.29 269.91 218.546 270.121 218.727C270.332 218.908 270.618 218.983 270.98 218.983C271.342 218.983 271.628 218.908 271.884 218.757C272.14 218.606 272.336 218.426 272.472 218.2C272.607 217.973 272.668 217.763 272.668 217.537Z" fill="white"/>
<path d="M276.631 217.943C276.631 218.32 276.707 218.576 276.872 218.712C277.038 218.847 277.249 218.908 277.505 218.908C277.746 218.908 277.957 218.893 278.123 218.847C278.304 218.802 278.439 218.757 278.56 218.697H278.59L278.5 219.495C278.394 219.556 278.229 219.601 278.033 219.646C277.822 219.691 277.611 219.706 277.385 219.706C276.857 219.706 276.435 219.586 276.134 219.33C275.833 219.073 275.682 218.667 275.682 218.094V214.372H274.582L274.703 213.754L275.667 213.619V212.338L276.601 212.202V213.589H278.424L278.304 214.372H276.601V217.943H276.631Z" fill="white"/>
<path d="M279.553 212.127C279.553 211.976 279.613 211.841 279.718 211.735C279.824 211.63 279.96 211.585 280.14 211.585C280.321 211.585 280.457 211.63 280.562 211.735C280.668 211.841 280.728 211.961 280.728 212.127C280.728 212.293 280.668 212.413 280.562 212.519C280.457 212.624 280.306 212.67 280.14 212.67C279.975 212.67 279.839 212.624 279.718 212.519C279.613 212.413 279.553 212.278 279.553 212.127ZM280.608 213.589V219.556H279.673V213.589H280.608Z" fill="white"/>
<path d="M285.461 213.438C286.109 213.438 286.621 213.604 286.983 213.935C287.344 214.267 287.525 214.779 287.525 215.487V219.556H286.591V215.758C286.591 215.261 286.485 214.885 286.274 214.628C286.063 214.372 285.672 214.252 285.114 214.252C284.783 214.252 284.481 214.312 284.21 214.448C283.939 214.583 283.728 214.764 283.562 215.02C283.396 215.276 283.321 215.563 283.321 215.894V219.541H282.387V213.574H283.291V214.839H283.336C283.441 214.508 283.622 214.237 283.848 214.026C284.074 213.815 284.331 213.664 284.617 213.574C284.903 213.483 285.174 213.438 285.461 213.438Z" fill="white"/>
<path d="M291.637 218.878C291.954 218.878 292.255 218.818 292.526 218.682C292.798 218.546 293.009 218.365 293.174 218.109C293.34 217.868 293.416 217.582 293.416 217.25V213.589H294.35V219.556H293.461V218.305H293.416C293.295 218.637 293.129 218.923 292.903 219.119C292.677 219.315 292.421 219.481 292.15 219.571C291.863 219.661 291.592 219.707 291.321 219.707C290.673 219.707 290.161 219.541 289.784 219.194C289.407 218.863 289.227 218.335 289.227 217.627V213.589H290.161V217.416C290.161 217.928 290.266 218.29 290.477 218.531C290.688 218.772 291.08 218.878 291.637 218.878Z" fill="white"/>
<path d="M301.041 214.869H301.086C301.206 214.523 301.372 214.252 301.598 214.041C301.824 213.83 302.08 213.679 302.351 213.589C302.623 213.498 302.909 213.438 303.18 213.438C303.813 213.438 304.31 213.604 304.657 213.95C305.003 214.297 305.169 214.809 305.169 215.517V219.541H304.235V215.698C304.235 215.186 304.145 214.824 303.949 214.583C303.768 214.357 303.391 214.237 302.819 214.237C302.336 214.237 301.93 214.372 301.598 214.658C301.267 214.93 301.101 215.337 301.101 215.864V219.541H300.167V215.698C300.167 215.186 300.076 214.824 299.88 214.583C299.684 214.357 299.308 214.237 298.75 214.237C298.434 214.237 298.147 214.297 297.891 214.432C297.635 214.568 297.424 214.749 297.274 215.005C297.123 215.246 297.048 215.532 297.048 215.864V219.541H296.113V213.574H297.017V214.854H297.063C297.183 214.508 297.334 214.237 297.56 214.026C297.786 213.815 298.027 213.664 298.298 213.574C298.569 213.468 298.841 213.423 299.112 213.423C299.639 213.423 300.076 213.543 300.408 213.769C300.739 213.995 300.95 214.372 301.041 214.854V214.869Z" fill="white"/>
<path d="M309.223 219.541V211.524H312.447C313.155 211.524 313.713 211.705 314.135 212.067C314.557 212.429 314.768 212.911 314.768 213.498C314.768 213.965 314.617 214.342 314.316 214.659C314.014 214.975 313.638 215.156 313.201 215.231V215.261C313.773 215.322 314.24 215.533 314.602 215.879C314.964 216.226 315.129 216.708 315.129 217.296C315.129 217.717 315.039 218.094 314.873 218.441C314.692 218.787 314.436 219.058 314.075 219.254C313.713 219.45 313.246 219.556 312.688 219.556H309.253L309.223 219.541ZM312.191 212.323H310.247V214.975H312.191C313.186 214.975 313.683 214.523 313.683 213.634C313.683 213.182 313.562 212.85 313.306 212.639C313.05 212.429 312.688 212.323 312.191 212.323ZM312.342 218.757C312.944 218.757 313.381 218.637 313.638 218.38C313.894 218.124 314.029 217.748 314.029 217.25C314.029 216.753 313.894 216.361 313.623 216.105C313.351 215.849 312.914 215.728 312.342 215.728H310.247V218.757H312.342Z" fill="white"/>
<path d="M319.122 218.878C319.438 218.878 319.74 218.818 320.011 218.682C320.282 218.546 320.493 218.365 320.659 218.109C320.825 217.853 320.9 217.582 320.9 217.25V213.589H321.834V219.556H320.93V218.305H320.885C320.764 218.637 320.599 218.923 320.372 219.119C320.146 219.315 319.89 219.481 319.619 219.571C319.348 219.661 319.062 219.707 318.79 219.707C318.142 219.707 317.63 219.541 317.268 219.194C316.892 218.863 316.711 218.335 316.711 217.627V213.589H317.645V217.416C317.645 217.928 317.751 218.29 317.962 218.531C318.173 218.772 318.564 218.878 319.122 218.878Z" fill="white"/>
<path d="M323.432 215.201C323.432 214.809 323.523 214.478 323.719 214.222C323.914 213.965 324.171 213.769 324.502 213.634C324.834 213.498 325.21 213.438 325.647 213.438C326.009 213.438 326.34 213.468 326.627 213.543C326.913 213.619 327.124 213.679 327.275 213.754L327.32 214.613H327.29C327.169 214.523 327.018 214.448 326.823 214.387C326.627 214.327 326.431 214.267 326.205 214.237C325.979 214.191 325.783 214.176 325.602 214.176C325.195 214.176 324.879 214.237 324.653 214.357C324.427 214.478 324.306 214.719 324.306 215.065C324.306 215.276 324.351 215.442 324.457 215.563C324.562 215.683 324.713 215.789 324.909 215.864C325.105 215.939 325.361 216.03 325.647 216.105C326.054 216.226 326.401 216.346 326.702 216.452C327.003 216.557 327.244 216.723 327.41 216.919C327.576 217.13 327.666 217.431 327.666 217.823C327.666 218.441 327.47 218.908 327.064 219.224C326.657 219.541 326.114 219.706 325.406 219.706C324.999 219.706 324.638 219.661 324.276 219.571C323.929 219.48 323.643 219.375 323.417 219.224L323.342 218.305H323.372C323.613 218.516 323.914 218.682 324.306 218.802C324.683 218.923 325.044 218.968 325.391 218.968C325.873 218.968 326.22 218.893 326.446 218.742C326.672 218.591 326.777 218.335 326.777 218.004C326.777 217.793 326.717 217.612 326.612 217.491C326.506 217.371 326.34 217.265 326.114 217.19C325.888 217.115 325.632 217.024 325.301 216.934C324.939 216.828 324.623 216.723 324.336 216.617C324.05 216.512 323.824 216.346 323.643 216.135C323.477 215.924 323.387 215.608 323.387 215.201H323.432Z" fill="white"/>
<path d="M328.916 212.127C328.916 211.976 328.976 211.841 329.082 211.735C329.187 211.63 329.323 211.585 329.504 211.585C329.684 211.585 329.82 211.63 329.926 211.735C330.031 211.841 330.091 211.961 330.091 212.127C330.091 212.293 330.031 212.413 329.926 212.519C329.805 212.624 329.669 212.67 329.504 212.67C329.338 212.67 329.202 212.624 329.082 212.519C328.976 212.413 328.916 212.278 328.916 212.127ZM329.971 213.589V219.556H329.037V213.589H329.971Z" fill="white"/>
<path d="M334.824 213.438C335.472 213.438 335.984 213.604 336.346 213.935C336.707 214.267 336.888 214.779 336.888 215.487V219.556H335.954V215.758C335.954 215.261 335.849 214.885 335.638 214.628C335.427 214.372 335.035 214.252 334.477 214.252C334.146 214.252 333.844 214.312 333.573 214.448C333.302 214.583 333.091 214.764 332.925 215.02C332.775 215.261 332.684 215.563 332.684 215.894V219.541H331.75V213.574H332.639V214.839H332.699C332.82 214.508 332.986 214.237 333.212 214.026C333.438 213.815 333.694 213.664 333.98 213.574C334.266 213.483 334.538 213.438 334.824 213.438Z" fill="white"/>
<path d="M341.317 218.923C341.86 218.923 342.282 218.863 342.628 218.727C342.96 218.591 343.261 218.426 343.532 218.2H343.548L343.457 219.059C343.276 219.209 343.005 219.345 342.628 219.48C342.252 219.616 341.8 219.676 341.242 219.676C340.639 219.676 340.112 219.541 339.66 219.269C339.208 218.998 338.846 218.637 338.605 218.154C338.349 217.687 338.229 217.145 338.229 216.542C338.229 215.939 338.349 215.397 338.605 214.93C338.861 214.463 339.193 214.086 339.63 213.815C340.067 213.544 340.549 213.408 341.091 213.408C341.724 213.408 342.222 213.513 342.613 213.739C343.005 213.965 343.291 214.267 343.472 214.674C343.653 215.081 343.743 215.533 343.743 216.06C343.743 216.135 343.743 216.211 343.743 216.316C343.743 216.422 343.728 216.497 343.713 216.572H339.208C339.208 216.572 339.208 216.572 339.208 216.587C339.208 216.587 339.208 216.587 339.208 216.602C339.208 217.311 339.419 217.868 339.796 218.275C340.172 218.682 340.685 218.893 341.348 218.893L341.317 218.923ZM341.091 214.146C340.564 214.146 340.142 214.312 339.811 214.628C339.494 214.945 339.298 215.397 339.223 215.985H342.824V215.879C342.824 215.533 342.764 215.216 342.674 214.96C342.568 214.704 342.387 214.508 342.146 214.357C341.89 214.207 341.544 214.146 341.107 214.146H341.091Z" fill="white"/>
<path d="M344.934 215.201C344.934 214.809 345.025 214.478 345.22 214.222C345.416 213.965 345.672 213.769 346.004 213.634C346.335 213.498 346.712 213.438 347.149 213.438C347.511 213.438 347.842 213.468 348.129 213.543C348.415 213.619 348.626 213.679 348.777 213.754L348.822 214.613H348.792C348.671 214.523 348.52 214.448 348.324 214.387C348.129 214.327 347.933 214.267 347.707 214.237C347.481 214.191 347.285 214.176 347.104 214.176C346.697 214.176 346.381 214.237 346.155 214.357C345.929 214.478 345.808 214.719 345.808 215.065C345.808 215.276 345.853 215.442 345.959 215.563C346.064 215.683 346.215 215.789 346.411 215.864C346.607 215.939 346.863 216.03 347.149 216.105C347.556 216.226 347.903 216.346 348.204 216.452C348.505 216.557 348.746 216.723 348.912 216.919C349.078 217.13 349.168 217.431 349.168 217.823C349.168 218.441 348.972 218.908 348.566 219.224C348.159 219.541 347.616 219.706 346.908 219.706C346.501 219.706 346.14 219.661 345.778 219.571C345.431 219.48 345.145 219.375 344.919 219.224L344.844 218.305H344.874C345.115 218.516 345.416 218.682 345.808 218.802C346.185 218.923 346.546 218.968 346.893 218.968C347.375 218.968 347.722 218.893 347.948 218.742C348.174 218.591 348.279 218.335 348.279 218.004C348.279 217.793 348.219 217.612 348.114 217.491C348.008 217.371 347.842 217.265 347.616 217.19C347.39 217.115 347.134 217.024 346.803 216.934C346.441 216.828 346.125 216.723 345.838 216.617C345.552 216.512 345.326 216.346 345.145 216.135C344.979 215.924 344.889 215.608 344.889 215.201H344.934Z" fill="white"/>
<path d="M350.358 215.201C350.358 214.809 350.448 214.478 350.644 214.222C350.84 213.965 351.096 213.769 351.428 213.634C351.759 213.498 352.136 213.438 352.573 213.438C352.935 213.438 353.266 213.468 353.552 213.543C353.839 213.619 354.05 213.679 354.2 213.754L354.246 214.613H354.215C354.095 214.523 353.944 214.448 353.748 214.387C353.552 214.327 353.357 214.267 353.131 214.237C352.905 214.191 352.709 214.176 352.528 214.176C352.121 214.176 351.805 214.237 351.579 214.357C351.352 214.478 351.232 214.719 351.232 215.065C351.232 215.276 351.277 215.442 351.383 215.563C351.488 215.683 351.639 215.789 351.835 215.864C352.031 215.939 352.287 216.03 352.573 216.105C352.98 216.226 353.326 216.346 353.628 216.452C353.929 216.557 354.17 216.723 354.336 216.919C354.502 217.13 354.592 217.431 354.592 217.823C354.592 218.441 354.396 218.908 353.989 219.224C353.583 219.541 353.04 219.706 352.332 219.706C351.925 219.706 351.563 219.661 351.202 219.571C350.855 219.48 350.569 219.375 350.343 219.224L350.268 218.305H350.298C350.539 218.516 350.84 218.682 351.232 218.802C351.609 218.923 351.97 218.968 352.317 218.968C352.799 218.968 353.146 218.893 353.372 218.742C353.598 218.591 353.703 218.335 353.703 218.004C353.703 217.793 353.643 217.612 353.537 217.491C353.432 217.371 353.266 217.265 353.04 217.19C352.814 217.115 352.558 217.024 352.226 216.934C351.865 216.828 351.548 216.723 351.262 216.617C350.976 216.512 350.75 216.346 350.569 216.135C350.403 215.924 350.313 215.608 350.313 215.201H350.358Z" fill="white"/>
</g>
<g clip-path="url(#clip2_1001_5429)">
<path d="M210.578 284.277C201.847 281.674 195.629 277.164 192.294 270.834C184.098 255.297 194.373 230.123 220.479 201.76C271.43 146.414 368.08 93.3886 435.918 83.5603C466.891 79.0732 487.97 84.2196 495.264 98.0537C503.46 113.591 493.185 138.765 467.079 167.128C416.128 222.474 319.478 275.5 251.64 285.328C234.832 287.765 220.934 287.359 210.574 284.27L210.578 284.277ZM436.121 84.9483C368.553 94.7375 272.276 147.566 221.509 202.715C195.825 230.612 185.629 255.206 193.531 270.19C200.533 283.465 221.098 288.351 251.446 283.955C319.014 274.166 415.291 221.337 466.057 166.188C491.741 138.291 501.938 113.697 494.036 98.713C487.039 85.4398 466.469 80.5518 436.121 84.9483Z" fill="white"/>
<path d="M203.787 284.158C193.583 281.116 186.529 275.822 183.145 268.433C175.223 251.153 188.066 224.203 218.377 194.483C275.557 138.421 378.227 88.0774 447.242 82.2558C477.558 79.6993 497.864 86.1696 504.416 100.468C512.338 117.748 499.495 144.699 469.184 174.419C412.004 230.48 309.334 280.824 240.319 286.646C225.661 287.881 213.338 287.006 203.787 284.158ZM483.385 86.0678C474.019 83.2749 461.87 82.4271 447.356 83.6486C378.612 89.4444 276.329 139.608 219.349 195.484C189.484 224.764 176.749 251.142 184.412 267.855C190.702 281.578 210.516 287.757 240.198 285.257C308.941 279.461 411.226 229.292 468.204 173.422C498.069 144.141 510.805 117.763 503.142 101.051C499.924 94.032 493.178 88.994 483.378 86.0719L483.385 86.0678Z" fill="white"/>
<path d="M197.647 283.775C185.629 280.191 177.567 273.93 174.177 265.275C166.665 246.091 182.302 217.368 217.076 186.481C280.573 130.082 388.975 83.0523 458.726 81.6405C488.187 81.0439 507.597 88.8514 513.38 103.619C520.892 122.803 505.261 151.527 470.481 182.412C406.984 238.812 298.582 285.841 228.831 287.253C216.626 287.502 206.148 286.303 197.649 283.769L197.647 283.775ZM489.535 86.4606C481.185 83.9709 470.839 82.7985 458.756 83.0398C389.288 84.4482 281.291 131.322 218.002 187.532C183.69 218.009 168.192 246.162 175.479 264.769C181.033 278.953 199.972 286.444 228.805 285.861C298.273 284.453 406.275 237.581 469.559 181.37C503.871 150.892 519.369 122.739 512.082 104.132C508.858 95.8906 501.108 89.9116 489.535 86.4606Z" fill="white"/>
<path d="M191.964 283.188C177.836 278.975 168.819 271.593 165.472 261.314C158.541 240.038 177.197 209.586 216.665 177.771C286.523 121.456 400.298 78.3943 470.298 81.782C499.134 83.176 517.042 92.0961 522.091 107.576C529.022 128.852 510.366 159.304 470.898 191.119C401.04 247.434 287.265 290.496 217.267 287.102C207.578 286.636 199.119 285.315 191.971 283.184L191.964 283.188ZM495.205 87.0445C488.168 84.9459 479.822 83.6465 470.227 83.1826C400.524 79.8083 287.168 122.731 217.541 178.863C178.551 210.298 160.056 240.188 166.802 260.886C171.652 275.766 189.124 284.355 217.333 285.719C287.035 289.093 400.391 246.171 470.018 190.039C509.008 158.603 527.503 128.714 520.758 108.015C517.558 98.1956 508.859 91.1158 495.205 87.0445Z" fill="white"/>
<path d="M187.592 282.488C170.685 277.447 160.261 268.619 157.104 256.484C150.971 232.93 172.887 200.808 217.224 168.361C293.441 112.584 412.161 74.1863 481.867 82.7589C509.488 86.1566 526.295 96.4092 530.458 112.411C536.591 135.966 514.674 168.088 470.337 200.534C394.121 256.312 275.401 294.709 205.694 286.137C199.018 285.316 192.977 284.094 187.592 282.488ZM499.581 87.7515C494.271 86.1681 488.302 84.9607 481.698 84.1493C412.296 75.6108 294.02 113.889 218.052 169.489C174.841 201.113 152.563 233.499 158.454 256.132C162.464 271.529 178.855 281.425 205.863 284.746C275.271 293.287 393.541 255.007 469.509 199.407C512.72 167.782 534.999 135.397 529.107 112.764C526.082 101.134 515.98 92.6412 499.581 87.7515Z" fill="white"/>
<path d="M184.498 281.849C164.089 275.763 151.934 265.105 149.143 250.707C144.174 225.064 170.222 190.5 218.828 158.257C301.351 103.504 424.505 70.4741 493.346 84.6276C519.621 90.0276 535.199 101.638 538.41 118.193C543.379 143.836 517.33 178.4 468.725 210.643C386.196 265.394 263.048 298.426 194.207 284.272C190.787 283.567 187.549 282.759 184.498 281.849ZM493.206 85.3094L493.065 85.9911C424.539 71.8999 301.865 104.84 219.601 159.418C171.482 191.341 145.656 225.368 150.517 250.444C153.611 266.404 168.819 277.627 194.489 282.903C263.016 296.994 385.69 264.054 467.953 209.475C516.073 177.553 541.899 143.526 537.036 118.456C533.942 102.496 518.734 91.2731 493.058 85.9951L493.198 85.3134L493.206 85.3094Z" fill="white"/>
<path d="M182.953 281.463L182.918 281.453C158.114 274.051 143.866 261.063 141.707 243.89C138.154 215.631 168.005 179.582 221.559 147.475C310.275 94.2791 437.235 67.3486 504.597 87.4347L504.632 87.445C529.435 94.8474 543.683 107.835 545.843 125.008C549.396 153.267 519.539 189.314 465.99 221.423C377.274 274.619 250.315 301.549 182.953 281.463ZM504.205 88.7712C437.167 68.7816 310.716 95.65 222.284 148.673C169.219 180.492 139.616 216.023 143.098 243.72C145.183 260.297 159.092 272.882 183.324 280.114L183.358 280.124C250.396 300.114 376.853 273.247 465.279 220.223C518.344 188.404 547.947 152.873 544.465 125.176C542.38 108.598 528.471 96.0133 504.239 88.7815L504.205 88.7712Z" fill="white"/>
<path d="M183.025 281.491C179.142 280.334 175.442 279.048 171.923 277.621C148.682 268.205 135.878 253.792 134.899 235.933C133.193 204.896 167.066 167.556 225.495 136.046C320.269 84.9399 450.421 64.8628 515.626 91.2712C538.867 100.687 551.671 115.1 552.65 132.959C554.35 163.994 520.483 201.336 462.054 232.846C372.394 281.192 251.064 301.773 183.025 281.491ZM504.084 88.7291C436.387 68.5431 315.54 89.0916 226.164 137.283C168.217 168.528 134.622 205.379 136.299 235.86C137.244 253.136 149.746 267.126 172.453 276.326C237.31 302.598 366.937 282.548 461.395 231.618C519.342 200.373 552.937 163.522 551.26 133.042C550.315 115.765 537.813 101.775 515.105 92.5756C511.613 91.163 507.93 89.8824 504.082 88.7349L504.084 88.7291Z" fill="white"/>
<path d="M184.943 282.17C176.276 279.586 168.367 276.441 161.336 272.715C139.724 261.256 128.5 245.344 128.86 226.708C129.525 192.785 167.599 154.395 230.711 124.017C331.301 75.6077 463.87 63.1222 526.209 96.1885C547.822 107.648 559.046 123.559 558.686 142.196C558.021 176.118 519.947 214.509 456.835 244.887C367.58 287.842 253.154 302.51 184.941 282.176L184.943 282.17ZM502.126 88.0382C434.267 67.8039 320.286 82.4594 231.316 125.28C168.689 155.424 130.91 193.349 130.255 226.734C129.9 244.805 140.876 260.284 161.988 271.481C168.958 275.176 176.822 278.302 185.42 280.865C253.279 301.1 367.26 286.444 456.23 243.624C518.857 213.479 556.641 175.556 557.291 142.17C557.646 124.098 546.67 108.619 525.558 97.4226C518.588 93.7271 510.723 90.602 502.126 88.0382Z" fill="white"/>
<path d="M188.983 283.796C174.434 279.458 161.681 273.755 151.285 266.672C131.362 253.093 121.847 235.583 123.767 216.041C127.395 179.188 169.83 140.078 237.278 111.409C343.399 66.31 477.526 62.1857 536.27 102.227C556.193 115.806 565.707 133.316 563.787 152.859C560.16 189.711 517.725 228.821 450.277 257.49C362.94 294.606 256.628 303.967 188.981 283.802L188.983 283.796ZM498.087 86.3931C430.794 66.3277 324.889 75.6963 237.824 112.698C170.853 141.164 128.734 179.846 125.155 216.178C123.283 235.181 132.59 252.245 152.063 265.52C210.463 305.321 343.99 301.143 449.723 256.205C516.694 227.74 558.813 189.058 562.387 152.724C564.259 133.721 554.951 116.657 535.477 103.387C525.164 96.3611 512.507 90.6993 498.079 86.3971L498.087 86.3931Z" fill="white"/>
<path d="M195.338 286.704C173.659 280.24 155.321 271.135 141.893 259.449C123.703 243.624 116.082 224.364 119.847 203.76C127.109 164.066 173.995 124.634 245.261 98.2865C356.545 57.1431 491.31 62.1496 545.676 109.443C563.866 125.267 571.487 144.528 567.722 165.131C560.46 204.826 513.574 244.257 442.308 270.605C358.517 301.587 261.413 306.401 195.34 286.699L195.338 286.704ZM491.759 83.4746C426.026 63.8744 329.282 68.7074 245.745 99.5949C174.945 125.773 128.392 164.807 121.225 204.014C117.548 224.109 125.016 242.915 142.811 258.395C196.831 305.396 330.97 310.285 441.824 269.297C512.624 243.118 559.177 204.085 566.344 164.877C570.021 144.783 562.554 125.977 544.758 110.497C531.444 98.9133 513.259 89.8857 491.759 83.4746Z" fill="white"/>
<path d="M204.039 291.224C173.889 282.234 149.156 268.705 133.28 251.01C116.89 232.734 111.385 211.524 117.371 189.677C128.962 147.366 180.303 108.124 254.703 84.7051C370.723 48.1891 505.109 63.0742 554.276 117.89C570.665 136.166 576.164 157.373 570.184 179.223C558.593 221.534 507.253 260.776 432.852 284.194C354.284 308.925 267.281 310.082 204.039 291.224ZM483.088 78.9635C420.158 60.1989 333.462 61.3779 255.124 86.0384C181.174 109.315 130.187 148.197 118.721 190.048C112.864 211.418 118.259 232.173 134.318 250.08C183.154 304.526 316.882 319.234 432.43 282.867C506.373 259.589 557.366 220.709 568.833 178.857C574.689 157.487 569.294 136.732 553.235 118.825C537.511 101.295 512.978 87.8763 483.088 78.9635Z" fill="white"/>
<path d="M214.855 297.614C174.986 285.726 142.998 266.523 125.61 241.299C111.125 220.287 108.054 196.865 116.735 173.575C133.323 129.067 189.002 90.6155 265.686 70.7217C385.928 39.5229 518.838 65.0352 561.958 127.593C576.443 148.604 579.514 172.026 570.833 195.316C554.245 239.824 498.566 278.276 421.882 298.17C350.128 316.784 273.862 315.209 214.861 297.616L214.855 297.614ZM472.325 72.5774C413.596 55.0654 337.588 53.5104 266.031 72.0766C189.789 91.857 134.464 129.986 118.043 174.066C109.532 196.91 112.541 219.885 126.758 240.509C169.57 302.622 301.806 327.883 421.524 296.817C497.766 277.037 553.089 238.913 569.518 194.83C578.028 171.986 575.014 149.009 560.803 128.387C543.577 103.4 511.865 84.3675 472.325 72.5774Z" fill="white"/>
<path d="M227.176 306.051C176.548 290.955 136.635 264.613 119.005 230.3C106.604 206.16 106.376 180.233 118.35 155.313C140.488 109.239 200.255 72.27 278.227 56.4346C402.111 31.2736 532.348 68.1325 568.549 138.599C580.95 162.739 581.178 188.667 569.204 213.587C547.066 259.661 487.299 296.63 409.327 312.465C345.767 325.375 280.526 321.959 227.176 306.051ZM460.042 64.1642C406.918 48.3234 341.891 44.9275 278.503 57.807C200.96 73.5561 141.556 110.236 119.609 155.921C107.834 180.428 108.058 205.927 120.246 229.664C156.18 299.611 285.734 336.146 409.049 311.098C486.593 295.349 545.997 258.669 567.943 212.984C579.718 188.477 579.494 162.979 567.306 139.242C549.846 105.25 510.258 79.1441 460.04 64.1699L460.042 64.1642Z" fill="white"/>
<path d="M240.064 316.532C178.047 298.04 129.855 262.85 113.625 217.981C103.589 190.236 106.738 161.465 122.728 134.786C150.779 87.9764 214.203 53.2623 292.383 41.9186C419.236 23.5131 545.537 72.4114 573.929 150.919C583.965 178.664 580.816 207.435 564.826 234.114C536.775 280.923 473.351 315.637 395.171 326.981C340.817 334.866 286.555 330.395 240.064 316.532ZM447.176 53.6961C400.864 39.8867 346.785 35.4329 292.582 43.2991C214.809 54.5821 151.762 89.0496 123.924 135.501C108.158 161.806 105.051 190.163 114.937 217.504C143.116 295.419 268.732 343.912 394.966 325.599C472.739 314.316 535.787 279.848 563.624 233.397C579.39 207.092 582.497 178.736 572.611 151.394C556.535 106.936 508.719 72.0472 447.176 53.6961Z" fill="white"/>
<path d="M252.368 328.952C178.795 307.014 122.5 261.04 109.622 204.335C102.371 172.419 109.557 140.491 130.394 112.011C164.435 65.4773 230.899 33.7964 308.186 27.2639C437.265 16.3551 558.276 77.9521 577.945 164.568C585.196 196.484 578.01 228.412 557.173 256.892C523.132 303.426 456.668 335.106 379.381 341.639C334.806 345.405 291.182 340.52 252.368 328.952ZM434.87 41.2869C396.209 29.7587 352.735 24.8933 308.296 28.6492C231.408 35.1499 165.323 66.6164 131.516 112.829C110.923 140.974 103.822 172.512 110.98 204.023C130.505 289.985 250.85 351.094 379.256 340.243C456.144 333.742 522.235 302.277 556.036 256.063C576.629 227.918 583.73 196.38 576.572 164.869C563.805 108.657 507.923 63.0701 434.865 41.2852L434.87 41.2869Z" fill="white"/>
<path d="M262.986 343.098C178.07 317.778 114.494 258.917 107.129 189.36C103.234 152.643 115.235 117.293 141.814 87.1338C181.599 41.9925 250.312 14.1219 325.634 12.5779C456.093 9.90809 570.395 84.8064 580.433 179.542C584.323 216.251 572.328 251.602 545.744 281.76C505.958 326.902 437.245 354.772 361.924 356.316C327.251 357.026 293.716 352.255 262.982 343.091L262.986 343.098ZM424.231 27.1479C393.612 18.018 360.215 13.2693 325.657 13.9755C250.723 15.509 182.39 43.2034 142.86 88.0561C116.546 117.917 104.664 152.893 108.514 189.207C115.821 258.199 178.971 316.593 263.325 341.752C293.943 350.882 327.34 355.631 361.898 354.924C436.833 353.391 505.166 325.696 544.696 280.844C571.009 250.983 582.886 216.005 579.041 179.693C571.734 110.701 508.586 52.3012 424.231 27.1479Z" fill="white"/>
<path d="M271.054 358.748C175.229 330.175 105.889 256.207 106.305 173.045C106.516 130.895 124.184 91.9629 157.401 60.4732C203.009 17.2252 271.297 -5.54975 344.745 -2.01479C475.675 4.28941 581.776 93.0575 581.261 195.858C581.05 238.008 563.384 276.934 530.165 308.43C484.558 351.678 416.269 374.453 342.815 370.916C317.805 369.713 293.681 365.495 271.048 358.747L271.054 358.748ZM416.138 11.4964C393.597 4.77515 369.6 0.576706 344.676 -0.619936C271.6 -4.13819 203.692 18.4987 158.359 61.4823C125.427 92.711 107.91 131.286 107.7 173.052C107.284 255.578 176.201 329.005 271.423 357.405C293.964 364.126 317.961 368.325 342.885 369.521C415.961 373.039 483.868 350.403 529.202 307.419C562.133 276.19 579.651 237.616 579.859 195.855C580.275 113.329 511.36 39.8963 416.136 11.5021L416.138 11.4964Z" fill="white"/>
<path d="M276.008 375.704C169.77 344.026 96.7779 252.659 107.295 155.415C112.433 107.882 137.32 64.219 177.375 32.4592C227.32 -7.14835 295.895 -24.9553 365.515 -16.4085C495.91 -0.398061 592.247 102.736 580.271 213.483C575.133 261.015 550.247 304.678 510.199 336.434C460.253 376.041 391.678 393.848 322.059 385.302C306.168 383.351 290.767 380.098 276.021 375.701L276.008 375.704ZM411.159 -5.46599C396.477 -9.84399 381.163 -13.0763 365.34 -15.0198C296.092 -23.5251 227.899 -5.81811 178.243 33.5551C138.484 65.0822 113.78 108.41 108.685 155.565C98.2451 252.128 170.812 342.876 276.401 374.361C291.084 378.739 306.397 381.972 322.221 383.915C391.469 392.421 459.667 374.715 509.317 335.34C549.069 303.817 573.773 260.49 578.87 213.329C589.31 116.766 516.743 26.0174 411.153 -5.46771L411.159 -5.46599Z" fill="white"/>
<path d="M277.57 393.806C161.327 359.157 87.3386 248.089 110.249 136.501C134.586 18.0013 259.142 -56.8918 387.906 -30.4513C450.271 -17.6436 504.32 16.7447 540.091 66.3703C575.879 116.02 589.091 174.982 577.3 232.397C565.511 289.806 530.129 338.79 477.676 370.326C425.24 401.849 362.016 412.153 299.651 399.345C292.145 397.806 284.765 395.945 277.572 393.8L277.57 393.806ZM409.826 -23.5062C402.557 -25.6736 395.153 -27.5354 387.623 -29.0821C259.613 -55.3673 135.8 19.0365 111.62 136.778C88.8561 247.642 162.437 358.009 277.97 392.465C285.134 394.602 292.45 396.443 299.932 397.982C361.953 410.719 424.82 400.471 476.956 369.13C529.071 337.801 564.223 289.145 575.935 232.122C587.641 175.097 574.514 116.525 538.958 67.1963C507.71 23.8397 462.423 -7.81643 409.824 -23.5004L409.826 -23.5062Z" fill="white"/>
<path d="M275.655 412.909C149.685 375.347 77.7579 242.301 115.322 116.325C152.885 -9.65004 285.93 -81.5715 411.9 -44.0096C537.869 -6.44764 609.797 126.599 572.235 252.569C534.673 378.538 401.626 450.466 275.656 412.904L275.655 412.909ZM411.5 -42.669C286.27 -80.0104 154.003 -8.50494 116.662 116.725C79.3207 241.955 150.824 374.227 276.054 411.569C401.284 448.91 533.557 377.406 570.9 252.171C608.243 126.935 536.736 -5.32592 411.5 -42.669Z" fill="white"/>
</g>
</g>
<defs>
<clipPath id="clip0_1001_5429">
<rect y="0.951904" width="368" height="232.096" rx="15.9722" fill="white"/>
</clipPath>
<clipPath id="clip1_1001_5429">
<rect width="94.8991" height="40.7292" fill="white" transform="translate(259.709 178.962)"/>
</clipPath>
<clipPath id="clip2_1001_5429">
<rect width="476.799" height="476.799" fill="white" transform="translate(183.443 -112.131) rotate(16.6037)"/>
</clipPath>
</defs>
</svg>
