<svg width="368" height="368" viewBox="0 0 368 368" fill="none" xmlns="http://www.w3.org/2000/svg">
<path fill-rule="evenodd" clip-rule="evenodd" d="M175.721 43.0142C209.463 42.0886 221.896 86.6434 244.721 111.362C265.759 134.146 297.752 149.337 302.166 179.949C306.998 213.462 290.218 245.99 267.809 271.486C243.626 299.001 211.621 331.661 175.721 323.815C140.49 316.115 138.616 267.067 116.83 238.488C100.556 217.14 67.4373 206.698 66.0499 179.949C64.6414 152.792 93.3885 136.321 110.427 115.046C131.48 88.7603 141.934 43.941 175.721 43.0142Z" fill="#E0F8F3"/>
<path d="M114.719 54.4383C117.325 54.4383 119.438 52.3255 119.438 49.7192C119.438 47.1128 117.325 45 114.719 45C112.113 45 110 47.1128 110 49.7192C110 52.3255 112.113 54.4383 114.719 54.4383Z" fill="#59B8AA" stroke="black" stroke-width="0.380088" stroke-miterlimit="10"/>
<path d="M73.5332 43.2715V52.3364" stroke="black" stroke-width="0.380088" stroke-miterlimit="10"/>
<path d="M78.0649 47.804H69" stroke="black" stroke-width="0.380088" stroke-miterlimit="10"/>
<path d="M284.531 336V345.065" stroke="black" stroke-width="0.380088" stroke-miterlimit="10"/>
<path d="M289.065 340.532H280" stroke="black" stroke-width="0.380088" stroke-miterlimit="10"/>
<path d="M112.821 345.641C116.587 345.641 119.641 342.587 119.641 338.821C119.641 335.054 116.587 332 112.821 332C109.054 332 106 335.054 106 338.821C106 342.587 109.054 345.641 112.821 345.641Z" fill="#59B8AA" stroke="black" stroke-width="0.380088" stroke-miterlimit="10"/>
<path d="M109.003 339.146C108.058 337.796 107.645 336.08 107.788 334.427C106.679 335.619 106 337.208 106 338.963C106 342.65 108.991 345.641 112.678 345.641C115.2 345.641 117.389 344.239 118.521 342.177C115.144 343.091 110.922 341.891 109.003 339.146Z" fill="black"/>
<path d="M115.669 338.213C117.117 338.213 118.29 337.039 118.29 335.591C118.29 334.143 117.117 332.969 115.669 332.969C114.221 332.969 113.047 334.143 113.047 335.591C113.047 337.039 114.221 338.213 115.669 338.213Z" fill="white"/>
<path d="M63.8373 132.354C66.799 132.354 69.2 129.953 69.2 126.991C69.2 124.029 66.799 121.628 63.8373 121.628C60.8756 121.628 58.4746 124.029 58.4746 126.991C58.4746 129.953 60.8756 132.354 63.8373 132.354Z" fill="#F3B443" stroke="black" stroke-width="0.380088" stroke-miterlimit="10"/>
<path d="M60.8358 127.247C60.0925 126.185 59.7676 124.836 59.8801 123.536C59.0087 124.473 58.4746 125.723 58.4746 127.103C58.4746 130.002 60.8264 132.353 63.7248 132.353C65.7081 132.353 67.4291 131.251 68.3192 129.63C65.6644 130.348 62.3444 129.405 60.8358 127.247Z" fill="black"/>
<path d="M66.077 126.513C67.2155 126.513 68.1384 125.59 68.1384 124.452C68.1384 123.313 67.2155 122.39 66.077 122.39C64.9385 122.39 64.0156 123.313 64.0156 124.452C64.0156 125.59 64.9385 126.513 66.077 126.513Z" fill="white"/>
<path d="M276.376 53.753C278.241 53.753 279.753 52.2413 279.753 50.3765C279.753 48.5117 278.241 47 276.376 47C274.512 47 273 48.5117 273 50.3765C273 52.2413 274.512 53.753 276.376 53.753Z" fill="#F3B443" stroke="black" stroke-width="0.380088" stroke-miterlimit="10"/>
<path d="M274.487 50.5376C274.019 49.869 273.814 49.0195 273.885 48.2014C273.336 48.7914 273 49.578 273 50.4472C273 52.2721 274.481 53.7529 276.306 53.7529C277.554 53.7529 278.638 53.0587 279.198 52.0381C277.527 52.4904 275.437 51.8965 274.487 50.5376Z" fill="black"/>
<path d="M277.786 50.0755C278.503 50.0755 279.084 49.4944 279.084 48.7776C279.084 48.0608 278.503 47.4797 277.786 47.4797C277.069 47.4797 276.488 48.0608 276.488 48.7776C276.488 49.4944 277.069 50.0755 277.786 50.0755Z" fill="white"/>
<path d="M10.6934 102.81L15.4642 107.593C15.4642 107.593 23.0911 108.3 32.5175 97.3202C41.9439 86.3406 40.2795 79.5519 40.2795 79.5519L35.8026 74.4553C35.8026 74.4553 12.7947 87.5561 10.6934 102.814V102.81Z" fill="#F3B443" stroke="black" stroke-width="0.380088" stroke-miterlimit="10"/>
<path d="M28.6536 93.1932C35.4585 85.3096 38.6621 76.9222 35.8089 74.4594C32.9557 71.9966 25.1263 76.391 18.3214 84.2746C11.5165 92.1582 8.31295 100.546 11.1661 103.008C14.0193 105.471 21.8487 101.077 28.6536 93.1932Z" fill="#FFDB7F" stroke="black" stroke-width="0.380088" stroke-miterlimit="10"/>
<path d="M26.6665 91.0764C32.0522 84.837 34.8659 78.439 32.9511 76.7862C31.0362 75.1333 25.1179 78.8515 19.7322 85.0909C14.3465 91.3304 11.5328 97.7283 13.4476 99.3812C15.3624 101.034 21.2807 97.3159 26.6665 91.0764Z" fill="#FFDB7F" stroke="black" stroke-width="0.380088" stroke-miterlimit="10"/>
<path opacity="0.49" d="M36.4206 92.1085L32.5078 88.1004C32.5078 88.1004 37.5487 80.0643 36.7543 75.5398L40.2777 79.5519C40.2777 79.5519 41.2033 84.5491 36.4166 92.1085H36.4206Z" fill="black"/>
<path d="M335.465 190.037L328.772 196.746C328.772 196.746 318.07 197.735 304.85 182.335C291.626 166.934 293.962 157.408 293.962 157.408L300.242 150.258C300.242 150.258 332.514 168.634 335.465 190.037Z" fill="#F3B443" stroke="black" stroke-width="0.380088" stroke-miterlimit="10"/>
<path d="M334.807 190.295C338.808 186.841 334.314 175.078 324.77 164.021C315.225 152.964 304.245 146.799 300.244 150.253C296.243 153.706 300.737 165.469 310.282 176.527C319.826 187.584 330.806 193.748 334.807 190.295Z" fill="#FFDB7F" stroke="black" stroke-width="0.380088" stroke-miterlimit="10"/>
<path d="M331.608 185.21C334.295 182.891 330.349 173.915 322.794 165.163C315.24 156.411 306.937 151.196 304.25 153.516C301.563 155.835 305.509 164.81 313.064 173.562C320.618 182.315 328.921 187.529 331.608 185.21Z" fill="#FFDB7F" stroke="black" stroke-width="0.380088" stroke-miterlimit="10"/>
<path opacity="0.49" d="M299.377 175.021L304.863 169.396C304.863 169.396 297.792 158.127 298.908 151.775L293.962 157.404C293.962 157.404 292.663 164.415 299.377 175.017V175.021Z" fill="black"/>
<path d="M31 265.241C31 265.241 46.4554 263.344 46.4554 282.751C46.4554 282.751 46.4554 264.876 62.7788 265.188C62.7788 265.188 48.7348 265.78 46.4554 247C46.4554 247 46.8894 264.876 31 265.238V265.241Z" fill="white" stroke="black" stroke-width="0.380088" stroke-miterlimit="10"/>
<path d="M261.969 88.3046C261.969 88.3046 279.376 86.1754 279.376 107.964C279.376 107.964 279.376 87.8954 297.76 88.249C297.76 88.249 281.946 88.9123 279.376 67.8311C279.376 67.8311 279.864 87.8994 261.969 88.3046Z" fill="white" stroke="black" stroke-width="0.380088" stroke-miterlimit="10"/>
<path d="M189.065 71.4427C221.859 76.428 244.441 107.141 239.498 140.045L226.438 226.979C221.495 259.882 190.901 282.51 158.107 277.525L134.659 273.96C101.865 268.975 79.2827 238.262 84.2258 205.358L97.286 118.424C102.229 85.5209 132.823 62.8932 165.616 67.8782L189.065 71.4427ZM203.243 139.789C205.562 124.352 194.968 109.939 179.575 107.599L164.066 105.241C148.672 102.901 134.316 113.523 131.996 128.961L120.481 205.613C118.162 221.05 128.756 235.464 144.149 237.804L159.658 240.162C175.051 242.502 189.408 231.879 191.727 216.441L203.243 139.789Z" fill="#FFDB7F" stroke="black" stroke-width="1.4"/>
<path d="M186.232 233.057L186.232 233.057L186.236 233.063C189.514 237.147 193.888 239.513 199.31 240.16C204.813 240.817 209.672 239.473 213.838 236.119C218.115 232.747 220.631 227.47 221.473 220.416C222.056 215.537 221.656 211.343 220.222 207.868C218.877 204.431 216.792 201.721 213.965 199.767C211.24 197.758 208.102 196.545 204.569 196.123C199.142 195.475 194.328 196.786 190.172 200.061C185.974 203.37 183.499 208.655 182.648 215.78C181.78 223.052 182.928 228.85 186.232 233.057ZM184.534 279.508L183.675 280.504L184.981 280.66L198.563 282.282L198.933 282.327L199.176 282.045L265.282 205.4L266.141 204.404L264.835 204.248L251.253 202.626L250.883 202.582L250.64 202.864L184.534 279.508ZM231.625 281.385L231.63 281.391L231.635 281.397C234.987 285.485 239.396 287.854 244.818 288.502C250.248 289.15 255.068 287.799 259.231 284.448C263.509 281.075 266.024 275.799 266.867 268.744C267.44 263.941 267.036 259.786 265.604 256.314C264.27 252.806 262.231 250.06 259.476 248.111C256.75 246.101 253.612 244.887 250.077 244.465C244.646 243.816 239.79 245.164 235.552 248.504C231.355 251.811 228.884 257.057 228.042 264.108C227.173 271.38 228.322 277.178 231.625 281.385ZM250.677 275.234L250.671 275.242L250.664 275.25C249.454 276.757 247.945 277.376 246.058 277.151C244.183 276.927 242.91 275.96 242.165 274.174C241.395 272.327 241.185 269.577 241.63 265.847C242.119 261.757 242.99 259.005 244.157 257.458C245.289 255.956 246.751 255.335 248.636 255.56C249.67 255.683 250.501 256.018 251.16 256.54C251.819 257.062 252.344 257.802 252.717 258.797L252.722 258.812L252.729 258.826C253.564 260.782 253.805 263.566 253.365 267.248C252.906 271.091 251.978 273.708 250.677 275.234ZM205.271 226.922C204.06 228.429 202.551 229.048 200.664 228.823C198.749 228.594 197.449 227.612 196.688 225.805C195.902 223.937 195.686 221.159 196.136 217.391C196.614 213.388 197.478 210.675 198.643 209.124C199.852 207.623 201.359 207.007 203.242 207.232C205.198 207.465 206.525 208.463 207.301 210.29C208.103 212.179 208.325 214.986 207.871 218.792C207.402 222.719 206.505 225.385 205.271 226.922Z" fill="#59B8AA" stroke="black" stroke-width="1.4"/>
</svg>
