<svg width="62" height="24" viewBox="0 0 62 24" fill="none" xmlns="http://www.w3.org/2000/svg">
<g id="G_Pay_Lockup_1_">
<g id="Pay_Typeface_3_">
<path id="Letter_p_3_" d="M28.7085 11.6723V18.7483H26.4629V1.27466H32.4161C33.9249 1.27466 35.2114 1.77758 36.2641 2.78343C37.3401 3.78928 37.8781 5.01735 37.8781 6.46764C37.8781 7.95302 37.3401 9.18109 36.2641 10.1752C35.2231 11.1694 33.9366 11.6606 32.4161 11.6606H28.7085V11.6723ZM28.7085 3.42671V9.52027H32.4629C33.3518 9.52027 34.1003 9.21618 34.6851 8.61969C35.2816 8.0232 35.5857 7.29805 35.5857 6.47934C35.5857 5.67232 35.2816 4.95887 34.6851 4.36238C34.1003 3.7425 33.3635 3.4384 32.4629 3.4384H28.7085V3.42671Z" fill="#EEF1F0"/>
<path id="Letter_a_3_" d="M43.7496 6.39795C45.4104 6.39795 46.7203 6.84239 47.6794 7.73128C48.6385 8.62017 49.118 9.83655 49.118 11.3804V18.7488H46.9776V17.088H46.8841C45.9601 18.4564 44.7203 19.1348 43.1765 19.1348C41.8548 19.1348 40.7554 18.7488 39.8665 17.9652C38.9777 17.1816 38.5332 16.2108 38.5332 15.0412C38.5332 13.8015 39.001 12.819 39.9367 12.0939C40.8724 11.357 42.1238 10.9944 43.6794 10.9944C45.0127 10.9944 46.1122 11.2401 46.966 11.7313V11.2167C46.966 10.433 46.6619 9.77806 46.042 9.22836C45.4221 8.67865 44.6969 8.40964 43.8665 8.40964C42.6151 8.40964 41.6209 8.93596 40.8958 10.0003L38.9192 8.76052C40.0069 7.18157 41.6209 6.39795 43.7496 6.39795ZM40.849 15.0763C40.849 15.6611 41.0946 16.1523 41.5975 16.5383C42.0888 16.9243 42.6736 17.1231 43.3402 17.1231C44.2876 17.1231 45.1297 16.7722 45.8665 16.0705C46.6034 15.3687 46.9776 14.55 46.9776 13.6026C46.2759 13.0529 45.3051 12.7722 44.0537 12.7722C43.1414 12.7722 42.3812 12.9944 41.773 13.4272C41.1531 13.8833 40.849 14.433 40.849 15.0763Z" fill="#EEF1F0"/>
<path id="Letter_y_3_" d="M61.3282 6.78345L53.8428 23.9998H51.527L54.3107 17.9764L49.375 6.78345H51.8194L55.375 15.3682H55.4218L58.8838 6.78345H61.3282Z" fill="#EEF1F0"/>
</g>
<g id="G_Mark_1_">
<path id="Blue_500" d="M19.7758 10.2453C19.7758 9.51319 19.7103 8.8126 19.5886 8.13892H10.1758V11.9986L15.5968 11.9997C15.377 13.2839 14.6693 14.3787 13.5851 15.1085V17.6126H16.812C18.6962 15.8687 19.7758 13.291 19.7758 10.2453Z" fill="#EEF1F0"/>
<path id="Green_500_1_" d="M13.5872 15.1085C12.6889 15.7144 11.5322 16.0688 10.179 16.0688C7.56496 16.0688 5.34741 14.3074 4.55326 11.9331H1.22461V14.5156C2.87373 17.7881 6.26321 20.0337 10.179 20.0337C12.8854 20.0337 15.1591 19.1436 16.8141 17.6115L13.5872 15.1085Z" fill="#EEF1F0"/>
<path id="Yellow_500_1_" d="M4.2389 10.0175C4.2389 9.35081 4.35001 8.70637 4.55235 8.10052V5.51807H1.2237C0.541827 6.87128 0.158203 8.39877 0.158203 10.0175C0.158203 11.6362 0.542997 13.1637 1.2237 14.5169L4.55235 11.9344C4.35001 11.3286 4.2389 10.6841 4.2389 10.0175Z" fill="#EEF1F0"/>
<path id="Red_500" d="M10.179 3.96491C11.6562 3.96491 12.979 4.47368 14.0234 5.46784L16.8831 2.61053C15.1462 0.992983 12.8819 0 10.179 0C6.26437 0 2.87373 2.24561 1.22461 5.51813L4.55326 8.10058C5.34741 5.72632 7.56496 3.96491 10.179 3.96491Z" fill="#EEF1F0"/>
</g>
</g>
</svg>
