<svg width="369" height="368" viewBox="0 0 369 368" fill="none" xmlns="http://www.w3.org/2000/svg">
<path fill-rule="evenodd" clip-rule="evenodd" d="M185.816 62.5993C227.051 57.9603 268.568 80.7069 291.91 115.085C313.586 147.009 303.436 187.189 296.154 225.107C288.367 265.662 287.518 316.338 249.987 333.401C212.762 350.325 174.998 316.572 139.45 296.35C108.405 278.69 71.489 262.707 64.1642 227.694C56.9279 193.105 84.9572 164.442 105.907 136.011C128.49 105.363 148.035 66.8498 185.816 62.5993Z" fill="#E0F8F3"/>
<path d="M155.586 50.3709C158.193 50.3709 160.305 48.2581 160.305 45.6518C160.305 43.0455 158.193 40.9326 155.586 40.9326C152.98 40.9326 150.867 43.0455 150.867 45.6518C150.867 48.2581 152.98 50.3709 155.586 50.3709Z" fill="#59B8AA" stroke="black" stroke-width="0.380088" stroke-miterlimit="10"/>
<path d="M73.5352 43.2717V52.3366" stroke="black" stroke-width="0.380088" stroke-miterlimit="10"/>
<path d="M78.0669 47.8042H69.002" stroke="black" stroke-width="0.380088" stroke-miterlimit="10"/>
<path d="M53.7559 294.306V303.371" stroke="black" stroke-width="0.380088" stroke-miterlimit="10"/>
<path d="M58.2895 298.839H49.2246" stroke="black" stroke-width="0.380088" stroke-miterlimit="10"/>
<path d="M361.18 197.253C364.947 197.253 368 194.199 368 190.432C368 186.665 364.947 183.612 361.18 183.612C357.413 183.612 354.359 186.665 354.359 190.432C354.359 194.199 357.413 197.253 361.18 197.253Z" fill="#59B8AA" stroke="black" stroke-width="0.380088" stroke-miterlimit="10"/>
<path d="M357.362 190.758C356.417 189.407 356.004 187.691 356.147 186.039C355.039 187.231 354.359 188.819 354.359 190.575C354.359 194.262 357.351 197.253 361.037 197.253C363.559 197.253 365.748 195.851 366.88 193.789C363.504 194.703 359.281 193.503 357.362 190.758Z" fill="black"/>
<path d="M364.028 189.825C365.476 189.825 366.65 188.651 366.65 187.203C366.65 185.755 365.476 184.581 364.028 184.581C362.58 184.581 361.406 185.755 361.406 187.203C361.406 188.651 362.58 189.825 364.028 189.825Z" fill="white"/>
<path d="M63.8373 132.354C66.799 132.354 69.2 129.953 69.2 126.991C69.2 124.029 66.799 121.628 63.8373 121.628C60.8756 121.628 58.4746 124.029 58.4746 126.991C58.4746 129.953 60.8756 132.354 63.8373 132.354Z" fill="#F3B443" stroke="black" stroke-width="0.380088" stroke-miterlimit="10"/>
<path d="M60.8358 127.247C60.0925 126.185 59.7676 124.836 59.8801 123.536C59.0087 124.473 58.4746 125.723 58.4746 127.103C58.4746 130.002 60.8264 132.353 63.7248 132.353C65.7081 132.353 67.4291 131.251 68.3192 129.63C65.6644 130.348 62.3444 129.405 60.8358 127.247Z" fill="black"/>
<path d="M66.077 126.513C67.2155 126.513 68.1384 125.59 68.1384 124.452C68.1384 123.313 67.2155 122.39 66.077 122.39C64.9385 122.39 64.0156 123.313 64.0156 124.452C64.0156 125.59 64.9385 126.513 66.077 126.513Z" fill="white"/>
<path d="M149.328 360.502C151.192 360.502 152.704 358.99 152.704 357.126C152.704 355.261 151.192 353.749 149.328 353.749C147.463 353.749 145.951 355.261 145.951 357.126C145.951 358.99 147.463 360.502 149.328 360.502Z" fill="#F3B443" stroke="black" stroke-width="0.380088" stroke-miterlimit="10"/>
<path d="M147.438 357.287C146.97 356.618 146.765 355.769 146.836 354.95C146.287 355.54 145.951 356.327 145.951 357.196C145.951 359.021 147.432 360.502 149.257 360.502C150.506 360.502 151.589 359.808 152.15 358.787C150.478 359.239 148.388 358.646 147.438 357.287Z" fill="black"/>
<path d="M150.737 356.825C151.454 356.825 152.035 356.243 152.035 355.527C152.035 354.81 151.454 354.229 150.737 354.229C150.021 354.229 149.439 354.81 149.439 355.527C149.439 356.243 150.021 356.825 150.737 356.825Z" fill="white"/>
<path d="M359.716 133.793L325.546 112.243L308.923 140.31C307.098 143.413 313.415 150.509 323.026 156.158C332.637 161.811 341.91 163.877 343.73 160.774C343.815 160.632 343.877 160.476 343.926 160.316L343.984 160.347L359.716 133.784V133.793Z" fill="#FFDB7F" stroke="black" stroke-width="0.418097" stroke-miterlimit="10"/>
<path d="M359.84 133.215C361.664 130.112 355.351 123.016 345.739 117.366C336.128 111.715 326.857 109.65 325.033 112.753C323.209 115.856 329.522 122.952 339.134 128.602C348.745 134.253 358.016 136.318 359.84 133.215Z" fill="#CC963E" stroke="black" stroke-width="0.418097" stroke-miterlimit="10"/>
<path d="M352.794 105.508C346.869 102 339.199 103.963 335.691 109.888L331.947 116.21C331.84 116.33 331.747 116.454 331.662 116.597C330.959 117.781 331.35 119.308 332.535 120.011C333.719 120.715 335.246 120.323 335.949 119.139L339.938 112.403C342.061 108.82 346.699 107.631 350.283 109.755C353.866 111.878 355.055 116.517 352.932 120.1L349.188 126.421C349.081 126.542 348.988 126.666 348.903 126.809C348.2 127.993 348.591 129.52 349.775 130.223C350.96 130.926 352.486 130.535 353.19 129.351L357.178 122.615C360.686 116.69 358.723 109.02 352.798 105.512L352.794 105.508Z" fill="#FFDB7F" stroke="black" stroke-width="0.418097" stroke-miterlimit="10"/>
<g opacity="0.15">
<path d="M327.282 158.442C316.367 151.6 316.256 127.922 316.256 127.922L323.81 115.164C322.257 142.901 337.267 162.217 337.267 162.217C334.823 162.221 327.282 158.442 327.282 158.442Z" fill="white"/>
<path d="M349.171 151.591C340.681 142.576 340.321 129.284 340.321 129.284V129.28L351.249 134.434C350.475 137.737 353.733 143.89 353.733 143.89L349.171 151.591Z" fill="white"/>
</g>
<path d="M355.826 115.947C355.777 112.404 353.511 108.936 350.217 107.565C349.799 107.391 349.5 107.017 349.634 106.536C349.745 106.14 350.244 105.78 350.662 105.953C354.664 107.618 357.437 111.589 357.495 115.947C357.509 117.024 355.839 117.02 355.826 115.947Z" fill="white"/>
<path d="M355.621 120.479C356.694 120.479 356.698 118.809 355.621 118.809C354.544 118.809 354.544 120.479 355.621 120.479Z" fill="white"/>
<path d="M333.822 141.33C335.725 141.33 337.268 139.787 337.268 137.884C337.268 135.981 335.725 134.439 333.822 134.439C331.92 134.439 330.377 135.981 330.377 137.884C330.377 139.787 331.92 141.33 333.822 141.33Z" fill="black"/>
<path d="M332.081 137.693L326.623 144.788C326.369 145.122 326.459 145.603 326.819 145.817L329.993 147.695C330.345 147.905 330.803 147.767 330.981 147.397L334.827 139.322L332.081 137.693Z" fill="black"/>
<path d="M180.762 271.524C231.441 271.524 272.524 230.441 272.524 179.762C272.524 129.083 231.441 88 180.762 88C130.083 88 89 129.083 89 179.762C89 230.441 130.083 271.524 180.762 271.524Z" fill="#FFDB7F" stroke="black" stroke-width="1.4" stroke-miterlimit="10"/>
<path d="M128.85 158.003C128.85 159.502 130.076 160.728 131.575 160.728C133.073 160.728 134.299 159.502 134.299 158.003V142.607C134.299 135.373 140.185 129.487 147.42 129.487H164.042C165.541 129.487 166.767 128.261 166.767 126.762C166.767 125.263 165.541 124.037 164.042 124.037H147.42C137.174 124.037 128.85 132.375 128.85 142.607V158.003Z" fill="#CC963E"/>
<path d="M231.552 159.229C231.552 160.728 232.779 161.954 234.277 161.954C235.776 161.954 237.002 160.728 237.002 159.229V142.607C237.002 132.362 228.664 124.037 218.432 124.037H203.036C201.537 124.037 200.311 125.263 200.311 126.762C200.311 128.261 201.537 129.487 203.036 129.487H218.432C225.666 129.487 231.552 135.373 231.552 142.607V159.229Z" fill="#CC963E"/>
<path d="M218.431 230.623H201.809C200.311 230.623 199.084 229.396 199.084 227.898C199.084 226.399 200.311 225.173 201.809 225.173H218.431C225.666 225.173 231.552 219.287 231.552 212.066V196.67C231.552 195.171 232.778 193.945 234.277 193.945C235.775 193.945 237.002 195.171 237.002 196.67V212.066C237.002 222.298 228.677 230.623 218.431 230.623Z" fill="#CC963E"/>
<path d="M147.42 230.622H162.816C164.315 230.622 165.541 229.396 165.541 227.898C165.541 226.399 164.315 225.173 162.816 225.173H147.42C140.185 225.173 134.299 219.3 134.299 212.066V195.444C134.299 193.945 133.073 192.719 131.575 192.719C130.076 192.719 128.85 193.945 128.85 195.444V212.066C128.85 222.298 137.188 230.622 147.42 230.622Z" fill="#CC963E"/>
<path d="M161.289 174.503C159.791 174.503 158.564 173.277 158.564 171.778V159.216C158.564 157.717 159.791 156.491 161.289 156.491C162.788 156.491 164.014 157.717 164.014 159.216V171.778C164.014 173.277 162.788 174.503 161.289 174.503Z" fill="#CC963E"/>
<path d="M200.311 171.778C200.311 173.277 201.537 174.503 203.036 174.503C204.535 174.503 205.761 173.277 205.761 171.778V159.216C205.761 157.717 204.535 156.491 203.036 156.491C201.537 156.491 200.311 157.717 200.311 159.216V171.778Z" fill="#CC963E"/>
<path d="M178.143 188.441H175.064C173.566 188.441 172.339 187.214 172.339 185.716C172.339 184.217 173.566 182.991 175.064 182.991H178.143C178.988 182.991 179.683 182.296 179.683 181.451V160.456C179.683 158.957 180.909 157.731 182.408 157.731C183.907 157.731 185.133 158.957 185.133 160.456V181.451C185.133 185.307 181.999 188.441 178.143 188.441Z" fill="#CC963E"/>
<path d="M176.821 210.022C177.026 211.371 178.184 212.338 179.505 212.338L179.492 212.325C179.642 212.325 179.778 212.325 179.914 212.298C198.28 209.491 205.297 191.425 205.583 190.662C206.114 189.258 205.406 187.691 204.003 187.16C202.599 186.629 201.019 187.337 200.487 188.741C200.433 188.89 194.261 204.586 179.097 206.916C177.612 207.147 176.59 208.537 176.821 210.022Z" fill="#CC963E"/>
<path d="M128.85 158.003C128.85 159.502 130.076 160.728 131.575 160.728C133.073 160.728 134.299 159.502 134.299 158.003V142.607C134.299 135.373 140.185 129.487 147.42 129.487H164.042C165.541 129.487 166.767 128.261 166.767 126.762C166.767 125.263 165.541 124.037 164.042 124.037H147.42C137.174 124.037 128.85 132.375 128.85 142.607V158.003Z" stroke="black" stroke-width="0.8" stroke-miterlimit="10"/>
<path d="M231.552 159.229C231.552 160.728 232.779 161.954 234.277 161.954C235.776 161.954 237.002 160.728 237.002 159.229V142.607C237.002 132.362 228.664 124.037 218.432 124.037H203.036C201.537 124.037 200.311 125.263 200.311 126.762C200.311 128.261 201.537 129.487 203.036 129.487H218.432C225.666 129.487 231.552 135.373 231.552 142.607V159.229Z" stroke="black" stroke-width="0.8" stroke-miterlimit="10"/>
<path d="M218.431 230.623H201.809C200.311 230.623 199.084 229.396 199.084 227.898C199.084 226.399 200.311 225.173 201.809 225.173H218.431C225.666 225.173 231.552 219.287 231.552 212.066V196.67C231.552 195.171 232.778 193.945 234.277 193.945C235.775 193.945 237.002 195.171 237.002 196.67V212.066C237.002 222.298 228.677 230.623 218.431 230.623Z" stroke="black" stroke-width="0.8" stroke-miterlimit="10"/>
<path d="M147.42 230.622H162.816C164.315 230.622 165.541 229.396 165.541 227.898C165.541 226.399 164.315 225.173 162.816 225.173H147.42C140.185 225.173 134.299 219.3 134.299 212.066V195.444C134.299 193.945 133.073 192.719 131.575 192.719C130.076 192.719 128.85 193.945 128.85 195.444V212.066C128.85 222.298 137.188 230.622 147.42 230.622Z" stroke="black" stroke-width="0.8" stroke-miterlimit="10"/>
<path d="M161.289 174.503C159.791 174.503 158.564 173.277 158.564 171.778V159.216C158.564 157.717 159.791 156.491 161.289 156.491C162.788 156.491 164.014 157.717 164.014 159.216V171.778C164.014 173.277 162.788 174.503 161.289 174.503Z" stroke="black" stroke-width="0.8" stroke-miterlimit="10"/>
<path d="M200.311 171.778C200.311 173.277 201.537 174.503 203.036 174.503C204.535 174.503 205.761 173.277 205.761 171.778V159.216C205.761 157.717 204.535 156.491 203.036 156.491C201.537 156.491 200.311 157.717 200.311 159.216V171.778Z" stroke="black" stroke-width="0.8" stroke-miterlimit="10"/>
<path d="M178.143 188.441H175.064C173.566 188.441 172.339 187.214 172.339 185.716C172.339 184.217 173.566 182.991 175.064 182.991H178.143C178.988 182.991 179.683 182.296 179.683 181.451V160.456C179.683 158.957 180.909 157.731 182.408 157.731C183.907 157.731 185.133 158.957 185.133 160.456V181.451C185.133 185.307 181.999 188.441 178.143 188.441Z" stroke="black" stroke-width="0.8" stroke-miterlimit="10"/>
<path d="M176.821 210.022C177.026 211.371 178.184 212.338 179.505 212.338L179.492 212.325C179.642 212.325 179.778 212.325 179.914 212.298C198.28 209.491 205.297 191.425 205.583 190.662C206.114 189.258 205.406 187.691 204.003 187.16C202.599 186.629 201.019 187.337 200.487 188.741C200.433 188.89 194.261 204.586 179.097 206.916C177.612 207.147 176.59 208.537 176.821 210.022Z" stroke="black" stroke-width="0.8" stroke-miterlimit="10"/>
<path d="M218.711 32.81L223.482 37.5927C223.482 37.5927 231.109 38.2998 240.535 27.3202C249.961 16.3406 248.297 9.55186 248.297 9.55186L243.82 4.45532C243.82 4.45532 220.812 17.5561 218.711 32.814V32.81Z" fill="#F3B443" stroke="black" stroke-width="0.380088" stroke-miterlimit="10"/>
<path d="M236.671 23.1932C243.476 15.3096 246.68 6.92219 243.826 4.4594C240.973 1.99661 233.144 6.39103 226.339 14.2746C219.534 22.1582 216.331 30.5456 219.184 33.0083C222.037 35.4711 229.866 31.0767 236.671 23.1932Z" fill="#FFDB7F" stroke="black" stroke-width="0.380088" stroke-miterlimit="10"/>
<path d="M234.686 21.0764C240.072 14.837 242.885 8.43903 240.971 6.78618C239.056 5.13333 233.137 8.85149 227.752 15.0909C222.366 21.3304 219.552 27.7283 221.467 29.3812C223.382 31.034 229.3 27.3159 234.686 21.0764Z" fill="#FFDB7F" stroke="black" stroke-width="0.380088" stroke-miterlimit="10"/>
<path opacity="0.49" d="M244.438 22.1085L240.525 18.1004C240.525 18.1004 245.566 10.0643 244.772 5.53979L248.295 9.55187C248.295 9.55187 249.221 14.5491 244.434 22.1085H244.438Z" fill="black"/>
<path d="M42.467 206.259L35.7736 212.968C35.7736 212.968 25.0721 213.957 11.8521 198.556C-1.37189 183.155 0.963853 173.63 0.963853 173.63L7.24414 166.479C7.24414 166.479 39.5155 184.856 42.467 206.259Z" fill="#F3B443" stroke="black" stroke-width="0.380088" stroke-miterlimit="10"/>
<path d="M41.8072 206.516C45.808 203.063 41.314 191.3 31.7696 180.243C22.2252 169.185 11.2447 163.021 7.24399 166.474C3.24324 169.928 7.73725 181.691 17.2816 192.748C26.826 203.806 37.8065 209.97 41.8072 206.516Z" fill="#FFDB7F" stroke="black" stroke-width="0.380088" stroke-miterlimit="10"/>
<path d="M38.608 201.432C41.2951 199.112 37.3491 190.137 29.7945 181.385C22.2398 172.633 13.9373 167.418 11.2502 169.737C8.56308 172.057 12.509 181.032 20.0637 189.784C27.6183 198.536 35.9209 203.751 38.608 201.432Z" fill="#FFDB7F" stroke="black" stroke-width="0.380088" stroke-miterlimit="10"/>
<path opacity="0.49" d="M6.37677 191.243L11.8626 185.618C11.8626 185.618 4.7918 174.349 5.90803 167.997L0.962447 173.626C0.962447 173.626 -0.33651 180.637 6.37677 191.239V191.243Z" fill="black"/>
<path d="M322.787 354.063C322.06 354.599 315.625 359.27 314.846 359.695C303.179 366.103 286.178 360.395 275.584 346.023C265.108 331.818 264.572 314.133 273.812 304.794C274.543 304.055 281.014 299.181 281.864 298.553C293.495 289.977 306.401 299.641 317.702 314.971C329.004 330.3 334.418 345.486 322.787 354.063Z" fill="#F3B443" stroke="black" stroke-width="0.380088" stroke-miterlimit="10"/>
<path opacity="0.49" d="M281.875 298.398C281.025 299.026 274.55 303.9 273.823 304.639C266.752 311.789 265.413 323.829 269.874 335.456C271.455 333.879 273.096 332.366 274.784 330.912C277.505 328.183 280.468 325.704 283.634 323.507C283.24 315.727 286.481 304.908 281.875 298.398Z" fill="black"/>
<path d="M322.787 354.059C334.418 345.483 334.685 326.104 323.384 310.775C312.082 295.446 293.491 289.971 281.86 298.547C270.228 307.122 269.961 326.501 281.262 341.83C292.564 357.159 311.155 362.634 322.787 354.059Z" fill="#FFDB7F" stroke="black" stroke-width="0.380088" stroke-miterlimit="10"/>
<path d="M321.05 350.419C331.494 342.719 331.734 325.316 321.584 311.55C311.435 297.783 294.74 292.866 284.295 300.567C273.85 308.267 273.611 325.67 283.76 339.436C293.91 353.203 310.605 358.12 321.05 350.419Z" fill="#FFDB7F" stroke="black" stroke-width="0.380088" stroke-miterlimit="10"/>
<g opacity="0.29">
<path d="M331.777 337.125L273.348 313.255V313.251C274.158 306.851 277.857 302.478 277.857 302.478L330.073 323.992C331.777 326.904 331.777 337.125 331.777 337.125Z" fill="white"/>
<path d="M330.443 342.595L273.344 319.801C273.344 319.801 273.471 319.626 273.241 319.555C273.241 319.952 273.191 320.354 273.241 320.747C273.379 321.84 273.62 322.82 273.638 323.924C273.638 324 273.678 324.254 273.666 324.322C273.765 324.552 273.721 324.862 273.837 325.116L328.457 347.163C329.251 346.17 330.244 343.588 330.443 342.595Z" fill="white"/>
</g>
<path d="M119.289 304.769C119.289 304.769 134.744 302.871 134.744 322.279C134.744 322.279 134.744 304.403 151.068 304.716C151.068 304.716 137.024 305.307 134.744 286.528C134.744 286.528 135.178 304.403 119.289 304.766V304.769Z" fill="white" stroke="black" stroke-width="0.380088" stroke-miterlimit="10"/>
<path d="M321.613 326.056C321.613 326.056 329.34 325.108 329.34 334.811C329.34 334.811 329.34 325.874 337.503 326.029C337.503 326.029 330.481 326.323 329.34 316.935C329.34 316.935 329.556 325.871 321.613 326.056Z" fill="white" stroke="black" stroke-width="0.380088" stroke-miterlimit="10"/>
<path d="M261.969 88.3046C261.969 88.3046 279.376 86.1754 279.376 107.964C279.376 107.964 279.376 87.8954 297.76 88.249C297.76 88.249 281.946 88.9123 279.376 67.8311C279.376 67.8311 279.864 87.8994 261.969 88.3046Z" fill="white" stroke="black" stroke-width="0.380088" stroke-miterlimit="10"/>
</svg>
