<svg width="261" height="220" viewBox="0 0 261 220" fill="none" xmlns="http://www.w3.org/2000/svg">
<g filter="url(#filter0_d_751_4583)">
<rect x="16" y="16" width="229" height="188" rx="12" fill="white" shape-rendering="crispEdges"/>
<rect x="16.5" y="16.5" width="228" height="187" rx="11.5" stroke="#FBFDFC" shape-rendering="crispEdges"/>
<rect x="102.5" y="40" width="56" height="56" rx="28" fill="#E6F6EB"/>
<path d="M126.5 68L129.167 70.6667L134.5 65.3333M119.634 63.4933C119.439 62.6167 119.469 61.7051 119.72 60.8431C119.972 59.9811 120.437 59.1966 121.073 58.5623C121.709 57.928 122.494 57.4644 123.357 57.2146C124.219 56.9648 125.131 56.9369 126.007 57.1333C126.489 56.3791 127.154 55.7583 127.939 55.3284C128.724 54.8984 129.605 54.673 130.5 54.673C131.396 54.673 132.276 54.8984 133.062 55.3284C133.847 55.7583 134.511 56.3791 134.994 57.1333C135.871 56.936 136.784 56.9639 137.648 57.2143C138.512 57.4647 139.299 57.9295 139.935 58.5655C140.571 59.2015 141.036 59.9881 141.286 60.852C141.536 61.7159 141.564 62.6291 141.367 63.5067C142.121 63.9889 142.742 64.6533 143.172 65.4386C143.602 66.2239 143.827 67.1047 143.827 68C143.827 68.8953 143.602 69.7761 143.172 70.5614C142.742 71.3467 142.121 72.011 141.367 72.4933C141.563 73.3695 141.535 74.2812 141.286 75.1437C141.036 76.0062 140.572 76.7917 139.938 77.4274C139.304 78.063 138.519 78.5282 137.657 78.7798C136.795 79.0314 135.884 79.0613 135.007 78.8667C134.525 79.6238 133.86 80.2472 133.074 80.6791C132.287 81.111 131.404 81.3374 130.507 81.3374C129.61 81.3374 128.727 81.111 127.94 80.6791C127.153 80.2472 126.489 79.6238 126.007 78.8667C125.131 79.0631 124.219 79.0351 123.357 78.7853C122.494 78.5355 121.709 78.072 121.073 77.4377C120.437 76.8034 119.972 76.0189 119.72 75.1569C119.469 74.2949 119.439 73.3833 119.634 72.5067C118.874 72.0256 118.247 71.3602 117.814 70.5723C117.38 69.7843 117.152 68.8995 117.152 68C117.152 67.1005 117.38 66.2156 117.814 65.4277C118.247 64.6398 118.874 63.9743 119.634 63.4933Z" stroke="#30A46C" stroke-width="2" stroke-linecap="round" stroke-linejoin="round"/>
<path d="M69.408 117.936C69.376 117.264 69.1467 116.768 68.72 116.448C68.304 116.128 67.7813 115.968 67.152 115.968C66.5333 115.968 66.0587 116.101 65.728 116.368C65.408 116.624 65.248 116.955 65.248 117.36C65.248 117.744 65.3707 118.043 65.616 118.256C65.8613 118.469 66.208 118.645 66.656 118.784C67.104 118.912 67.6267 119.04 68.224 119.168C68.896 119.307 69.504 119.504 70.048 119.76C70.592 120.016 71.024 120.373 71.344 120.832C71.6747 121.291 71.84 121.888 71.84 122.624C71.84 123.68 71.44 124.533 70.64 125.184C69.84 125.835 68.7147 126.16 67.264 126.16C66.3147 126.16 65.4987 126.005 64.816 125.696C64.1333 125.376 63.6053 124.933 63.232 124.368C62.8587 123.792 62.656 123.125 62.624 122.368L64.832 122.08C64.8533 122.848 65.0827 123.424 65.52 123.808C65.968 124.181 66.56 124.368 67.296 124.368C67.9573 124.368 68.48 124.245 68.864 124C69.2587 123.744 69.456 123.339 69.456 122.784C69.456 122.389 69.344 122.085 69.12 121.872C68.9067 121.659 68.6187 121.499 68.256 121.392C67.904 121.275 67.5253 121.168 67.12 121.072C66.3093 120.901 65.5893 120.688 64.96 120.432C64.3307 120.165 63.8347 119.808 63.472 119.36C63.1093 118.912 62.928 118.315 62.928 117.568C62.928 116.896 63.104 116.309 63.456 115.808C63.808 115.296 64.2987 114.896 64.928 114.608C65.568 114.32 66.3093 114.176 67.152 114.176C68.528 114.176 69.6 114.496 70.368 115.136C71.1467 115.765 71.5627 116.603 71.616 117.648L69.408 117.936ZM76.4928 126.16C75.4794 126.16 74.6901 125.877 74.1248 125.312C73.5594 124.747 73.2768 123.968 73.2768 122.976V116.864H75.5008V122.608C75.5008 123.141 75.6394 123.547 75.9168 123.824C76.2048 124.091 76.5994 124.224 77.1008 124.224C77.6768 124.224 78.1461 124.053 78.5088 123.712C78.8714 123.36 79.0634 122.896 79.0848 122.32V116.864H81.3088V126H79.2608L79.1808 124.72C78.8714 125.189 78.4821 125.547 78.0128 125.792C77.5541 126.037 77.0474 126.16 76.4928 126.16ZM87.1876 126.144C86.281 126.144 85.4916 125.952 84.8196 125.568C84.1476 125.173 83.625 124.624 83.2516 123.92C82.889 123.205 82.7076 122.373 82.7076 121.424C82.7076 120.475 82.8943 119.648 83.2676 118.944C83.641 118.229 84.1636 117.68 84.8356 117.296C85.5076 116.901 86.297 116.704 87.2036 116.704C88.3876 116.704 89.3316 116.997 90.0356 117.584C90.7396 118.171 91.145 118.944 91.2516 119.904L89.1556 120.192C89.1023 119.616 88.8943 119.195 88.5316 118.928C88.1796 118.651 87.7316 118.512 87.1876 118.512C86.4836 118.512 85.929 118.768 85.5236 119.28C85.1183 119.792 84.9156 120.507 84.9156 121.424C84.9156 122.331 85.113 123.045 85.5076 123.568C85.913 124.08 86.473 124.336 87.1876 124.336C87.753 124.336 88.217 124.181 88.5796 123.872C88.9423 123.563 89.145 123.136 89.1876 122.592L91.2996 122.864C91.2356 123.547 91.0223 124.133 90.6596 124.624C90.297 125.115 89.817 125.493 89.2196 125.76C88.6223 126.016 87.945 126.144 87.1876 126.144ZM96.6439 126.144C95.7372 126.144 94.9479 125.952 94.2759 125.568C93.6039 125.173 93.0812 124.624 92.7079 123.92C92.3452 123.205 92.1639 122.373 92.1639 121.424C92.1639 120.475 92.3505 119.648 92.7239 118.944C93.0972 118.229 93.6199 117.68 94.2919 117.296C94.9639 116.901 95.7532 116.704 96.6599 116.704C97.8439 116.704 98.7879 116.997 99.4919 117.584C100.196 118.171 100.601 118.944 100.708 119.904L98.6119 120.192C98.5585 119.616 98.3505 119.195 97.9879 118.928C97.6359 118.651 97.1879 118.512 96.6439 118.512C95.9399 118.512 95.3852 118.768 94.9799 119.28C94.5745 119.792 94.3719 120.507 94.3719 121.424C94.3719 122.331 94.5692 123.045 94.9639 123.568C95.3692 124.08 95.9292 124.336 96.6439 124.336C97.2092 124.336 97.6732 124.181 98.0359 123.872C98.3985 123.563 98.6012 123.136 98.6439 122.592L100.756 122.864C100.692 123.547 100.479 124.133 100.116 124.624C99.7532 125.115 99.2732 125.493 98.6759 125.76C98.0785 126.016 97.4012 126.144 96.6439 126.144ZM106.148 126.16C105.263 126.16 104.479 125.979 103.796 125.616C103.113 125.243 102.58 124.704 102.196 124C101.812 123.296 101.62 122.443 101.62 121.44C101.62 120.491 101.796 119.659 102.148 118.944C102.511 118.229 103.028 117.68 103.7 117.296C104.372 116.901 105.167 116.704 106.084 116.704C107.001 116.704 107.791 116.907 108.452 117.312C109.113 117.717 109.604 118.32 109.924 119.12C110.255 119.909 110.377 120.88 110.292 122.032H103.812C103.897 122.864 104.143 123.472 104.548 123.856C104.953 124.24 105.497 124.432 106.18 124.432C106.756 124.432 107.231 124.304 107.604 124.048C107.977 123.792 108.212 123.429 108.308 122.96L110.212 123.44C110.031 124.251 109.572 124.907 108.836 125.408C108.111 125.909 107.215 126.16 106.148 126.16ZM106.052 118.384C105.455 118.384 104.964 118.56 104.58 118.912C104.196 119.264 103.951 119.803 103.844 120.528H108.052C108.063 119.867 107.887 119.344 107.524 118.96C107.172 118.576 106.681 118.384 106.052 118.384ZM115.041 126.16C113.825 126.16 112.881 125.893 112.209 125.36C111.548 124.827 111.185 124.096 111.121 123.168L113.233 122.912C113.233 123.435 113.399 123.851 113.729 124.16C114.06 124.469 114.524 124.624 115.121 124.624C115.612 124.624 116.001 124.533 116.289 124.352C116.577 124.171 116.721 123.883 116.721 123.488C116.721 123.157 116.615 122.912 116.401 122.752C116.188 122.592 115.889 122.469 115.505 122.384C115.132 122.299 114.7 122.197 114.209 122.08C113.335 121.888 112.652 121.6 112.161 121.216C111.671 120.821 111.425 120.24 111.425 119.472C111.425 118.619 111.761 117.947 112.433 117.456C113.105 116.955 114.001 116.704 115.121 116.704C116.241 116.704 117.121 116.944 117.761 117.424C118.412 117.904 118.769 118.571 118.833 119.424L116.753 119.696C116.753 119.227 116.604 118.864 116.305 118.608C116.017 118.341 115.596 118.208 115.041 118.208C114.593 118.208 114.247 118.304 114.001 118.496C113.756 118.677 113.633 118.917 113.633 119.216C113.633 119.621 113.831 119.909 114.225 120.08C114.62 120.24 115.223 120.4 116.033 120.56C116.588 120.667 117.084 120.816 117.521 121.008C117.969 121.2 118.321 121.477 118.577 121.84C118.844 122.203 118.977 122.699 118.977 123.328C118.977 124.181 118.647 124.869 117.985 125.392C117.335 125.904 116.353 126.16 115.041 126.16ZM123.779 126.16C122.563 126.16 121.619 125.893 120.947 125.36C120.286 124.827 119.923 124.096 119.859 123.168L121.971 122.912C121.971 123.435 122.136 123.851 122.467 124.16C122.798 124.469 123.262 124.624 123.859 124.624C124.35 124.624 124.739 124.533 125.027 124.352C125.315 124.171 125.459 123.883 125.459 123.488C125.459 123.157 125.352 122.912 125.139 122.752C124.926 122.592 124.627 122.469 124.243 122.384C123.87 122.299 123.438 122.197 122.947 122.08C122.072 121.888 121.39 121.6 120.899 121.216C120.408 120.821 120.163 120.24 120.163 119.472C120.163 118.619 120.499 117.947 121.171 117.456C121.843 116.955 122.739 116.704 123.859 116.704C124.979 116.704 125.859 116.944 126.499 117.424C127.15 117.904 127.507 118.571 127.571 119.424L125.491 119.696C125.491 119.227 125.342 118.864 125.043 118.608C124.755 118.341 124.334 118.208 123.779 118.208C123.331 118.208 122.984 118.304 122.739 118.496C122.494 118.677 122.371 118.917 122.371 119.216C122.371 119.621 122.568 119.909 122.963 120.08C123.358 120.24 123.96 120.4 124.771 120.56C125.326 120.667 125.822 120.816 126.259 121.008C126.707 121.2 127.059 121.477 127.315 121.84C127.582 122.203 127.715 122.699 127.715 123.328C127.715 124.181 127.384 124.869 126.723 125.392C126.072 125.904 125.091 126.16 123.779 126.16ZM129.558 126V118.448L128.23 118.48V116.864L129.558 116.896V115.712C129.558 114.955 129.787 114.357 130.246 113.92C130.715 113.472 131.409 113.248 132.326 113.248C132.529 113.248 132.731 113.259 132.934 113.28C133.147 113.301 133.318 113.333 133.446 113.376V115.072H133.35C133.233 115.019 133.057 114.992 132.822 114.992C132.459 114.992 132.182 115.067 131.99 115.216C131.809 115.365 131.718 115.648 131.718 116.064V116.896L133.478 116.864V118.48L131.718 118.432V126H129.558ZM137.812 126.16C136.798 126.16 136.009 125.877 135.444 125.312C134.878 124.747 134.596 123.968 134.596 122.976V116.864H136.82V122.608C136.82 123.141 136.958 123.547 137.236 123.824C137.524 124.091 137.918 124.224 138.42 124.224C138.996 124.224 139.465 124.053 139.828 123.712C140.19 123.36 140.382 122.896 140.404 122.32V116.864H142.628V126H140.58L140.5 124.72C140.19 125.189 139.801 125.547 139.332 125.792C138.873 126.037 138.366 126.16 137.812 126.16ZM144.458 126V113.36H146.65V126H144.458ZM148.508 126V113.36H150.7V126H148.508ZM153.775 128.8C153.583 128.8 153.38 128.784 153.167 128.752C152.954 128.72 152.783 128.683 152.655 128.64V126.912H152.783C152.932 126.987 153.13 127.024 153.375 127.024C153.738 127.024 154.031 126.955 154.255 126.816C154.479 126.677 154.65 126.443 154.767 126.112L154.975 125.568L151.551 116.864H153.967L155.199 120.592C155.306 120.923 155.439 121.355 155.599 121.888C155.77 122.411 155.93 122.976 156.079 123.584C156.228 122.987 156.367 122.469 156.495 122.032C156.634 121.595 156.794 121.115 156.975 120.592L158.223 116.864H160.415L156.799 126.592C156.49 127.413 156.095 127.984 155.615 128.304C155.146 128.635 154.532 128.8 153.775 128.8ZM164.549 128.672V116.864H166.581L166.693 118.272C166.949 117.771 167.333 117.387 167.845 117.12C168.357 116.843 168.938 116.704 169.589 116.704C170.389 116.704 171.077 116.896 171.653 117.28C172.24 117.653 172.688 118.192 172.997 118.896C173.317 119.589 173.477 120.416 173.477 121.376C173.477 122.347 173.312 123.195 172.981 123.92C172.661 124.635 172.208 125.189 171.621 125.584C171.034 125.968 170.341 126.16 169.541 126.16C168.933 126.16 168.384 126.037 167.893 125.792C167.413 125.547 167.029 125.173 166.741 124.672V128.672H164.549ZM166.741 121.76C166.741 122.571 166.938 123.2 167.333 123.648C167.738 124.096 168.293 124.32 168.997 124.32C169.722 124.32 170.272 124.069 170.645 123.568C171.029 123.067 171.221 122.341 171.221 121.392C171.221 120.464 171.029 119.755 170.645 119.264C170.261 118.773 169.717 118.528 169.013 118.528C168.309 118.528 167.754 118.752 167.349 119.2C166.944 119.637 166.741 120.251 166.741 121.04V121.76ZM177.488 126.16C176.539 126.16 175.792 125.925 175.248 125.456C174.715 124.976 174.448 124.352 174.448 123.584C174.448 122.741 174.715 122.101 175.248 121.664C175.792 121.216 176.475 120.917 177.296 120.768L179.264 120.416C179.659 120.352 179.925 120.24 180.064 120.08C180.203 119.92 180.272 119.712 180.272 119.456C180.272 119.115 180.149 118.843 179.904 118.64C179.659 118.437 179.259 118.336 178.704 118.336C178.107 118.336 177.643 118.464 177.312 118.72C176.981 118.965 176.821 119.344 176.832 119.856L174.784 119.616C174.784 118.699 175.141 117.984 175.856 117.472C176.581 116.96 177.541 116.704 178.736 116.704C179.995 116.704 180.928 116.955 181.536 117.456C182.155 117.947 182.464 118.651 182.464 119.568V123.728C182.464 124.016 182.517 124.208 182.624 124.304C182.741 124.389 182.875 124.432 183.024 124.432C183.152 124.432 183.237 124.416 183.28 124.384H183.376V125.936C183.248 126 183.077 126.048 182.864 126.08C182.651 126.112 182.469 126.128 182.32 126.128C181.819 126.128 181.413 126.021 181.104 125.808C180.795 125.584 180.613 125.248 180.56 124.8L180.544 124.576C180.299 125.067 179.899 125.456 179.344 125.744C178.8 126.021 178.181 126.16 177.488 126.16ZM178.144 124.528C178.699 124.528 179.168 124.405 179.552 124.16C179.947 123.904 180.203 123.547 180.32 123.088V121.632C180.203 121.685 180.053 121.739 179.872 121.792C179.701 121.835 179.493 121.877 179.248 121.92L178.016 122.16C177.504 122.267 177.152 122.432 176.96 122.656C176.779 122.88 176.688 123.125 176.688 123.392C176.688 123.765 176.821 124.048 177.088 124.24C177.355 124.432 177.707 124.528 178.144 124.528ZM184.883 126V116.864H187.075V126H184.883ZM184.899 115.504V113.328H187.075V115.504H184.899ZM188.798 121.472C188.798 120.501 188.958 119.659 189.278 118.944C189.598 118.229 190.052 117.68 190.638 117.296C191.236 116.901 191.934 116.704 192.734 116.704C194.036 116.704 194.964 117.195 195.518 118.176V113.36H197.726V126H195.678L195.566 124.592C195.321 125.083 194.937 125.467 194.414 125.744C193.902 126.021 193.321 126.16 192.67 126.16C191.881 126.16 191.193 125.968 190.606 125.584C190.03 125.2 189.582 124.661 189.262 123.968C188.953 123.264 188.798 122.432 188.798 121.472ZM191.038 121.456C191.038 122.384 191.23 123.099 191.614 123.6C191.998 124.091 192.542 124.336 193.246 124.336C193.95 124.336 194.505 124.112 194.91 123.664C195.316 123.216 195.518 122.597 195.518 121.808V121.104C195.518 120.293 195.316 119.664 194.91 119.216C194.516 118.757 193.966 118.528 193.262 118.528C192.548 118.528 191.998 118.784 191.614 119.296C191.23 119.797 191.038 120.517 191.038 121.456Z" fill="#30A46C"/>
<path d="M72.72 159V149.1H69.2V147.6H69.6C70.6 147.6 71.4133 147.307 72.04 146.72C72.68 146.133 73.0733 145.367 73.22 144.42H74.76V159H72.72ZM76.8963 161.76V160.64H77.2363C77.5829 160.64 77.8163 160.553 77.9363 160.38C78.0563 160.22 78.1163 160.013 78.1163 159.76V159H77.0763V156.72H79.1763V159.94C79.1763 160.567 79.0029 161.027 78.6563 161.32C78.3096 161.613 77.8563 161.76 77.2963 161.76H76.8963ZM87.4938 159V155.86H80.1338V154.1L87.4138 144.42H89.5338V154.06H91.7738V155.86H89.5338V159H87.4938ZM82.3538 154.06H87.4938V147.12L82.3538 154.06ZM97.8592 159.2C96.4459 159.2 95.2992 158.84 94.4192 158.12C93.5392 157.387 93.0192 156.393 92.8592 155.14L94.8192 154.88C94.8992 155.64 95.1792 156.253 95.6592 156.72C96.1526 157.173 96.8659 157.4 97.7992 157.4C98.8126 157.4 99.5992 157.147 100.159 156.64C100.719 156.12 101.106 155.42 101.319 154.54C101.533 153.66 101.613 152.673 101.559 151.58C101.306 152.193 100.826 152.693 100.119 153.08C99.4259 153.467 98.6392 153.66 97.7592 153.66C96.7859 153.66 95.9259 153.467 95.1792 153.08C94.4459 152.693 93.8726 152.16 93.4592 151.48C93.0592 150.787 92.8592 149.98 92.8592 149.06C92.8592 148.113 93.0726 147.28 93.4992 146.56C93.9259 145.827 94.5259 145.253 95.2992 144.84C96.0726 144.427 96.9659 144.22 97.9792 144.22C99.2592 144.22 100.313 144.533 101.139 145.16C101.979 145.787 102.599 146.673 102.999 147.82C103.399 148.967 103.599 150.327 103.599 151.9C103.599 153.3 103.393 154.553 102.979 155.66C102.579 156.753 101.959 157.62 101.119 158.26C100.279 158.887 99.1926 159.2 97.8592 159.2ZM97.9992 151.98C98.9192 151.98 99.6592 151.707 100.219 151.16C100.793 150.6 101.079 149.873 101.079 148.98C101.079 148.1 100.799 147.387 100.239 146.84C99.6792 146.293 98.9392 146.02 98.0192 146.02C97.0992 146.02 96.3592 146.293 95.7992 146.84C95.2392 147.387 94.9592 148.107 94.9592 149C94.9592 149.947 95.2392 150.68 95.7992 151.2C96.3592 151.72 97.0926 151.98 97.9992 151.98ZM110.355 159.2C108.941 159.2 107.795 158.84 106.915 158.12C106.035 157.387 105.515 156.393 105.355 155.14L107.315 154.88C107.395 155.64 107.675 156.253 108.155 156.72C108.648 157.173 109.361 157.4 110.295 157.4C111.308 157.4 112.095 157.147 112.655 156.64C113.215 156.12 113.601 155.42 113.815 154.54C114.028 153.66 114.108 152.673 114.055 151.58C113.801 152.193 113.321 152.693 112.615 153.08C111.921 153.467 111.135 153.66 110.255 153.66C109.281 153.66 108.421 153.467 107.675 153.08C106.941 152.693 106.368 152.16 105.955 151.48C105.555 150.787 105.355 149.98 105.355 149.06C105.355 148.113 105.568 147.28 105.995 146.56C106.421 145.827 107.021 145.253 107.795 144.84C108.568 144.427 109.461 144.22 110.475 144.22C111.755 144.22 112.808 144.533 113.635 145.16C114.475 145.787 115.095 146.673 115.495 147.82C115.895 148.967 116.095 150.327 116.095 151.9C116.095 153.3 115.888 154.553 115.475 155.66C115.075 156.753 114.455 157.62 113.615 158.26C112.775 158.887 111.688 159.2 110.355 159.2ZM110.495 151.98C111.415 151.98 112.155 151.707 112.715 151.16C113.288 150.6 113.575 149.873 113.575 148.98C113.575 148.1 113.295 147.387 112.735 146.84C112.175 146.293 111.435 146.02 110.515 146.02C109.595 146.02 108.855 146.293 108.295 146.84C107.735 147.387 107.455 148.107 107.455 149C107.455 149.947 107.735 150.68 108.295 151.2C108.855 151.72 109.588 151.98 110.495 151.98ZM116.94 159V156.72H119.04V159H116.94ZM125.111 159.2C123.697 159.2 122.551 158.84 121.671 158.12C120.791 157.387 120.271 156.393 120.111 155.14L122.071 154.88C122.151 155.64 122.431 156.253 122.911 156.72C123.404 157.173 124.117 157.4 125.051 157.4C126.064 157.4 126.851 157.147 127.411 156.64C127.971 156.12 128.357 155.42 128.571 154.54C128.784 153.66 128.864 152.673 128.811 151.58C128.557 152.193 128.077 152.693 127.371 153.08C126.677 153.467 125.891 153.66 125.011 153.66C124.037 153.66 123.177 153.467 122.431 153.08C121.697 152.693 121.124 152.16 120.711 151.48C120.311 150.787 120.111 149.98 120.111 149.06C120.111 148.113 120.324 147.28 120.751 146.56C121.177 145.827 121.777 145.253 122.551 144.84C123.324 144.427 124.217 144.22 125.231 144.22C126.511 144.22 127.564 144.533 128.391 145.16C129.231 145.787 129.851 146.673 130.251 147.82C130.651 148.967 130.851 150.327 130.851 151.9C130.851 153.3 130.644 154.553 130.231 155.66C129.831 156.753 129.211 157.62 128.371 158.26C127.531 158.887 126.444 159.2 125.111 159.2ZM125.251 151.98C126.171 151.98 126.911 151.707 127.471 151.16C128.044 150.6 128.331 149.873 128.331 148.98C128.331 148.1 128.051 147.387 127.491 146.84C126.931 146.293 126.191 146.02 125.271 146.02C124.351 146.02 123.611 146.293 123.051 146.84C122.491 147.387 122.211 148.107 122.211 149C122.211 149.947 122.491 150.68 123.051 151.2C123.611 151.72 124.344 151.98 125.251 151.98ZM137.606 159.2C136.193 159.2 135.046 158.84 134.166 158.12C133.286 157.387 132.766 156.393 132.606 155.14L134.566 154.88C134.646 155.64 134.926 156.253 135.406 156.72C135.899 157.173 136.613 157.4 137.546 157.4C138.559 157.4 139.346 157.147 139.906 156.64C140.466 156.12 140.853 155.42 141.066 154.54C141.279 153.66 141.359 152.673 141.306 151.58C141.053 152.193 140.573 152.693 139.866 153.08C139.173 153.467 138.386 153.66 137.506 153.66C136.533 153.66 135.673 153.467 134.926 153.08C134.193 152.693 133.619 152.16 133.206 151.48C132.806 150.787 132.606 149.98 132.606 149.06C132.606 148.113 132.819 147.28 133.246 146.56C133.673 145.827 134.273 145.253 135.046 144.84C135.819 144.427 136.713 144.22 137.726 144.22C139.006 144.22 140.059 144.533 140.886 145.16C141.726 145.787 142.346 146.673 142.746 147.82C143.146 148.967 143.346 150.327 143.346 151.9C143.346 153.3 143.139 154.553 142.726 155.66C142.326 156.753 141.706 157.62 140.866 158.26C140.026 158.887 138.939 159.2 137.606 159.2ZM137.746 151.98C138.666 151.98 139.406 151.707 139.966 151.16C140.539 150.6 140.826 149.873 140.826 148.98C140.826 148.1 140.546 147.387 139.986 146.84C139.426 146.293 138.686 146.02 137.766 146.02C136.846 146.02 136.106 146.293 135.546 146.84C134.986 147.387 134.706 148.107 134.706 149C134.706 149.947 134.986 150.68 135.546 151.2C136.106 151.72 136.839 151.98 137.746 151.98ZM150.252 153.8V144.42H152.352V153.64C152.352 154.947 152.719 155.88 153.452 156.44C154.186 157 155.152 157.28 156.352 157.28C157.766 157.28 158.779 156.953 159.392 156.3C160.019 155.633 160.332 154.747 160.332 153.64V144.42H162.412V153.8C162.412 154.88 162.179 155.827 161.712 156.64C161.246 157.44 160.559 158.067 159.652 158.52C158.759 158.973 157.646 159.2 156.312 159.2C154.446 159.2 152.966 158.733 151.872 157.8C150.792 156.867 150.252 155.533 150.252 153.8ZM173.506 148.82C173.452 147.913 173.132 147.213 172.546 146.72C171.959 146.227 171.166 145.98 170.166 145.98C169.232 145.98 168.512 146.18 168.006 146.58C167.512 146.967 167.266 147.473 167.266 148.1C167.266 148.633 167.419 149.053 167.726 149.36C168.032 149.667 168.472 149.92 169.046 150.12C169.632 150.307 170.326 150.487 171.126 150.66C171.726 150.78 172.306 150.933 172.866 151.12C173.426 151.307 173.926 151.553 174.366 151.86C174.819 152.167 175.172 152.567 175.426 153.06C175.692 153.553 175.826 154.16 175.826 154.88C175.826 156.173 175.346 157.22 174.386 158.02C173.426 158.807 172.052 159.2 170.266 159.2C169.106 159.2 168.106 159 167.266 158.6C166.439 158.2 165.799 157.64 165.346 156.92C164.892 156.2 164.652 155.367 164.626 154.42L166.686 154.18C166.726 155.233 167.066 156.04 167.706 156.6C168.359 157.16 169.232 157.44 170.326 157.44C171.312 157.44 172.106 157.253 172.706 156.88C173.306 156.507 173.606 155.88 173.606 155C173.606 154.413 173.446 153.967 173.126 153.66C172.806 153.34 172.386 153.1 171.866 152.94C171.346 152.767 170.772 152.613 170.146 152.48C168.452 152.107 167.186 151.613 166.346 151C165.506 150.373 165.086 149.453 165.086 148.24C165.086 147.44 165.292 146.74 165.706 146.14C166.132 145.54 166.726 145.073 167.486 144.74C168.259 144.393 169.152 144.22 170.166 144.22C171.832 144.22 173.139 144.62 174.086 145.42C175.032 146.207 175.532 147.26 175.586 148.58L173.506 148.82ZM178.215 159V144.42H184.175C185.562 144.42 186.749 144.72 187.735 145.32C188.722 145.92 189.482 146.767 190.015 147.86C190.549 148.953 190.815 150.24 190.815 151.72C190.815 153.16 190.555 154.427 190.035 155.52C189.515 156.613 188.762 157.467 187.775 158.08C186.789 158.693 185.589 159 184.175 159H178.215ZM184.115 146.3H180.295V157.12H184.115C185.542 157.12 186.649 156.633 187.435 155.66C188.222 154.673 188.615 153.353 188.615 151.7C188.615 150.02 188.215 148.7 187.415 147.74C186.629 146.78 185.529 146.3 184.115 146.3Z" fill="#1A211E"/>
<path d="M79.923 180V172.681H81.262V180H79.923ZM79.988 171.472V169.782H81.21V171.472H79.988ZM83.5031 180V172.681H84.7251L84.8031 173.786C85.4097 172.963 86.2071 172.551 87.1951 172.551C87.9317 172.551 88.5341 172.763 89.0021 173.188C89.4787 173.604 89.7171 174.245 89.7171 175.112V180H88.3911V175.242C88.3911 174.783 88.2611 174.419 88.0011 174.15C87.7411 173.881 87.3467 173.747 86.8181 173.747C86.4627 173.747 86.1334 173.825 85.8301 173.981C85.5267 174.128 85.2841 174.345 85.1021 174.631C84.9287 174.917 84.8421 175.259 84.8421 175.658V180H83.5031ZM99.1596 180V177.959H94.3756V176.815L99.1076 170.523H100.486V176.789H101.942V177.959H100.486V180H99.1596ZM95.8186 176.789H99.1596V172.278L95.8186 176.789ZM106.329 180V172.681H107.668V180H106.329ZM106.394 171.472V169.782H107.616V171.472H106.394ZM109.909 180V172.681H111.131L111.209 173.786C111.816 172.963 112.613 172.551 113.601 172.551C114.338 172.551 114.94 172.763 115.408 173.188C115.885 173.604 116.123 174.245 116.123 175.112V180H114.797V175.242C114.797 174.783 114.667 174.419 114.407 174.15C114.147 173.881 113.753 173.747 113.224 173.747C112.869 173.747 112.54 173.825 112.236 173.981C111.933 174.128 111.69 174.345 111.508 174.631C111.335 174.917 111.248 175.259 111.248 175.658V180H109.909ZM120.584 180.13C119.665 180.13 118.929 179.918 118.374 179.493C117.819 179.068 117.529 178.483 117.503 177.738L118.803 177.595C118.803 178.046 118.968 178.414 119.297 178.7C119.626 178.986 120.068 179.129 120.623 179.129C121.1 179.129 121.481 179.047 121.767 178.882C122.062 178.709 122.209 178.423 122.209 178.024C122.209 177.703 122.109 177.469 121.91 177.322C121.719 177.166 121.455 177.053 121.117 176.984C120.779 176.906 120.402 176.824 119.986 176.737C119.241 176.572 118.69 176.325 118.335 175.996C117.988 175.658 117.815 175.207 117.815 174.644C117.815 174.011 118.066 173.504 118.569 173.123C119.072 172.742 119.743 172.551 120.584 172.551C121.433 172.551 122.118 172.737 122.638 173.11C123.158 173.483 123.44 174.042 123.483 174.787L122.196 174.956C122.196 174.531 122.062 174.189 121.793 173.929C121.524 173.669 121.108 173.539 120.545 173.539C120.103 173.539 119.761 173.634 119.518 173.825C119.284 174.007 119.167 174.245 119.167 174.54C119.167 174.913 119.327 175.181 119.648 175.346C119.977 175.511 120.502 175.662 121.221 175.801C121.715 175.888 122.135 176.009 122.482 176.165C122.837 176.321 123.11 176.542 123.301 176.828C123.492 177.114 123.587 177.5 123.587 177.985C123.587 178.626 123.34 179.146 122.846 179.545C122.361 179.935 121.607 180.13 120.584 180.13ZM126.875 180.091C125.879 180.091 125.38 179.679 125.38 178.856V173.721H124.405V172.681H125.38V170.64L126.68 170.51V172.681H127.863V173.721H126.68V178.31C126.68 178.579 126.719 178.756 126.797 178.843C126.884 178.93 127.049 178.973 127.291 178.973C127.543 178.973 127.733 178.956 127.863 178.921V179.987C127.673 180.022 127.495 180.048 127.33 180.065C127.166 180.082 127.014 180.091 126.875 180.091ZM131.107 180.13C130.345 180.13 129.751 179.944 129.326 179.571C128.91 179.19 128.702 178.696 128.702 178.089C128.702 177.604 128.811 177.209 129.027 176.906C129.253 176.603 129.543 176.369 129.898 176.204C130.254 176.031 130.639 175.905 131.055 175.827L132.589 175.541C132.979 175.472 133.235 175.368 133.356 175.229C133.478 175.082 133.538 174.891 133.538 174.657C133.538 174.354 133.43 174.102 133.213 173.903C132.997 173.695 132.602 173.591 132.03 173.591C131.476 173.591 131.034 173.699 130.704 173.916C130.375 174.133 130.215 174.466 130.223 174.917L128.962 174.787C128.98 174.068 129.266 173.517 129.82 173.136C130.384 172.746 131.12 172.551 132.03 172.551C132.94 172.551 133.638 172.733 134.123 173.097C134.617 173.461 134.864 174.016 134.864 174.761V178.453C134.864 178.713 134.912 178.882 135.007 178.96C135.103 179.038 135.207 179.077 135.319 179.077C135.389 179.077 135.441 179.077 135.475 179.077C135.51 179.068 135.532 179.06 135.54 179.051H135.618V180C135.532 180.035 135.415 180.061 135.267 180.078C135.129 180.095 135.025 180.104 134.955 180.104C134.583 180.104 134.279 180.013 134.045 179.831C133.82 179.649 133.707 179.372 133.707 178.999V178.765C133.525 179.172 133.196 179.502 132.719 179.753C132.243 180.004 131.705 180.13 131.107 180.13ZM131.445 179.064C131.965 179.064 132.412 178.956 132.784 178.739C133.166 178.514 133.421 178.202 133.551 177.803V176.282C133.447 176.334 133.309 176.382 133.135 176.425C132.971 176.468 132.758 176.516 132.498 176.568L131.419 176.789C130.873 176.902 130.509 177.066 130.327 177.283C130.154 177.5 130.067 177.734 130.067 177.985C130.067 178.358 130.197 178.631 130.457 178.804C130.717 178.977 131.047 179.064 131.445 179.064ZM136.747 180V169.73H138.073V180H136.747ZM139.946 180V169.73H141.272V180H139.946ZM143.146 180V172.681H144.355L144.446 173.851C144.688 173.409 145.005 173.084 145.395 172.876C145.785 172.659 146.205 172.551 146.656 172.551C147.158 172.551 147.605 172.677 147.995 172.928C148.385 173.179 148.671 173.552 148.853 174.046C149.078 173.561 149.403 173.192 149.828 172.941C150.261 172.681 150.733 172.551 151.245 172.551C152.025 172.551 152.623 172.781 153.039 173.24C153.455 173.691 153.663 174.293 153.663 175.047V180H152.324V175.268C152.324 174.783 152.207 174.41 151.973 174.15C151.739 173.881 151.396 173.747 150.946 173.747C150.391 173.747 149.936 173.929 149.581 174.293C149.234 174.657 149.061 175.16 149.061 175.801V180H147.735V175.385C147.735 174.9 147.622 174.505 147.397 174.202C147.171 173.899 146.816 173.747 146.331 173.747C145.776 173.747 145.33 173.938 144.992 174.319C144.654 174.692 144.485 175.164 144.485 175.736V180H143.146ZM158.618 180.13C157.916 180.13 157.301 179.983 156.772 179.688C156.252 179.385 155.845 178.951 155.55 178.388C155.264 177.825 155.121 177.144 155.121 176.347C155.121 175.584 155.255 174.921 155.524 174.358C155.801 173.786 156.196 173.344 156.707 173.032C157.218 172.711 157.838 172.551 158.566 172.551C159.259 172.551 159.857 172.703 160.36 173.006C160.871 173.309 161.257 173.769 161.517 174.384C161.777 174.991 161.877 175.753 161.816 176.672H156.447C156.49 177.461 156.698 178.05 157.071 178.44C157.452 178.83 157.972 179.025 158.631 179.025C159.168 179.025 159.602 178.904 159.931 178.661C160.26 178.418 160.464 178.08 160.542 177.647L161.725 177.92C161.595 178.579 161.253 179.112 160.698 179.519C160.152 179.926 159.459 180.13 158.618 180.13ZM158.54 173.604C158.003 173.604 157.543 173.769 157.162 174.098C156.789 174.419 156.56 174.943 156.473 175.671H160.451C160.46 175.047 160.295 174.549 159.957 174.176C159.628 173.795 159.155 173.604 158.54 173.604ZM163.153 180V172.681H164.375L164.453 173.786C165.06 172.963 165.857 172.551 166.845 172.551C167.582 172.551 168.184 172.763 168.652 173.188C169.129 173.604 169.367 174.245 169.367 175.112V180H168.041V175.242C168.041 174.783 167.911 174.419 167.651 174.15C167.391 173.881 166.997 173.747 166.468 173.747C166.113 173.747 165.784 173.825 165.48 173.981C165.177 174.128 164.934 174.345 164.752 174.631C164.579 174.917 164.492 175.259 164.492 175.658V180H163.153ZM172.896 180.091C171.899 180.091 171.401 179.679 171.401 178.856V173.721H170.426V172.681H171.401V170.64L172.701 170.51V172.681H173.884V173.721H172.701V178.31C172.701 178.579 172.74 178.756 172.818 178.843C172.905 178.93 173.069 178.973 173.312 178.973C173.563 178.973 173.754 178.956 173.884 178.921V179.987C173.693 180.022 173.516 180.048 173.351 180.065C173.186 180.082 173.035 180.091 172.896 180.091ZM177.713 180.13C176.794 180.13 176.057 179.918 175.503 179.493C174.948 179.068 174.658 178.483 174.632 177.738L175.932 177.595C175.932 178.046 176.096 178.414 176.426 178.7C176.755 178.986 177.197 179.129 177.752 179.129C178.228 179.129 178.61 179.047 178.896 178.882C179.19 178.709 179.338 178.423 179.338 178.024C179.338 177.703 179.238 177.469 179.039 177.322C178.848 177.166 178.584 177.053 178.246 176.984C177.908 176.906 177.531 176.824 177.115 176.737C176.369 176.572 175.819 176.325 175.464 175.996C175.117 175.658 174.944 175.207 174.944 174.644C174.944 174.011 175.195 173.504 175.698 173.123C176.2 172.742 176.872 172.551 177.713 172.551C178.562 172.551 179.247 172.737 179.767 173.11C180.287 173.483 180.568 174.042 180.612 174.787L179.325 174.956C179.325 174.531 179.19 174.189 178.922 173.929C178.653 173.669 178.237 173.539 177.674 173.539C177.232 173.539 176.889 173.634 176.647 173.825C176.413 174.007 176.296 174.245 176.296 174.54C176.296 174.913 176.456 175.181 176.777 175.346C177.106 175.511 177.63 175.662 178.35 175.801C178.844 175.888 179.264 176.009 179.611 176.165C179.966 176.321 180.239 176.542 180.43 176.828C180.62 177.114 180.716 177.5 180.716 177.985C180.716 178.626 180.469 179.146 179.975 179.545C179.489 179.935 178.735 180.13 177.713 180.13Z" fill="#5F6563"/>
</g>
<defs>
<filter id="filter0_d_751_4583" x="0" y="0" width="261" height="220" filterUnits="userSpaceOnUse" color-interpolation-filters="sRGB">
<feFlood flood-opacity="0" result="BackgroundImageFix"/>
<feColorMatrix in="SourceAlpha" type="matrix" values="0 0 0 0 0 0 0 0 0 0 0 0 0 0 0 0 0 0 127 0" result="hardAlpha"/>
<feOffset/>
<feGaussianBlur stdDeviation="8"/>
<feComposite in2="hardAlpha" operator="out"/>
<feColorMatrix type="matrix" values="0 0 0 0 0 0 0 0 0 0 0 0 0 0 0 0 0 0 0.08 0"/>
<feBlend mode="normal" in2="BackgroundImageFix" result="effect1_dropShadow_751_4583"/>
<feBlend mode="normal" in="SourceGraphic" in2="effect1_dropShadow_751_4583" result="shape"/>
</filter>
</defs>
</svg>
