<svg width="61" height="20" viewBox="0 0 61 20" fill="none" xmlns="http://www.w3.org/2000/svg">
<g id="Frame">
<path id="Vector" d="M21.7565 18.4384L24.6117 1.7068H29.1786L26.3213 18.4384H21.7565ZM42.8201 2.06748C41.9155 1.72851 40.4976 1.36475 38.7272 1.36475C34.2147 1.36475 31.036 3.63398 31.009 6.88637C30.9834 9.29065 33.2783 10.6318 35.0104 11.4322C36.7881 12.2523 37.3856 12.7753 37.3772 13.5077C37.366 14.6291 35.9576 15.1415 34.6451 15.1415C32.8172 15.1415 31.8462 14.8879 30.3463 14.2632L29.7578 13.9974L29.1169 17.743C30.1836 18.21 32.1561 18.6146 34.204 18.6355C39.0045 18.6355 42.1207 16.3923 42.1563 12.9191C42.1733 11.0158 40.9567 9.56731 38.322 8.37312C36.7258 7.59919 35.7482 7.08261 35.7586 6.29894C35.7586 5.60347 36.586 4.8597 38.3738 4.8597C39.8672 4.83663 40.9491 5.16184 41.792 5.50073L42.2012 5.69389L42.8201 2.06748ZM54.572 1.70654H51.0431C49.9499 1.70654 49.1318 2.00458 48.6517 3.09406L41.8695 18.4274H46.665C46.665 18.4274 47.449 16.3656 47.6263 15.913C48.1505 15.913 52.809 15.9202 53.4751 15.9202C53.6117 16.5059 54.0306 18.4274 54.0306 18.4274H58.2683L54.572 1.70603V1.70654ZM48.9731 12.5108C49.3507 11.5468 50.7927 7.83364 50.7927 7.83364C50.7656 7.87825 51.1674 6.86492 51.3981 6.23671L51.7066 7.67936C51.7066 7.67936 52.5812 11.6733 52.764 12.5108H48.9731ZM17.8796 1.70654L13.4085 13.1168L12.9321 10.798C12.0998 8.12509 9.50649 5.22919 6.60742 3.77936L10.6955 18.4118L15.5274 18.4064L22.717 1.70637H17.8796" fill="#EEF1F0"/>
<path id="Vector_2" d="M9.23863 1.70615H1.87469L1.81641 2.05427C7.54539 3.43923 11.3362 6.78615 12.9101 10.8073L11.3088 3.11838C11.0323 2.05897 10.2307 1.74282 9.2388 1.70581" fill="#EEF1F0"/>
</g>
</svg>
