<svg width="368" height="368" viewBox="0 0 368 368" fill="none" xmlns="http://www.w3.org/2000/svg">
<path fill-rule="evenodd" clip-rule="evenodd" d="M175.965 58.1111C207.826 63.0961 223.907 96.0468 244.47 120.747C262.031 141.842 287.527 161.594 284.798 188.84C282.154 215.229 250.887 225.808 232.063 244.601C213.158 263.475 202.288 292.523 175.965 297.497C146.449 303.073 113.706 292.907 93.5345 270.775C73.9722 249.311 78.857 217.739 76.9351 188.84C74.7814 156.455 62.2244 121.234 81.8652 95.3063C102.973 67.4418 141.3 52.6876 175.965 58.1111Z" fill="#E0F8F3"/>
<path d="M155.586 50.3709C158.193 50.3709 160.305 48.2581 160.305 45.6518C160.305 43.0455 158.193 40.9326 155.586 40.9326C152.98 40.9326 150.867 43.0455 150.867 45.6518C150.867 48.2581 152.98 50.3709 155.586 50.3709Z" fill="#59B8AA" stroke="black" stroke-width="0.380088" stroke-miterlimit="10"/>
<path d="M73.5352 43.2717V52.3366" stroke="black" stroke-width="0.380088" stroke-miterlimit="10"/>
<path d="M78.0669 47.8042H69.002" stroke="black" stroke-width="0.380088" stroke-miterlimit="10"/>
<path d="M53.7559 294.306V303.371" stroke="black" stroke-width="0.380088" stroke-miterlimit="10"/>
<path d="M58.2895 298.839H49.2246" stroke="black" stroke-width="0.380088" stroke-miterlimit="10"/>
<path d="M34.8205 175.641C38.5874 175.641 41.6411 172.587 41.6411 168.821C41.6411 165.054 38.5874 162 34.8205 162C31.0536 162 28 165.054 28 168.821C28 172.587 31.0536 175.641 34.8205 175.641Z" fill="#59B8AA" stroke="black" stroke-width="0.380088" stroke-miterlimit="10"/>
<path d="M31.0031 169.146C30.0577 167.796 29.6446 166.08 29.7876 164.427C28.6793 165.619 28 167.208 28 168.963C28 172.65 30.9912 175.641 34.6775 175.641C37.2 175.641 39.3887 174.239 40.5209 172.177C37.1444 173.091 32.9217 171.891 31.0031 169.146Z" fill="black"/>
<path d="M37.6686 168.213C39.1166 168.213 40.2904 167.039 40.2904 165.591C40.2904 164.143 39.1166 162.969 37.6686 162.969C36.2207 162.969 35.0469 164.143 35.0469 165.591C35.0469 167.039 36.2207 168.213 37.6686 168.213Z" fill="white"/>
<path d="M314.363 111.725C317.324 111.725 319.725 109.324 319.725 106.363C319.725 103.401 317.324 101 314.363 101C311.401 101 309 103.401 309 106.363C309 109.324 311.401 111.725 314.363 111.725Z" fill="#F3B443" stroke="black" stroke-width="0.380088" stroke-miterlimit="10"/>
<path d="M311.361 106.619C310.618 105.557 310.293 104.207 310.405 102.908C309.534 103.845 309 105.094 309 106.475C309 109.373 311.352 111.725 314.25 111.725C316.234 111.725 317.954 110.623 318.845 109.002C316.19 109.72 312.87 108.777 311.361 106.619Z" fill="black"/>
<path d="M316.602 105.885C317.741 105.885 318.664 104.962 318.664 103.823C318.664 102.685 317.741 101.762 316.602 101.762C315.464 101.762 314.541 102.685 314.541 103.823C314.541 104.962 315.464 105.885 316.602 105.885Z" fill="white"/>
<path d="M174.376 341.753C176.241 341.753 177.753 340.241 177.753 338.377C177.753 336.512 176.241 335 174.376 335C172.512 335 171 336.512 171 338.377C171 340.241 172.512 341.753 174.376 341.753Z" fill="#F3B443" stroke="black" stroke-width="0.380088" stroke-miterlimit="10"/>
<path d="M172.487 338.538C172.019 337.869 171.814 337.019 171.885 336.201C171.336 336.791 171 337.578 171 338.447C171 340.272 172.481 341.753 174.306 341.753C175.554 341.753 176.638 341.059 177.198 340.038C175.527 340.49 173.437 339.896 172.487 338.538Z" fill="black"/>
<path d="M175.786 338.076C176.503 338.076 177.084 337.494 177.084 336.778C177.084 336.061 176.503 335.48 175.786 335.48C175.069 335.48 174.488 336.061 174.488 336.778C174.488 337.494 175.069 338.076 175.786 338.076Z" fill="white"/>
<path d="M58.2812 245.81L53.5104 250.593C53.5104 250.593 45.8835 251.3 36.4571 240.32C27.0307 229.341 28.6951 222.552 28.6951 222.552L33.172 217.455C33.172 217.455 56.1799 230.556 58.2812 245.814V245.81Z" fill="#F3B443" stroke="black" stroke-width="0.380088" stroke-miterlimit="10"/>
<path d="M40.321 236.193C33.5161 228.31 30.3125 219.922 33.1657 217.459C36.0189 214.997 43.8483 219.391 50.6532 227.275C57.4581 235.158 60.6617 243.546 57.8085 246.008C54.9553 248.471 47.1259 244.077 40.321 236.193Z" fill="#FFDB7F" stroke="black" stroke-width="0.380088" stroke-miterlimit="10"/>
<path d="M42.3062 234.076C36.9205 227.837 34.1067 221.439 36.0216 219.786C37.9364 218.133 43.8547 221.851 49.2404 228.091C54.6262 234.33 57.4399 240.728 55.5251 242.381C53.6102 244.034 47.6919 240.316 42.3062 234.076Z" fill="#FFDB7F" stroke="black" stroke-width="0.380088" stroke-miterlimit="10"/>
<path opacity="0.49" d="M32.554 235.108L36.4668 231.1C36.4668 231.1 31.4259 223.064 32.2203 218.54L28.6969 222.552C28.6969 222.552 27.7713 227.549 32.558 235.108H32.554Z" fill="black"/>
<path d="M245.588 328.037L252.281 334.746C252.281 334.746 262.983 335.735 276.203 320.335C289.427 304.934 287.091 295.408 287.091 295.408L280.811 288.258C280.811 288.258 248.539 306.634 245.588 328.037Z" fill="#F3B443" stroke="black" stroke-width="0.380088" stroke-miterlimit="10"/>
<path d="M246.245 328.295C242.245 324.841 246.739 313.078 256.283 302.021C265.828 290.964 276.808 284.799 280.809 288.253C284.809 291.706 280.315 303.469 270.771 314.527C261.227 325.584 250.246 331.748 246.245 328.295Z" fill="#FFDB7F" stroke="black" stroke-width="0.380088" stroke-miterlimit="10"/>
<path d="M249.445 323.21C246.758 320.891 250.704 311.915 258.258 303.163C265.813 294.411 274.115 289.196 276.803 291.516C279.49 293.835 275.544 302.81 267.989 311.562C260.434 320.315 252.132 325.529 249.445 323.21Z" fill="#FFDB7F" stroke="black" stroke-width="0.380088" stroke-miterlimit="10"/>
<path opacity="0.49" d="M281.676 313.021L276.19 307.396C276.19 307.396 283.261 296.127 282.145 289.775L287.09 295.404C287.09 295.404 288.389 302.415 281.676 313.017V313.021Z" fill="black"/>
<path d="M263.061 71.0434C263.788 71.5797 270.223 76.2511 271.001 76.6762C282.668 83.0836 299.67 77.3753 310.264 63.0034C320.739 48.7982 321.276 31.1133 312.036 21.7743C311.305 21.0354 304.834 16.1614 303.984 15.5337C292.353 6.95741 279.447 16.6221 268.145 31.9515C256.844 47.2808 251.43 62.4671 263.061 71.0434Z" fill="#F3B443" stroke="black" stroke-width="0.380088" stroke-miterlimit="10"/>
<path opacity="0.49" d="M303.973 15.3789C304.823 16.0065 311.298 20.8806 312.025 21.6195C319.096 28.7697 320.434 40.8099 315.973 52.437C314.392 50.8599 312.752 49.3465 311.064 47.8926C308.343 45.1636 305.379 42.6849 302.213 40.4881C302.607 32.7079 299.366 21.8892 303.973 15.3789Z" fill="black"/>
<path d="M263.061 71.0393C251.43 62.4638 251.162 43.0852 262.464 27.756C273.766 12.4268 292.357 6.95185 303.988 15.5274C315.62 24.1029 315.887 43.4815 304.585 58.8106C293.284 74.1398 274.693 79.6148 263.061 71.0393Z" fill="#FFDB7F" stroke="black" stroke-width="0.380088" stroke-miterlimit="10"/>
<path d="M264.798 67.3999C254.353 59.6992 254.114 42.2967 264.263 28.5303C274.413 14.7639 291.108 9.84659 301.553 17.5472C311.998 25.2479 312.237 42.6504 302.088 56.4168C291.938 70.1832 275.243 75.1005 264.798 67.3999Z" fill="#FFDB7F" stroke="black" stroke-width="0.380088" stroke-miterlimit="10"/>
<g opacity="0.29">
<path d="M254.07 54.1054L312.5 30.2355V30.2315C311.689 23.8321 307.991 19.4585 307.991 19.4585L255.774 40.9728C254.07 43.8845 254.07 54.1054 254.07 54.1054Z" fill="white"/>
<path d="M255.405 59.5752L312.504 36.7819C312.504 36.7819 312.377 36.6071 312.607 36.5356C312.607 36.9328 312.656 37.3347 312.607 37.7273C312.469 38.8206 312.227 39.8003 312.21 40.9052C312.21 40.9807 312.17 41.2349 312.182 41.3024C312.083 41.5328 312.126 41.8427 312.011 42.0969L257.391 64.1434C256.597 63.1504 255.604 60.5683 255.405 59.5752Z" fill="white"/>
</g>
<path d="M119.289 304.769C119.289 304.769 134.744 302.872 134.744 322.279C134.744 322.279 134.744 304.404 151.068 304.716C151.068 304.716 137.024 305.308 134.744 286.528C134.744 286.528 135.178 304.404 119.289 304.766V304.769Z" fill="white" stroke="black" stroke-width="0.380088" stroke-miterlimit="10"/>
<path d="M27 79.1205C27 79.1205 34.727 78.1728 34.727 87.8756C34.727 87.8756 34.727 78.9393 42.8894 79.0938C42.8894 79.0938 35.8673 79.3879 34.727 70C34.727 70 34.9432 78.9363 27 79.1205Z" fill="white" stroke="black" stroke-width="0.380088" stroke-miterlimit="10"/>
<path d="M291 227.474C291 227.474 308.407 225.344 308.407 247.133C308.407 247.133 308.407 227.064 326.791 227.418C326.791 227.418 310.977 228.081 308.407 207C308.407 207 308.895 227.068 291 227.474Z" fill="white" stroke="black" stroke-width="0.380088" stroke-miterlimit="10"/>
<path d="M185 87.3C136.012 87.3 96.3 127.012 96.3 176C96.3 224.988 136.012 264.7 185 264.7C233.988 264.7 273.7 224.988 273.7 176C273.7 127.012 233.988 87.3 185 87.3ZM123.151 126.562C135.411 111.244 153.24 100.582 173.568 97.6423C169.41 102.726 165.717 108.064 162.489 113.597C161.029 113.222 159.499 113.023 157.923 113.023C149.463 113.023 142.345 118.764 140.249 126.562H123.151ZM158.778 122.587C161.48 122.848 163.826 124.335 165.25 126.488C165.476 126.83 165.679 127.189 165.856 127.562C166.397 128.701 166.7 129.976 166.7 131.323C166.7 132.67 166.397 133.945 165.856 135.084C164.72 137.474 162.536 139.27 159.901 139.876C159.266 140.023 158.604 140.1 157.923 140.1C155.886 140.1 154.013 139.407 152.524 138.243C151.452 137.406 150.58 136.325 149.99 135.084C149.449 133.945 149.146 132.67 149.146 131.323C149.146 129.976 149.449 128.701 149.99 127.562C151.4 124.595 154.423 122.546 157.923 122.546C158.212 122.546 158.497 122.56 158.778 122.587ZM175.597 126.562C174.742 123.38 173.051 120.541 170.776 118.296C174.755 111.49 179.496 105.007 185 98.9696C192.693 107.408 198.896 116.718 203.611 126.562H175.597ZM158.258 149.62C166.571 149.471 173.529 143.779 175.597 136.085H207.649C210.412 143.521 212.374 151.188 213.538 158.951C208.172 161.049 204.04 165.606 202.526 171.238H155.291C155.591 163.974 156.581 156.732 158.258 149.62ZM105.964 171.238C106.721 158.47 110.504 146.517 116.606 136.085H140.249C141.544 140.904 144.757 144.935 149.017 147.313C147.153 155.183 146.067 163.199 145.76 171.238H105.964ZM220.2 167.223C221.209 167.223 222.177 167.393 223.078 167.705C225.307 168.479 227.129 170.127 228.133 172.239C228.674 173.378 228.977 174.653 228.977 176C228.977 177.347 228.674 178.622 228.133 179.761C227.129 181.873 225.307 183.521 223.078 184.295C222.177 184.607 221.209 184.777 220.2 184.777C218.51 184.777 216.933 184.3 215.594 183.473C214.158 182.586 212.996 181.295 212.267 179.761C211.726 178.622 211.423 177.347 211.423 176C211.423 174.653 211.726 173.378 212.267 172.239C212.996 170.705 214.158 169.414 215.594 168.527C216.933 167.7 218.51 167.223 220.2 167.223ZM237.874 171.238C236.015 164.322 230.206 159.025 223.012 157.915C221.928 150.527 220.176 143.218 217.757 136.085H253.394C259.496 146.517 263.279 158.47 264.036 171.238H237.874ZM218.207 214.562C220.395 207.859 221.997 201.007 223.012 194.085C230.206 192.975 236.015 187.678 237.874 180.762H264.036C263.311 192.981 259.816 204.454 254.168 214.562H218.207ZM155.291 180.762H202.526C204.04 186.394 208.172 190.951 213.538 193.049C212.445 200.342 210.646 207.55 208.143 214.562H175.597C173.503 206.771 166.397 201.034 157.947 201.023C156.458 194.348 155.572 187.565 155.291 180.762ZM157.923 210.546C158.454 210.546 158.974 210.593 159.479 210.683C162.302 211.188 164.66 213.045 165.856 215.562C166.397 216.701 166.7 217.976 166.7 219.323C166.7 220.67 166.397 221.945 165.856 223.084C165.59 223.645 165.266 224.172 164.892 224.66C163.337 226.687 160.921 228.014 158.192 228.096C158.103 228.099 158.013 228.1 157.923 228.1C154.423 228.1 151.4 226.051 149.99 223.084C149.449 221.945 149.146 220.67 149.146 219.323C149.146 217.976 149.449 216.701 149.99 215.562C150.522 214.444 151.283 213.455 152.213 212.657C153.748 211.341 155.742 210.546 157.923 210.546ZM185 253.03C179.261 246.735 174.351 239.955 170.27 232.83C172.801 230.516 174.68 227.498 175.597 224.085H204.248C199.46 234.429 193.045 244.206 185 253.03ZM157.923 237.623C159.254 237.623 160.552 237.481 161.803 237.211C165.191 243.171 169.113 248.909 173.568 254.358C152.647 251.332 134.371 240.126 122.091 224.085H140.249C142.345 231.882 149.463 237.623 157.923 237.623ZM148.74 203.491C144.618 205.887 141.516 209.847 140.249 214.562H115.832C110.184 204.454 106.689 192.981 105.964 180.762H145.76C146.052 188.395 147.045 196.006 148.74 203.491ZM214.658 224.085H247.909C235.629 240.126 217.353 251.332 196.432 254.358C204.08 245.005 210.155 234.797 214.658 224.085ZM196.432 97.6423C216.76 100.582 234.589 111.244 246.849 126.562H214.08C209.64 116.343 203.757 106.6 196.432 97.6423Z" fill="#FFDB7F" stroke="black" stroke-width="1.4"/>
</svg>
