<svg width="14" height="14" viewBox="0 0 14 14" fill="none" xmlns="http://www.w3.org/2000/svg">
<path d="M13.3751 6.56758L6.62871 0.712221C6.57693 0.667578 6.51085 0.642578 6.44121 0.642578H4.86085C4.72871 0.642578 4.668 0.806864 4.768 0.892578L11.0216 6.32115H0.571568C0.492997 6.32115 0.428711 6.38544 0.428711 6.46401V7.53544C0.428711 7.61401 0.492997 7.67829 0.571568 7.67829H11.0198L4.76621 13.1069C4.66621 13.1944 4.72693 13.3569 4.85907 13.3569H6.493C6.52693 13.3569 6.56085 13.3444 6.58585 13.3211L13.3751 7.43186C13.437 7.37811 13.4865 7.31171 13.5205 7.23716C13.5545 7.16261 13.572 7.08164 13.572 6.99972C13.572 6.9178 13.5545 6.83683 13.5205 6.76228C13.4865 6.68773 13.437 6.62134 13.3751 6.56758Z" fill="#008CF4"/>
</svg>
