<svg width="75" height="81" viewBox="0 0 75 81" fill="none" xmlns="http://www.w3.org/2000/svg">
<path d="M72.9323 46.1284C70.7759 44.4249 67.461 44.6759 65.3957 46.7074L57.1024 54.8432C56.2004 54.1139 55.0628 53.6593 53.8054 53.6593H47.5588L44.5851 50.742C44.2601 50.4208 43.8176 50.2416 43.3542 50.2416H31.1612C30.7537 50.2416 30.3579 50.3819 30.0445 50.636L20.8158 58.1807L20.1992 57.5757C19.518 56.9074 18.4169 56.9074 17.7365 57.5757L12.5109 62.7021C11.8297 63.3704 11.8297 64.4506 12.5109 65.1181L28.1876 80.4973C28.5274 80.8322 28.9738 81 29.4194 81C29.8649 81 30.3113 80.8322 30.6511 80.4996L35.8767 75.3732C36.5579 74.7049 36.5579 73.6247 35.8767 72.9572L35.8433 72.9244L36.7982 72.456H55.5474C56.0349 72.456 56.5023 72.2562 56.8312 71.9022L73.5477 54.0094C74.5757 52.9124 75.0982 51.4309 74.9847 49.9455C74.8696 48.4374 74.1418 47.0818 72.9325 46.1282L72.9323 46.1284ZM29.4196 76.8751L16.2056 63.9118L18.9685 61.2014L32.1825 74.1646L29.4196 76.8751ZM70.9794 51.7L54.7825 69.0375H36.3865C36.1166 69.0375 35.8483 69.0992 35.6081 69.2167L33.2481 70.3755L23.2914 60.6078L31.7915 53.6581H42.633L45.6067 56.5754C45.9318 56.8966 46.3742 57.0758 46.8377 57.0758H53.8051C54.4848 57.0758 55.0579 57.4687 55.3448 58.0241C55.3852 58.1011 55.4093 58.1759 55.4373 58.253C55.4949 58.4223 55.547 58.597 55.547 58.7847C55.547 59.7276 54.7663 60.4935 53.8051 60.4935H41.6121V63.9111H53.8051C56.6863 63.9111 59.0307 61.6111 59.0307 58.7847C59.0307 58.4757 59.0012 58.1713 58.9436 57.8685L67.8582 49.1231C68.6731 48.3236 69.9679 48.1749 70.7463 48.7898C71.1957 49.1453 71.4656 49.6457 71.5091 50.2011C71.5526 50.7564 71.3645 51.2881 70.9795 51.7001L70.9794 51.7Z" fill="white"/>
<path d="M49.5502 0C39.5451 0 32 4.19099 32 9.74989V33.1502C32 38.7091 39.5451 42.9001 49.5502 42.9001C59.5553 42.9001 67.1004 38.7084 67.1004 33.1502V9.74989C67.1004 4.19099 59.5553 0 49.5502 0V0ZM63.1999 25.3492C63.1999 28.1104 57.3609 31.1993 49.5495 31.1993C41.7382 31.1993 35.8992 28.1104 35.8992 25.3492L35.8998 23.7463C39.0639 25.9237 43.881 27.2995 49.5502 27.2995C55.2194 27.2995 60.0359 25.9238 63.2006 23.7463L63.1999 25.3492ZM63.1999 17.5489C63.1999 20.3101 57.3609 23.3989 49.5495 23.3989C41.7382 23.3989 35.8992 20.3101 35.8992 17.5489L35.8998 15.946C39.0639 18.1234 43.881 19.4991 49.5502 19.4991C55.2194 19.4991 60.0359 18.1235 63.2006 15.946L63.1999 17.5489ZM49.5502 3.89915C57.3616 3.89915 63.2006 6.98799 63.2006 9.74922C63.2006 12.5105 57.3616 15.5993 49.5502 15.5993C41.7389 15.5993 35.8998 12.5105 35.8998 9.74922C35.8998 6.98799 41.7389 3.89915 49.5502 3.89915ZM49.5502 38.9996C41.7389 38.9996 35.8998 35.9107 35.8998 33.1495V31.5466C39.0639 33.724 43.881 35.0998 49.5502 35.0998C55.2194 35.0998 60.0359 33.7241 63.2006 31.5466L63.1999 33.1495C63.1999 35.9107 57.3616 38.9996 49.5502 38.9996H49.5502Z" fill="white"/>
<path fill-rule="evenodd" clip-rule="evenodd" d="M6.5 18C2.91015 18 0 20.9101 0 24.5C0 28.0899 2.91015 31 6.5 31H19.5C23.0899 31 26 28.0899 26 24.5C26 20.9101 23.0899 18 19.5 18H6.5ZM19.4997 28.8333C17.1064 28.8333 15.1663 26.8932 15.1663 24.5C15.1663 22.1067 17.1064 20.1666 19.4997 20.1666C21.8929 20.1666 23.833 22.1067 23.833 24.5C23.833 26.8932 21.8929 28.8333 19.4997 28.8333Z" fill="white"/>
</svg>
