<svg width="140" height="134" viewBox="0 0 140 134" fill="none" xmlns="http://www.w3.org/2000/svg">
<circle opacity="0.1" cx="70.9334" cy="65.7332" r="60.9778" fill="#4D4DE8"/>
<circle cx="65.0222" cy="67.9109" r="64.6117" stroke="#4D4DE8" stroke-width="0.821123"/>
<path opacity="0.5" d="M139.939 64.1378C139.972 64.8912 139.991 65.6478 139.998 66.4074L139.587 66.4109C139.589 66.5996 139.589 66.7886 139.589 66.9777C139.589 67.1668 139.589 67.3557 139.587 67.5445L139.998 67.548C139.991 68.3076 139.972 69.0642 139.939 69.8176L139.529 69.8001C139.513 70.1763 139.494 70.5518 139.471 70.9263L139.881 70.9509C139.836 71.7089 139.777 72.4635 139.706 73.2145L139.298 73.1759C139.262 73.5507 139.223 73.9247 139.182 74.2977L139.59 74.3435C139.505 75.0978 139.408 75.8483 139.298 76.5948L138.891 76.5349C138.837 76.9074 138.778 77.279 138.717 77.6495L139.122 77.7164C138.999 78.4649 138.862 79.2092 138.713 79.9491L138.311 79.8682C138.237 80.2374 138.159 80.6054 138.079 80.9724L138.48 81.0604C138.317 81.801 138.142 82.5371 137.955 83.2684L137.557 83.1665C137.464 83.5313 137.367 83.895 137.268 84.2574L137.663 84.3662C137.463 85.097 137.249 85.8229 137.024 86.5435L136.632 86.4209C136.52 86.7804 136.404 87.1386 136.286 87.4955L136.675 87.6248C136.437 88.3438 136.186 89.0575 135.923 89.7655L135.538 89.6227C135.407 89.9758 135.273 90.3276 135.136 90.6779L135.519 90.8274C135.243 91.5328 134.955 92.2324 134.656 92.926L134.279 92.7633C134.13 93.1091 133.978 93.4534 133.823 93.7962L134.197 93.9653C133.885 94.6554 133.561 95.3392 133.226 96.0166L132.858 95.8346C132.691 96.1721 132.521 96.5079 132.349 96.8421L132.714 97.0304C132.366 97.7033 132.008 98.3696 131.638 99.029L131.28 98.8283C131.096 99.1565 130.909 99.4831 130.72 99.8079L131.074 100.015C130.693 100.669 130.3 101.316 129.897 101.956L129.55 101.737C129.349 102.055 129.146 102.371 128.94 102.686L129.283 102.911C128.869 103.544 128.444 104.17 128.008 104.789L127.673 104.553C127.456 104.86 127.237 105.166 127.015 105.47L127.347 105.712C126.901 106.323 126.444 106.927 125.978 107.522L125.654 107.269C125.422 107.565 125.188 107.859 124.951 108.151L125.27 108.41C124.793 108.998 124.307 109.578 123.811 110.149L123.501 109.88C123.254 110.164 123.005 110.445 122.754 110.725L123.059 111C122.553 111.562 122.038 112.117 121.514 112.662L121.218 112.378C120.957 112.649 120.694 112.918 120.429 113.185L120.72 113.474C120.187 114.011 119.644 114.538 119.093 115.057L118.811 114.758C118.538 115.016 118.261 115.271 117.983 115.524L118.259 115.828C117.7 116.337 117.131 116.837 116.555 117.327L116.289 117.014C116.002 117.258 115.713 117.499 115.423 117.738L115.683 118.055C115.099 118.535 114.506 119.006 113.906 119.467L113.656 119.141C113.357 119.37 113.057 119.596 112.754 119.82L112.999 120.15C112.391 120.6 111.776 121.041 111.153 121.471L110.92 121.133C110.61 121.347 110.299 121.558 109.985 121.767L110.213 122.109C109.584 122.528 108.947 122.936 108.303 123.335L108.087 122.986C107.767 123.184 107.446 123.379 107.122 123.572L107.332 123.925C106.683 124.312 106.027 124.688 105.364 125.054L105.166 124.695C104.836 124.877 104.505 125.056 104.173 125.232L104.365 125.595C103.697 125.949 103.023 126.292 102.343 126.624L102.162 126.255C101.825 126.42 101.485 126.583 101.144 126.742L101.318 127.114C100.634 127.434 99.9429 127.743 99.2463 128.041L99.0848 127.664C98.7391 127.812 98.392 127.957 98.0434 128.099L98.1985 128.479C97.4992 128.765 96.7939 129.039 96.0829 129.302L95.9405 128.917C95.5881 129.047 95.2342 129.175 94.8789 129.299L95.0149 129.687C94.3022 129.937 93.584 130.176 92.8605 130.403L92.7376 130.011C92.3792 130.124 92.0195 130.233 91.6585 130.34L91.7749 130.734C91.0507 130.948 90.3214 131.151 89.5872 131.342L89.4839 130.944C89.1205 131.039 88.7559 131.13 88.3901 131.219L88.4868 131.618C87.7529 131.796 87.0143 131.962 86.2712 132.116L86.1878 131.714C85.8203 131.79 85.4517 131.864 85.082 131.934L85.1587 132.337C84.417 132.478 83.671 132.608 82.921 132.725L82.8576 132.319C82.4868 132.377 82.1151 132.432 81.7423 132.484L81.799 132.891C81.0514 132.995 80.2999 133.087 79.5447 133.167L79.5015 132.759C79.1283 132.799 78.7543 132.835 78.3794 132.869L78.416 133.278C77.6645 133.345 76.9094 133.4 76.151 133.443L76.1278 133.033C75.7531 133.054 75.3777 133.073 75.0014 133.088L75.018 133.498C74.2644 133.529 73.5077 133.547 72.7481 133.553L72.7447 133.143C72.5559 133.144 72.3669 133.145 72.1777 133.145C71.9886 133.145 71.7995 133.144 71.6107 133.143L71.6074 133.553C70.8477 133.547 70.091 133.529 69.3375 133.498L69.3541 133.088C68.9778 133.073 68.6023 133.054 68.2277 133.033L68.2044 133.443C67.446 133.4 66.691 133.345 65.9395 133.278L65.9761 132.869C65.6012 132.835 65.2271 132.799 64.854 132.759L64.8107 133.167C64.0555 133.087 63.304 132.995 62.5565 132.891L62.6132 132.484C62.2404 132.432 61.8686 132.377 61.4979 132.319L61.4345 132.725C60.6844 132.608 59.9384 132.478 59.1968 132.337L59.2735 131.934C58.9038 131.864 58.5352 131.79 58.1676 131.714L58.0842 132.116C57.3411 131.962 56.6026 131.796 55.8687 131.618L55.9654 131.219C55.5996 131.13 55.235 131.039 54.8715 130.944L54.7682 131.342C54.034 131.151 53.3047 130.948 52.5805 130.734L52.697 130.34C52.336 130.233 51.9763 130.124 51.6179 130.011L51.4949 130.403C50.7715 130.176 50.0533 129.937 49.3406 129.687L49.4765 129.299C49.1213 129.175 48.7674 129.047 48.4149 128.917L48.2725 129.302C47.5616 129.039 46.8563 128.765 46.157 128.479L46.3121 128.099C45.9635 127.957 45.6163 127.812 45.2707 127.664L45.1092 128.041C44.4125 127.743 43.7219 127.434 43.0377 127.114L43.2116 126.742C42.8705 126.583 42.531 126.42 42.193 126.255L42.0129 126.624C41.3322 126.292 40.658 125.949 39.9905 125.595L40.1828 125.232C39.8501 125.056 39.519 124.877 39.1897 124.695L38.9913 125.054C38.3283 124.688 37.6721 124.312 37.0231 123.925L37.2333 123.572C36.9098 123.379 36.5881 123.184 36.2681 122.986L36.052 123.335C35.4082 122.936 34.7716 122.528 34.1426 122.109L34.3702 121.767C34.0568 121.558 33.7453 121.347 33.4357 121.133L33.2025 121.471C32.5794 121.041 31.964 120.6 31.3566 120.15L31.601 119.82C31.2986 119.596 30.9981 119.37 30.6997 119.141L30.4498 119.467C29.849 119.006 29.2564 118.535 28.6722 118.055L28.9328 117.738C28.642 117.499 28.3534 117.258 28.0668 117.014L27.8009 117.327C27.2241 116.837 26.6558 116.337 26.0962 115.828L26.3725 115.524C26.0941 115.271 25.818 115.016 25.544 114.758L25.2627 115.057C24.7113 114.538 24.1688 114.011 23.6355 113.474L23.9266 113.185C23.6614 112.918 23.3985 112.649 23.1379 112.378L22.8419 112.662C22.3174 112.117 21.8021 111.562 21.2964 111L21.6018 110.725C21.3504 110.445 21.1014 110.164 20.8548 109.88L20.5448 110.149C20.0486 109.578 19.562 108.998 19.0854 108.41L19.4043 108.151C19.1674 107.859 18.933 107.565 18.7011 107.269L18.3779 107.522C17.9114 106.927 17.4548 106.323 17.0086 105.712L17.3402 105.47C17.1185 105.166 16.8994 104.86 16.6828 104.553L16.3472 104.789C15.9116 104.17 15.4865 103.544 15.072 102.911L15.4156 102.686C15.2097 102.371 15.0064 102.055 14.8058 101.737L14.4585 101.956C14.0553 101.316 13.6628 100.669 13.2813 100.015L13.636 99.8079C13.4465 99.4831 13.2597 99.1565 13.0757 98.8283L12.7175 99.029C12.3479 98.3696 11.9892 97.7033 11.6419 97.0304L12.0067 96.8421C11.8342 96.5079 11.6645 96.172 11.4976 95.8346L11.1296 96.0166C10.7946 95.3392 10.4709 94.6553 10.1589 93.9653L10.533 93.7961C10.378 93.4534 10.2258 93.1091 10.0766 92.7633L9.69965 92.9259C9.40034 92.2324 9.11268 91.5328 8.83689 90.8274L9.21926 90.6779C9.0823 90.3276 8.94828 89.9758 8.81724 89.6227L8.43233 89.7655C8.1696 89.0575 7.91877 88.3438 7.68007 87.6248L8.06972 87.4955C7.95125 87.1386 7.83579 86.7804 7.72337 86.4209L7.33152 86.5435C7.10616 85.8228 6.89291 85.097 6.69202 84.3662L7.0879 84.2574C6.98828 83.895 6.89172 83.5313 6.79825 83.1665L6.40053 83.2684C6.21318 82.5371 6.03815 81.801 5.87567 81.0603L6.27669 80.9724C6.19619 80.6054 6.11879 80.2373 6.04452 79.8681L5.64203 79.9491C5.49318 79.2092 5.35682 78.4649 5.23317 77.7163L5.63824 77.6494C5.57704 77.2789 5.51897 76.9074 5.46407 76.5349L5.05789 76.5948C4.94787 75.8483 4.85046 75.0977 4.76589 74.3434L5.1739 74.2977C5.13207 73.9247 5.09341 73.5507 5.05793 73.1758L4.6492 73.2145C4.57812 72.4635 4.51976 71.7089 4.47431 70.9509L4.88413 70.9263C4.86167 70.5517 4.84239 70.1763 4.8263 69.8L4.41612 69.8176C4.38391 69.0642 4.36446 68.3076 4.35797 67.548L4.76851 67.5445C4.7669 67.3557 4.76609 67.1668 4.76609 66.9777C4.76609 66.7886 4.7669 66.5996 4.76851 66.4109L4.35797 66.4074C4.36446 65.6477 4.38391 64.8911 4.41612 64.1378L4.8263 64.1553C4.84239 63.7791 4.86167 63.4036 4.88413 63.029L4.47431 63.0045C4.51976 62.2464 4.57812 61.4918 4.6492 60.7408L5.05793 60.7795C5.09341 60.4046 5.13208 60.0307 5.1739 59.6577L4.76589 59.6119C4.85046 58.8576 4.94787 58.1071 5.0579 57.3606L5.46407 57.4205C5.51897 57.0479 5.57704 56.6764 5.63824 56.3059L5.23317 56.239C5.35682 55.4905 5.49318 54.7462 5.64203 54.0062L6.04453 54.0872C6.1188 53.718 6.19619 53.3499 6.27669 52.983L5.87567 52.895C6.03815 52.1543 6.21318 51.4183 6.40054 50.687L6.79825 50.7889C6.89173 50.424 6.98829 50.0604 7.08791 49.698L6.69203 49.5892C6.89292 48.8584 7.10616 48.1325 7.33153 47.4119L7.72337 47.5344C7.8358 47.1749 7.95126 46.8168 8.06973 46.4599L7.68008 46.3305C7.91878 45.6115 8.16961 44.8979 8.43233 44.1898L8.81725 44.3327C8.94829 43.9795 9.0823 43.6278 9.21927 43.2775L8.83689 43.128C9.11268 42.4226 9.40035 41.723 9.69965 41.0294L10.0766 41.1921C10.2258 40.8463 10.378 40.502 10.533 40.1592L10.1589 39.99C10.4709 39.3 10.7946 38.6162 11.1296 37.9388L11.4976 38.1208C11.6645 37.7833 11.8342 37.4475 12.0067 37.1132L11.6419 36.9249C11.9892 36.2521 12.3479 35.5858 12.7175 34.9263L13.0757 35.1271C13.2597 34.7988 13.4465 34.4723 13.636 34.1474L13.2813 33.9405C13.6628 33.2866 14.0553 32.6396 14.4585 31.9998L14.8058 32.2187C15.0064 31.9004 15.2097 31.5839 15.4156 31.2692L15.072 31.0444C15.4865 30.411 15.9116 29.7849 16.3472 29.1664L16.6829 29.4028C16.8994 29.0952 17.1186 28.7895 17.3403 28.4858L17.0086 28.2437C17.4549 27.6324 17.9114 27.0287 18.3779 26.4331L18.7011 26.6862C18.933 26.3901 19.1674 26.096 19.4043 25.8039L19.0854 25.5453C19.5621 24.9575 20.0486 24.3778 20.5449 23.8065L20.8548 24.0757C21.1014 23.7918 21.3504 23.5099 21.6018 23.2301L21.2964 22.9557C21.8021 22.3929 22.3174 21.8386 22.8419 21.2929L23.1379 21.5774C23.3985 21.3063 23.6614 21.0373 23.9266 20.7706L23.6355 20.4811C24.1688 19.9446 24.7113 19.4169 25.2627 18.8983L25.544 19.1974C25.818 18.9397 26.0941 18.6843 26.3725 18.4312L26.0962 18.1274C26.6558 17.6185 27.2241 17.1188 27.8009 16.6285L28.0668 16.9413C28.3534 16.6977 28.6421 16.4564 28.9328 16.2175L28.6722 15.9003C29.2564 15.4202 29.849 14.9497 30.4498 14.4888L30.6997 14.8145C30.9981 14.5856 31.2986 14.359 31.601 14.1349L31.3566 13.8051C31.964 13.355 32.5794 12.9147 33.2025 12.4845L33.4358 12.8223C33.7453 12.6086 34.0568 12.3973 34.3702 12.1885L34.1426 11.8468C34.7716 11.4278 35.4082 11.0189 36.0521 10.6204L36.2681 10.9695C36.5881 10.7714 36.9098 10.576 37.2334 10.3831L37.0231 10.0304C37.6721 9.64354 38.3283 9.26702 38.9913 8.90113L39.1897 9.2606C39.519 9.07885 39.8501 8.89973 40.1829 8.72329L39.9905 8.36057C40.658 8.00663 41.3322 7.66337 42.0129 7.331L42.193 7.69993C42.531 7.53492 42.8705 7.37262 43.2117 7.21305L43.0377 6.84116C43.722 6.52107 44.4126 6.21191 45.1092 5.91389L45.2707 6.29137C45.6164 6.14351 45.9635 5.99842 46.3121 5.85612L46.157 5.47601C46.8563 5.19055 47.5616 4.91625 48.2726 4.65334L48.415 5.03842C48.7674 4.90808 49.1213 4.78055 49.4766 4.65587L49.3406 4.26847C50.0533 4.01835 50.7715 3.77959 51.495 3.55243L51.6179 3.94414C51.9763 3.83161 52.336 3.72195 52.697 3.61517L52.5806 3.22147C53.3048 3.00726 54.0341 2.80461 54.7683 2.61374L54.8716 3.01109C55.235 2.91662 55.5996 2.82504 55.9654 2.7364L55.8687 2.33739C56.6026 2.15956 57.3412 1.99345 58.0843 1.83929L58.1677 2.24129C58.5352 2.16504 58.9038 2.09173 59.2735 2.02138L59.1968 1.61806C59.9385 1.47694 60.6845 1.34768 61.4346 1.2305L61.4979 1.63614C61.8687 1.57822 62.2404 1.52326 62.6132 1.4713L62.5565 1.06467C63.3041 0.960456 64.0556 0.868209 64.8108 0.788131L64.854 1.1964C65.2272 1.15684 65.6012 1.12026 65.9761 1.0867L65.9395 0.677775C66.691 0.6105 67.4461 0.55526 68.2045 0.512252L68.2277 0.922155C68.6024 0.900909 68.9778 0.882666 69.3541 0.86745L69.3375 0.457224C70.0911 0.426752 70.8478 0.408349 71.6074 0.402207L71.6108 0.812755C71.7996 0.811228 71.9886 0.810464 72.1777 0.810464C72.3669 0.810464 72.5559 0.811229 72.7448 0.812755L72.7481 0.402207C73.5078 0.40835 74.2645 0.426753 75.018 0.457226L75.0014 0.867452C75.3777 0.882668 75.7532 0.900911 76.1278 0.922157L76.151 0.512254C76.9094 0.555262 77.6645 0.610502 78.416 0.677777L78.3794 1.0867C78.7543 1.12027 79.1284 1.15684 79.5015 1.19641L79.5448 0.788133C80.3 0.868212 81.0515 0.960459 81.799 1.06467L81.7423 1.4713C82.1151 1.52326 82.4868 1.57822 82.8576 1.63614L82.921 1.2305C83.6711 1.34769 84.4171 1.47694 85.1587 1.61806L85.082 2.02139C85.4517 2.09173 85.8203 2.16504 86.1879 2.2413L86.2713 1.83929C87.0144 1.99346 87.7529 2.15956 88.4868 2.3374L88.3901 2.73641C88.7559 2.82505 89.1205 2.91662 89.484 3.0111L89.5873 2.61375C90.3214 2.80461 91.0508 3.00726 91.775 3.22148L91.6585 3.61518C92.0195 3.72195 92.3792 3.83162 92.7376 3.94415L92.8606 3.55244C93.584 3.7796 94.3022 4.01835 95.0149 4.26848L94.879 4.65588C95.2342 4.78056 95.5881 4.90809 95.9406 5.03843L96.083 4.65335C96.7939 4.91626 97.4992 5.19056 98.1985 5.47602L98.0434 5.85613C98.392 5.99844 98.7392 6.14353 99.0848 6.29138L99.2463 5.9139C99.943 6.21192 100.634 6.52108 101.318 6.84117L101.144 7.21306C101.485 7.37263 101.825 7.53493 102.162 7.69994L102.343 7.33101C103.023 7.66338 103.698 8.00665 104.365 8.36058L104.173 8.7233C104.505 8.89975 104.836 9.07886 105.166 9.26061L105.364 8.90114C106.027 9.26704 106.683 9.64355 107.332 10.0305L107.122 10.3831C107.446 10.576 107.767 10.7715 108.087 10.9695L108.303 10.6204C108.947 11.019 109.584 11.4279 110.213 11.8469L109.985 12.1886C110.299 12.3973 110.61 12.6086 110.92 12.8223L111.153 12.4845C111.776 12.9147 112.392 13.355 112.999 13.8051L112.755 14.135C113.057 14.3591 113.357 14.5856 113.656 14.8146L113.906 14.4888C114.506 14.9497 115.099 15.4202 115.683 15.9003L115.423 16.2175C115.713 16.4564 116.002 16.6977 116.289 16.9413L116.555 16.6285C117.131 17.1188 117.7 17.6186 118.259 18.1274L117.983 18.4312C118.261 18.6843 118.538 18.9397 118.811 19.1974L119.093 18.8983C119.644 19.417 120.187 19.9446 120.72 20.4811L120.429 20.7706C120.694 21.0374 120.957 21.3063 121.218 21.5774L121.514 21.2929C122.038 21.8386 122.553 22.3929 123.059 22.9557L122.754 23.2301C123.005 23.5099 123.254 23.7918 123.501 24.0757L123.811 23.8065C124.307 24.3779 124.793 24.9576 125.27 25.5454L124.951 25.8039C125.188 26.096 125.422 26.3902 125.654 26.6862L125.978 26.4331C126.444 27.0288 126.901 27.6324 127.347 28.2438L127.015 28.4858C127.237 28.7896 127.456 29.0952 127.673 29.4028L128.008 29.1664C128.444 29.7849 128.869 30.411 129.283 31.0444L128.94 31.2692C129.146 31.5839 129.349 31.9004 129.55 32.2187L129.897 31.9998C130.3 32.6396 130.693 33.2866 131.074 33.9406L130.72 34.1474C130.909 34.4723 131.096 34.7988 131.28 35.1271L131.638 34.9263C132.008 35.5858 132.366 36.2521 132.714 36.9249L132.349 37.1133C132.521 37.4475 132.691 37.7833 132.858 38.1208L133.226 37.9388C133.561 38.6162 133.885 39.3 134.197 39.99L133.823 40.1592C133.978 40.502 134.13 40.8463 134.279 41.1921L134.656 41.0294C134.955 41.723 135.243 42.4226 135.519 43.128L135.136 43.2775C135.273 43.6278 135.407 43.9795 135.538 44.3327L135.923 44.1899C136.186 44.8979 136.437 45.6115 136.675 46.3306L136.286 46.4599C136.404 46.8168 136.52 47.175 136.632 47.5344L137.024 47.4119C137.249 48.1325 137.463 48.8584 137.663 49.5892L137.268 49.698C137.367 50.0604 137.464 50.424 137.557 50.7889L137.955 50.687C138.142 51.4183 138.317 52.1544 138.48 52.895L138.079 52.983C138.159 53.35 138.237 53.718 138.311 54.0872L138.713 54.0063C138.862 54.7462 138.999 55.4905 139.122 56.239L138.717 56.3059C138.778 56.6764 138.837 57.0479 138.891 57.4205L139.298 57.3606C139.408 58.1071 139.505 58.8576 139.59 59.6119L139.182 59.6577C139.223 60.0307 139.262 60.4047 139.298 60.7795L139.706 60.7408C139.777 61.4918 139.836 62.2464 139.881 63.0045L139.471 63.029C139.494 63.4036 139.513 63.7791 139.529 64.1553L139.939 64.1378Z" stroke="#4D4DE8" stroke-width="0.821123" stroke-dasharray="1.15 2.29"/>
</svg>
