<svg width="16" height="15" viewBox="0 0 16 15" fill="none" xmlns="http://www.w3.org/2000/svg">
<path d="M15.0912 6.29067L13.2 5.98155C13.0893 5.60203 12.9379 5.23723 12.7485 4.89195L13.8525 3.31851C13.9417 3.19147 13.9264 3.01835 13.8166 2.90827L12.5721 1.66443C12.4611 1.55371 12.2864 1.53931 12.159 1.63115L10.6093 2.74507C10.2608 2.55243 9.89278 2.39947 9.51102 2.28843L9.1811 0.404914C9.15422 0.251954 9.02142 0.139954 8.8659 0.139954H7.1059C6.9491 0.139954 6.81534 0.253554 6.79006 0.408434L6.48414 2.28171C6.10014 2.39211 5.7315 2.54347 5.38431 2.73355L3.83871 1.62955C3.71102 1.53835 3.53726 1.55307 3.42622 1.66347L2.18238 2.90731C2.07262 3.01707 2.05727 3.18987 2.14655 3.31691L3.23423 4.87307C3.04063 5.22347 2.88638 5.59435 2.77406 5.98027L0.908145 6.29099C0.753905 6.31659 0.640625 6.45035 0.640625 6.60651V8.36651C0.640625 8.52171 0.751985 8.65451 0.904625 8.68171L2.77055 9.01259C2.88223 9.39755 3.03646 9.76843 3.2307 10.1198L2.12958 11.66C2.0387 11.787 2.0531 11.9614 2.1635 12.0724L3.40767 13.3176C3.51743 13.4273 3.69055 13.4427 3.81758 13.3534L5.37598 12.2619C5.72574 12.4542 6.09535 12.6068 6.47838 12.7176L6.7907 14.5931C6.81598 14.747 6.94942 14.86 7.1059 14.86H8.8659C9.0211 14.86 9.1539 14.7486 9.18079 14.596L9.51518 12.7112C9.89886 12.5982 10.2665 12.4446 10.6128 12.252L12.1824 13.3531C12.3097 13.443 12.4825 13.4273 12.5926 13.3176L13.8368 12.0724C13.9475 11.9614 13.9619 11.7864 13.8701 11.659L12.7507 10.1048C12.9405 9.75915 13.0912 9.39371 13.2009 9.01419L15.0947 8.68171C15.248 8.65483 15.3593 8.52171 15.3593 8.36651V6.60651C15.3597 6.44971 15.2461 6.31595 15.0912 6.29067ZM7.99998 9.73995C6.76286 9.73995 5.75998 8.73707 5.75998 7.49995C5.75998 6.26283 6.76286 5.25995 7.99998 5.25995C9.2371 5.25995 10.24 6.26283 10.24 7.49995C10.24 8.73707 9.2371 9.73995 7.99998 9.73995Z" fill="#008CF4"/>
</svg>
