<svg width="78" height="79" viewBox="0 0 78 79" fill="none" xmlns="http://www.w3.org/2000/svg">
<path d="M60.4496 35.1021C50.4445 35.1021 42.8994 39.2937 42.8994 44.8519V68.2522C42.8994 73.8111 50.4445 78.0021 60.4496 78.0021C70.4548 78.0021 77.9998 73.8105 77.9998 68.2522V44.8519C77.9998 39.293 70.4548 35.1021 60.4496 35.1021ZM74.1 60.4512C74.1 63.2125 68.261 66.3013 60.4496 66.3013C52.6383 66.3013 46.7992 63.2125 46.7992 60.4512L46.7999 58.8483C49.9639 61.0257 54.7811 62.4015 60.4496 62.4015C66.1188 62.4015 70.9353 61.0258 74.1 58.8483L74.1 60.4512ZM74.1 52.6509C74.1 55.4121 68.261 58.501 60.4496 58.501C52.6383 58.501 46.7992 55.4121 46.7992 52.6509L46.7999 51.048C49.9639 53.2254 54.7811 54.6012 60.4496 54.6012C66.1188 54.6012 70.9353 53.2255 74.1 51.048L74.1 52.6509ZM60.4496 39.0012C68.261 39.0012 74.1 42.09 74.1 44.8513C74.1 47.6125 68.261 50.7013 60.4496 50.7013C52.6383 50.7013 46.7992 47.6125 46.7992 44.8513C46.7999 42.09 52.6383 39.0012 60.4496 39.0012ZM60.4496 74.1016C52.6383 74.1016 46.7992 71.0128 46.7992 68.2515L46.7999 66.6487C49.9639 68.8261 54.7811 70.2018 60.4496 70.2018C66.1188 70.2018 70.9353 68.8261 74.1 66.6487V68.2515C74.1 71.0128 68.261 74.1016 60.4496 74.1016H60.4496Z" fill="white"/>
<path d="M17.5502 35.1021C7.54509 35.1021 0 39.293 0 44.8519V68.2522C0 73.8111 7.54509 78.0021 17.5502 78.0021C27.5553 78.0021 35.1004 73.8105 35.1004 68.2522V44.8519C35.1004 39.293 27.5553 35.1021 17.5502 35.1021ZM31.1999 60.4512C31.1999 63.2125 25.3609 66.3013 17.5495 66.3013C9.73819 66.3013 3.89916 63.2125 3.89916 60.4512L3.89981 58.8483C7.06386 61.0257 11.881 62.4015 17.5502 62.4015C23.2194 62.4015 28.0359 61.0258 31.2006 58.8483L31.1999 60.4512ZM31.1999 52.6509C31.1999 55.4121 25.3609 58.501 17.5495 58.501C9.73819 58.501 3.89916 55.4121 3.89916 52.6509L3.89981 51.048C7.06386 53.2254 11.881 54.6012 17.5502 54.6012C23.2194 54.6012 28.0359 53.2255 31.2006 51.048L31.1999 52.6509ZM17.5502 39.0012C25.3616 39.0012 31.2006 42.09 31.2006 44.8513C31.2006 47.6125 25.3616 50.7013 17.5502 50.7013C9.73886 50.7013 3.89982 47.6125 3.89982 44.8513C3.89982 42.09 9.73886 39.0012 17.5502 39.0012ZM17.5502 74.1016C9.73886 74.1016 3.89982 71.0128 3.89982 68.2515V66.6487C7.06388 68.8261 11.881 70.2018 17.5502 70.2018C23.2194 70.2018 28.0359 68.8261 31.2006 66.6487L31.1999 68.2515C31.1999 71.0128 25.3616 74.1016 17.5502 74.1016H17.5502Z" fill="white"/>
<path d="M52.4701 14.7855C52.1528 14.0934 51.4607 13.6501 50.6993 13.6501H45.8241V1.94996C45.8247 1.43285 45.619 0.936647 45.2534 0.571017C44.8878 0.205388 44.3916 -0.000284104 43.8745 0.000367761H34.1239C33.6068 -0.000285274 33.1106 0.205388 32.745 0.571017C32.3793 0.936647 32.1737 1.43285 32.1743 1.94996V13.6501H27.299C26.5377 13.6508 25.8463 14.0934 25.5276 14.7849C25.209 15.4763 25.322 16.2898 25.8169 16.869L37.517 30.5194V30.5187C37.8879 30.9516 38.4291 31.2004 38.9985 31.2004C39.5685 31.2004 40.1097 30.9516 40.4799 30.5187L52.1801 16.8683V16.869C52.6763 16.2905 52.7892 15.477 52.47 14.7855L52.4701 14.7855ZM38.9992 26.2552L31.5384 17.5506H34.1239C34.6417 17.5506 35.1379 17.3456 35.5035 16.9793C35.8692 16.6137 36.0742 16.1175 36.0742 15.6003V3.90021H41.9242V15.6003C41.9242 16.1175 42.1293 16.6137 42.4949 16.9793C42.8605 17.3456 43.3567 17.5506 43.8745 17.5506H46.4607L38.9992 26.2552Z" fill="white"/>
</svg>
