<svg width="84" height="79" viewBox="0 0 84 79" fill="none" xmlns="http://www.w3.org/2000/svg">
<path d="M17.5502 35.1017C7.54509 35.1017 0 39.2927 0 44.8516V68.2519C0 73.8108 7.54509 78.0017 17.5502 78.0017C27.5553 78.0017 35.1004 73.8101 35.1004 68.2519V44.8516C35.1004 39.2927 27.5553 35.1017 17.5502 35.1017ZM31.1999 60.4509C31.1999 63.2121 25.3609 66.3009 17.5495 66.3009C9.73819 66.3009 3.89916 63.2121 3.89916 60.4509L3.89981 58.848C7.06386 61.0254 11.881 62.4011 17.5502 62.4011C23.2194 62.4011 28.0359 61.0255 31.2006 58.848L31.1999 60.4509ZM31.1999 52.6506C31.1999 55.4118 25.3609 58.5006 17.5495 58.5006C9.73819 58.5006 3.89916 55.4118 3.89916 52.6506L3.89981 51.0477C7.06386 53.2251 11.881 54.6008 17.5502 54.6008C23.2194 54.6008 28.0359 53.2251 31.2006 51.0477L31.1999 52.6506ZM17.5502 39.0008C25.3616 39.0008 31.2006 42.0897 31.2006 44.8509C31.2006 47.6121 25.3616 50.701 17.5502 50.701C9.73886 50.701 3.89982 47.6121 3.89982 44.8509C3.89982 42.0897 9.73886 39.0008 17.5502 39.0008ZM17.5502 74.1012C9.73886 74.1012 3.89982 71.0124 3.89982 68.2512V66.6483C7.06388 68.8257 11.881 70.2015 17.5502 70.2015C23.2194 70.2015 28.0359 68.8258 31.2006 66.6483L31.1999 68.2512C31.1999 71.0124 25.3616 74.1012 17.5502 74.1012H17.5502Z" fill="white"/>
<path d="M52.4701 14.7852C52.1528 14.0931 51.4607 13.6497 50.6993 13.6497H45.8241V1.9496C45.8247 1.43248 45.619 0.93628 45.2534 0.570651C44.8878 0.205022 44.3916 -0.000650315 43.8745 1.55036e-06H34.1239C33.6068 -0.000651485 33.1106 0.205022 32.745 0.570651C32.3793 0.93628 32.1737 1.43248 32.1743 1.9496V13.6497H27.299C26.5377 13.6504 25.8463 14.0931 25.5276 14.7845C25.209 15.4759 25.322 16.2895 25.8169 16.8686L37.517 30.519V30.5184C37.8879 30.9512 38.4291 31.2 38.9985 31.2C39.5685 31.2 40.1097 30.9512 40.4799 30.5184L52.1801 16.868V16.8686C52.6763 16.2902 52.7892 15.4766 52.47 14.7852L52.4701 14.7852ZM38.9992 26.2548L31.5384 17.5502H34.1239C34.6417 17.5502 35.1379 17.3452 35.5035 16.9789C35.8692 16.6133 36.0742 16.1171 36.0742 15.6V3.89984H41.9242V15.6C41.9242 16.1171 42.1293 16.6133 42.4949 16.9789C42.8605 17.3452 43.3567 17.5502 43.8745 17.5502H46.4607L38.9992 26.2548Z" fill="white"/>
<path d="M63.1207 57.3434C62.7678 56.9996 62.5497 56.5243 62.5497 55.9998V46.4995C62.5497 45.4501 63.4227 44.5996 64.4997 44.5996C65.5767 44.5996 66.4496 45.4501 66.4496 46.4995V55.2124L72.773 61.3733C73.5343 62.1154 73.5343 63.3184 72.773 64.0605C72.0114 64.8023 70.7767 64.8023 70.0151 64.0605L63.1207 57.3434ZM64.4997 37C65.5767 37 66.4496 37.8505 66.4496 38.8999C66.4496 39.9493 65.5767 40.7998 64.4997 40.7998C55.8842 40.7998 48.8992 47.6052 48.8992 56.0002C48.8992 64.3952 55.8837 71.2005 64.4997 71.2005C73.1157 71.2005 80.1002 64.3952 80.1002 56.0002C80.1002 54.9508 80.9731 54.1003 82.0501 54.1003C83.1271 54.1003 84 54.9508 84 56.0002C84 66.4939 75.27 75 64.5 75C53.73 75 45 66.4939 45 56.0002C45 45.5064 53.73 37.0003 64.5 37.0003L64.4997 37ZM70.4539 41.9506C69.4625 41.5406 69.0001 40.4251 69.421 39.4591C69.8418 38.4934 70.9863 38.0426 71.9778 38.4527C72.9692 38.8627 73.4318 39.9779 73.011 40.9439C72.5902 41.9099 71.4454 42.3606 70.4539 41.9506ZM75.5306 45.252C74.7693 44.5099 74.7693 43.3069 75.5306 42.5649C76.2922 41.8228 77.5269 41.8228 78.2885 42.5649C79.0501 43.3069 79.0501 44.51 78.2885 45.252C77.5269 45.9938 76.2922 45.9938 75.5306 45.252ZM78.9058 50.168C78.5027 49.195 78.9848 48.0874 79.9835 47.6946C80.9821 47.3014 82.1185 47.7715 82.522 48.7443C82.9255 49.7173 82.443 50.8245 81.4444 51.2177C80.4461 51.6108 79.3093 51.1407 78.9058 50.168Z" fill="white"/>
</svg>
