<svg xmlns="http://www.w3.org/2000/svg" width="10" height="10" viewBox="0 0 10 10" fill="none">
<g clip-path="url(#clip0_276_1106)">
<path d="M9.21094 0.423828C8.7832 -0.00390626 8.0918 -0.00390626 7.66406 0.423828L7.07617 1.00977L8.98828 2.92188L9.57617 2.33398C10.0039 1.90625 10.0039 1.21484 9.57617 0.787109L9.21094 0.423828ZM3.36719 4.7207C3.24805 4.83984 3.15625 4.98633 3.10352 5.14844L2.52539 6.88281C2.46875 7.05078 2.51367 7.23633 2.63867 7.36328C2.76367 7.49023 2.94922 7.5332 3.11914 7.47656L4.85352 6.89844C5.01367 6.84375 5.16016 6.75391 5.28125 6.63477L8.54883 3.36523L6.63477 1.45117L3.36719 4.7207ZM1.875 1.25C0.839844 1.25 0 2.08984 0 3.125V8.125C0 9.16016 0.839844 10 1.875 10H6.875C7.91016 10 8.75 9.16016 8.75 8.125V6.25C8.75 5.9043 8.4707 5.625 8.125 5.625C7.7793 5.625 7.5 5.9043 7.5 6.25V8.125C7.5 8.4707 7.2207 8.75 6.875 8.75H1.875C1.5293 8.75 1.25 8.4707 1.25 8.125V3.125C1.25 2.7793 1.5293 2.5 1.875 2.5H3.75C4.0957 2.5 4.375 2.2207 4.375 1.875C4.375 1.5293 4.0957 1.25 3.75 1.25H1.875Z" fill="#9A9A9A"/>
</g>
<defs>
<clipPath id="clip0_276_1106">
<rect width="10" height="10" fill="white"/>
</clipPath>
</defs>
</svg>