<svg xmlns="http://www.w3.org/2000/svg" width="74" height="74" viewBox="0 0 74 74" fill="none">
<circle cx="37" cy="37" r="37" fill="#FF0000"/>
<g clip-path="url(#clip0_364_2022)">
<path d="M52.0893 28.707C53.3003 27.4863 53.3003 25.5039 52.0893 24.2832C50.8784 23.0625 48.9118 23.0625 47.7009 24.2832L37.4999 34.5762L27.2893 24.293C26.0784 23.0723 24.1118 23.0723 22.9009 24.293C21.6899 25.5137 21.6899 27.4961 22.9009 28.7168L33.1115 39L22.9106 49.293C21.6996 50.5137 21.6996 52.4961 22.9106 53.7168C24.1215 54.9375 26.0881 54.9375 27.299 53.7168L37.4999 43.4238L47.7106 53.707C48.9215 54.9277 50.8881 54.9277 52.099 53.707C53.3099 52.4863 53.3099 50.5039 52.099 49.2832L41.8884 39L52.0893 28.707Z" fill="white"/>
</g>
<defs>
<clipPath id="clip0_364_2022">
<rect width="31" height="50" fill="white" transform="translate(22 14)"/>
</clipPath>
</defs>
</svg>