<svg xmlns="http://www.w3.org/2000/svg" width="24" height="24" viewBox="0 0 24 24" fill="none">
<circle cx="12" cy="12" r="12" fill="#008CF4"/>
<path d="M14.0141 6.60988V7.42888C14.0141 7.53629 14.0816 7.63028 14.1762 7.68398C15.8652 8.57012 16.9326 10.4498 16.6083 12.5309C16.284 14.5582 14.5951 16.1426 12.5548 16.3842C9.74442 16.7065 7.35288 14.518 7.35288 11.779C7.35288 10.0067 8.36624 8.46271 9.83901 7.68398C9.93359 7.63028 10.0011 7.53629 10.0011 7.42888V6.60988C10.0011 6.39506 9.77145 6.24737 9.58229 6.34135C7.32585 7.3349 5.81256 9.6308 6.01523 12.2624C6.23141 15.0819 8.48785 17.4046 11.3118 17.7134C14.9329 18.1162 18 15.2967 18 11.7924C18 9.36227 16.5407 7.26777 14.4329 6.34135C14.2438 6.2608 14.0141 6.39506 14.0141 6.60988Z" fill="white"/>
<path d="M12.0008 9.91268C12.3656 9.91268 12.6764 9.6173 12.6764 9.24137V5.66997C12.6764 5.30746 12.3791 4.99866 12.0008 4.99866C11.6225 4.99866 11.3252 5.29404 11.3252 5.66997V9.24137C11.3252 9.6173 11.636 9.91268 12.0008 9.91268Z" fill="white"/>
</svg>