<svg width="24" height="24" viewBox="0 0 24 24" fill="none" xmlns="http://www.w3.org/2000/svg">
<circle cx="12" cy="12" r="12" fill="#4D4DE8"/>
<path d="M8.28223 9.96582C8.31348 9.0127 8.64681 8.24186 9.28223 7.65332C9.92285 7.06478 10.8083 6.77051 11.9385 6.77051C13.001 6.77051 13.8604 7.04655 14.5166 7.59863C15.1781 8.15072 15.5088 8.86165 15.5088 9.73145C15.5088 10.8512 14.9567 11.7393 13.8525 12.3955C13.3421 12.6976 12.9958 12.9736 12.8135 13.2236C12.6312 13.4684 12.54 13.7835 12.54 14.1689V14.6143H10.7275L10.7197 14.083C10.6833 13.5049 10.7796 13.0231 11.0088 12.6377C11.2432 12.2523 11.6338 11.8981 12.1807 11.5752C12.6702 11.2783 13.0088 11.0049 13.1963 10.7549C13.3838 10.4997 13.4775 10.182 13.4775 9.80176C13.4775 9.3903 13.3265 9.05436 13.0244 8.79395C12.7223 8.53353 12.3265 8.40332 11.8369 8.40332C11.3369 8.40332 10.9333 8.54395 10.626 8.8252C10.3187 9.10645 10.1494 9.48665 10.1182 9.96582H8.28223ZM11.7197 18.3408C11.3291 18.3408 11.014 18.2288 10.7744 18.0049C10.54 17.7757 10.4229 17.4736 10.4229 17.0986C10.4229 16.7184 10.54 16.4163 10.7744 16.1924C11.014 15.9632 11.3291 15.8486 11.7197 15.8486C12.1156 15.8486 12.4307 15.9632 12.665 16.1924C12.8994 16.4163 13.0166 16.7184 13.0166 17.0986C13.0166 17.4736 12.8994 17.7757 12.665 18.0049C12.4307 18.2288 12.1156 18.3408 11.7197 18.3408Z" fill="white"/>
</svg>
