<svg xmlns="http://www.w3.org/2000/svg" width="18" height="18" viewBox="0 0 18 18" fill="none">
<circle opacity="0.5" cx="9" cy="9" r="9" fill="#4D4DE8"/>
<path d="M8.05957 14V6.52148H9.74805V14H8.05957ZM8.90039 5.30469C8.59505 5.30469 8.3444 5.2181 8.14844 5.04492C7.95247 4.86719 7.85449 4.6416 7.85449 4.36816C7.85449 4.09473 7.95247 3.87142 8.14844 3.69824C8.3444 3.52051 8.59505 3.43164 8.90039 3.43164C9.21029 3.43164 9.46094 3.52051 9.65234 3.69824C9.84831 3.87142 9.94629 4.09473 9.94629 4.36816C9.94629 4.6416 9.84831 4.86719 9.65234 5.04492C9.46094 5.2181 9.21029 5.30469 8.90039 5.30469Z" fill="white"/>
</svg>