<svg width="260" height="44" viewBox="0 0 260 44" fill="none" xmlns="http://www.w3.org/2000/svg">
<g clip-path="url(#clip0_2408_8441)">
<path d="M38.3779 0C41.8979 6.97714 45.4179 13.953 48.9379 20.9275C48.545 21.4343 48.0422 21.23 47.6336 21.23C39.6586 21.23 31.6797 21.23 23.7047 21.2693C22.4907 21.2693 21.8818 20.9196 21.3475 19.7961C18.46 13.6596 15.4625 7.57036 12.52 1.45357C12.3 1.00179 11.9072 0.581429 12.0564 0H38.3779Z" fill="#5C5B5B"/>
<path d="M12.0566 44.0001C12.5163 41.8708 13.7302 40.0715 14.622 38.1072C16.6452 33.7229 18.7549 29.3779 20.8095 25.0054C21.2024 24.1333 21.5952 23.5401 22.7738 23.5479C31.2713 23.6108 39.7688 23.5833 48.2663 23.5911C48.5315 23.6251 48.7941 23.6776 49.052 23.7483L39.1638 44.0001H12.0566Z" fill="#47818E"/>
<path d="M0.664062 21.2144C2.62835 18.099 3.53192 14.5358 4.98549 11.1887C6.49799 7.65294 7.85728 4.0858 9.47192 0.0708008C11.0433 3.49259 12.4616 6.47044 13.8287 9.46402C15.5612 13.2669 17.2505 17.0894 18.9908 20.8922C19.4426 21.8744 19.7766 22.7662 19.2266 23.8662C16.1937 30.0929 13.2119 36.3472 10.1908 42.5937C10.0258 42.9315 9.92371 43.344 9.24799 43.4265C7.57049 39.2504 5.93621 35.0037 4.16835 30.8119C3.02121 28.1247 2.32978 25.2412 0.664062 22.7858V21.2144Z" fill="#C7C8C9"/>
<path d="M259.164 28.2858C256.995 30.9219 252.395 31.5936 249.417 29.7708C248.353 29.1186 248.734 28.5922 249.46 27.9126C251.136 28.9222 253.102 29.3375 255.043 29.0911C256.139 28.9497 257.145 28.6551 257.302 27.3469C257.471 25.964 256.449 25.5672 255.4 25.2922C254.143 24.9622 252.859 24.7265 251.598 24.4044C250.026 24.0115 249.079 23.0097 249.028 21.3676C248.977 19.7254 249.873 18.704 251.307 18.0715C253.24 17.2072 256.06 17.4508 258.555 18.7354C258.382 19.6351 258.198 20.3069 256.984 19.694C255.656 19.0104 254.194 19.0183 252.768 19.2776C251.747 19.4622 250.922 19.9886 250.883 21.1908C250.843 22.3929 251.668 22.8015 252.576 23.0569C253.892 23.4259 255.225 23.7287 256.571 23.9644C257.667 24.1608 258.253 25.1036 259.164 25.5358V28.2858Z" fill="#47818E"/>
<path d="M110.915 13.3964C114.136 13.3964 117.22 13.2354 120.277 13.4357C125.337 13.7657 128.664 17.3643 128.594 22.1061C128.523 26.8479 125.246 30.25 120.269 30.5721C117.213 30.7647 114.129 30.6075 110.915 30.6075V13.3964ZM115.79 26.6868C118.56 26.6868 121.31 27.2957 122.999 24.5143C123.993 22.8761 123.856 20.3932 122.665 18.9829C120.784 16.7514 118.273 17.2661 115.79 17.4114V26.6868Z" fill="#5C5B5B"/>
<path d="M147.239 16.2762L144.3 18.9358C142.693 17.4744 140.867 16.7908 138.737 17.2583C137.892 17.4018 137.113 17.8032 136.505 18.4074C135.897 19.0116 135.491 19.789 135.343 20.633C134.903 22.6247 135.241 24.4319 136.832 25.8108C138.305 27.0837 140.073 27.1033 141.841 26.5965C142.67 26.3687 142.658 26.1722 142.399 23.9526L140.195 23.6619C140.035 22.7038 140.181 21.7197 140.611 20.849H146.783C147.317 23.3712 146.704 25.8972 146.858 28.4037C146.854 28.5672 146.803 28.7261 146.711 28.8613C146.619 28.9965 146.49 29.1023 146.339 29.1658C141.55 32.1594 133.3 31.959 130.739 25.143C129.991 23.1649 129.971 20.9852 130.684 18.9941C131.396 17.003 132.795 15.3306 134.628 14.2765C138.71 11.9705 144.394 12.8151 147.239 16.2762Z" fill="#5C5B5B"/>
<path d="M64.2207 13.6597V30.7057C62.6493 31.0436 61.1093 30.9218 59.3375 30.7804V17.4232L56.3479 17.2582C55.955 16.0797 56.1554 14.9443 56.23 13.6636L64.2207 13.6597Z" fill="#5C5B5B"/>
<path d="M98.0929 30.8826V17.4076L95.1937 17.2858C94.7694 16.1426 95.0326 14.9837 95.0247 13.6912H102.96V30.694C101.479 31.1183 99.9433 30.808 98.0929 30.8826Z" fill="#5C5B5B"/>
<path d="M88.2119 30.7804V17.4233L85.2969 17.2661C84.8294 16.1583 85.1437 15.0033 85.0926 13.6951H92.9851V30.7804H88.2119Z" fill="#5C5B5B"/>
<path d="M74.1004 13.6479V30.6822C72.6155 31.0987 71.1422 30.8433 69.4255 30.859V17.6983C68.294 17.0383 67.253 17.5765 66.263 17.1601C66.0684 15.9984 66.0551 14.8137 66.2237 13.6479H74.1004Z" fill="#5C5B5B"/>
<path d="M157.477 13.3925C160.227 13.3925 162.713 13.2668 165.181 13.42C168.775 13.6479 171.042 16.0247 171.034 19.3129C171.034 22.6718 168.677 24.9857 164.961 25.1547C163.205 25.2332 161.445 25.1547 159.614 25.1547C159.056 26.9422 159.614 28.7218 159.221 30.584C158.471 30.5565 157.481 31.185 157.473 29.6725C157.469 24.314 157.477 18.9672 157.477 13.3925ZM159.504 14.9286V23.5715C161.861 23.4615 164.073 23.9015 166.249 23.2257C168.178 22.6247 169.16 21.2615 169.168 19.2972C169.168 17.2504 168.123 15.8518 166.112 15.2704C163.99 14.6536 161.826 15.0582 159.504 14.9286Z" fill="#47818E"/>
<path d="M184.129 30.4779C182.817 30.9296 182.377 30.4464 182.557 28.9064C180.774 30.6271 178.849 30.9532 176.782 30.6468C174.716 30.3404 173.341 28.8829 173.337 27.0129C173.333 25.1429 174.433 23.7993 176.578 23.4771C178.432 23.21 180.326 23.2179 182.192 23.1079C182.612 19.0536 179.729 18.0518 174.488 20.3579C173.632 19.6782 173.702 19.0811 174.661 18.5821C175.661 18.0214 176.766 17.6721 177.906 17.5558C179.047 17.4396 180.2 17.5589 181.292 17.9064C183.099 18.4839 184.066 19.8707 184.117 21.7407C184.192 24.6361 184.129 27.5 184.129 30.4779ZM182.29 24.7696C180.55 24.7696 178.809 24.6989 177.081 24.7971C176.617 24.8046 176.17 24.9733 175.816 25.2744C175.463 25.5754 175.225 25.9901 175.144 26.4471C175.018 26.8945 175.048 27.3714 175.228 27.7997C175.409 28.228 175.73 28.5822 176.138 28.8043C176.84 29.23 177.65 29.4445 178.47 29.4222C179.291 29.3999 180.088 29.1418 180.766 28.6786C182.164 27.8339 182.809 26.5729 182.298 24.7696H182.29Z" fill="#47818E"/>
<path d="M226.474 24.6675C226.867 29.1303 230.886 30.3835 235.321 27.6925C236.017 28.16 236.327 28.6078 235.553 29.3582C233.746 31.1182 229.55 31.2282 227.118 29.5193C224.6 27.7514 223.724 24.0193 225.154 21.065C226.466 18.315 229.476 16.9714 232.575 17.765C235.435 18.4957 237.254 21.3007 236.94 24.6675H226.474ZM235.199 23.3278C234.865 20.4914 233.145 19.0064 230.619 19.1046C228.128 19.2186 226.557 20.8214 226.521 23.3278H235.199Z" fill="#47818E"/>
<path d="M221.029 30.47C219.615 30.9021 219.128 30.5171 219.175 29.2285C219.246 27.2053 219.226 25.1703 219.175 23.1432C219.108 20.676 218.04 19.4267 215.95 19.2146C213.392 18.9671 211.585 20.0867 211.07 22.4242C210.571 24.6753 210.956 26.9893 210.862 29.2718C210.862 29.6646 210.862 30.0378 210.862 30.36C210.615 30.5251 210.327 30.621 210.03 30.6376C209.733 30.6541 209.437 30.5908 209.173 30.4542V17.9771C210.689 17.6275 210.689 17.6275 211.051 19.4621C212.033 18.6764 212.991 17.8907 214.268 17.6825C218.46 16.9753 220.986 19.0653 221.033 23.3396C221.057 25.6889 221.029 28.0382 221.029 30.47Z" fill="#47818E"/>
<path d="M197.238 17.7219L199.159 17.6119C199.728 16.8261 199.221 15.9226 199.551 15.1408C201.025 14.8461 201.025 14.8461 201.429 17.6158H204.855C204.981 18.8454 204.981 18.8454 201.292 19.4229C201.292 22.0433 201.198 24.7069 201.327 27.3586C201.414 29.1304 202.757 29.3229 204.203 29.1029C204.761 29.0244 205.531 28.3408 205.715 29.4958C205.869 30.419 205.004 30.4819 204.423 30.6272C201.382 31.3776 199.481 29.8415 199.449 26.6594C199.426 24.2472 199.449 21.839 199.449 19.6115C198.699 18.7747 196.735 19.9376 197.238 17.7219Z" fill="#47818E"/>
<path d="M190.729 30.368C190.47 30.5335 190.172 30.6279 189.865 30.6417C189.558 30.6555 189.253 30.5882 188.98 30.4465V17.8751C190.469 17.168 190.658 18.1933 190.819 19.3326C192.182 18.3465 193.455 17.2858 195.14 17.7376C195.718 17.8948 195.506 18.594 195.325 19.0773C191.656 19.804 190.752 20.904 190.733 24.6323C190.721 26.5219 190.729 28.4076 190.729 30.368Z" fill="#47818E"/>
<path d="M246.986 17.7612C247.029 18.4448 247.379 19.0223 246.2 19.3012C243.328 19.9887 242.452 21.1398 242.338 24.098C242.271 25.8619 242.279 27.6337 242.338 29.3976C242.374 30.6233 241.867 30.8787 240.724 30.4583V17.9655C242.181 17.6708 242.181 17.6708 242.358 19.5723C243.709 18.4644 245.021 17.3369 246.986 17.7612Z" fill="#47818E"/>
<path d="M77.2715 22.0588H84.0993C84.5825 23.096 84.17 24.196 84.3979 25.4178H77.2715V22.0588Z" fill="#5C5B5B"/>
</g>
<defs>
<clipPath id="clip0_2408_8441">
<rect width="258.5" height="44" fill="white" transform="translate(0.664062)"/>
</clipPath>
</defs>
</svg>
