<svg width="137" height="60" viewBox="0 0 137 60" fill="none" xmlns="http://www.w3.org/2000/svg">
<g clip-path="url(#clip0_2408_8402)">
<path d="M133.749 2.2818V37.7773H2.44586V2.2818H133.749ZM136.03 0H0.164062V40.0661H136.03V0Z" fill="#AE0000"/>
<path d="M11.5805 21.762C11.5805 17.8267 12.4143 14.8977 14.082 12.975C15.7496 11.0522 18.2416 10.0908 21.558 10.0908C22.4509 10.0683 23.3437 10.1372 24.2225 10.2963V13.6553C23.4368 13.4756 22.6333 13.3852 21.8273 13.386C20.6125 13.3372 19.4021 13.5599 18.2842 14.0379C17.4076 14.4369 16.6875 15.1146 16.2362 15.9654C15.7148 17.1068 15.4419 18.3459 15.4355 19.6007H15.6055C16.038 18.8484 16.6733 18.2329 17.4389 17.8244C18.2045 17.4159 19.0696 17.2309 19.9353 17.2905C20.7119 17.2477 21.4886 17.3752 22.2108 17.6641C22.933 17.953 23.5833 18.3963 24.1162 18.9629C25.1857 20.2594 25.7249 21.9126 25.6256 23.5903C25.674 24.5074 25.5399 25.4251 25.2309 26.29C24.9219 27.1549 24.4443 27.9498 23.8257 28.6287C23.1722 29.2644 22.394 29.7577 21.5402 30.0772C20.6864 30.3968 19.7755 30.5358 18.8652 30.4853C17.5117 30.5178 16.1769 30.1639 15.0174 29.4649C13.895 28.7485 13.0137 27.7117 12.4875 26.4886C11.8504 24.9961 11.5411 23.3843 11.5805 21.762ZM18.766 27.1264C19.1582 27.1504 19.5504 27.0807 19.9103 26.9229C20.2701 26.7652 20.5872 26.524 20.8352 26.2193C21.3576 25.465 21.6075 24.5552 21.5439 23.6399C21.5806 22.8178 21.3301 22.0085 20.8352 21.351C20.5865 21.0763 20.2788 20.8615 19.9351 20.7228C19.5914 20.5841 19.2208 20.5251 18.8511 20.5503C18.0414 20.5332 17.2567 20.8303 16.6614 21.3794C16.3835 21.6129 16.1587 21.9032 16.0023 22.2307C15.8458 22.5583 15.7613 22.9155 15.7543 23.2785C15.7237 24.2597 16.0231 25.2229 16.6047 26.0138C16.8467 26.3617 17.1702 26.645 17.547 26.839C17.9237 27.0329 18.3423 27.1316 18.766 27.1264Z" fill="#AE0000"/>
<path d="M35.0998 27.1833C35.9922 27.1537 36.8756 26.9938 37.7217 26.7085V29.7627C36.5178 30.2658 35.2207 30.5073 33.9164 30.4714C32.2511 30.4714 31.0818 30.0533 30.2882 29.2171C29.4525 28.1432 29.0459 26.797 29.1473 25.4401V18.1199H27.1631V16.3625L29.452 14.9452L30.6354 11.7634H33.2857V15.0019H37.5375V18.1199H33.2857V25.4542C33.2647 25.6949 33.2984 25.9372 33.3843 26.163C33.4702 26.3888 33.606 26.5923 33.7817 26.7581C34.1548 27.0553 34.6234 27.2064 35.0998 27.1833Z" fill="#AE0000"/>
<path d="M54.8283 30.2162H50.6757V21.3299C50.6757 19.1332 49.8608 18.0348 48.2309 18.0348C47.7441 17.9981 47.2561 18.0878 46.8141 18.2951C46.3721 18.5024 45.9912 18.8204 45.7082 19.2182C45.1909 20.0119 44.9358 21.2874 44.9358 23.059V30.2162H40.7832V9.04224H44.9358V13.3578C44.9358 13.6909 44.9358 14.4775 44.8366 15.7247L44.7445 16.9506H44.9641C45.4278 16.2142 46.0828 15.6177 46.8591 15.2245C47.6354 14.8314 48.5039 14.6564 49.3718 14.7184C50.1108 14.6629 50.8533 14.7601 51.5531 15.0039C52.2528 15.2477 52.8949 15.633 53.4394 16.1357C54.4402 17.2736 54.9498 18.7615 54.8567 20.2741L54.8283 30.2162Z" fill="#AE0000"/>
<path d="M75.0875 30.2161L70.3184 14.6049H70.1767C70.3468 17.7866 70.4389 19.8984 70.4389 20.9826V30.2161H66.6689V10.3176H72.4443L77.1213 25.5107H77.1992L82.1951 10.2964H87.935V30.2161H84.0021V20.7983C84.0021 20.3519 84.0021 19.8417 84.0021 19.2606C84.0021 18.6795 84.0801 17.1347 84.1864 14.6332H84.0659L78.9354 30.2232L75.0875 30.2161Z" fill="#AE0000"/>
<path d="M102.278 30.2162L101.499 28.147H101.392C100.835 28.9125 100.107 29.5383 99.2666 29.9753C98.3502 30.3492 97.3644 30.5232 96.3754 30.4855C95.7458 30.521 95.1155 30.4288 94.5224 30.2145C93.9293 30.0002 93.3858 29.6681 92.9243 29.2383C92.4889 28.7616 92.1535 28.2025 91.938 27.5938C91.7226 26.9852 91.6315 26.3396 91.67 25.6951C91.6242 25.0088 91.7559 24.3222 92.0526 23.7016C92.3492 23.081 92.8008 22.5473 93.3637 22.152C94.4904 21.3796 96.1982 20.9544 98.4729 20.8764L101.109 20.7914V20.1253C101.109 18.5899 100.32 17.8199 98.7422 17.8151C97.2421 17.8625 95.768 18.2195 94.4124 18.8639L92.9952 16.0648C94.7957 15.1384 96.7954 14.6664 98.8201 14.6901C100.861 14.6901 102.427 15.1341 103.518 16.0223C104.61 16.9152 105.148 18.2616 105.148 20.0757V30.2162H102.278ZM101.052 23.1299L99.4508 23.1866C98.5105 23.1539 97.5792 23.3794 96.758 23.8385C96.4647 24.0387 96.2286 24.3121 96.0733 24.6315C95.9179 24.9509 95.8486 25.3053 95.8722 25.6597C95.8722 26.836 96.5383 27.4171 97.8847 27.4171C98.3054 27.4376 98.726 27.3749 99.1224 27.2326C99.5188 27.0903 99.8832 26.8713 100.195 26.588C100.484 26.3008 100.709 25.9563 100.857 25.5768C101.004 25.1972 101.071 24.791 101.052 24.3842V23.1299Z" fill="#AE0000"/>
<path d="M123.466 30.2162H119.313V21.3299C119.374 20.4658 119.171 19.6037 118.732 18.8568C118.515 18.5747 118.231 18.3517 117.905 18.208C117.58 18.0644 117.223 18.0048 116.869 18.0348C116.384 17.9957 115.897 18.0821 115.455 18.2857C115.013 18.4892 114.631 18.803 114.346 19.1969C113.836 19.9764 113.573 21.2591 113.573 23.059V30.2162H109.421V15.0018H112.596L113.148 16.9506H113.382C113.842 16.2171 114.507 15.6354 115.295 15.2782C116.167 14.8919 117.113 14.7008 118.066 14.7184C118.799 14.6637 119.534 14.7614 120.227 15.0053C120.92 15.2492 121.555 15.6341 122.091 16.1356C123.078 17.2878 123.572 18.782 123.466 20.2953V30.2162Z" fill="#AE0000"/>
<path d="M33.6186 47.3933H34.5611L29.9267 59.8298H29.1472L24.5127 47.3933H25.441L28.5661 55.8544C28.937 56.7961 29.2587 57.7564 29.5298 58.7314C29.6432 58.3063 29.87 57.6472 30.2385 56.7473L33.6186 47.3933Z" fill="#333333"/>
<path d="M41.9736 60.0001C41.3901 60.0326 40.8065 59.9379 40.2632 59.7226C39.72 59.5072 39.23 59.1763 38.8273 58.7529C38.0095 57.7842 37.5937 56.5392 37.6651 55.2735C37.5993 54.0006 37.9859 52.7456 38.7564 51.7303C39.108 51.2952 39.5562 50.9482 40.0656 50.7169C40.5749 50.4856 41.1312 50.3764 41.6902 50.3981C42.1789 50.3766 42.6661 50.4684 43.1135 50.6663C43.561 50.8642 43.9566 51.1629 44.2696 51.539C44.9373 52.4287 45.2709 53.5249 45.2121 54.6357V55.3443H38.5509C38.4901 56.3875 38.8043 57.418 39.4367 58.2497C39.7582 58.5942 40.1533 58.8616 40.5926 59.0322C41.0318 59.2027 41.5039 59.2719 41.9736 59.2347C42.4486 59.2429 42.9232 59.205 43.3909 59.1214C43.9102 59.0113 44.418 58.8523 44.9073 58.6466V59.4119C44.4545 59.6203 43.9789 59.7749 43.4901 59.8725C42.99 59.9648 42.4821 60.0076 41.9736 60.0001ZM41.6902 51.1492C41.2931 51.1367 40.898 51.2093 40.5314 51.3621C40.1647 51.5148 39.8349 51.7443 39.5643 52.035C38.9699 52.7472 38.6307 53.6377 38.6005 54.5648H44.3192C44.3688 53.6709 44.1195 52.7858 43.6106 52.0492C43.3864 51.7558 43.0948 51.5209 42.7605 51.3642C42.4262 51.2075 42.059 51.1338 41.6902 51.1492Z" fill="#333333"/>
<path d="M56.3021 59.8298V53.8561C56.3653 53.1286 56.1557 52.4037 55.7139 51.8223C55.4708 51.5964 55.1833 51.4236 54.8698 51.315C54.5562 51.2065 54.2234 51.1644 53.8927 51.1916C53.4516 51.1529 53.0073 51.2074 52.5886 51.3514C52.1699 51.4955 51.7861 51.7259 51.4621 52.0278C50.8822 52.8104 50.6099 53.7788 50.6968 54.7489V59.8511H49.8535V50.5822H50.5621L50.718 51.8506H50.7747C51.37 50.9058 52.4377 50.4333 53.9778 50.4333C56.0753 50.4333 57.1241 51.5577 57.1241 53.8064V59.8582L56.3021 59.8298Z" fill="#333333"/>
<path d="M64.6498 59.2489C65.1258 59.2581 65.6013 59.2129 66.0671 59.1143V59.8229C65.6086 59.9664 65.1302 60.0358 64.6498 60.0284C64.3189 60.0558 63.9859 60.011 63.674 59.8972C63.362 59.7835 63.0784 59.6034 62.8428 59.3694C62.4052 58.778 62.1985 58.0473 62.2617 57.3143V51.3122H60.8799V50.8233L62.2546 50.4406L62.6798 48.3147H63.1121V50.554H65.8261V51.2626H63.1121V57.1159C63.0689 57.6667 63.2003 58.2172 63.4877 58.6891C63.619 58.8722 63.7943 59.0194 63.9973 59.1172C64.2004 59.215 64.4247 59.2603 64.6498 59.2489Z" fill="#333333"/>
<path d="M70.8718 50.5823V56.5702C70.8083 57.2955 71.0181 58.0183 71.46 58.5969C71.7015 58.8256 71.9886 59.0006 72.3024 59.1105C72.6163 59.2204 72.9498 59.2627 73.2812 59.2347C73.7221 59.2707 74.1657 59.215 74.584 59.0711C75.0024 58.9272 75.3864 58.6982 75.7118 58.3985C76.2986 57.6217 76.5741 56.6538 76.4842 55.6844V50.5823H77.3204V59.8299H76.6117L76.4629 58.5544H76.4062C75.811 59.4992 74.7433 59.9717 73.2032 59.9717C71.1009 59.9717 70.0498 58.8449 70.0498 56.5915V50.5823H70.8718Z" fill="#333333"/>
<path d="M86.1492 50.4051C86.5702 50.4057 86.9901 50.446 87.4035 50.5256L87.2405 51.3334C86.8493 51.233 86.4468 51.183 86.0429 51.1846C85.6617 51.1808 85.2853 51.2705 84.9468 51.446C84.6083 51.6214 84.318 51.8772 84.1013 52.1909C83.5776 52.9304 83.3135 53.8224 83.3501 54.7278V59.83H82.5068V50.5823H83.2155L83.3005 52.2476H83.3572C83.6439 51.6842 84.062 51.1981 84.576 50.8303C85.0475 50.5377 85.5945 50.3898 86.1492 50.4051Z" fill="#333333"/>
<path d="M95.1206 60.0001C94.5382 60.032 93.9558 59.9371 93.4138 59.7217C92.8717 59.5064 92.383 59.1758 91.9813 58.7529C91.1814 57.7768 90.7835 56.5326 90.8688 55.2735C90.804 54.0019 91.1877 52.7479 91.953 51.7303C92.3052 51.296 92.7537 50.9496 93.2628 50.7184C93.772 50.4872 94.3279 50.3775 94.8867 50.3981C95.3755 50.3766 95.8626 50.4684 96.3101 50.6663C96.7575 50.8642 97.1532 51.1629 97.4661 51.539C98.1372 52.427 98.4712 53.5244 98.4086 54.6357V55.3443H91.7546C91.6899 56.3879 92.0045 57.4197 92.6403 58.2497C92.9548 58.5876 93.3405 58.8513 93.7695 59.0217C94.1985 59.1921 94.66 59.2648 95.1206 59.2347C95.5955 59.2432 96.0702 59.2053 96.5378 59.1214C97.0595 59.0114 97.5696 58.8525 98.0614 58.6466V59.4119C97.6078 59.6183 97.1324 59.7729 96.6441 59.8725C96.1416 59.9645 95.6314 60.0072 95.1206 60.0001ZM94.8725 51.1492C94.4754 51.1358 94.08 51.2079 93.7132 51.3608C93.3464 51.5136 93.0167 51.7436 92.7466 52.035C92.1497 52.7463 91.808 53.6368 91.7758 54.5648H97.4874C97.5333 53.6713 97.2843 52.7874 96.7788 52.0492C96.5534 51.7572 96.2616 51.5231 95.9276 51.3666C95.5936 51.2101 95.227 51.1356 94.8584 51.1492H94.8725Z" fill="#333333"/>
<path d="M108.755 57.3994C108.774 57.7712 108.697 58.1414 108.532 58.4751C108.367 58.8087 108.119 59.0946 107.813 59.3057C107.014 59.812 106.079 60.0595 105.134 60.0143C104.122 60.0592 103.114 59.8624 102.193 59.4403V58.5191C103.103 58.9856 104.112 59.2286 105.134 59.2277C105.855 59.2748 106.575 59.1176 107.21 58.7742C107.424 58.6511 107.601 58.4747 107.725 58.2622C107.85 58.0497 107.916 57.8085 107.919 57.5624C107.92 57.3361 107.87 57.1126 107.772 56.9087C107.673 56.7049 107.53 56.5262 107.352 56.3861C106.787 55.9771 106.16 55.6613 105.496 55.4507C104.82 55.2218 104.17 54.925 103.554 54.5649C103.213 54.3569 102.923 54.0762 102.704 53.7429C102.51 53.4071 102.412 53.0248 102.42 52.6374C102.417 52.3164 102.495 51.9998 102.648 51.7173C102.8 51.4347 103.022 51.1954 103.292 51.0217C104.025 50.5801 104.875 50.3702 105.729 50.4194C106.702 50.4149 107.666 50.6052 108.564 50.9792L108.259 51.7304C107.461 51.3801 106.601 51.1899 105.729 51.1705C105.11 51.1419 104.493 51.2711 103.937 51.5461C103.738 51.6369 103.57 51.7826 103.452 51.9659C103.334 52.1493 103.271 52.3626 103.27 52.5807C103.261 52.8002 103.303 53.0187 103.393 53.2192C103.483 53.4197 103.618 53.5965 103.788 53.7358C104.402 54.1651 105.082 54.4928 105.8 54.7066C106.43 54.9177 107.038 55.1907 107.614 55.5215C107.96 55.7253 108.254 56.0068 108.472 56.3436C108.663 56.662 108.762 57.0279 108.755 57.3994Z" fill="#333333"/>
</g>
<defs>
<clipPath id="clip0_2408_8402">
<rect width="135.866" height="60" fill="white" transform="translate(0.164062)"/>
</clipPath>
</defs>
</svg>
