<svg width="61" height="60" viewBox="0 0 61 60" fill="none" xmlns="http://www.w3.org/2000/svg">
<g clip-path="url(#clip0_2408_8499)">
<path d="M60.4469 30.075C60.4469 39.846 60.4519 49.6165 60.4619 59.3865C60.4619 59.8995 60.3614 60 59.8484 60C40.2574 59.984 20.6664 59.984 1.07541 60C0.562414 60 0.461914 59.8995 0.461914 59.3865C0.478914 39.7955 0.478914 20.2045 0.461914 0.6135C0.461914 0.1005 0.562414 0 1.07541 0C20.6664 0.017 40.2574 0.017 59.8484 0C60.3614 0 60.4634 0.1005 60.4619 0.6135C60.4429 10.4345 60.4379 20.255 60.4469 30.075Z" fill="#002041"/>
<path d="M26.8622 44.4494C25.0157 44.4689 23.1707 44.5094 21.3242 44.4959C20.5862 44.4959 20.2202 44.0459 20.2188 43.2734C20.2188 40.4534 20.2188 37.6324 20.2188 34.8104C20.2188 33.8384 20.4962 33.5834 21.4862 33.5804C22.5842 33.5804 23.6837 33.6224 24.7862 33.5804C25.084 33.5524 25.3838 33.6041 25.655 33.7301C25.9262 33.856 26.1591 34.0518 26.3297 34.2974C26.6882 34.7744 27.0707 35.2334 27.4427 35.6999C27.6287 36.0209 27.8522 36.3149 28.0592 36.6194C28.5557 37.3514 28.5587 38.2349 28.6592 39.0779C28.666 39.1661 28.6422 39.254 28.592 39.3269C28.5418 39.3998 28.4681 39.4533 28.3832 39.4784C28.1717 39.5564 28.0712 39.3974 27.9527 39.2714C27.8073 39.1024 27.6461 38.9477 27.4712 38.8094C26.7602 37.9454 26.0222 37.1024 25.3487 36.2099C24.9512 35.6819 24.5087 35.4779 23.8487 35.4944C22.1297 35.5364 22.1282 35.5049 22.1282 37.2329C22.1282 38.7779 22.1522 40.3229 22.1177 41.8679C22.1057 42.4364 22.3007 42.5939 22.8467 42.5849C24.1412 42.5609 25.4372 42.5969 26.7317 42.6089C27.1682 42.7364 27.6152 42.6494 28.0577 42.6704C28.5002 42.6914 29.2682 43.5584 29.1947 43.9694C29.1242 44.3564 28.7792 44.3549 28.4942 44.3849C27.9467 44.4389 27.3977 44.3324 26.8622 44.4494Z" fill="#00AEFC"/>
<path d="M26.8818 18.588C25.6113 18.6015 24.3393 18.6555 23.0688 18.612C22.3428 18.588 22.0848 18.762 22.0998 19.551C22.1538 22.4685 22.0848 25.389 22.1418 28.3065C22.1598 29.196 21.6708 29.0985 21.1113 29.1165C20.5518 29.1345 20.1933 29.0685 20.2023 28.329C20.2383 24.912 20.2143 21.495 20.2218 18.0765C20.2218 17.0265 20.5053 16.7265 21.5463 16.716C23.3148 16.7055 25.0848 16.737 26.8533 16.752C27.2418 16.8585 27.6393 16.776 28.0308 16.8165C28.7583 17.1435 28.9713 17.8665 28.5333 18.528C27.9828 18.561 27.4293 18.4665 26.8818 18.588Z" fill="#00ADFC"/>
<path d="M27.7622 32.835C26.6927 31.5945 25.6127 30.3615 24.5582 29.109C24.2327 28.7205 24.2762 28.272 24.5582 27.8625C25.6842 26.2245 26.8137 24.5895 27.9467 22.9575C28.1146 22.8111 28.271 22.6521 28.4147 22.482C28.6067 22.2705 28.8287 22.2045 29.0417 22.47C29.0913 22.556 29.1142 22.6548 29.1075 22.7539C29.1009 22.853 29.0649 22.9479 29.0042 23.0265C28.4282 23.7435 28.5062 24.573 28.5542 25.4025C28.5427 25.4715 28.5204 25.5383 28.4882 25.6005C28.2227 25.908 27.9152 26.2005 27.9362 26.6505C27.8288 27.01 27.6457 27.3425 27.3992 27.6255C26.9222 28.188 27.0062 28.659 27.4787 29.1855C27.9857 29.748 28.6517 30.2145 28.7987 31.0395C28.6905 31.3257 28.6457 31.6321 28.6671 31.9373C28.6886 32.2426 28.776 32.5396 28.9232 32.808C29.0432 33.024 29.1782 33.3435 28.8527 33.525C28.5602 33.69 28.4357 33.4365 28.2782 33.237C28.1292 33.0758 27.9549 32.94 27.7622 32.835Z" fill="#00B4F6"/>
<path d="M43.3623 31.1999C45.1398 34.1594 45.1623 37.1999 43.7973 40.3124C43.7211 40.4385 43.6299 40.5548 43.5258 40.6589C42.6933 40.6364 42.2253 40.0364 42.4473 39.2474C42.8758 37.8057 42.9833 36.2876 42.7623 34.7999C42.7528 34.7946 42.7445 34.7873 42.7381 34.7786C42.7316 34.7698 42.7271 34.7598 42.7248 34.7491C42.7225 34.7385 42.7226 34.7274 42.7249 34.7168C42.7272 34.7062 42.7318 34.6962 42.7383 34.6874C42.6153 33.8819 42.5088 33.0809 42.0498 32.3609C41.7498 31.8959 41.9118 31.3349 41.9943 30.8324C42.0528 30.4649 42.3648 30.3929 42.6828 30.6179C42.9243 30.7904 43.1058 31.0379 43.3623 31.1999Z" fill="#F8C6D0"/>
<path d="M37.6531 24.1411C38.1196 22.6096 38.1511 21.1066 37.3531 19.6576C37.1985 19.4353 37.1085 19.1745 37.0932 18.9041C37.0778 18.6338 37.1377 18.3645 37.2661 18.1261C37.4041 17.8606 37.5841 17.6206 37.9501 17.7076C39.972 19.5181 40.4475 22.3696 39.273 24.9586C39.0049 25.5021 38.7095 26.0318 38.3881 26.5456C37.7881 26.3956 37.4386 25.8781 37.5271 25.1566C37.5736 24.8191 37.5436 24.4711 37.6531 24.1411Z" fill="#BCC1DE"/>
<path d="M37.6527 24.1411C37.7547 24.6961 37.8537 25.2511 37.9527 25.8046C38.0082 26.1046 38.1117 26.3746 38.3862 26.5456C38.3007 26.9626 37.8762 27.1381 37.6917 27.5416L38.8677 27.8941C38.1582 28.3861 38.4762 29.0596 38.5512 29.6941C37.6609 29.5207 36.7579 29.4203 35.8512 29.3941C35.2977 28.5211 35.4477 27.6076 35.6937 26.6941C36.5403 26.0109 37.2119 25.1357 37.6527 24.1411Z" fill="#A7C0E0"/>
<path d="M42.7618 34.8C43.3363 35.8755 42.7903 36.987 42.8563 38.0805C42.8818 38.5125 42.7198 38.9551 42.6553 39.3961C42.5533 40.0816 43.1383 40.296 43.5238 40.6575C43.0348 41.79 42.1948 42.5985 41.1523 43.218C40.5763 43.176 40.1908 42.318 40.4593 41.6775C40.5358 41.496 40.6873 41.3625 40.7788 41.1885C42.3973 39.615 42.9508 37.6695 42.7873 35.469C42.7708 35.25 42.7708 35.022 42.7618 34.8Z" fill="#E5C4D4"/>
<path d="M33.3226 29.3866C32.7541 29.5186 32.5846 30.0706 32.2381 30.4366C31.9186 30.7726 31.6381 31.1416 31.3306 31.4941C30.9376 31.5106 30.8896 31.1941 31.0306 31.0066C31.5241 30.3631 31.1566 29.8066 30.9511 29.2141C30.9167 29.1217 30.897 29.0245 30.8926 28.9261C30.8968 28.7957 30.9273 28.6676 30.9822 28.5493C31.0371 28.431 31.1153 28.325 31.2121 28.2376C31.6621 27.9376 31.7581 27.5911 31.5421 27.0526C31.3591 26.6026 30.9826 25.9891 31.7926 25.6636C32.1001 26.1136 32.4316 26.5336 32.7046 26.9956C32.9191 27.3556 33.1891 27.5311 33.6046 27.4801C33.7329 27.6608 33.834 27.8595 33.9046 28.0696C34.1581 28.7701 34.0261 29.0626 33.3226 29.3866Z" fill="#6ABBEA"/>
<path d="M30.4033 35.8306C30.9208 35.1676 31.4533 34.5136 31.9543 33.8386C32.2933 33.3886 32.7658 33.5641 33.1888 33.5476C33.4888 33.5356 33.8248 33.4576 34.1983 33.6721C33.0853 35.2066 32.0848 36.7906 30.8863 38.2366C30.3703 38.0236 30.6823 37.6216 30.6928 37.3051C30.7078 36.7861 30.9568 36.2341 30.4033 35.8306Z" fill="#64B9EA"/>
<path d="M43.3623 31.2C43.3375 31.1956 43.3125 31.1926 43.2873 31.191C42.8763 31.191 42.6873 30.672 42.2493 30.741C42.4308 31.341 41.9928 31.974 42.3993 32.592C42.8058 33.21 42.7953 33.96 42.7428 34.692C42.3228 33.114 41.6118 31.707 40.3563 30.6195C40.2701 30.4702 40.1607 30.3356 40.0323 30.2205C39.7473 29.895 39.7653 29.5365 39.9648 29.193C40.1823 28.815 40.5018 28.626 40.9518 28.806C41.9642 29.3619 42.7995 30.1915 43.3623 31.2Z" fill="#DDC3D7"/>
<path d="M40.7788 41.187C40.7383 41.8935 40.5133 42.6345 41.1523 43.2165C40.3594 43.8072 39.4189 44.1679 38.4343 44.259C37.8673 44.409 37.5223 44.1645 37.4098 43.629C37.2898 43.0545 37.4818 42.6165 38.1043 42.459C39.0746 42.2256 39.9855 41.7924 40.7788 41.187Z" fill="#C4C2DC"/>
<path d="M30.4039 35.8306C30.5246 35.809 30.6435 35.7779 30.7594 35.7376C30.8944 35.6821 31.0234 35.5456 31.1674 35.6596C31.3114 35.7736 31.1569 35.9236 31.1404 36.0601C31.0474 36.7846 30.9694 37.5106 30.8869 38.2366C30.6379 38.8366 30.2164 39.3451 29.8024 39.8341C29.2969 40.4341 28.6909 40.3681 28.2049 39.7411C28.1629 39.4516 28.4149 39.4636 28.5469 39.4846C29.1994 39.5896 29.1724 39.2761 29.0614 38.7916C28.9639 38.3671 29.0509 37.9126 28.5559 37.6381C28.4998 37.6074 28.4528 37.5626 28.4195 37.5081C28.3861 37.4536 28.3676 37.3914 28.3658 37.3275C28.364 37.2637 28.3789 37.2004 28.4091 37.1441C28.4393 37.0878 28.4837 37.0404 28.5379 37.0066C28.8979 37.4131 29.1889 37.4026 29.5009 36.9226C29.7796 36.5407 30.0812 36.1761 30.4039 35.8306Z" fill="#44B7ED"/>
<path d="M38.1115 42.459C37.417 43.3305 37.5415 44.004 38.4415 44.259C37.1935 44.6025 35.923 44.5155 34.654 44.4645C34.4155 44.43 34.339 44.217 34.4425 44.0865C34.7935 43.6365 34.633 43.08 34.825 42.606C35.911 42.534 37.0135 42.63 38.1115 42.459Z" fill="#9EBFE2"/>
<path d="M37.962 17.7074C37.263 18.2039 37.434 18.9674 37.362 19.6574C36.6615 18.8069 35.712 18.5774 34.671 18.5924C34.641 18.0389 34.7805 17.4779 34.593 16.9274C34.56 16.8299 34.6665 16.7549 34.776 16.7339C35.0835 16.7519 35.394 16.6799 35.697 16.7819C36.546 16.8479 37.3515 17.0294 37.962 17.7074Z" fill="#9FBFE2"/>
<path d="M33.3223 29.3866C33.7858 28.9726 33.9328 28.5181 33.5143 27.9826C33.3643 27.7846 33.4378 27.6211 33.6043 27.4771C34.3373 27.3101 35.044 27.0431 35.7043 26.6836C35.9833 27.5716 35.8138 28.4836 35.8618 29.3836L33.3223 29.3866Z" fill="#8BBEE5"/>
<path d="M34.8118 42.6001C35.1478 43.1491 35.2243 43.6666 34.6453 44.1211C34.5253 44.2141 34.5778 44.3446 34.6453 44.4586C33.7925 44.5246 32.936 44.5246 32.0833 44.4586C31.7473 44.4811 31.6513 44.2576 31.8343 44.0611C32.2843 43.5721 32.1223 43.2241 31.6843 42.8731C31.65 42.8374 31.63 42.7903 31.6281 42.7408C31.6261 42.6914 31.6424 42.6429 31.6738 42.6046L34.8118 42.6001Z" fill="#7ABDE8"/>
<path d="M31.0474 28.9126C31.4119 29.2036 31.3774 29.7106 31.6834 30.0601C31.8739 30.2776 31.6639 30.6226 31.4434 30.8446C31.2529 31.0381 30.9754 31.2076 31.3309 31.4911C30.9289 32.2186 30.3574 32.8141 29.8309 33.4411C29.7738 33.4396 29.7184 33.4219 29.6711 33.3901C29.6238 33.3582 29.5866 33.3136 29.5637 33.2613C29.5409 33.209 29.5334 33.1513 29.5422 33.095C29.551 33.0386 29.5757 32.9859 29.6134 32.9431C30.2134 32.1691 29.7349 31.6951 29.1934 31.2196C29.2324 30.3856 30.2974 29.0641 31.0474 28.9126Z" fill="#4EB7EE"/>
<path d="M31.7938 25.6605C31.4638 26.1105 31.6183 26.568 31.8238 27.0015C32.2108 27.8205 32.1703 27.96 31.3573 28.359C30.6403 28.1595 30.0418 27.2415 30.0673 26.382C30.6418 25.824 30.2773 25.182 30.2173 24.582C30.1888 24.315 30.0283 24.072 30.0133 23.7975C30.0013 23.568 29.9098 23.2755 30.3133 23.262C30.8843 24.011 31.3802 24.8144 31.7938 25.6605Z" fill="#54B8EC"/>
<path d="M40.9468 28.8C40.0003 29.229 39.9673 29.3325 40.3468 30.6135L38.5469 29.688C38.4359 29.556 38.3249 29.424 38.2154 29.2905C37.7024 28.659 37.9544 28.1175 38.8633 27.894C39.6215 28.021 40.337 28.3321 40.9468 28.8Z" fill="#C1C1DB"/>
<path d="M30.3017 23.2499C30.1082 23.4614 30.2162 23.6684 30.3212 23.8649C30.6557 24.4964 30.6107 25.2149 30.7457 25.8794C30.8387 26.3399 30.5957 26.5169 30.1457 26.4044C29.4122 26.1134 29.0957 25.5044 28.9127 24.7919C29.0042 24.3419 29.0132 23.8799 29.2802 23.4689C29.5472 23.0579 29.0402 22.8344 28.9652 22.4984C28.4582 22.2749 28.3652 22.9679 27.9512 22.9484C28.1837 22.4699 28.4522 22.0079 29.0702 22.0319C29.8262 22.0709 30.0122 22.7189 30.3017 23.2499Z" fill="#3EB6EE"/>
<path d="M31.6759 42.6089C31.7044 42.6479 31.7254 42.7019 31.7644 42.7259C32.7499 43.3109 32.7499 43.3109 31.9924 44.1734C31.8574 44.3234 32.0044 44.3834 32.0854 44.4629C31.4817 44.5304 30.8725 44.5304 30.2689 44.4629C29.8026 44.4828 29.3356 44.4712 28.8709 44.4284C29.0854 44.0924 29.3674 43.9934 29.5984 43.8389C29.7349 43.7459 29.9524 43.7339 29.8984 43.4909C29.8859 43.3919 29.8432 43.2992 29.7761 43.2253C29.709 43.1515 29.6207 43.1002 29.5234 43.0784C29.2399 43.0004 28.8439 43.0784 28.8184 42.6074L31.6759 42.6089Z" fill="#55BAEE"/>
<path d="M29.262 31.2C30.312 31.449 30.555 32.031 29.937 32.85C29.7975 33.0375 29.6595 33.2055 29.8335 33.4395C29.2515 34.0275 28.7745 34.047 28.2645 33.4845C28.0815 33.2835 27.936 33.051 27.7725 32.832C28.2225 32.7945 28.4385 33.1665 28.857 33.5385C28.662 32.6115 27.831 31.86 28.659 31.0515C28.9095 30.864 29.0805 31.038 29.262 31.2Z" fill="#2FB7F0"/>
<path d="M34.662 16.8286C35.175 17.4151 35.301 18.0016 34.6695 18.5926H32.2695C32.31 18.0661 32.5095 17.5426 32.2935 17.0056C32.2425 16.8781 32.373 16.7371 32.5545 16.7326C32.9625 16.7326 33.3705 16.7326 33.777 16.7326C34.0725 16.7716 34.3845 16.6396 34.662 16.8286Z" fill="#79BDE8"/>
<path d="M33.762 16.7685L32.412 16.8255C32.112 17.178 31.692 17.106 31.302 17.1345C31.5105 18.1725 31.3785 18.3345 30.381 18.4935C30.0615 18.543 29.73 18.45 29.424 18.591H26.883C27.4575 18.351 28.0635 18.519 28.65 18.45C28.7865 18.099 29.457 18.0945 29.334 17.7C29.211 17.3055 28.683 17.1645 28.2615 17.034C28.1905 17.0231 28.1231 16.9953 28.065 16.953C27.663 16.875 27.21 17.103 26.8545 16.7475C29.1525 16.6485 31.449 16.6695 33.747 16.7205L33.762 16.7685Z" fill="#46B8ED"/>
<path d="M28.5378 37.0064C28.5663 37.4054 28.6968 37.6964 29.1783 37.6064C29.5383 37.5374 29.5968 37.7009 29.4408 37.9709C29.2653 38.2709 29.1963 38.5709 29.3943 38.8814C29.5923 39.1919 29.6118 39.4814 29.3778 39.6989C29.1138 39.9494 28.7778 40.0349 28.4778 39.6989C28.4073 39.6224 28.2903 39.6734 28.2123 39.7469L27.4758 38.8124C27.4988 38.8031 27.5231 38.7971 27.5478 38.7944C27.9063 38.8184 28.0758 39.5759 28.3758 39.1949C28.5123 39.0209 28.5348 38.2019 28.0233 37.8449C27.9213 37.7744 27.7548 37.6274 27.8358 37.5704C28.7148 36.9434 27.6858 36.6839 27.5913 36.2534C27.5493 36.0689 27.3483 35.9249 27.4413 35.7014C27.8666 36.0824 28.2358 36.5218 28.5378 37.0064Z" fill="#21B5F2"/>
<path d="M28.8256 42.6074C28.9041 42.6689 28.9952 42.7124 29.0924 42.7347C29.1897 42.757 29.2906 42.7576 29.3881 42.7364C30.1246 42.6014 30.3001 43.1759 30.3841 43.6364C30.4876 44.2139 29.8831 44.0144 29.5876 44.1509C29.4085 44.2182 29.2257 44.2753 29.0401 44.3219L30.2686 44.4554C29.1327 44.5312 27.9929 44.5266 26.8576 44.4419C27.0976 44.1179 27.4501 44.2589 27.7576 44.2394C28.1761 44.2109 28.6066 44.2709 29.0401 43.9649C28.7401 43.7474 28.3516 43.6139 28.4806 43.1054C28.5616 42.7829 28.2226 42.7604 27.9646 42.7364C27.5521 42.6974 27.1171 42.8399 26.7256 42.5984L28.8256 42.6074Z" fill="#2FB7F0"/>
<path d="M29.4229 18.591C29.6314 18.408 29.8983 18.474 30.1383 18.4275C31.2814 18.2085 31.4028 17.934 30.7383 16.914C31.3009 16.716 31.8603 16.83 32.4093 16.8255C32.4183 16.8973 32.4401 16.9669 32.4739 17.031C32.9959 17.631 32.8999 18.144 32.2714 18.5925L29.4229 18.591Z" fill="#61BAEC"/>
<path d="M33.7615 16.7684L33.751 16.7249C34.402 16.6919 35.0545 16.6124 35.701 16.7834L34.6675 16.8284L33.7615 16.7684Z" fill="#61BAEC"/>
<path d="M28.0615 16.9574C28.6615 16.9094 29.23 16.9574 29.686 17.4509C30.004 17.7974 30.0415 18.0029 29.551 18.2009C29.251 18.3194 28.9885 18.5099 28.651 18.4499C28.5175 18.2999 28.213 18.2819 28.4035 17.8964C28.4787 17.726 28.4852 17.5332 28.4214 17.3581C28.3577 17.1831 28.2287 17.0395 28.0615 16.9574Z" fill="#26B8F4"/>
<path d="M29.2619 31.1999C28.9979 31.4234 28.8434 31.1759 28.6619 31.0574C28.1129 30.3884 27.5924 29.6909 27.003 29.0594C26.5935 28.6199 26.5065 28.2779 26.9249 27.7934C27.2459 27.4229 27.4664 26.9684 27.7304 26.5499C27.8324 26.1224 28.1144 25.8149 28.4144 25.5194L28.4024 25.5404C28.6199 25.2869 28.4279 24.6299 29.1029 24.8264L30.1529 26.4119C30.5005 27.0957 30.9065 27.7481 31.3664 28.3619L31.0559 28.9154C30.4074 29.6358 29.808 30.399 29.2619 31.1999Z" fill="#012042"/>
<path d="M29.092 24.8234C28.7275 24.9314 28.714 25.3859 28.3915 25.5374C27.886 24.3959 28.2925 23.4254 28.963 22.5029C29.413 22.6424 29.9845 22.9829 29.6875 23.3729C29.329 23.8409 29.497 24.4379 29.092 24.8234Z" fill="#21B6F2"/>
<path d="M28.4042 25.5166C28.2827 25.9306 27.9812 26.2246 27.7202 26.5471C27.6287 25.9921 27.9962 25.7401 28.4042 25.5166Z" fill="#21B6F2"/>
</g>
<defs>
<clipPath id="clip0_2408_8499">
<rect width="60" height="60" fill="white" transform="translate(0.461914)"/>
</clipPath>
</defs>
</svg>
