<svg width="114" height="44" viewBox="0 0 114 44" fill="none" xmlns="http://www.w3.org/2000/svg">
<g clip-path="url(#clip0_2408_8553)">
<path d="M7.23556 13.7694C7.65752 13.0765 8.08837 12.3836 8.51034 11.6906C10.7046 8.11059 12.8958 4.52906 15.0841 0.946044C15.1683 0.773116 15.2889 0.620453 15.4376 0.498544C15.5864 0.376635 15.7597 0.288367 15.9458 0.239806C17.3537 -0.0928413 18.8211 -0.0806512 20.2232 0.27534C20.925 0.461893 21.1116 0.937161 20.8673 1.60787C20.5499 2.40192 20.1383 3.155 19.6414 3.85095C17.3938 7.17338 15.1641 10.4914 12.8988 13.7694C12.8058 13.8793 12.7548 14.0185 12.7548 14.1625C12.7548 14.3064 12.8058 14.4457 12.8988 14.5556C15.4187 18.8197 17.9357 23.0867 20.4498 27.3567C20.7787 27.8984 21.0568 28.4693 21.2804 29.0623C21.618 29.9507 21.3115 30.4837 20.3609 30.6347C19.1191 30.8234 17.8565 30.8324 16.6121 30.6614C16.3331 30.6376 16.0647 30.5437 15.8317 30.3884C15.5988 30.2331 15.4088 30.0214 15.2796 29.773L9.55859 19.668C8.83903 18.4021 8.12835 17.1318 7.41323 15.8659C7.33268 15.754 7.24358 15.6486 7.14672 15.5505C7.14672 15.8392 7.11563 16.0169 7.11563 16.1946C7.11563 20.5297 7.11563 24.8649 7.11563 29.2C7.11563 30.3238 6.98238 30.5326 5.8675 30.6702C4.66105 30.8845 3.4223 30.8314 2.23859 30.5148C2.04639 30.4629 1.8781 30.346 1.76231 30.1841C1.64652 30.0221 1.59037 29.8251 1.60341 29.6264C1.60341 29.5065 1.60341 29.3866 1.60341 29.2622V1.50126C1.60341 0.52852 1.84327 0.270898 2.81601 0.137645C3.84763 -0.00327488 4.89362 -0.00327488 5.92524 0.137645C6.89354 0.27534 7.09786 0.497427 7.09786 1.47017V13.6894L7.23556 13.7694Z" fill="#1E1F1D"/>
<path d="M99.513 13.716C100.042 12.8588 100.539 12.0681 101.023 11.273C103.08 7.9062 105.141 4.55268 107.175 1.17695C107.337 0.869506 107.575 0.609007 107.867 0.420686C108.158 0.232365 108.494 0.122606 108.841 0.102041C109.933 -0.0120068 111.035 0.00290168 112.123 0.146458C113.131 0.288594 113.456 0.830488 113.1 1.78102C112.768 2.569 112.343 3.31455 111.834 4.0019C109.602 7.28584 107.369 10.5653 105.136 13.8404C105.058 13.937 105.015 14.0578 105.015 14.1824C105.015 14.307 105.058 14.4278 105.136 14.5244C107.396 18.3739 109.652 22.2146 111.905 26.0463C112.497 26.9666 113.018 27.9302 113.465 28.929C113.873 29.9595 113.593 30.4836 112.483 30.648C111.258 30.8279 110.013 30.8279 108.787 30.648C108.53 30.6232 108.282 30.5352 108.067 30.3919C107.852 30.2485 107.675 30.0542 107.553 29.8263C105.32 25.8405 103.084 21.8592 100.846 17.8824C100.477 17.2294 100.126 16.5499 99.7484 15.9191C99.7129 15.8569 99.6773 15.7148 99.5174 15.7459C99.3664 15.8969 99.4419 16.0924 99.4419 16.27C99.4419 20.5696 99.4419 24.8633 99.4419 29.1511C99.4419 30.2438 99.2643 30.4836 98.2027 30.6435C97.0985 30.8258 95.9709 30.8122 94.8714 30.6036C94.1207 30.4659 93.8853 30.1594 93.8809 29.3465V1.50119C93.8809 0.559541 94.1074 0.293036 95.049 0.168667C96.1354 0.00212202 97.2407 0.00212202 98.3271 0.168667C99.1888 0.297478 99.4419 0.586192 99.4419 1.46566C99.4419 5.33591 99.4419 9.20615 99.4419 13.0764C99.3983 13.2918 99.4231 13.5155 99.513 13.716Z" fill="#1E1F1D"/>
<path d="M34.5255 28.3073C33.6855 29.2247 32.6353 29.9244 31.4651 30.3461C30.4187 30.7254 29.304 30.8792 28.194 30.7973C27.084 30.7154 26.0039 30.3997 25.0245 29.8708C22.9192 28.7337 22.2218 26.7616 22.3595 24.483C22.4927 22.0356 23.9052 20.2988 26.3571 19.4993C28.4447 18.8109 30.6656 18.7442 32.8598 18.7487C33.837 18.7487 33.7481 18.8997 33.7481 17.8603C33.7475 17.4476 33.7223 17.0353 33.6726 16.6255C33.6246 16.0382 33.3639 15.4885 32.9395 15.0797C32.5151 14.6708 31.9561 14.4308 31.3674 14.4046C29.4078 14.2106 27.4354 14.6132 25.7086 15.5595C25.3577 15.7327 25.0112 15.9237 24.647 16.0703C24.5465 16.1228 24.4357 16.1523 24.3224 16.1566C24.2092 16.161 24.0964 16.1401 23.9922 16.0954C23.888 16.0508 23.7951 15.9835 23.7201 15.8985C23.6451 15.8135 23.59 15.7129 23.5588 15.6039C23.2526 14.7752 23.2122 13.8716 23.4433 13.0188C23.53 12.7874 23.6641 12.5766 23.837 12.3999C24.0098 12.2232 24.2176 12.0846 24.4471 11.9928C26.1834 11.0717 28.1061 10.5568 30.0704 10.487C31.8049 10.3223 33.5546 10.5328 35.2006 11.1044C36.0528 11.4108 36.8089 11.937 37.3924 12.6296C37.9758 13.3223 38.3659 14.1568 38.523 15.0487C38.7054 15.9579 38.7888 16.8843 38.7718 17.8115C38.7718 21.6136 38.7718 25.4202 38.7718 29.2223C38.7718 30.0707 38.6785 30.235 37.8523 30.3594C36.9524 30.5087 36.0329 30.4936 35.1384 30.315C35.0436 30.3076 34.9514 30.2806 34.8675 30.2358C34.7836 30.191 34.71 30.1293 34.6511 30.0546C34.5923 29.9799 34.5496 29.8939 34.5256 29.8018C34.5017 29.7098 34.4971 29.6138 34.5121 29.5199C34.5432 29.169 34.5255 28.8092 34.5255 28.3073ZM33.7481 23.5991C33.7481 23.2037 33.7481 22.8084 33.7481 22.4131C33.7481 22.0933 33.6327 21.9689 33.304 22C32.5666 22 31.8249 22 31.0831 22C30.3445 22.0122 29.6132 22.1488 28.92 22.4042C28.4178 22.5705 27.9851 22.899 27.69 23.338C27.3949 23.777 27.2542 24.3017 27.2898 24.8294C27.2842 25.367 27.4738 25.8884 27.8234 26.2968C28.173 26.7052 28.6589 26.9729 29.1909 27.0503C29.7581 27.1765 30.3469 27.1696 30.911 27.0301C31.4751 26.8906 31.9992 26.6224 32.4423 26.2463C33.3306 25.5756 34.1079 24.8738 33.7481 23.5991Z" fill="#1E1F1D"/>
<path d="M79.3652 21.9689C79.2097 24.634 80.56 26.7127 83.5893 26.8815C85.6185 26.9631 87.6417 26.6102 89.5235 25.8466C89.7125 25.7676 89.9111 25.7138 90.1142 25.6867C90.1962 25.6672 90.2814 25.6657 90.364 25.6821C90.4466 25.6985 90.5247 25.7325 90.593 25.7818C90.6612 25.8311 90.7181 25.8946 90.7597 25.9678C90.8012 26.0411 90.8265 26.1225 90.8338 26.2064C91.0027 27.0667 90.9936 27.9525 90.8071 28.8092C90.6339 29.5954 89.9188 29.742 89.3236 29.9241C86.5221 30.8525 83.5296 31.0483 80.6311 30.4927C77.3398 29.8131 75.2743 27.8276 74.5192 24.5629C73.8929 22.0239 73.9342 19.366 74.6392 16.8476C75.7008 13.1521 78.1126 10.9845 81.9547 10.5314C84.2689 10.256 86.5164 10.5003 88.5196 11.864C90.212 13.0055 91.1003 14.6667 91.5045 16.6166C91.8061 17.9603 91.8693 19.3464 91.6911 20.7119C91.6808 20.889 91.6344 21.062 91.5547 21.2204C91.4749 21.3788 91.3636 21.5191 91.2274 21.6328C91.0913 21.7464 90.9333 21.8309 90.7633 21.8811C90.5932 21.9313 90.4146 21.9461 90.2386 21.9245H79.916C79.7318 21.888 79.5411 21.9034 79.3652 21.9689ZM86.8273 18.5799C86.7918 17.0075 86.6452 15.4973 85.1794 14.6134C84.5839 14.2249 83.887 14.0207 83.176 14.0262C82.4649 14.0317 81.7713 14.2468 81.1819 14.6445C79.7738 15.5328 79.4363 17.0031 79.3075 18.5799H86.8273Z" fill="#1E1F1D"/>
<path d="M68.1275 11.1398C67.945 11.0299 67.728 10.9919 67.519 11.0332C64.8539 11.0332 62.22 11.0332 59.5683 11.0332C58.7243 11.0332 58.5422 10.8733 58.4223 10.0471C58.3245 9.34864 58.3425 8.63881 58.4756 7.94618C58.4949 7.74882 58.5853 7.5652 58.7299 7.42955C58.8746 7.29389 59.0636 7.21546 59.2618 7.20885C59.3816 7.20219 59.5017 7.20219 59.6216 7.20885C63.7672 7.20885 67.898 7.20885 72.0141 7.20885C73.2267 7.20885 73.5509 7.65303 73.6708 8.85674C73.8485 10.7001 72.9957 12.117 72.0718 13.565C70.1174 16.6254 68.2075 19.7168 66.2753 22.795L63.9789 26.4416C63.9079 26.5527 63.7968 26.6548 63.8546 26.8192C64.0261 26.8897 64.2145 26.9082 64.3964 26.8725H73.0179C73.7996 26.8725 74.0573 27.1079 74.1328 27.8985C74.1927 28.5323 74.1927 29.1703 74.1328 29.804C74.0661 30.5236 73.7952 30.7635 73.0801 30.7635H59.6615C58.711 30.7635 58.2491 30.3992 58.1247 29.4665C57.9153 28.2894 58.1428 27.0764 58.7643 26.0552C61.496 21.7378 64.201 17.4027 66.9149 13.0764C67.3236 12.4368 67.7233 11.7883 68.1275 11.1398Z" fill="#1E1F1D"/>
<path d="M41.1305 26.9969C41.1305 26.5793 41.1305 26.2151 41.1305 25.8598C41.1927 25.0025 41.6902 24.7405 42.4231 25.1935C43.3289 25.7774 44.315 26.2263 45.3502 26.526C46.8693 26.9347 48.3928 27.0901 49.8852 26.4194C50.2951 26.2309 50.6505 25.9413 50.9179 25.5779C51.1854 25.2145 51.3562 24.7892 51.4143 24.3417C51.4725 23.8943 51.4161 23.4394 51.2504 23.0197C51.0847 22.6 50.8152 22.2292 50.4671 21.9421C49.3567 21.0538 48.0463 20.6096 46.8026 20.0011C45.4257 19.3393 44.0532 18.6686 43.0227 17.5048C41.5836 15.8569 41.2105 13.9203 41.588 11.8238C42.121 8.88339 44.071 7.27992 46.8737 6.66252C49.1662 6.12498 51.5709 6.3399 53.7318 7.27548C54.6201 7.65747 55.1398 8.28376 55.0643 9.31424C55.0823 9.86264 55.0645 10.4116 55.011 10.9577C54.8422 11.7927 54.5668 11.9393 53.8695 11.5484C53.1627 11.1393 52.4192 10.7973 51.6486 10.5268C50.4992 10.1001 49.2437 10.0503 48.0641 10.3847C47.6295 10.4996 47.2393 10.7421 46.944 11.081C46.6486 11.4199 46.4617 11.8396 46.4073 12.2858C46.339 12.7308 46.3969 13.186 46.5743 13.5998C46.7518 14.0136 47.0417 14.3693 47.4112 14.6266C48.4017 15.4217 49.5921 15.8303 50.7203 16.3589C52.0528 16.9807 53.3853 17.5803 54.4958 18.6108C55.1608 19.2398 55.6789 20.0078 56.0129 20.8601C56.3469 21.7123 56.4886 22.6278 56.4279 23.5412C56.3258 27.7653 53.2165 30.1327 49.6054 30.648C47.4559 30.9746 45.2584 30.739 43.227 29.964C43.116 29.924 43.0094 29.8618 42.8983 29.8218C41.5614 29.3155 40.8329 28.4271 41.1305 26.9969Z" fill="#1E1F1D"/>
<path d="M31.8477 39.0385C31.7425 39.4293 31.7198 39.8377 31.7811 40.2378C31.7811 41.3393 31.7811 42.4587 31.7811 43.5424C31.7811 44.1154 31.3991 43.92 31.0615 43.9022V37.093C32.6606 38.7853 34.0064 40.5043 35.5521 42.2188V37.3329C35.6572 37.2757 35.7727 37.2403 35.8918 37.2289C36.0109 37.2174 36.131 37.2301 36.245 37.2662V43.9289L36.1296 43.9777L31.8477 39.0385Z" fill="#179042"/>
<path d="M79.8045 40.9263L82.0742 43.8889C81.8732 43.9881 81.6429 44.0108 81.4263 43.9528C81.2098 43.8948 81.0217 43.76 80.8972 43.5735C80.3064 42.7563 79.6668 41.9701 79.0538 41.1617C78.9206 40.9929 78.8051 40.8285 78.4897 40.9218C78.4897 41.7613 78.4897 42.6186 78.4897 43.4714C78.4897 43.6002 78.5386 43.7556 78.4364 43.8623C78.3797 43.9201 78.3091 43.9624 78.2312 43.985C78.1534 44.0075 78.0711 44.0096 77.9922 43.9911C77.7968 43.96 77.7568 43.8223 77.7568 43.6535V37.2574C78.7189 37.1821 79.6861 37.2029 80.644 37.3195C81.0362 37.3953 81.3875 37.6109 81.6326 37.9263C81.8777 38.2417 81.9999 38.6353 81.9765 39.0341C81.9935 39.4422 81.8599 39.8424 81.6011 40.1586C81.3424 40.4747 80.9764 40.6847 80.5729 40.7486L79.8045 40.9263ZM78.5119 40.1578C79.1245 40.2013 79.74 40.1745 80.3464 40.0779C80.6048 40.0389 80.8401 39.9068 81.0079 39.7063C81.1756 39.5058 81.2642 39.2509 81.2569 38.9896C81.2484 38.7275 81.142 38.4781 80.9586 38.2907C80.7753 38.1032 80.5283 37.9912 80.2664 37.9769C79.6934 37.9325 79.1116 37.9769 78.5119 37.9769V40.1578Z" fill="#179042"/>
<path d="M94.3027 43.9422V37.2795H98.1226V37.9325H95.0134V39.9757H98.0116C98.0681 40.0871 98.1004 40.2091 98.1066 40.3339C98.1127 40.4587 98.0924 40.5833 98.0471 40.6997H95.0267V43.2271H98.0294C98.0821 43.3397 98.1094 43.4625 98.1094 43.5868C98.1094 43.7112 98.0821 43.834 98.0294 43.9466L94.3027 43.9422Z" fill="#179042"/>
<path d="M20.543 40.7042H17.4826V42.965C17.4826 43.2493 17.6914 43.2271 17.8824 43.2271C18.6375 43.2271 19.397 43.2271 20.1521 43.2271C20.4142 43.2271 20.6185 43.2271 20.6229 43.5958C20.6274 43.9644 20.4364 43.9733 20.1787 43.9689C19.1838 43.9689 18.1888 43.9689 17.1895 43.9689C16.9141 43.9689 16.7764 43.8978 16.7764 43.5958C16.7764 41.5037 16.7764 39.4072 16.7764 37.2751H20.6052C20.6686 37.4897 20.6686 37.718 20.6052 37.9325H17.4959V39.7092C17.4959 39.9979 17.7091 39.9669 17.9001 39.9669H20.0499C20.2229 39.9337 20.402 39.9571 20.5607 40.0335C20.6427 40.2508 20.6363 40.4915 20.543 40.7042Z" fill="#179042"/>
<path d="M61.5183 37.1153C61.7277 37.055 61.9482 37.0443 62.1624 37.0842C62.3001 37.2441 62.2512 37.4085 62.2512 37.5551C62.2512 38.932 62.2512 40.309 62.2512 41.6859C62.2335 41.8877 62.2588 42.091 62.3256 42.2823C62.3923 42.4735 62.4989 42.6485 62.6383 42.7954C62.7777 42.9424 62.9468 43.0581 63.1343 43.1348C63.3218 43.2116 63.5234 43.2476 63.7259 43.2405C63.9236 43.2466 64.1204 43.2124 64.3044 43.1399C64.4884 43.0674 64.6558 42.9583 64.7962 42.8191C64.9367 42.6798 65.0473 42.5135 65.1214 42.3301C65.1955 42.1468 65.2315 41.9502 65.2272 41.7525C65.3205 40.38 65.2494 39.0031 65.2761 37.6261C65.2761 37.4618 65.2228 37.2841 65.3294 37.1153C65.542 37.0493 65.7696 37.0493 65.9823 37.1153C65.9823 37.8882 65.9823 38.6744 65.9823 39.4606C65.9556 40.42 66.1067 41.3927 65.8579 42.3388C65.7547 42.8434 65.4662 43.291 65.0494 43.5935C64.6326 43.8961 64.1177 44.0316 63.606 43.9734C62.3712 43.8668 61.5672 43.1383 61.5317 41.9613C61.4828 40.3534 61.5183 38.7588 61.5183 37.1153Z" fill="#179042"/>
<path d="M109.729 42.5608C109.863 42.3784 110.049 42.2406 110.263 42.1655C110.485 42.4187 110.684 42.6719 110.911 42.894C111.127 43.1069 111.418 43.2263 111.722 43.2263C112.025 43.2263 112.316 43.1069 112.532 42.894C112.735 42.7054 112.854 42.4442 112.864 42.1677C112.874 41.8912 112.774 41.622 112.586 41.4193C112.191 40.9692 111.743 40.5681 111.253 40.2245C110.883 39.9718 110.567 39.647 110.325 39.2695C110.15 38.9565 110.084 38.5945 110.137 38.2401C110.19 37.8857 110.359 37.5589 110.618 37.3107C110.909 37.0671 111.27 36.9232 111.649 36.9C112.028 36.8769 112.405 36.9756 112.723 37.1819C113.044 37.394 113.31 37.6785 113.501 38.0125C113.353 38.197 113.169 38.3484 112.959 38.4567C112.661 38.2035 112.47 37.8615 112.07 37.7238C111.895 37.65 111.701 37.6344 111.516 37.6792C111.332 37.724 111.166 37.8268 111.044 37.9725C110.924 38.1109 110.856 38.2866 110.851 38.4697C110.846 38.6527 110.905 38.8318 111.018 38.9764C111.292 39.3505 111.636 39.6686 112.03 39.9136C112.665 40.4332 113.363 40.8907 113.576 41.7702C113.637 42.0626 113.626 42.3653 113.545 42.6527C113.464 42.9401 113.315 43.2038 113.111 43.4216C112.907 43.6394 112.653 43.8048 112.372 43.9039C112.09 44.0031 111.789 44.0329 111.493 43.9911C111.097 43.9334 110.725 43.7701 110.415 43.5183C110.104 43.2666 109.868 42.9358 109.729 42.5608Z" fill="#179042"/>
<path d="M3.30908 43.9732C2.36743 41.7523 1.42133 39.5315 0.461914 37.3106C0.950507 37.1818 1.26143 37.2218 1.47463 37.7548C2.0565 39.2161 2.68279 40.6641 3.3224 42.1254C3.52672 42.1254 3.54005 41.9833 3.59335 41.8678C4.1841 40.5042 4.79706 39.1495 5.37005 37.777C5.39511 37.6721 5.44369 37.5743 5.51213 37.491C5.58057 37.4077 5.66707 37.3411 5.76507 37.2961C5.86308 37.2512 5.97002 37.2291 6.07781 37.2316C6.1856 37.2341 6.2914 37.2611 6.38721 37.3106C5.42483 39.5344 4.46245 41.7553 3.50007 43.9732H3.30908Z" fill="#179042"/>
<path d="M52.0311 37.2708V37.8793C51.5869 38.0525 51.0539 37.8793 50.5565 38.0081V43.2716C50.5565 44.0044 50.5565 44.0044 49.8102 43.8445V37.9592H48.3933C48.3051 37.7382 48.3051 37.4918 48.3933 37.2708H52.0311Z" fill="#179042"/>
</g>
<defs>
<clipPath id="clip0_2408_8553">
<rect width="113.203" height="44" fill="white" transform="translate(0.461914)"/>
</clipPath>
</defs>
</svg>
