<svg width="153" height="44" viewBox="0 0 153 44" fill="none" xmlns="http://www.w3.org/2000/svg">
<g clip-path="url(#clip0_2408_8671)">
<path d="M25.9176 43.8756C25.9236 43.8966 25.9249 43.9186 25.9214 43.9401C25.918 43.9616 25.9098 43.9821 25.8974 44.0001H24.0003C24.0153 43.4571 23.8999 42.9185 23.664 42.4293C21.5987 37.6731 19.493 32.9639 17.4749 28.1909C17.2966 27.7368 16.9602 27.3567 16.7517 26.9093C16.6323 25.8779 16.6323 24.8361 16.7517 23.8047C17.3639 23.2598 17.4849 23.9224 17.6363 24.2218C18.2182 25.3722 18.6925 26.5763 19.2038 27.757C21.3767 32.8025 23.6135 37.848 25.7595 42.8934C25.9008 43.213 26.1396 43.5124 25.9176 43.8756Z" fill="#1BEA8C"/>
<path d="M16.9235 27.0908C17.8082 27.6088 17.8653 28.6179 18.2219 29.4151C20.1302 33.6757 21.9858 37.9565 23.7887 42.2575C24.004 42.7655 24.7306 43.3339 24.0006 43.9999H23.3111C23.1698 43.7006 22.7864 43.8956 22.6115 43.6636C21.8176 41.309 20.7043 39.1125 19.7355 36.8421C18.8543 34.7835 18.0066 32.7115 17.011 30.7034C16.9072 30.5287 16.8483 30.3311 16.8394 30.1282C16.8413 29.5132 16.794 28.8991 16.6981 28.2916C16.6712 27.8846 16.5838 27.4373 16.9235 27.0908Z" fill="#1AF088"/>
<path d="M23.8293 0H25.5549C25.5211 0.599028 25.6587 1.19528 25.9518 1.71883C27.97 6.27658 29.9108 10.8646 31.9458 15.4156C32.0445 15.5925 32.0966 15.7916 32.0972 15.9942C32.0594 16.1755 31.9786 16.345 31.8615 16.4884C31.7444 16.6318 31.5945 16.745 31.4245 16.8183C31.3375 16.8457 31.2451 16.8514 31.1554 16.8351C30.7181 16.7039 30.5734 16.3171 30.412 15.9505C28.5351 11.6753 26.6817 7.40005 24.8283 3.09456C24.492 2.35792 24.1556 1.63474 23.8562 0.891369C23.7385 0.595367 23.5939 0.306093 23.8293 0Z" fill="#1BE98D"/>
<path d="M23.8292 0C24.0647 1.22773 24.724 2.28392 25.2083 3.41075C27.0079 7.62541 28.8714 11.8199 30.6911 16.0211C30.7819 16.3228 30.9823 16.5795 31.2528 16.7409C31.31 17.269 30.8896 17.3699 30.5364 17.5314C30.4489 17.5515 30.3581 17.5515 30.2706 17.5314C29.6854 17.2152 29.5273 16.5963 29.2952 16.0547C27.2232 11.2548 25.1243 6.46831 23.0522 1.66501C22.8807 1.27146 22.541 0.874551 22.7932 0.380093L23.6543 0H23.8292Z" fill="#1CE58F"/>
<path d="M31.9452 16.0716C31.0539 13.9995 30.1726 11.9208 29.2543 9.85215C27.9997 6.93923 26.7148 4.03639 25.4433 1.12683C25.2818 0.756823 25.0329 0.336366 25.5543 0H26.227C26.2405 0.0438345 26.2405 0.0907118 26.227 0.134546C27.2731 1.98456 27.9761 3.9893 28.844 5.92004C30.1558 8.84305 31.3869 11.8031 32.7021 14.7295C32.7435 14.8972 32.8364 15.0478 32.9678 15.16C33.0653 15.5805 32.7256 15.7386 32.4902 15.9639C32.4122 16.0196 32.3233 16.058 32.2293 16.0766C32.1354 16.0952 32.0385 16.0934 31.9452 16.0716Z" fill="#1AEE89"/>
<path d="M0.525391 35.7187V27.2625C0.577633 27.2544 0.631088 27.2616 0.679391 27.283C0.727693 27.3045 0.76881 27.3394 0.797847 27.3836C1.10394 28.2581 0.905484 29.163 0.952575 30.051C0.952575 31.013 0.982848 31.9716 0.952575 32.9303C0.861756 33.8283 1.11403 34.75 0.79112 35.6212C0.76848 35.669 0.727933 35.7061 0.678224 35.7243C0.628514 35.7426 0.573624 35.7406 0.525391 35.7187Z" fill="#658BEB"/>
<path d="M0.525808 35.7188H0.687264C0.768305 35.7926 0.832262 35.8832 0.874672 35.9843C0.917081 36.0854 0.936923 36.1945 0.932811 36.304C0.983265 37.4275 0.966447 38.5509 0.95972 39.6677C0.909265 41.0131 1.06063 42.3351 0.889083 43.6637L0.697355 44.0001C0.327352 43.9328 0.539263 43.6469 0.535899 43.4821C0.522444 40.8954 0.525808 38.3054 0.525808 35.7188Z" fill="#6882F2"/>
<path d="M0.686846 27.2456H0.525391V19.6707C0.531092 19.6579 0.539394 19.6464 0.549769 19.637C0.560145 19.6276 0.572366 19.6204 0.585655 19.616C0.598944 19.6116 0.61301 19.61 0.626957 19.6113C0.640904 19.6126 0.654426 19.6168 0.666664 19.6236C0.962666 19.8624 0.945848 20.1988 0.942484 20.5318C0.942484 21.3828 0.989575 22.2372 0.942484 23.0915C0.942484 23.7205 0.972757 24.3495 0.942484 24.9785C0.851665 25.6984 1.08039 26.4417 0.784392 27.1481L0.686846 27.2456Z" fill="#6395E4"/>
<path d="M92.9559 24.8305C93.6791 22.8123 94.3922 20.821 95.0986 18.8331C95.593 17.4405 95.5897 17.4371 97.2547 17.6322C97.0058 18.2848 96.7669 18.9205 96.5281 19.5529C95.6603 21.8267 94.7555 24.0871 93.9516 26.3845C93.6858 27.1379 93.1712 26.8554 92.7104 26.926C92.2496 26.9967 92.0074 26.8318 91.8426 26.3609C91.0555 24.0905 90.2213 21.8368 89.3366 19.3914C88.8758 20.6461 88.4655 21.746 88.0652 22.8392C87.6346 24.0232 87.1873 25.1937 86.8038 26.4013C86.6424 26.9058 86.3329 26.9798 85.9057 26.9227C85.4785 26.8655 84.9807 27.1447 84.7217 26.4282C83.7126 23.6565 82.6497 20.9051 81.5868 18.157C81.422 17.7264 81.4152 17.5818 81.9534 17.538C82.8011 17.4708 83.2686 17.6827 83.5478 18.5841C84.1936 20.6831 84.974 22.7349 85.7846 25.0424L86.6726 22.6273C87.194 21.2011 87.7456 19.7883 88.2165 18.3453C88.4217 17.7231 88.7245 17.5246 89.377 17.5313C89.6242 17.4958 89.8756 17.5572 90.0787 17.7026C90.2817 17.848 90.4208 18.0662 90.4668 18.3117C91.1396 20.2357 91.8392 22.1395 92.5456 24.0299C92.5933 24.3337 92.7371 24.6143 92.9559 24.8305Z" fill="#010101"/>
<path d="M61.2736 18.9845C62.6965 17.407 64.459 16.9428 66.1711 17.5886C67.3988 18.0562 68.1893 18.9341 68.3575 20.2392C68.6266 22.3246 68.4517 24.4303 68.4584 26.5259C68.4584 27.2827 67.8058 26.8118 67.4493 26.9059C67.0423 27.0169 66.8371 26.8622 66.8472 26.3711C66.8775 24.7902 66.8909 23.2059 66.8472 21.6284C66.7833 19.5732 65.3773 18.517 63.3591 18.9374C62.7724 19.0404 62.2415 19.3487 61.8613 19.8072C61.4811 20.2656 61.2764 20.8444 61.2837 21.44C61.2467 23.0478 61.2198 24.659 61.2837 26.2669C61.3174 27.0371 60.8801 26.8959 60.4327 26.916C59.9854 26.9362 59.6591 26.916 59.6692 26.2702C59.7163 23.6264 59.7095 20.9792 59.6692 18.3353C59.6692 17.7131 59.7835 17.4944 60.4563 17.518C61.0516 17.5415 61.4015 17.6088 61.2669 18.3017C61.2499 18.5291 61.2521 18.7575 61.2736 18.9845Z" fill="#010101"/>
<path d="M16.4059 4.83703L17.415 3.92212C18.0878 4.59485 18.2829 5.52658 18.6461 6.35404C20.467 10.4824 22.2699 14.6152 24.0549 18.7525C24.1826 19.0415 24.3322 19.3204 24.5023 19.5867C26.0899 23.1421 27.6271 26.7244 29.1811 30.2966C30.3819 33.0548 31.6063 35.8029 32.7634 38.5779C32.8811 38.8638 33.0796 39.1363 32.9686 39.476L32.4338 40.0041C31.946 39.8056 31.8418 39.3313 31.6669 38.9143C29.1206 33.011 26.5238 27.1415 23.9977 21.218C23.6614 20.4007 23.2544 19.6809 22.3697 19.3579C20.5533 14.9852 18.589 10.7033 16.749 6.35741C16.5607 5.87977 16.157 5.42567 16.4059 4.83703Z" fill="#22C9A2"/>
<path d="M31.4244 40.8784C31.0309 41.1038 30.9401 41.6992 30.3884 41.7395C30.1613 41.5626 29.9992 41.3154 29.9276 41.0365C26.833 33.919 23.7441 26.8015 20.6607 19.684C20.5161 19.3477 20.2874 19.0113 20.5127 18.6278C21.1182 18.3789 21.5218 18.8364 21.9961 19.055C22.8908 20.1751 23.2474 21.5542 23.8125 22.8324C26.3352 28.5506 28.784 34.289 31.3134 39.9871C31.4244 40.2763 31.6498 40.5521 31.4244 40.8784Z" fill="#20D39C"/>
<path d="M100.043 22.9705V20.1249C100.043 18.9947 100.043 18.9644 98.9228 18.9947C98.388 18.9947 98.1861 18.9005 98.1895 18.3219C98.1929 17.7434 98.324 17.4575 98.943 17.5752C99.868 17.7569 100.174 17.3398 100.036 16.4652C100.003 16.2398 100.063 16.001 100.036 15.7925C99.9016 14.9919 100.231 14.7834 101.012 14.8069C101.587 14.8372 101.668 15.0457 101.651 15.5301C101.631 16.2028 101.442 17.037 101.772 17.4474C102.101 17.8578 103.013 17.6089 103.662 17.5752C104.311 17.5416 104.288 17.8477 104.274 18.295C104.261 18.7424 104.335 19.0821 103.682 19.0283C103.03 18.9745 102.138 18.8063 101.782 19.146C101.358 19.5463 101.664 20.4411 101.651 21.1205C101.631 22.3281 101.691 23.539 101.627 24.7432C101.594 25.4159 101.832 25.611 102.455 25.5269C102.77 25.5067 103.087 25.5067 103.403 25.5269C104.207 25.5269 104.523 25.9944 104.268 26.7513C104.187 26.9867 104.032 26.9598 103.867 26.9598C102.747 26.9598 101.627 26.9598 100.504 26.9598C100.093 26.9598 100.04 26.7883 100.043 26.4452C100.043 25.2713 100.043 24.1209 100.043 22.9705Z" fill="#010101"/>
<path d="M31.4243 40.8785C30.4758 38.7033 29.5283 36.5248 28.582 34.3429C26.5795 29.7167 24.577 25.0917 22.5745 20.4678C22.3794 20.0204 22.144 19.5932 21.9287 19.1526C22.181 18.9676 22.3189 19.1324 22.4467 19.3241C23.2338 19.4049 23.6475 19.8354 23.9671 20.5822C26.5706 26.6838 29.2278 32.7653 31.875 38.8502C32.0432 39.2437 32.2551 39.6205 32.4469 40.0039C32.1946 40.3854 31.8403 40.6885 31.4243 40.8785Z" fill="#21CEA0"/>
<path d="M29.3492 42.4393C29.0936 42.6579 28.912 43.0111 28.4882 42.9472C27.7784 42.0928 27.4791 41.0232 27.0653 40.0343C24.3609 33.7476 21.596 27.4744 18.8715 21.1911C18.1987 19.6438 17.6336 18.0427 16.7591 16.5862C16.7086 15.6612 16.5034 14.7261 16.9004 13.8213C17.1661 13.6935 17.2804 13.902 17.3444 14.0702C17.6807 14.9145 18.2055 15.6646 18.5015 16.5223C18.6125 17.6693 19.2482 18.6246 19.6888 19.6438C22.7856 26.8196 25.8959 33.9853 29.0196 41.1409C29.1979 41.5513 29.4838 41.9448 29.3492 42.4393Z" fill="#1EDB96"/>
<path d="M25.9177 43.8756C25.1036 41.9549 24.3031 40.0309 23.4723 38.117C21.4776 33.529 19.4695 28.9477 17.4816 24.3563C17.3921 24.0558 17.1928 23.8 16.9232 23.6398C16.4759 22.8022 16.7012 21.9277 16.7719 21.0599C17.4042 20.4813 17.5455 21.1305 17.7002 21.4837C18.2754 22.7989 18.8607 24.1107 19.4292 25.4326C21.8476 31.0533 24.3132 36.6639 26.7384 42.2711C26.9234 42.7016 27.2698 43.1288 26.9335 43.6435C26.6193 43.8036 26.2702 43.8834 25.9177 43.8756Z" fill="#1CE58F"/>
<path d="M38.8244 9.79824C39.1197 9.41523 39.474 9.08145 39.8738 8.80933C40.597 9.72088 40.9065 10.8275 41.3606 11.8803C43.2711 16.2329 45.1514 20.6023 47.0519 24.9616C47.1898 25.2778 47.3882 25.5671 47.4925 25.89C47.1808 26.2853 46.8057 26.6263 46.3825 26.8991C45.8611 26.8991 45.7333 26.4921 45.5786 26.1355C43.3675 21.0452 41.152 15.9526 38.932 10.8578C38.784 10.5113 38.6024 10.1783 38.8244 9.79824Z" fill="#3085D1"/>
<path d="M35.3834 37.2493C35.102 37.6155 34.7609 37.9316 34.3743 38.1844C33.816 37.7134 33.7016 36.997 33.4325 36.3781C31.1362 31.1465 28.8546 25.9093 26.5875 20.6664C26.4294 20.2998 26.2141 19.9432 26.3453 19.5161C26.5929 19.2482 26.9281 19.0776 27.2905 19.0351C27.4253 19.0167 27.5622 19.0465 27.6773 19.1191C28.4946 20.542 29.0227 22.0893 29.6955 23.5827C31.5758 27.8041 33.3955 32.049 35.2321 36.294C35.3632 36.5933 35.6391 36.8826 35.3834 37.2493Z" fill="#24BFA9"/>
<path d="M47.4995 25.9002C46.7427 25.5908 46.7629 24.7869 46.4904 24.2184C44.9678 20.8099 43.4833 17.3879 42.037 13.9525C41.3138 12.2404 40.4359 10.5889 39.8809 8.8095C40.1614 8.44062 40.5026 8.12213 40.89 7.86768C41.4281 8.41932 41.6098 9.16605 41.8991 9.83878C43.8702 14.3999 45.8883 18.9509 47.8359 23.5188C48.0411 23.9998 48.3438 24.4202 48.5793 24.8642C48.27 25.2587 47.9065 25.6075 47.4995 25.9002Z" fill="#3180D5"/>
<path d="M31.9455 16.0716L32.4333 15.8462C33.0286 16.2465 33.1497 16.936 33.402 17.528C35.5009 22.3694 37.6055 27.2075 39.7156 32.0422C39.8501 32.3483 40.0822 32.6443 39.8939 33.0143C39.5931 33.3994 39.2385 33.7392 38.841 34.0234C38.5608 33.7407 38.3531 33.3945 38.2356 33.0143C35.9853 27.8343 33.7787 22.6677 31.4948 17.5381C31.3804 17.2825 31.2089 17.0235 31.4208 16.7342L31.9455 16.0716Z" fill="#28A9B8"/>
<path d="M26.4157 19.5092C27.1456 21.7124 28.2119 23.7743 29.1066 25.9002C30.8288 30.0106 32.736 34.0402 34.3741 38.1876C34.1332 38.5146 33.8359 38.796 33.4962 39.0184C33.0925 38.7393 32.958 38.2818 32.7797 37.8681L25.3326 20.7269C25.1846 20.3905 24.9962 20.0541 25.1577 19.6606C25.3766 19.4964 25.6357 19.3941 25.9078 19.3646C25.9977 19.3433 26.0916 19.3455 26.1805 19.3708C26.2694 19.3961 26.3504 19.4438 26.4157 19.5092Z" fill="#23C4A6"/>
<path d="M38.824 9.79834C39.0729 11.0799 39.7691 12.1798 40.267 13.3571C42.0766 17.6155 43.9367 21.8537 45.7733 26.0986C45.8839 26.4263 46.0975 26.7095 46.3821 26.9059C46.1409 27.2701 45.8214 27.5757 45.447 27.8006C44.9088 28.0058 44.8146 27.5585 44.67 27.2389C43.4994 24.622 42.376 21.9815 41.2256 19.3545C40.1223 16.8317 39.0392 14.309 37.9259 11.7829C37.7812 11.4465 37.5121 11.1303 37.8014 10.7469L38.824 9.79834Z" fill="#2F8BCD"/>
<path d="M35.8911 12.5497C36.1907 12.1681 36.5468 11.8346 36.9473 11.5608C37.4115 12.0922 37.5763 12.7717 37.8487 13.3973C39.8905 18.1065 41.9692 22.7853 43.974 27.5045C44.1421 27.9014 44.4011 28.2479 44.5592 28.6482C44.2544 29.0402 43.8887 29.3809 43.4761 29.6573C43.0086 29.6943 42.9312 29.3209 42.8034 29.0047C40.5128 23.7944 38.2759 18.5774 35.9752 13.3603C35.8969 13.242 35.8484 13.1065 35.8338 12.9653C35.8192 12.8242 35.8388 12.6816 35.8911 12.5497Z" fill="#2D93C7"/>
<path d="M35.3835 37.2491C34.3251 34.7824 33.2644 32.3157 32.2015 29.849C30.7193 26.4248 29.2325 22.9961 27.7413 19.563C27.6938 19.4358 27.6556 19.3054 27.627 19.1728C27.7043 18.9037 27.9398 18.8095 28.155 18.6884C28.3703 18.5673 28.552 18.5169 28.7571 18.6884C29.7662 20.3703 30.4087 22.2169 31.1958 23.9996C32.9113 27.8847 34.5763 31.7899 36.2951 35.6715C36.3758 35.8532 36.4969 36.0247 36.4229 36.24C36.1475 36.6425 35.7941 36.9857 35.3835 37.2491Z" fill="#25BAAD"/>
<path d="M48.5793 24.891C48.142 24.8607 48.0512 24.484 47.9066 24.1813C46.6015 21.2257 45.3042 18.2668 44.0148 15.3046C43.147 13.3133 42.2893 11.3153 41.4113 9.32735C41.1833 8.86548 41.0051 8.38062 40.8799 7.88098L41.7544 7.05688C42.4978 7.61189 42.6559 8.50998 42.9923 9.28026L48.7777 22.5028C48.9392 22.8728 48.9863 23.2798 49.178 23.6363C49.2581 23.8824 49.2406 24.1497 49.1292 24.3832C49.0177 24.6167 48.8209 24.7985 48.5793 24.891Z" fill="#327BD8"/>
<path d="M26.9335 43.6435C26.7283 42.3485 26.0488 41.2318 25.5477 40.0545C23.3108 34.8173 21.0235 29.6003 18.7531 24.3765C18.3293 23.4044 17.9054 22.4357 17.4682 21.4703C17.3572 21.2214 17.2932 20.9019 16.9232 20.8783L16.819 20.7707C16.6286 20.1123 16.6217 19.4145 16.7988 18.7525C17.4211 18.3926 17.5186 18.9543 17.6767 19.294C18.4302 20.9086 19.1197 22.5467 19.8294 24.1814C22.0528 29.3177 24.3098 34.4406 26.513 39.587C27.0209 40.7676 27.6802 41.8877 27.9897 43.1524C27.7441 43.5426 27.3237 43.5561 26.9335 43.6435Z" fill="#1DE192"/>
<path d="M35.8917 12.5498C36.7965 14.6454 37.6946 16.7443 38.6028 18.8398C40.0693 22.2214 41.537 25.6008 43.0058 28.9779C43.1168 29.2369 43.1875 29.5295 43.4767 29.6506C43.1967 30.0052 42.8631 30.3139 42.4878 30.5656C42.0707 30.4512 41.9328 30.0946 41.7882 29.7515C39.8608 25.2712 37.8762 20.8177 35.9623 16.3339C35.6697 15.6612 35.3535 14.9683 35.0575 14.2855C34.9431 14.0265 34.7749 13.7775 34.8859 13.4714L35.8917 12.5498Z" fill="#2C98C4"/>
<path d="M39.9009 33.0076L35.8645 23.7239C34.7276 21.098 33.584 18.4721 32.4336 15.8462C32.6253 15.6108 32.817 15.3787 33.0054 15.1432L33.2981 14.9717C33.7791 15.1802 33.8901 15.6612 34.0683 16.0682C36.2188 21.0016 38.3648 25.935 40.5064 30.8683C40.6678 31.2383 40.8965 31.5713 41.0681 31.9312C40.7335 32.3449 40.3403 32.7075 39.9009 33.0076Z" fill="#29A4BC"/>
<path d="M44.5592 28.6482C44.1085 28.6112 44.0547 28.2076 43.9235 27.915C42.5175 24.7128 41.1204 21.5072 39.7324 18.2983C38.8881 16.3541 38.0505 14.3998 37.2164 12.4556C37.0478 12.187 36.9548 11.8779 36.9473 11.5609C37.1815 11.2408 37.4764 10.97 37.8151 10.7637C38.1245 11.9611 38.73 13.0409 39.211 14.1677C41.0778 18.5203 42.9985 22.8728 44.8956 27.2456C45.0133 27.5147 45.0974 27.7905 45.454 27.8141C45.2067 28.1422 44.9039 28.4246 44.5592 28.6482Z" fill="#2E8FCA"/>
<path d="M31.4241 16.7341C32.3558 18.8902 33.2842 21.0463 34.226 23.1991C35.7531 26.6883 37.2836 30.1753 38.8174 33.6601C38.8452 33.7699 38.8565 33.8833 38.851 33.9964C38.6161 34.3246 38.3189 34.6035 37.9765 34.8172C37.6982 34.612 37.4969 34.3195 37.4046 33.9863C35.1622 28.748 32.8917 23.5209 30.5932 18.305C30.4688 18.019 30.304 17.7264 30.563 17.427C30.7648 17.1647 31.1281 17.0638 31.2559 16.7341H31.4241Z" fill="#27AEB5"/>
<path d="M36.4226 36.2098C35.4135 34.565 34.8047 32.7419 34.0277 30.9962C32.5477 27.6762 31.1215 24.3361 29.6751 21.0027C29.3365 20.2156 29.0001 19.4308 28.666 18.6482C28.7368 18.4959 28.8395 18.3605 28.9672 18.2514C29.0949 18.1423 29.2445 18.062 29.406 18.0158C29.4708 18.0051 29.5371 18.0086 29.6004 18.026C29.6637 18.0435 29.7225 18.0744 29.7727 18.1167C30.6842 19.8759 31.404 21.7192 32.1945 23.5457C33.7261 27.0371 35.2476 30.5331 36.759 34.0336C36.9642 34.5112 37.3644 34.9653 37.1189 35.5573C36.8969 35.7726 36.8061 36.1459 36.4226 36.2098Z" fill="#26B6B0"/>
<path d="M37.119 35.5403C36.1334 33.2261 35.1411 30.9186 34.1657 28.591C32.6958 25.0861 31.0308 21.6618 29.6954 18.0997C29.6449 17.5851 30.0856 17.5716 30.395 17.427H30.5598C30.8693 18.7119 31.5319 19.8556 32.0466 21.0564C34.0009 25.6545 35.9955 30.2324 37.9733 34.8171C37.7701 35.1406 37.4716 35.3932 37.119 35.5403Z" fill="#27B2B2"/>
<path d="M41.0747 31.9177C40.7148 31.9177 40.5937 31.6519 40.4794 31.3828C38.5217 26.8464 36.5641 22.3099 34.6064 17.7735C34.1994 16.8283 33.7386 15.9067 33.3047 14.9716C33.5471 14.6478 33.8442 14.3689 34.1826 14.1475C34.8116 14.7462 34.9865 15.5938 35.3128 16.3406C37.4622 21.2179 39.5308 26.1355 41.7374 30.9893C41.7698 31.0686 41.7891 31.1527 41.7946 31.2382C41.611 31.5178 41.3645 31.7506 41.0747 31.9177Z" fill="#2AA0BE"/>
<path d="M41.7946 31.2383C41.4347 31.087 41.3438 30.7304 41.2093 30.4243C39.7809 27.1548 38.3592 23.8809 36.9442 20.6024C36.0158 18.4531 35.1043 16.3003 34.1826 14.1476C34.3586 13.8694 34.5999 13.6384 34.8856 13.4749C36.2681 16.6165 37.6169 19.7783 39.0397 22.8931C40.2036 25.4427 41.1588 28.0832 42.4875 30.5589C42.3122 30.8359 42.075 31.0685 41.7946 31.2383Z" fill="#2B9CC1"/>
<path d="M29.3494 42.4394C27.7416 38.7393 26.1327 35.0393 24.5226 31.3393C23.2668 28.4488 22.0099 25.5616 20.7519 22.6779C19.9884 20.8884 19.2046 19.0989 18.4209 17.3196C18.3287 17.0785 18.2897 16.8203 18.3065 16.5627C19.0398 16.7847 19.3493 17.4507 19.7865 17.9822C20.2575 19.59 21.0143 21.0801 21.6769 22.6072C23.9149 27.7514 26.1551 32.8933 28.3975 38.033C28.8651 39.1161 29.3528 40.1891 29.8035 41.2755C29.9212 41.5648 30.113 41.844 29.9112 42.1703C29.743 42.3183 29.6084 42.51 29.3494 42.4394Z" fill="#1FD899"/>
<path d="M29.8938 42.1701C29.0529 40.199 28.212 38.2212 27.3711 36.2501C25.5435 32.0186 23.7126 27.7893 21.8783 23.5624C21.2291 22.0655 20.5631 20.5754 19.9071 19.082C19.7524 18.722 19.4934 18.379 19.6851 17.9484C20.1056 17.871 20.3579 18.1435 20.5933 18.416C20.6075 18.4528 20.6109 18.4929 20.6031 18.5316C20.5954 18.5703 20.5768 18.606 20.5496 18.6346C20.7582 19.7412 21.33 20.7133 21.7673 21.7325C24.0097 26.9641 26.2746 32.1845 28.5618 37.3937C29.1942 38.8334 29.9073 40.2427 30.3849 41.7396C30.1831 41.8405 30.1629 42.1466 29.8938 42.1701Z" fill="#1FD69A"/>
<path d="M49.1779 23.6365C48.3673 22.6274 48.0612 21.3929 47.5466 20.2728C46.043 16.963 44.6404 13.6027 43.1738 10.2659C42.7096 9.19293 42.2286 8.12665 41.751 7.05701C41.9831 6.83164 42.2118 6.60292 42.4237 6.38428C42.8341 6.52555 42.9451 6.91237 43.0964 7.24201C45.1146 11.9108 47.2035 16.5459 49.151 21.2449L49.1779 23.6365Z" fill="#3377DB"/>
<path d="M25.2088 19.6707C25.9218 21.8638 26.978 23.882 27.8694 26.0011C29.4974 29.8525 31.1893 33.677 32.8476 37.5183C33.0595 38.0161 33.406 38.4568 33.4968 39.0084C33.4446 39.1177 33.3709 39.2154 33.2802 39.2958C33.1895 39.3761 33.0836 39.4373 32.9687 39.4759C31.8789 36.9913 30.7891 34.5056 29.6992 32.0187C28.4412 29.1372 27.1866 26.2545 25.9353 23.3708C25.4005 22.1397 24.8758 20.9052 24.3477 19.6707C24.4032 19.6125 24.4701 19.5662 24.5441 19.5345C24.6181 19.5029 24.6977 19.4866 24.7782 19.4866C24.8587 19.4866 24.9383 19.5029 25.0123 19.5345C25.0863 19.5662 25.1532 19.6125 25.2088 19.6707Z" fill="#22C8A3"/>
<path d="M131.258 22.2573C131.258 23.633 131.221 25.0121 131.258 26.3845C131.285 27.0807 130.855 26.9294 130.485 26.9193C130.115 26.9092 129.627 27.1177 129.637 26.3609C129.675 23.6094 129.675 20.858 129.637 18.1065C129.637 17.3362 130.135 17.5885 130.505 17.5616C130.875 17.5347 131.282 17.4708 131.255 18.13C131.221 19.5091 131.258 20.8815 131.258 22.2573Z" fill="#010101"/>
<path d="M43.1602 5.7182L43.8329 5.13965C43.9523 5.1894 44.0587 5.26592 44.1439 5.36332C44.229 5.46072 44.2906 5.57638 44.324 5.70138C45.9385 9.44513 47.617 13.162 49.1845 16.9225V19.1661C48.6597 19.1997 48.5117 18.7826 48.3671 18.4261C46.6853 14.5411 45.0034 10.6493 43.2913 6.76766C43.14 6.42457 42.918 6.08484 43.1602 5.7182Z" fill="#3471DF"/>
<path d="M49.1777 16.9057C48.3839 16.0682 48.1317 14.9481 47.6776 13.9423C46.3556 11.0193 45.1044 8.06602 43.8262 5.12282C44.0687 4.79614 44.3671 4.51487 44.7075 4.29199C45.5181 5.38854 45.9015 6.69028 46.4532 7.91129C47.3849 9.97994 48.246 12.0789 49.1777 14.1441V16.9057Z" fill="#356DE1"/>
<path d="M49.1778 14.1441C48.505 13.7674 48.4445 13.0038 48.1687 12.3984C46.9981 9.79492 45.8814 7.16454 44.7512 4.54425C44.7252 4.46241 44.7094 4.37768 44.7041 4.29198L45.5719 3.44434C46.0395 3.82443 46.1875 4.39625 46.4196 4.91425C47.3479 7.00645 48.2326 9.12219 49.1744 11.211L49.1778 14.1441Z" fill="#3669E4"/>
<path d="M16.9232 16.7375C17.3336 16.7846 17.3436 17.1412 17.4647 17.4103C19.0995 21.1619 20.7353 24.9112 22.3723 28.6584C23.9667 32.3348 25.5442 36.0147 27.1352 39.6912C27.6028 40.7642 28.1713 41.7968 28.4807 42.9337L28.1443 43.1086C27.3337 41.8103 26.8527 40.3639 26.2405 38.9747C23.3511 32.4526 20.5425 25.9002 17.68 19.3444C17.4277 18.7625 17.0678 18.2445 16.7718 17.6895C16.7064 17.5324 16.6858 17.3601 16.7126 17.1921C16.7393 17.024 16.8122 16.8666 16.9232 16.7375Z" fill="#1DDF94"/>
<path d="M49.1777 11.2109C48.5688 10.8948 48.5049 10.2355 48.2829 9.70403C47.3613 7.62529 46.4733 5.5331 45.5752 3.44427L46.5843 2.53271C47.0283 2.72108 47.1494 3.16172 47.3075 3.54181C47.923 5.00837 48.6529 6.43456 49.1743 7.93475L49.1777 11.2109Z" fill="#3764E8"/>
<path d="M16.9236 17.7737C17.64 18.2311 17.751 19.062 18.0504 19.7414C20.341 24.9181 22.5846 30.1149 24.8315 35.3185C25.9516 37.9153 27.0381 40.5255 28.1414 43.1323C28.0918 43.1451 28.0411 43.1529 27.99 43.1558C27.1457 41.9786 26.732 40.5927 26.1534 39.2944C24.697 36.0417 23.3515 32.7621 21.9253 29.5095C20.452 26.1189 18.9518 22.7452 17.4819 19.3546C17.3935 19.0527 17.194 18.7955 16.9236 18.6348C16.8645 18.5797 16.8174 18.513 16.7852 18.439C16.753 18.3649 16.7363 18.285 16.7363 18.2042C16.7363 18.1235 16.753 18.0436 16.7852 17.9695C16.8174 17.8954 16.8645 17.8288 16.9236 17.7737Z" fill="#1DDF94"/>
<path d="M152.435 18.8096C152.402 18.9744 152.603 19.2401 152.257 19.2738C152.035 19.2973 151.793 19.3377 151.648 19.082C151.483 18.7764 151.225 18.5313 150.911 18.3824C150.549 18.2111 150.136 18.1777 149.75 18.2885C149.365 18.3993 149.032 18.6467 148.816 18.9845C148.616 19.3359 148.545 19.7461 148.616 20.1442C148.686 20.5423 148.894 20.9031 149.203 21.1642C149.53 21.4025 149.933 21.5146 150.336 21.48C150.74 21.4454 151.117 21.2664 151.399 20.9758C151.517 20.8547 151.577 20.6394 151.715 20.5755C152.052 20.3838 152.492 20.1012 152.459 20.8782C151.352 22.4255 149.704 22.7215 148.517 21.5913C148.288 21.3737 148.105 21.1132 147.978 20.8248C147.851 20.5364 147.781 20.2257 147.774 19.9104C147.767 19.5952 147.822 19.2816 147.936 18.9877C148.05 18.6937 148.221 18.4252 148.439 18.1974C148.67 17.9609 148.945 17.773 149.249 17.6446C149.553 17.5163 149.88 17.4502 150.21 17.4502C150.54 17.4502 150.867 17.5163 151.171 17.6446C151.475 17.773 151.751 17.9609 151.981 18.1974C152.144 18.393 152.295 18.5974 152.435 18.8096Z" fill="#010101"/>
<path d="M147.656 17.676C147.054 19.0618 146.468 20.4543 145.836 21.8267C145.784 21.9346 145.701 22.0245 145.597 22.085C145.494 22.1454 145.375 22.1737 145.255 22.1661C145.136 22.1585 145.021 22.1154 144.926 22.0424C144.831 21.9694 144.76 21.8697 144.723 21.7561C144.11 20.4106 143.525 19.0349 142.93 17.6726C143.539 17.4338 143.831 17.6491 144.043 18.2142C144.4 19.1762 144.837 20.1079 145.308 21.2078C145.765 20.1213 146.192 19.1627 146.569 18.1805C146.768 17.6692 147.04 17.4271 147.656 17.676Z" fill="#010101"/>
<path d="M49.1779 7.93481C48.4614 7.26208 48.3504 6.28326 47.9098 5.46925C47.3985 4.53079 47.0218 3.51497 46.5879 2.53278L47.6373 1.52368C48.4211 2.37132 48.6464 3.51497 49.1779 4.4837V7.93481Z" fill="#385FEB"/>
<path d="M49.1776 21.2214C48.4376 20.5218 48.256 19.5396 47.8624 18.6583C46.0326 14.5715 44.2566 10.4611 42.457 6.36078L42.7934 6.02441C43.5435 6.88215 43.8328 7.98206 44.2734 8.9878C45.5516 11.9142 46.8264 14.8417 48.0979 17.7703C48.4342 18.5809 48.8143 19.3849 49.1642 20.1955L49.1776 21.2214Z" fill="#3374DD"/>
<path d="M49.1774 20.182C48.8141 20.1315 48.7872 19.8187 48.6762 19.5597C47.0415 15.7834 45.3955 12.006 43.7384 8.22752C43.402 7.49424 43.1161 6.75424 42.8066 6.0176C42.834 5.94221 42.8787 5.87431 42.9371 5.81938C42.9955 5.76446 43.0661 5.72405 43.143 5.70142C43.8796 7.89452 44.9459 9.94635 45.8339 12.0924C46.695 14.1711 47.6234 16.2229 48.5249 18.2916C48.6319 18.6503 48.8632 18.9592 49.1774 19.1628V20.182Z" fill="#3374DD"/>
<path d="M49.1773 4.48707C48.7198 4.39289 48.6929 3.96234 48.5449 3.64279C48.2085 2.94988 47.9394 2.23342 47.6367 1.52705C47.8184 1.3185 48 1.11332 48.1783 0.904773C48.5382 0.746681 48.7064 0.319497 49.1874 0.208496L49.1773 4.48707Z" fill="#3A5BEF"/>
<path d="M129.421 14.6049C129.412 14.4702 129.433 14.3353 129.481 14.2091C129.528 14.0829 129.602 13.9682 129.698 13.8728C129.793 13.7774 129.908 13.7033 130.034 13.6556C130.16 13.6078 130.295 13.5875 130.43 13.5958C130.566 13.5816 130.704 13.5964 130.835 13.6392C130.965 13.6821 131.085 13.752 131.186 13.8445C131.287 13.937 131.368 14.0498 131.423 14.1757C131.477 14.3015 131.505 14.4375 131.503 14.5747C131.509 14.7181 131.485 14.8613 131.434 14.9953C131.382 15.1293 131.304 15.2513 131.203 15.3538C131.103 15.4563 130.982 15.537 130.849 15.591C130.716 15.6451 130.573 15.6712 130.43 15.6679C130.293 15.668 130.157 15.6403 130.031 15.5862C129.905 15.5322 129.791 15.453 129.697 15.3535C129.602 15.254 129.529 15.1364 129.482 15.0076C129.434 14.8789 129.413 14.7419 129.421 14.6049Z" fill="#010101"/>
<path d="M11.9148 33.3002C11.6884 33.6323 11.3893 33.9084 11.0402 34.1075C10.5996 34.0234 10.4852 33.65 10.3372 33.3103C8.07684 28.137 5.86019 22.9368 3.56281 17.7769C3.49 17.6705 3.44117 17.5495 3.41968 17.4223C3.3982 17.2951 3.40457 17.1648 3.43835 17.0403C3.67803 16.7141 3.97561 16.4348 4.31627 16.2162C4.91163 16.1556 4.989 16.6568 5.15718 17.0268C6.62037 20.3669 8.06675 23.7138 9.52994 27.0539C10.2868 28.7895 10.9999 30.5487 11.8139 32.2575C11.9686 32.5905 12.1872 32.9235 11.9148 33.3002Z" fill="#2F8ACE"/>
<path d="M3.43867 17.0403C5.3425 21.0767 7.01088 25.2173 8.83734 29.2874C9.56053 30.8985 10.1021 32.5972 11.0439 34.1108C10.6944 34.5294 10.2957 34.9043 9.85653 35.2276C9.11989 34.0907 8.70952 32.8024 8.1747 31.5746C6.35833 27.4306 4.55317 23.2821 2.75921 19.1291C2.57354 18.8044 2.41058 18.4672 2.27148 18.12C2.60865 17.7078 3.00147 17.3444 3.43867 17.0403Z" fill="#3085D1"/>
<path d="M11.9149 33.3001C11.5785 31.9547 10.8789 30.7707 10.3441 29.5127C8.55125 25.3047 6.69788 21.1271 4.87814 16.9292C4.78795 16.629 4.5872 16.3741 4.31641 16.2161C4.614 15.8211 4.97689 15.4798 5.38941 15.207C5.98478 15.3214 6.04196 15.8798 6.2236 16.2935C7.45133 19.0416 8.63534 21.8099 9.83617 24.5681C10.8083 26.8016 11.7669 29.0418 12.7558 31.2685C12.9038 31.6049 13.1796 31.911 12.9677 32.3146C12.668 32.6939 12.3132 33.0261 11.9149 33.3001Z" fill="#2E8FCA"/>
<path d="M29.3588 18.1235C29.2209 18.4228 28.9115 18.4901 28.6626 18.6415L28.1446 18.8096C27.5929 18.5439 27.4718 17.9754 27.2566 17.4944C25.7059 13.892 24.1284 10.2996 22.571 6.70047C21.9353 5.22719 21.2827 3.764 20.6604 2.28399C20.5461 2.00481 20.3241 1.72899 20.5461 1.40271C20.9016 1.1029 21.3116 0.874485 21.7536 0.72998C22.6416 2.41181 23.3043 4.16764 24.0678 5.89319C25.8337 9.8724 27.5223 13.8886 29.305 17.8611C29.3415 17.9437 29.3598 18.0332 29.3588 18.1235Z" fill="#1EDD95"/>
<path d="M2.27201 18.1233C2.80347 18.278 2.85729 18.796 3.0322 19.1929C4.96966 23.5971 6.89031 28.0091 8.79414 32.4289C9.18433 33.3438 9.71579 34.215 9.85706 35.2275C9.63479 35.5604 9.33458 35.8341 8.98251 36.0247C8.5856 35.7791 8.45441 35.3519 8.28623 34.9651C6.00231 29.7178 3.73857 24.4571 1.42437 19.2198C1.3935 19.14 1.37425 19.0562 1.36719 18.9709C1.61597 18.6368 1.92238 18.3498 2.27201 18.1233Z" fill="#3180D5"/>
<path d="M20.5499 1.40259C21.67 4.00942 22.7463 6.62635 23.8832 9.22646C25.2825 12.4455 26.7154 15.6174 28.145 18.8095L27.627 19.1459H27.2906C26.591 19.3309 26.4867 18.7288 26.3084 18.3352C25.5314 16.6164 24.7847 14.8808 24.0245 13.1451C22.5714 9.78146 21.0712 6.43798 19.6518 3.05414C19.5239 2.75478 19.2549 2.46214 19.497 2.0955C19.7955 1.79322 20.1542 1.55714 20.5499 1.40259Z" fill="#1FD899"/>
<path d="M12.9678 32.3081C11.3689 28.6618 9.77788 25.0168 8.19472 21.3728C7.52199 19.8222 6.8728 18.2614 6.17653 16.7175C5.94443 16.1961 5.64507 15.7084 5.37598 15.2005L6.34807 14.3024C6.79544 14.2486 6.82908 14.6388 6.94344 14.8978C9.25091 20.1047 11.4978 25.3419 13.7717 30.5623C13.9366 30.8007 14.0051 31.0928 13.9634 31.3797L12.9678 32.3081Z" fill="#2D94C7"/>
<path d="M29.3591 18.1234C29.0563 18.0057 28.9621 17.7164 28.8511 17.4507C27.046 13.2865 25.2419 9.11669 23.439 4.94127C22.9726 3.86266 22.495 2.79078 22.0061 1.72562C21.8305 1.42881 21.743 1.08814 21.7538 0.743429C22.0695 0.547704 22.4222 0.419436 22.7898 0.366699C23.8292 2.81881 24.8518 5.27428 25.9079 7.71629C27.2063 10.7133 28.5282 13.7002 29.8468 16.6872C29.9712 16.9697 30.0587 17.2926 30.3917 17.4339L29.6921 18.1066L29.3591 18.1234Z" fill="#1DE192"/>
<path d="M1.36663 18.9709C1.97209 19.3073 1.98891 19.98 2.221 20.5115C4.51502 25.6714 6.73503 30.8514 8.98195 36.0247C8.69941 36.3173 8.50095 36.6974 8.11077 36.8791C7.71385 36.7647 7.65331 36.3947 7.51876 36.0886C5.29202 31.0028 3.08098 25.9158 0.88563 20.8277C0.84211 20.7213 0.781932 20.6225 0.707356 20.535L0.666992 19.6235L1.36663 18.9709Z" fill="#327CD7"/>
<path d="M13.9773 31.3795C12.9985 29.5295 12.2652 27.5718 11.4176 25.6613C9.94427 22.338 8.52817 18.9878 7.0448 15.6645C6.84298 15.2037 6.80262 14.6554 6.37207 14.319C6.55614 14.044 6.79989 13.8141 7.08517 13.6463C7.70408 13.431 7.81172 13.9423 7.96981 14.319C8.88136 16.4583 9.81982 18.5875 10.7549 20.71C12.0667 23.707 13.3382 26.7242 14.6769 29.7145C14.7913 29.9735 14.9595 30.2224 14.8552 30.5285C14.6255 30.8706 14.3264 31.1606 13.9773 31.3795Z" fill="#2C98C4"/>
<path d="M14.8452 30.5084C13.5267 27.9016 12.4907 25.1703 11.2865 22.5063C10.0487 19.738 8.88821 16.9361 7.68402 14.1509C7.56965 13.8751 7.42838 13.6296 7.0752 13.6296C7.31665 13.2902 7.62306 13.0021 7.97666 12.7819C8.53502 12.5633 8.5922 13.0746 8.73348 13.3571C9.48021 14.8775 10.1193 16.4483 10.7954 18.0023C12.3528 21.588 13.9034 25.1737 15.4776 28.7492C15.6122 29.0553 15.8543 29.3446 15.7332 29.7213C15.5072 30.0534 15.202 30.3239 14.8452 30.5084Z" fill="#2B9DC1"/>
<path d="M20.5497 18.6346V18.463C18.8679 14.4872 17.1255 10.5382 15.4 6.58257C15.2991 6.34711 15.1847 6.10493 15.3663 5.85602L16.4057 4.84692C17.2298 7.14094 18.3095 9.32732 19.2581 11.5742C20.2672 13.9288 21.2965 16.2531 22.3291 18.5841C22.4223 18.825 22.4625 19.0831 22.4468 19.3409L21.9288 19.1694L20.5497 18.6346Z" fill="#23C4A6"/>
<path d="M16.749 28.9274L16.4395 29.062C15.9047 28.7828 15.7668 28.2211 15.5515 27.7367C13.3853 22.7383 11.2101 17.7455 9.02601 12.7583C8.94146 12.6257 8.89161 12.4739 8.88103 12.317C8.87045 12.1601 8.89948 12.003 8.96546 11.8602C9.14742 11.587 9.38747 11.3573 9.66847 11.1875C9.98465 11.2817 10.0788 11.5642 10.1932 11.8266C12.3897 16.8183 14.4919 21.8638 16.7658 26.8184C16.7995 26.8979 16.8221 26.9817 16.8331 27.0673C16.7893 27.6862 16.9306 28.3152 16.749 28.9274Z" fill="#2AA4BC"/>
<path d="M25.2085 19.6706H24.3609C23.3888 18.1133 22.817 16.3675 22.0702 14.7059C20.5196 11.2682 19.0429 7.79357 17.5562 4.33237C17.5083 4.19821 17.469 4.06114 17.4385 3.922L18.1314 3.24927C18.5922 3.43427 18.6998 3.885 18.868 4.25836C20.8862 8.89348 22.9044 13.5353 24.9226 18.1705C25.0942 18.6613 25.4153 19.086 25.8409 19.3847L25.9115 19.4924C25.7063 19.7514 25.4473 19.6471 25.2085 19.6706Z" fill="#21CEA0"/>
<path d="M19.5136 2.09888C20.6976 4.85708 21.8805 7.61528 23.0623 10.3735C24.1252 12.8424 25.1814 15.3181 26.2813 17.7735C26.51 18.2848 26.547 18.9912 27.2904 19.156C27.0386 19.3454 26.7395 19.4617 26.4259 19.4923H25.8978C25.0771 18.231 24.623 16.8014 24.0175 15.4358C22.2684 11.5037 20.59 7.53455 18.8308 3.60243C18.7131 3.34343 18.5449 3.09116 18.6592 2.78506C18.8905 2.49665 19.1821 2.26243 19.5136 2.09888Z" fill="#20D39C"/>
<path d="M15.3667 5.8562C16.2637 7.92149 17.1528 9.98789 18.0341 12.0554C18.8279 13.8853 19.6274 15.7128 20.4324 17.5382C20.5313 17.836 20.5713 18.1501 20.5501 18.4632L19.6857 17.9486C19.0903 17.6122 18.8044 16.9865 18.3066 16.5627C17.9164 15.6377 17.2975 14.817 17.0923 13.8079C16.7256 13.5455 16.729 13.1116 16.5978 12.7416C16.1673 11.1001 15.2793 9.63359 14.6738 8.07285C14.4955 7.62212 14.2298 7.18821 14.4888 6.68366L15.3667 5.8562Z" fill="#24BFA9"/>
<path d="M8.96548 11.8604C9.38257 13.2563 10.0654 14.5513 10.6473 15.8766C12.2518 19.6909 13.9336 23.4852 15.5751 27.2861C15.8374 27.8882 16.1502 28.4701 16.4395 29.0621L15.7332 29.718C14.7442 27.8411 13.9908 25.8599 13.1364 23.9258C11.8549 21.0162 10.5969 18.0966 9.32539 15.1803C9.05181 14.5479 8.76702 13.9223 8.47102 13.3034C8.36338 13.0814 8.30956 12.7887 7.97656 12.7753C8.25664 12.4207 8.59028 12.1121 8.96548 11.8604Z" fill="#2AA0BE"/>
<path d="M16.7384 26.9093C15.9244 26.0819 15.6721 24.9618 15.2281 23.9527C13.3478 19.7178 11.518 15.4729 9.66797 11.2011C9.84298 10.9232 10.0831 10.6923 10.3676 10.5283C10.9462 10.7133 11.0403 11.2582 11.2523 11.7191C12.9341 15.6276 14.6159 19.5429 16.3583 23.438C16.5197 23.8013 16.8023 24.1108 16.8359 24.5312C16.7787 25.3318 16.9604 26.1323 16.7384 26.9093Z" fill="#29A8B9"/>
<path d="M16.7389 24.3294C16.0662 23.8854 15.9485 23.0848 15.6592 22.4323C14.0446 18.8029 12.5041 15.1365 10.9265 11.497C10.7593 11.1657 10.5729 10.8445 10.3682 10.535C10.5824 10.2165 10.8651 9.94987 11.1956 9.75464C11.5656 9.90264 11.6329 10.2693 11.7674 10.5754C13.2845 13.9626 14.7241 17.3767 16.2176 20.7706C16.4623 21.1922 16.6694 21.6346 16.8365 22.0925C16.7827 22.846 16.9609 23.5961 16.7389 24.3294Z" fill="#28ABB7"/>
<path d="M18.6597 2.78516C20.4492 6.51545 22.0066 10.35 23.6884 14.1274C24.3409 15.6175 24.9868 17.111 25.6427 18.5977C25.8127 18.8644 25.9058 19.1729 25.9118 19.4891C25.3298 19.5463 25.1078 19.1527 24.9195 18.7053C23.8734 16.3239 22.8374 13.939 21.7913 11.5576C20.5691 8.78592 19.3448 6.01651 18.1182 3.24934C18.2497 3.04522 18.4379 2.8839 18.6597 2.78516Z" fill="#20D19D"/>
<path d="M16.742 21.9141C15.9078 21.4365 15.8674 20.4812 15.5311 19.7412C14.0309 16.4415 12.6316 13.098 11.1953 9.75452L11.905 9.08179C12.7123 10.175 13.0924 11.4801 13.6441 12.6944C14.7272 15.0893 15.7093 17.5279 16.8294 19.9094C16.8294 20.2458 16.8294 20.5619 16.8294 20.8916C16.8294 21.2212 16.927 21.5946 16.742 21.9141Z" fill="#27AFB4"/>
<path d="M16.7419 19.8455C15.8976 19.1089 15.7328 18.0056 15.3022 17.0671C14.1485 14.6049 13.089 12.1091 11.9991 9.60653C11.9535 9.44292 11.9253 9.27491 11.915 9.10535C12.0961 8.83253 12.335 8.60286 12.6147 8.43262C13.21 8.98089 13.3917 9.75453 13.6978 10.4508C14.7439 12.8356 15.7597 15.2373 16.8462 17.6087C16.7822 18.3621 16.9403 19.1089 16.7419 19.8455Z" fill="#27B2B2"/>
<path d="M16.7452 17.4271C16.0522 17.1816 16.0926 16.4752 15.8639 15.9606C14.7505 13.4547 13.6876 10.9521 12.6045 8.4428L13.4723 7.5918C13.9567 7.92816 14.0139 8.5168 14.2359 9.00117C15.1272 10.9487 15.9547 12.9232 16.836 14.8775C16.7822 15.7285 16.9402 16.5862 16.7452 17.4271Z" fill="#26B6B0"/>
<path d="M16.7486 14.6689C16.123 14.3661 16.0759 13.7035 15.8438 13.172C15.0567 11.3086 14.1351 9.50565 13.4893 7.59173L14.4984 6.68018C14.7674 8.18709 15.642 9.45519 16.1533 10.8646C16.382 11.4936 16.8664 12.0385 16.7621 12.7718C16.9191 13.395 16.9144 14.0479 16.7486 14.6689Z" fill="#25BAAD"/>
<path d="M0.707031 20.5352C1.58831 21.0935 1.65895 22.1228 2.03231 22.9469C3.55605 26.3106 4.99569 29.7146 6.46561 33.1018L8.11044 36.8792L7.26953 37.6528C6.49925 36.8354 6.22343 35.7523 5.79961 34.7668C4.15142 30.9558 2.43595 27.175 0.851669 23.3304C0.814912 23.2525 0.766098 23.181 0.707031 23.1184V20.5352Z" fill="#3377DA"/>
<path d="M16.9306 30.3704C17.4722 30.7673 17.6336 31.4064 17.8758 31.9546C19.4253 35.4528 20.9513 38.9611 22.4538 42.4795C22.6018 42.8159 22.9953 43.1993 22.6118 43.6467C22.1159 43.6024 21.6402 43.4284 21.2328 43.1422C20.5331 42.1331 20.2237 40.9558 19.7292 39.866C18.7739 37.8209 17.97 35.6984 16.9609 33.6667C16.8925 33.5392 16.8545 33.3976 16.8499 33.253C16.8936 32.291 16.7255 31.3256 16.9306 30.3704Z" fill="#19F486"/>
<path d="M0.707682 30.0275L0.6875 27.2457H0.707682C1.30305 27.1953 1.38041 27.6964 1.53851 28.0665C2.85706 31.0736 4.17898 34.0571 5.43362 37.0676C5.67244 37.6327 6.16017 38.1204 6.04244 38.8133C5.83821 39.1147 5.56785 39.3655 5.25198 39.5466C4.66671 39.5466 4.64316 39.032 4.48171 38.6788C3.19679 35.8062 1.96905 32.9101 0.707682 30.0275Z" fill="#356DE1"/>
<path d="M6.04179 38.8132C4.44293 35.2074 2.84856 31.5993 1.25867 27.989C1.17097 27.6886 0.97423 27.4319 0.707031 27.2691V25.0222C1.31585 25.0222 1.37976 25.5671 1.56813 25.9472C2.71177 28.4094 3.75114 30.9221 4.85106 33.4078C5.4027 34.6658 5.96443 35.9171 6.50261 37.1785C6.6338 37.4846 6.86925 37.7738 6.75825 38.1472C6.57766 38.4246 6.33161 38.6533 6.04179 38.8132Z" fill="#3471DF"/>
<path d="M6.7448 38.1473C5.75924 36.2737 5.00915 34.2959 4.15478 32.3652C3.16923 30.1418 2.19377 27.9184 1.20485 25.695C1.09049 25.4428 1.0064 25.1467 0.707031 25.0223V23.1218C1.50758 23.5557 1.53113 24.4673 1.84395 25.14C3.38787 28.5508 4.87124 31.9985 6.34116 35.4328C6.6607 36.1661 6.96007 36.9095 7.26953 37.6461L6.7448 38.1473Z" fill="#3374DD"/>
<path d="M0.707031 30.0273C1.59504 30.838 1.75986 32.022 2.23413 33.0546C3.14905 35.0089 3.97987 37.017 4.85106 39.0184C4.90867 39.2434 5.05244 39.4367 5.25133 39.5566L4.15814 40.5657C3.25332 39.1731 2.78241 37.5754 2.06931 36.0887C1.57822 35.0796 1.18803 33.9897 0.707031 32.9571V30.0273Z" fill="#3669E4"/>
<path d="M16.9301 33.4751C17.66 34.1478 17.8618 35.0997 18.2352 35.9507C19.2443 38.2279 20.3173 40.4749 21.1616 42.8193C21.1922 42.9299 21.2158 43.0422 21.2322 43.1557C20.5588 42.9236 19.9589 42.5174 19.4932 41.9784C18.6052 39.9602 17.7138 37.942 16.8427 35.9238C16.8427 35.4428 16.8427 34.9652 16.8427 34.4876C16.8797 34.1579 16.7485 33.8014 16.9301 33.4751Z" fill="#18F982"/>
<path d="M0.707682 32.9639C1.47796 33.5962 1.59905 34.5751 1.9926 35.4059C2.71242 36.9162 3.36497 38.4601 4.03434 39.9973C4.09513 40.1843 4.13683 40.377 4.15879 40.5725C3.92414 40.9037 3.62706 41.1859 3.28424 41.4033C2.67542 41.0669 2.55433 40.3942 2.30206 39.8493C1.75378 38.6552 1.29296 37.4207 0.707682 36.2434L0.6875 35.7221L0.707682 32.9639Z" fill="#3764E7"/>
<path d="M0.707031 36.24C1.45713 36.6638 1.50422 37.535 1.82377 38.2111C2.31822 39.2673 2.74204 40.3605 3.28359 41.3998C2.96626 41.8349 2.55458 42.1926 2.0794 42.4459C1.45376 41.6084 1.15103 40.6161 0.707031 39.6911V36.24Z" fill="#385FEB"/>
<path d="M16.9305 36.0618C17.2668 36.2098 17.3408 36.536 17.4653 36.8186C18.138 38.2818 18.7603 39.7517 19.4128 41.2183C19.5043 41.4606 19.5321 41.7223 19.4936 41.9784C18.7519 41.3575 18.1412 40.5952 17.6971 39.7359C17.253 38.8766 16.9844 37.9375 16.9069 36.9733C16.8498 36.8275 16.8225 36.6717 16.8266 36.5152C16.8306 36.3586 16.8659 36.2045 16.9305 36.0618Z" fill="#19FC81"/>
<path d="M0.707305 39.6912C1.36945 40.4924 1.83896 41.4348 2.07968 42.446C1.74733 42.9123 1.3458 43.3252 0.888942 43.6704C0.505485 43.1557 0.737578 42.5671 0.707305 42.0121C0.666941 41.2418 0.703941 40.4648 0.707305 39.6912Z" fill="#395AEF"/>
<path d="M16.9299 33.475V34.5077H16.8155C16.7976 32.6465 16.7797 30.7875 16.7617 28.9307V26.9125V24.3225C16.7617 23.5197 16.7617 22.7147 16.7617 21.9074C16.7617 21.5711 16.7617 21.2179 16.7617 20.8748C16.8155 20.7974 16.8694 20.7907 16.9265 20.8748V27.0908C16.9265 28.184 16.9265 29.2772 16.9265 30.3704L16.9299 33.475Z" fill="#1EDF94"/>
<path d="M16.8022 34.5044C16.8402 34.5078 16.8785 34.5078 16.9166 34.5044C16.9166 35.0224 16.9166 35.5404 16.9166 36.0584C16.9166 36.3611 16.9166 36.6672 16.893 36.97C16.6508 36.1593 16.7887 35.3184 16.8022 34.5044Z" fill="#19F486"/>
<path d="M27.2801 0.359863C27.8557 0.446154 28.4024 0.668729 28.8745 1.00905C29.4396 2.97679 30.4386 4.76625 31.1988 6.65663C31.7605 8.07273 32.4635 9.41819 32.9546 10.8679V13.4546C32.5039 13.5118 32.3694 13.1619 32.2315 12.8559C30.5294 9.05828 28.8913 5.23044 27.2364 1.41942C27.0851 1.06287 26.9841 0.696229 27.2801 0.359863Z" fill="#19F485"/>
<path d="M27.2807 0.359887C27.2807 1.6448 28.0409 2.67408 28.5084 3.78745C29.7631 6.78784 31.1186 9.75458 32.4136 12.7281C32.5026 13.0266 32.6945 13.284 32.9552 13.4546C32.9552 14.0231 32.9854 14.5915 32.9989 15.16C32.5583 15.1802 32.5179 14.7933 32.4002 14.531C31.1466 11.6808 29.9021 8.82845 28.6665 5.97383C27.9557 4.34806 27.2459 2.72566 26.5373 1.10662C26.3994 0.790435 26.201 0.50116 26.2581 0.134521L27.2807 0.359887Z" fill="#1AF188"/>
<path d="M32.955 10.8679C32.2049 9.94627 31.9089 8.7959 31.4246 7.73635C30.5265 5.76188 29.699 3.75378 28.848 1.75913C28.7404 1.50685 28.5116 1.24785 28.8715 1.00903C29.3922 1.19306 29.8559 1.50955 30.217 1.92731C31.1622 4.03296 32.0569 6.15879 32.9718 8.27453C32.9584 9.14236 32.955 10.0035 32.955 10.8679Z" fill="#18F982"/>
<path d="M32.958 8.27789C32.2482 7.60515 32.0094 6.66669 31.673 5.80896C31.1719 4.52068 30.3276 3.36358 30.2031 1.93066C31.1235 2.70222 31.8515 3.67745 32.3297 4.77913C32.8078 5.88081 33.0229 7.07868 32.958 8.27789Z" fill="#19FC81"/>
<path d="M126.017 18.5169C125.539 18.0889 124.976 17.7663 124.365 17.57C123.754 17.3738 123.108 17.3082 122.471 17.3777C121.833 17.4472 121.216 17.6501 120.662 17.9733C120.108 18.2965 119.627 18.7327 119.253 19.2536C119.229 18.9356 119.229 18.6163 119.253 18.2983C119.384 17.565 118.963 17.5583 118.408 17.5381C117.853 17.5179 117.638 17.676 117.645 18.2916C117.674 22.0858 117.674 25.88 117.645 29.6742C117.645 30.2797 117.799 30.4579 118.405 30.431C118.953 30.4075 119.3 30.431 119.266 29.6742C119.195 28.2581 119.246 26.8386 119.246 25.3014C121.536 27.5685 124.342 27.6964 126.235 25.7185C127.141 24.7245 127.624 23.4174 127.583 22.0735C127.542 20.7296 126.981 19.4542 126.017 18.5169ZM122.653 25.6176C122.207 25.6362 121.762 25.5629 121.345 25.4024C120.928 25.2418 120.549 24.9974 120.23 24.6843C119.912 24.3712 119.661 23.996 119.493 23.582C119.326 23.168 119.245 22.724 119.256 22.2775C119.238 21.8307 119.31 21.3848 119.469 20.9669C119.628 20.5489 119.871 20.1676 120.181 19.8459C120.492 19.5242 120.865 19.2689 121.277 19.0954C121.689 18.9219 122.132 18.8338 122.579 18.8365C123.026 18.8342 123.468 18.9209 123.881 19.0915C124.294 19.262 124.668 19.513 124.983 19.8299C125.298 20.1468 125.546 20.5231 125.714 20.937C125.881 21.3509 125.965 21.794 125.96 22.2405C125.969 22.6802 125.89 23.1173 125.728 23.5262C125.566 23.9352 125.324 24.3077 125.017 24.6221C124.709 24.9365 124.342 25.1865 123.937 25.3574C123.532 25.5284 123.096 25.6168 122.657 25.6176H122.653Z" fill="#010101"/>
<path d="M72.814 22.9131C73.9308 22.9669 75.0542 22.9131 76.1777 22.9131C77.3012 22.9131 78.4246 22.8593 79.5414 22.9333C80.3352 22.9871 80.4361 22.6306 80.4025 21.9814C80.2309 18.7523 77.1532 16.5995 73.9476 17.5178C73.3311 17.6901 72.7547 17.9825 72.2516 18.3782C71.7485 18.774 71.3286 19.2653 71.016 19.8239C70.7034 20.3825 70.5043 20.9974 70.4302 21.6332C70.356 22.269 70.4083 22.9131 70.5839 23.5287C71.2735 26.1658 73.9779 27.6862 76.726 26.9832C77.4152 26.8327 78.0622 26.5302 78.6197 26.0979C79.1772 25.6655 79.6311 25.1141 79.9484 24.484C80.0324 24.3191 80.3116 23.966 79.9282 23.966C79.3059 23.966 78.6567 23.68 78.0916 24.4402C76.6015 26.4584 73.2883 25.9707 72.3263 23.6901C72.0942 23.162 72.0606 22.8728 72.814 22.9131ZM72.2624 20.9588C72.4929 20.3053 72.9264 19.7425 73.4995 19.3528C74.0725 18.9631 74.7552 18.7668 75.4478 18.7927C76.1248 18.7903 76.7862 18.9962 77.3421 19.3825C77.8981 19.7688 78.3218 20.3168 78.5558 20.9521C78.6937 21.3692 78.6197 21.5138 78.1623 21.5038C77.244 21.4768 76.3257 21.5038 75.4074 21.5038C74.4891 21.5038 73.5709 21.5038 72.6526 21.5038C72.2052 21.5273 72.1245 21.3995 72.2624 20.9588Z" fill="#010101"/>
<path d="M142.241 26.2164C142.241 25.88 142.385 25.399 141.743 25.51C141.1 25.621 141.003 25.3082 141.009 24.7397C141.04 22.5567 141.009 20.367 141.033 18.1839C141.033 17.7231 140.942 17.5381 140.428 17.5449C138.446 17.5751 136.458 17.5852 134.477 17.5449C133.831 17.5449 133.875 17.861 133.882 18.2849C133.889 18.7087 133.801 19.1291 134.511 19.0989C135.772 19.0417 137.04 19.0652 138.305 19.0989C139.57 19.1325 139.415 18.8062 139.459 20.3199C139.459 20.8244 139.301 20.9556 138.823 20.9354C138.019 20.9018 137.208 20.8951 136.408 20.9354C134.555 21.0363 133.216 22.4222 133.263 24.1511C133.31 25.88 134.74 27.1515 136.6 27.1784C137.743 27.1784 138.702 26.7646 139.684 25.7791C139.321 27.0808 140.021 26.9866 140.693 26.9564C141.037 26.9294 141.382 26.9294 141.726 26.9564C142.389 27.0068 142.241 26.5729 142.241 26.2164ZM138.86 25.066C138.474 25.3896 138.01 25.606 137.514 25.6934C137.018 25.7808 136.508 25.7361 136.035 25.5638C135.675 25.4693 135.362 25.2456 135.157 24.9354C134.952 24.6251 134.868 24.2501 134.921 23.882C134.939 23.5195 135.083 23.1747 135.329 22.9078C135.575 22.641 135.907 22.4691 136.267 22.4222C136.778 22.3502 137.294 22.3153 137.811 22.3179V22.3414C137.868 22.3347 137.925 22.3347 137.982 22.3414C138.46 22.4491 139.072 22.0522 139.412 22.5668C139.751 23.0814 139.368 24.6758 138.86 25.066Z" fill="#010101"/>
<path d="M110.615 17.3228C109.961 17.2972 109.308 17.4048 108.697 17.639C108.086 17.8732 107.528 18.2292 107.059 18.6852C106.589 19.1413 106.217 19.688 105.965 20.2922C105.713 20.8964 105.587 21.5455 105.593 22.2001C105.593 25.039 107.655 27.1144 110.534 27.1312C113.413 27.148 115.539 25.113 115.563 22.2774C115.586 19.4419 113.467 17.3497 110.615 17.3228ZM110.47 25.6142C110.023 25.6078 109.582 25.5107 109.174 25.3287C108.766 25.1468 108.399 24.8838 108.095 24.5557C107.792 24.2277 107.558 23.8413 107.408 23.4202C107.259 22.9991 107.196 22.5519 107.224 22.1059C107.255 21.2138 107.639 20.3705 108.292 19.7614C108.615 19.4599 108.994 19.2249 109.408 19.0699C109.822 18.915 110.262 18.843 110.704 18.8583C111.146 18.8735 111.58 18.9756 111.982 19.1587C112.385 19.3419 112.747 19.6024 113.049 19.9255C113.35 20.2487 113.585 20.628 113.74 21.0419C113.895 21.4559 113.967 21.8963 113.952 22.338C113.953 22.7862 113.862 23.2299 113.685 23.6416C113.508 24.0533 113.248 24.4243 112.922 24.7314C112.595 25.0386 112.209 25.2754 111.788 25.4273C111.366 25.5791 110.918 25.6428 110.47 25.6142Z" fill="#010101"/>
<path d="M16.9236 20.8783H16.7588C16.7588 20.542 16.7588 20.1854 16.7588 19.8423C16.7588 19.035 16.7588 18.2311 16.7588 17.4239C16.7588 16.5056 16.7588 15.5839 16.7588 14.6657C16.7588 14.0333 16.7588 13.4009 16.7588 12.7686C17.0111 13.0679 16.9875 13.4581 17.0952 13.8046C16.7285 14.7632 17.0212 15.7588 16.927 16.7343V20.8783H16.9236Z" fill="#1FD799"/>
</g>
<defs>
<clipPath id="clip0_2408_8671">
<rect width="151.983" height="44" fill="white" transform="translate(0.478516)"/>
</clipPath>
</defs>
</svg>
