<svg width="108" height="44" viewBox="0 0 108 44" fill="none" xmlns="http://www.w3.org/2000/svg">
<g clip-path="url(#clip0_2408_8789)">
<path d="M11.5149 29.4807L7.19415 41.0243L2.87338 29.4807H0.03125L5.63259 43.742H8.7511L14.357 29.4807H11.5149Z" fill="#0380A6"/>
<path d="M15.9189 29.4807V43.742H25.6937V41.5402H18.4202V37.5787H25.5416V35.3815H18.4202V31.6779H25.6937V29.4807H15.9189Z" fill="#0380A6"/>
<path d="M38.1164 29.4807V39.3798L30.8245 29.4807H28.2588V43.742H30.76V33.562L38.2039 43.742H40.6177V29.4807H38.1164Z" fill="#0380A6"/>
<path d="M42.7412 29.4807V31.6779H47.0574V43.742H49.5586V31.6779H53.8794V29.4807H42.7412Z" fill="#0380A6"/>
<path d="M55.999 38.1176V29.4807H58.5325V38.0301C58.5325 40.3011 59.7947 41.7751 62.19 41.7751C64.5853 41.7751 65.8244 40.3011 65.8244 38.0301V29.4807H68.3487V38.0946C68.3487 41.6461 66.3173 44 62.19 44C58.0627 44 55.999 41.6231 55.999 38.1176Z" fill="#0380A6"/>
<path d="M79.7217 33.9489C79.7217 32.567 78.6945 31.6826 77.285 31.6826H73.8624V36.2152H77.285C78.6945 36.2152 79.7217 35.2939 79.7217 33.9489ZM79.5191 43.7604L76.3545 38.4171H73.8763V43.7604H71.375V29.4807H77.6397C80.4634 29.4807 82.3013 31.3233 82.3013 33.9489C82.3013 36.4916 80.6338 37.8643 78.9248 38.1407L82.4118 43.7604H79.5191Z" fill="#0380A6"/>
<path d="M84.8018 43.742V29.4807H94.5765V31.6826H87.3076V35.3815H94.4245V37.5833H87.3076V41.5402H94.5765V43.742H84.8018Z" fill="#0380A6"/>
<path d="M96.226 41.7337L97.6079 39.8082C98.1833 40.4291 98.881 40.924 99.6572 41.2618C100.433 41.5995 101.271 41.7727 102.118 41.7705C104.167 41.7705 104.983 40.7663 104.983 39.8312C104.983 36.8325 96.6682 38.6981 96.6682 33.433C96.6682 31.0838 98.7365 29.2873 101.86 29.2873C102.838 29.2494 103.815 29.4058 104.733 29.7473C105.651 30.0889 106.492 30.6088 107.208 31.2772L105.775 33.1198C105.225 32.589 104.576 32.172 103.864 31.893C103.153 31.6139 102.393 31.4782 101.629 31.4937C100.155 31.4937 99.2156 32.1985 99.2156 33.2718C99.2156 35.9204 107.507 34.276 107.507 39.6009C107.507 41.9732 105.835 44.0046 101.979 44.0046C99.3491 44.0046 97.4421 43.0833 96.1846 41.7383" fill="#0380A6"/>
<path d="M22.9943 0.0322491C22.7376 0.0310091 22.4832 0.0808743 22.2459 0.178939C22.0086 0.277003 21.7933 0.421306 21.6124 0.603438C21.4225 0.779436 21.2719 0.993461 21.1703 1.23157C21.0687 1.46967 21.0184 1.72651 21.0227 1.98535V17.0436L4.57342 0.700172C4.39265 0.517832 4.17731 0.373392 3.94002 0.275313C3.70274 0.177234 3.44826 0.127486 3.19151 0.128983C2.93464 0.126706 2.67994 0.176098 2.44254 0.274223C2.20514 0.372347 1.9899 0.5172 1.8096 0.700172C1.61976 0.876169 1.46913 1.09019 1.36754 1.3283C1.26595 1.5664 1.21567 1.82325 1.21998 2.08208V21.7789C1.21821 22.0374 1.26964 22.2934 1.37108 22.5312C1.47251 22.7689 1.62178 22.9832 1.8096 23.1608C1.9899 23.3438 2.20514 23.4886 2.44254 23.5868C2.67994 23.6849 2.93464 23.7343 3.19151 23.732C3.44826 23.7335 3.70274 23.6837 3.94002 23.5857C4.17731 23.4876 4.39265 23.3431 4.57342 23.1608C4.76062 22.983 4.90918 22.7685 5.00983 22.5308C5.11048 22.293 5.16106 22.0371 5.15842 21.7789V6.80821L21.6078 23.1838C21.9759 23.5473 22.4724 23.7511 22.9897 23.7511C23.507 23.7511 24.0035 23.5473 24.3716 23.1838C24.5588 23.006 24.7073 22.7916 24.808 22.5538C24.9086 22.316 24.9592 22.0601 24.9566 21.8019V1.99456C24.9615 1.73607 24.9119 1.47944 24.8111 1.24135C24.7103 1.00327 24.5606 0.789058 24.3716 0.612651C24.1902 0.431138 23.9747 0.28724 23.7376 0.189219C23.5004 0.0911977 23.2463 0.0409845 22.9897 0.0414619" fill="#222223"/>
<path d="M87.5521 3.94767H103.398V10.2031H87.5521V3.94767ZM106.761 0.603449C106.579 0.421935 106.364 0.278037 106.127 0.180016C105.89 0.0819953 105.635 0.031782 105.379 0.0322594H85.5714C85.3146 0.0307624 85.0602 0.0805102 84.8229 0.17859C84.5856 0.276669 84.3702 0.421108 84.1895 0.603449C83.9996 0.779446 83.849 0.993471 83.7474 1.23158C83.6458 1.46968 83.5956 1.72652 83.5999 1.98536V21.7927C83.5981 22.0512 83.6495 22.3073 83.751 22.545C83.8524 22.7827 84.0017 22.9971 84.1895 23.1746C84.3691 23.3589 84.5841 23.5049 84.8216 23.6038C85.0591 23.7028 85.3141 23.7526 85.5714 23.7504C85.8284 23.7511 86.083 23.7005 86.3203 23.6016C86.5576 23.5028 86.7728 23.3576 86.9533 23.1746C87.1398 22.9963 87.288 22.7818 87.3886 22.5441C87.4892 22.3065 87.5401 22.0508 87.5383 21.7927V14.1139H105.374C105.631 14.1154 105.885 14.0657 106.123 13.9676C106.36 13.8695 106.575 13.7251 106.756 13.5427C106.942 13.3643 107.09 13.1497 107.191 12.9121C107.292 12.6744 107.343 12.4188 107.341 12.1608V1.97154C107.346 1.71305 107.296 1.45641 107.196 1.21833C107.095 0.980245 106.945 0.766037 106.756 0.58963" fill="#222223"/>
<path d="M77.9798 0.0322299H58.1725C57.9159 0.0317525 57.6617 0.0819658 57.4245 0.179987C57.1874 0.278008 56.9719 0.421906 56.7906 0.603419C56.6015 0.779826 56.4518 0.994035 56.351 1.23212C56.2502 1.4702 56.2006 1.72684 56.2055 1.98533C56.1997 2.24736 56.2487 2.50771 56.3495 2.74966C56.4502 2.99162 56.6005 3.20983 56.7906 3.39027C56.9709 3.57324 57.1861 3.71809 57.4235 3.81622C57.6609 3.91434 57.9156 3.96374 58.1725 3.96146H66.1046V21.7789C66.102 22.0371 66.1526 22.293 66.2532 22.5308C66.3539 22.7685 66.5024 22.983 66.6896 23.1608C67.0578 23.5242 67.5542 23.728 68.0716 23.728C68.5889 23.728 69.0853 23.5242 69.4535 23.1608C69.6413 22.9832 69.7905 22.7689 69.892 22.5312C69.9934 22.2934 70.0448 22.0373 70.0431 21.7789V3.94764H77.9706C78.2274 3.94914 78.4819 3.89939 78.7191 3.80131C78.9564 3.70323 79.1718 3.55879 79.3525 3.37645C79.5404 3.19888 79.6896 2.98455 79.7911 2.74681C79.8925 2.50908 79.9439 2.25301 79.9422 1.99454C79.9465 1.73571 79.8962 1.47886 79.7946 1.24076C79.693 1.00265 79.5424 0.788629 79.3525 0.612632C79.1712 0.431119 78.9557 0.287221 78.7186 0.1892C78.4814 0.0911785 78.2272 0.0409653 77.9706 0.0414427" fill="#222223"/>
<path d="M43.0594 10.4933L42.2625 9.69641L41.6729 9.1068L40.9036 8.33753L38.1075 5.52765L33.1557 0.589626C32.9797 0.399785 32.7657 0.24916 32.5276 0.147568C32.2895 0.0459768 32.0326 -0.00430103 31.7738 1.15815e-05C31.5152 -0.00231377 31.259 0.0488662 31.0212 0.150335C30.7834 0.251804 30.5691 0.401367 30.3919 0.589626C30.2093 0.770239 30.0648 0.985544 29.9667 1.22287C29.8686 1.46019 29.8189 1.71474 29.8207 1.97154C29.8192 2.22829 29.8689 2.48276 29.967 2.72005C30.0651 2.95734 30.2095 3.17268 30.3919 3.35345L38.2642 11.2349L38.9091 11.8798L38.4484 12.3405L30.3827 20.3924C30.0192 20.7605 29.8154 21.257 29.8154 21.7743C29.8154 22.2916 30.0192 22.7881 30.3827 23.1562C30.5606 23.3436 30.775 23.4926 31.0126 23.594C31.2503 23.6954 31.5062 23.747 31.7646 23.7458C32.0234 23.7501 32.2803 23.6999 32.5184 23.5983C32.7565 23.4967 32.9705 23.3461 33.1465 23.1562L40.9773 15.3254L41.6637 14.6344L42.5849 13.7132L44.4275 11.8706L43.0594 10.4933Z" fill="#222223"/>
<path d="M45.7867 13.2202L45.2754 13.7269L44.3541 14.6482L43.6678 15.3345L43.0137 15.9886L50.195 23.1654C50.3722 23.3536 50.5865 23.5032 50.8243 23.6046C51.0621 23.7061 51.3184 23.7573 51.5769 23.755C51.8357 23.7593 52.0926 23.709 52.3307 23.6074C52.5688 23.5058 52.7828 23.3552 52.9588 23.1654C53.3234 22.7978 53.5279 22.3011 53.5279 21.7834C53.5279 21.2658 53.3234 20.7691 52.9588 20.4015L45.7867 13.2202Z" fill="#222223"/>
<path d="M51.5953 1.15815e-05C51.3365 -0.00430103 51.0797 0.0459768 50.8415 0.147568C50.6034 0.24916 50.3894 0.399785 50.2134 0.589626L43.0137 7.76634L43.5849 8.33753L44.3587 9.1068L44.9437 9.67338L45.7406 10.4749L45.7867 10.5163L52.9634 3.35805C53.1464 3.17775 53.2912 2.96251 53.3894 2.72511C53.4875 2.48771 53.5369 2.23301 53.5346 1.97614C53.5371 1.71924 53.4879 1.46446 53.3897 1.22702C53.2916 0.989588 53.1466 0.774372 52.9634 0.594233C52.7874 0.404391 52.5734 0.253766 52.3353 0.152175C52.0972 0.0505832 51.8403 0.000305339 51.5815 0.00461795" fill="#222223"/>
</g>
<defs>
<clipPath id="clip0_2408_8789">
<rect width="107.508" height="44" fill="white" transform="translate(0.03125)"/>
</clipPath>
</defs>
</svg>
