<svg width="219" height="44" viewBox="0 0 219 44" fill="none" xmlns="http://www.w3.org/2000/svg">
<g clip-path="url(#clip0_2408_8824)">
<path d="M96.9991 24.6344C97.9273 26.1102 98.8021 27.4925 99.8305 29.1152C98.495 29.1152 97.4532 29.1152 96.4048 29.1152C96.2006 29.1328 95.9967 29.0792 95.8275 28.9636C95.6584 28.848 95.5344 28.6774 95.4766 28.4808C95.2696 28.0134 94.9958 27.5726 94.7621 27.1453C93.6402 24.9883 93.6402 24.9883 90.9824 25.3289V29.0417H87.4365V15.0918C90.1677 15.192 92.919 14.7379 95.6702 15.3723C97.5534 15.813 98.9223 16.808 99.303 18.7112C99.717 20.7813 99.4298 22.7179 97.5868 24.1469L96.9991 24.6344ZM91.0292 22.4508C92.7988 22.1102 94.7287 23.0785 95.8305 21.1887C96.0678 20.811 96.176 20.3665 96.1387 19.922C96.1013 19.4776 95.9205 19.0573 95.6235 18.7246C94.2879 17.3222 92.5851 18.1369 91.0292 17.9099V22.4508Z" fill="#222223"/>
<path d="M205.167 15.1653V17.8965H197.854V20.6544H204.419V23.4591H197.828V26.2638H205.354V28.995H194.302V15.1653H205.167Z" fill="#222223"/>
<path d="M134.168 26.3037V29.0282H123.097V15.1384H133.941C134.106 16.0624 134.126 17.0063 134.002 17.9364H126.703V20.701H133.207V23.5525H126.689V26.3371L134.168 26.3037Z" fill="#222223"/>
<path d="M173.554 15.0852H177.1C177.1 16.8348 177.133 18.571 177.1 20.2939C177.179 21.685 177.154 23.08 177.026 24.4675C176.532 27.3456 174.489 29.142 171.591 29.1019C170.469 29.1019 169.327 29.3289 168.252 28.935C165.928 28.1069 164.525 26.4441 164.392 24.0134C164.225 21.0885 164.352 18.1503 164.352 15.1319H167.904C167.904 17.763 167.904 20.334 167.904 22.8982C167.904 24.0201 168.058 25.0819 169.086 25.7697C169.509 26.0729 170.007 26.2554 170.526 26.2977C171.044 26.3401 171.565 26.2406 172.031 26.0101C172.522 25.7769 172.931 25.3994 173.201 24.9281C173.472 24.4568 173.593 23.914 173.547 23.3723C173.567 20.6545 173.554 17.9299 173.554 15.0852Z" fill="#222223"/>
<path d="M72.0241 15.1118H75.5367C75.5367 17.7429 75.5367 20.3071 75.5367 22.8714C75.5367 23.9933 75.7303 25.0617 76.732 25.7495C77.1511 26.0565 77.6453 26.2446 78.1625 26.294C78.6797 26.3434 79.2006 26.2522 79.6702 26.03C80.8856 25.5025 81.2662 24.4541 81.2929 23.2654C81.3397 21.1485 81.2929 19.0317 81.2929 16.9148V15.1452H84.8054C84.6852 18.4106 85.1527 21.7562 84.5517 25.0484C84.0776 27.6193 81.8806 29.1218 79.2696 29.1152C78.1928 29.1884 77.1112 29.1436 76.0442 28.9816C74.929 28.7071 73.9341 28.0758 73.2108 27.1838C72.4875 26.2917 72.0755 25.1878 72.0375 24.04C71.9507 21.1085 72.0241 18.1769 72.0241 15.1118Z" fill="#222223"/>
<path d="M140.105 29.0752H136.706C136.706 25.8965 136.446 22.7379 136.78 19.6394C137.113 16.5409 140.232 14.6511 143.818 15.0852C146.676 15.4258 149.247 16.9349 149.367 20.6478C149.461 23.4258 149.367 26.2037 149.367 29.0485H145.861C145.861 26.4374 145.895 23.8665 145.861 21.3022C145.821 19.2989 144.78 18.1703 143.01 18.1303C141.24 18.0902 140.105 19.2321 140.105 21.369C140.065 23.8932 140.105 26.4174 140.105 29.0752Z" fill="#222223"/>
<path d="M68.2514 18.3306C66.6621 18.3306 65.1395 18.3306 63.5769 18.3306C62.6688 18.3306 61.4801 18.1436 61.5335 19.5259C61.587 20.9082 62.7689 20.7012 63.6905 20.7012C64.7255 20.7012 65.7606 20.6545 66.789 20.7346C67.8282 20.8167 68.7945 21.3006 69.4828 22.0836C70.171 22.8666 70.527 23.8871 70.4751 24.9283C70.3883 27.3323 68.6921 29.1152 66.4684 29.1353H64.4651C61.4868 29.1353 61.4868 29.1353 60.3182 26.0301C62.208 26.0301 64.0377 26.0301 65.8741 26.0301C66.6888 26.0301 67.4033 25.8498 67.3766 24.9149C67.3499 23.98 66.6487 23.7864 65.8006 23.8064C64.7656 23.8064 63.7372 23.8064 62.7021 23.8064C60.3382 23.7396 58.5152 22.0902 58.4551 19.98C58.3749 17.2421 59.9509 15.3056 62.4617 15.0852C62.9225 15.0451 63.39 15.0852 63.8574 15.0852C67.0427 15.0785 67.0427 15.0785 68.2514 18.3306Z" fill="#222223"/>
<path d="M216.185 18.3305H211.103C210.328 18.3305 209.587 18.4306 209.547 19.4189C209.507 20.4073 210.215 20.6944 211.096 20.6877C212.125 20.6877 213.16 20.6877 214.195 20.6877C214.762 20.6696 215.327 20.7667 215.855 20.9731C216.383 21.1795 216.864 21.4909 217.269 21.8886C217.673 22.2862 217.993 22.7618 218.208 23.2866C218.424 23.8113 218.53 24.3743 218.522 24.9415C218.527 25.5076 218.417 26.0689 218.197 26.5905C217.977 27.1122 217.652 27.5831 217.243 27.9743C216.833 28.3655 216.348 28.6685 215.817 28.8647C215.286 29.061 214.72 29.1462 214.155 29.1151H212.298C209.52 29.1151 209.307 28.9482 208.385 26.0099C210.208 26.0099 211.998 26.0099 213.794 26.0099C214.622 26.0099 215.33 25.8096 215.317 24.8947C215.303 23.9799 214.616 23.7528 213.774 23.7795C212.746 23.8263 211.711 23.7795 210.676 23.7795C210.119 23.7919 209.566 23.6945 209.047 23.4927C208.528 23.2909 208.054 22.9888 207.652 22.6036C207.25 22.2184 206.928 21.7577 206.704 21.2479C206.481 20.7381 206.36 20.1892 206.348 19.6326C206.316 18.4847 206.728 17.3685 207.498 16.5165C208.268 15.6644 209.337 15.1421 210.482 15.0583C210.99 15.0183 211.51 15.0583 212.031 15.0583C215.03 15.0784 215.05 15.0917 216.185 18.3305Z" fill="#222223"/>
<path d="M151.017 17.9766V15.1519H162.943V17.823C161.608 18.1569 160.179 17.656 158.736 18.1836V29.0417H155.25V17.9766H151.017Z" fill="#222223"/>
<path d="M115.557 28.9348C112.619 29.4223 112.619 29.4223 111.637 26.9314C110.121 23.0583 108.606 19.1852 107.003 15.0717H110.175C110.326 15.0665 110.474 15.1125 110.595 15.2023C110.716 15.292 110.804 15.4202 110.843 15.5658C112.41 20.0132 113.981 24.4696 115.557 28.9348Z" fill="#222223"/>
<path d="M121.681 15.045C120.058 19.232 118.529 23.1585 116.92 27.2921C115.972 24.9281 114.736 22.8714 116.098 20.3739C116.741 19.1349 117.21 17.8138 117.494 16.4473C117.768 15.2053 118.409 14.8914 119.544 15.0316C120.256 15.0742 120.969 15.0787 121.681 15.045Z" fill="#222223"/>
<path d="M189.327 24.641C189.507 24.4807 189.614 24.3672 189.734 24.2804C191.571 22.9448 192.045 21.0817 191.658 18.9381C191.27 16.7946 189.888 15.7929 187.898 15.3522C185.227 14.7512 182.502 15.1919 179.838 15.0784V29.1685C181.027 29.0149 182.108 29.3088 183.244 28.9615V25.3021C185.975 24.9815 185.975 24.9815 187.097 27.1585C187.337 27.6126 187.611 28.0533 187.811 28.4941C187.878 28.6894 188.01 28.8555 188.185 28.964C188.361 29.0724 188.568 29.1164 188.773 29.0884C189.788 29.0884 190.776 29.0884 192.112 29.0884C191.09 27.4657 190.188 26.0433 189.327 24.641ZM188.092 21.3021C186.87 23.065 185.013 22.0767 183.284 22.4707V17.9432C184.926 18.1034 186.689 17.2754 188.018 18.8313C188.305 19.1756 188.468 19.6061 188.481 20.054C188.495 20.5019 188.357 20.9414 188.092 21.3021Z" fill="#222223"/>
<path d="M22.2883 7.34556C21.0462 4.92152 19.9043 2.6711 18.7357 0.353904C18.5354 -0.0467637 18.2416 0.0200143 17.9344 0.0200143C16.3584 -1.90451e-05 14.7891 -1.90441e-05 13.2265 -1.90441e-05C8.37177 0.140215 4.7858 2.39731 2.24823 6.47077C0.438551 9.3489 0.231539 12.5342 0.859252 15.7462C1.4551 18.8645 3.26037 21.6204 5.88096 23.4123C7.88452 24.8342 10.2757 25.6079 12.7324 25.6294C14.916 25.6294 17.0997 25.6294 19.2766 25.6294C20.606 25.6899 21.8713 26.2183 22.8488 27.1213C23.8264 28.0244 24.4533 29.2438 24.6189 30.5643C24.7595 31.8027 24.4626 33.0514 23.7797 34.0941C23.0968 35.1367 22.0708 35.9078 20.8793 36.2738C19.9487 36.5245 18.9825 36.6171 18.0212 36.5476H12.4786C13.507 38.6444 14.482 40.5542 15.3968 42.5576C15.8576 43.5726 16.4052 44.1803 17.6072 43.9332C18.051 43.8836 18.4989 43.8836 18.9427 43.9332C25.8409 44.1736 31.2566 38.4641 31.9244 32.601C32.6656 25.99 27.497 19.2454 20.8926 18.4841C18.3618 18.2037 15.8242 18.3906 13.2933 18.3506C12.1601 18.3652 11.0516 18.0191 10.128 17.3623C9.18352 16.6817 8.47506 15.7233 8.10155 14.6207C7.72804 13.5181 7.70811 12.3265 8.04456 11.212C8.36708 10.0898 9.04838 9.10413 9.98423 8.40586C10.9201 7.70759 12.0589 7.33516 13.2265 7.34556C16.1781 7.34556 19.1297 7.34556 22.2883 7.34556ZM33.8342 26.8314L47.2098 -1.90441e-05C44.6522 -1.90441e-05 42.2215 -1.90441e-05 39.7975 -1.90441e-05C39.5517 -0.0268837 39.3042 0.0323098 39.0972 0.167473C38.8902 0.302636 38.7365 0.505403 38.6623 0.741216C37.6606 2.83804 36.6055 4.90816 35.5638 6.98496C33.6806 10.7557 31.793 14.5398 29.901 18.3372C29.2332 19.7395 29.2332 19.7329 30.3217 20.828C32.0173 22.472 33.2319 24.5477 33.8342 26.8314Z" fill="#222223"/>
<path d="M22.2883 7.34556C19.1297 7.34556 16.1781 7.34556 13.2265 7.34556C12.0607 7.33434 10.9231 7.70485 9.98749 8.40054C9.05186 9.09623 8.36951 10.0789 8.04456 11.1987C7.70506 12.3149 7.72341 13.5095 8.09705 14.6148C8.47068 15.7202 9.18087 16.6809 10.128 17.3623C11.0513 18.013 12.1572 18.3543 13.2866 18.3372C15.8175 18.3773 18.3551 18.1903 20.886 18.4708C27.4903 19.2254 32.6589 25.99 31.9244 32.601C31.2566 38.4641 25.8476 44.1736 18.9427 43.9532C18.4989 43.9036 18.051 43.9036 17.6072 43.9532C16.4052 44.2003 15.8576 43.5926 15.3968 42.5776C14.5087 40.5743 13.507 38.6778 12.4786 36.5676H18.0212C18.9825 36.6371 19.9487 36.5446 20.8793 36.2938C22.0621 35.9205 23.0781 35.1472 23.7531 34.1067C24.4281 33.0662 24.72 31.8232 24.5788 30.591C24.4132 29.2705 23.7863 28.0511 22.8087 27.1481C21.8312 26.2451 20.566 25.7166 19.2365 25.6561C17.0596 25.6093 14.8759 25.6561 12.6923 25.6561C10.2464 25.6187 7.87021 24.8359 5.88096 23.4123C3.26037 21.6204 1.4551 18.8645 0.859252 15.7462C0.231539 12.5342 0.438551 9.3489 2.24823 6.47077C4.7858 2.39731 8.37177 0.140219 13.2265 -1.4808e-05C14.8025 -0.0400816 16.3718 -1.4808e-05 17.9477 -1.4808e-05C18.2549 -1.4808e-05 18.5487 -0.0667928 18.7491 0.333875C19.9043 2.6711 21.0462 4.92152 22.2883 7.34556Z" fill="#222223"/>
<path d="M33.8344 26.8314C33.2331 24.5453 32.0185 22.4671 30.3218 20.8213C29.2133 19.7262 29.2066 19.7329 29.9011 18.3305L35.5639 6.97828C36.599 4.90816 37.6607 2.83804 38.6624 0.741216C38.7367 0.505403 38.8904 0.302636 39.0974 0.167473C39.3044 0.0323098 39.5519 -0.0268837 39.7976 -1.90446e-05C42.2217 0.0333699 44.6524 -1.90446e-05 47.21 -1.90446e-05L33.8344 26.8314Z" fill="#222223"/>
</g>
<defs>
<clipPath id="clip0_2408_8824">
<rect width="217.983" height="44" fill="white" transform="translate(0.539062)"/>
</clipPath>
</defs>
</svg>
