<svg width="32" height="32" viewBox="0 0 32 32" fill="none" xmlns="http://www.w3.org/2000/svg">
<g clip-path="url(#clip0_3601_55089)">
<rect width="32" height="32" rx="16" fill="white"/>
<path d="M15.951 0.0334473C7.11403 0.0334473 -0.0489502 7.19643 -0.0489502 16.0334C-0.0489502 24.8705 7.11403 32.0334 15.951 32.0334C24.7881 32.0334 31.951 24.8705 31.951 16.0334C31.951 7.19643 24.7881 0.0334473 15.951 0.0334473ZM15.9558 6.02031L22.0788 12.154L19.8257 14.4203L15.9558 10.5373L14.8191 11.674L14.3403 12.1529L12.0657 14.4191L9.81254 12.1529L15.9558 6.02031ZM18.2209 16.0299L15.9582 18.2926L13.6955 16.0299L15.9582 13.7672L18.2209 16.0299ZM5.93792 16.0358L8.2006 13.7731L10.4633 16.0358L8.2006 18.2985L5.93792 16.0358ZM15.9558 26.0382L9.81254 19.9045L12.0657 17.6514L14.3451 19.9129L14.5958 20.1636L15.9546 21.5224L19.8257 17.6514L22.0788 19.9045L15.9558 26.0382ZM23.7039 18.2973L21.4412 16.0346L23.7039 13.772L25.9666 16.0346L23.7039 18.2973Z" fill="#F8B843"/>
</g>
<defs>
<clipPath id="clip0_3601_55089">
<rect width="32" height="32" rx="16" fill="white"/>
</clipPath>
</defs>
</svg>
