<svg width="32" height="32" viewBox="0 0 32 32" fill="none" xmlns="http://www.w3.org/2000/svg">
<rect width="32" height="32" rx="16" fill="black"/>
<path fill-rule="evenodd" clip-rule="evenodd" d="M15.4471 8.00019H16.8534C19.2431 7.98493 21.5426 8.91132 23.2543 10.5788C24.9661 12.2464 25.9523 14.5209 25.9995 16.9102C26.0187 18.6005 25.5614 20.262 24.68 21.7045C23.7986 23.147 22.5287 24.3122 21.0159 25.0664C20.9828 25.0869 20.9448 25.098 20.9059 25.0985C20.8669 25.099 20.8287 25.0889 20.795 25.0692C20.7615 25.0495 20.7339 25.021 20.7154 24.9868C20.6967 24.9526 20.6878 24.914 20.6896 24.8751V17.0002C20.6838 16.0233 20.2931 15.0882 19.6023 14.3975C18.9116 13.7067 17.9764 13.3161 16.9996 13.3102H15.4808C15.3287 13.3102 15.1828 13.2497 15.0752 13.1421C14.9676 13.0345 14.9071 12.8886 14.9071 12.7364V8.57394C14.9069 8.42744 14.9627 8.2864 15.0631 8.17971C15.1635 8.07304 15.301 8.0088 15.4471 8.00019ZM16.9999 20.6901H18.4962H18.5299C18.6053 20.6901 18.6799 20.7049 18.7496 20.7337C18.8191 20.7625 18.8824 20.8048 18.9356 20.8582C18.989 20.9114 19.0313 20.9746 19.0601 21.0442C19.0889 21.1139 19.1037 21.1885 19.1037 21.2638V25.4262C19.1038 25.5746 19.0464 25.7173 18.9437 25.8243C18.8409 25.9313 18.7007 25.9943 18.5524 26H16.9999C14.613 26 12.3239 25.0518 10.636 23.364C8.94821 21.6761 8 19.387 8 17.0001V8.57387C8 8.4217 8.06045 8.27577 8.16804 8.16817C8.27565 8.06056 8.42159 8.00012 8.57375 8.00012H12.7362C12.8101 7.99863 12.8835 8.01171 12.9524 8.0386C13.0212 8.0655 13.084 8.10569 13.1373 8.15689C13.1906 8.20808 13.2333 8.26926 13.2629 8.33694C13.2925 8.40464 13.3085 8.47749 13.31 8.55137V17.0001C13.31 17.9787 13.6987 18.9173 14.3907 19.6093C15.0827 20.3013 16.0213 20.6901 16.9999 20.6901Z" fill="white"/>
</svg>
