<svg width="32" height="32" viewBox="0 0 32 32" fill="none" xmlns="http://www.w3.org/2000/svg">
<g clip-path="url(#clip0_3601_55094)">
<rect width="32" height="32" rx="16" fill="white"/>
<path d="M7.09746 2.70547C9.72646 0.944988 12.8184 0.00349597 15.9824 1.24576e-05C18.0846 -0.00261094 20.1667 0.409128 22.1097 1.21169C24.0527 2.01425 25.8185 3.1919 27.3061 4.67731C28.7937 6.16271 29.9739 7.92675 30.7793 9.86857C31.5847 11.8104 31.9995 13.8919 32 15.9941C32.0012 19.1581 31.0642 22.2514 29.3076 24.883C27.551 27.5146 25.0536 29.5663 22.1311 30.7787C19.2086 31.9911 15.9922 32.3098 12.8886 31.6946C9.78503 31.0793 6.93353 29.5576 4.6946 27.322C2.45567 25.0864 0.929852 22.2371 0.310025 19.1344C-0.309803 16.0317 0.00419557 12.8149 1.21232 9.89063C2.42045 6.96636 4.46847 4.46594 7.09746 2.70547Z" fill="#1EFE5A"/>
<path d="M24.0382 16.9571C24.1658 16.9052 24.2846 16.8339 24.3905 16.7457C25.0951 14.6084 25.0716 12.4242 24.2143 10.651L24.0969 10.4162C24.0801 10.3763 24.0735 10.3329 24.0776 10.2899C24.0817 10.2469 24.0964 10.2055 24.1204 10.1695L24.273 9.95817C24.8015 9.20661 24.8132 8.30239 24.3552 7.84441C23.8973 7.38643 23.0635 7.39817 22.3119 7.87964L22.0888 8.02056C22.0529 8.04521 22.0107 8.05937 21.9672 8.06145C21.9236 8.06352 21.8804 8.05343 21.8422 8.0323L21.6073 7.90313C18.3897 6.17689 13.8217 7.269 10.5336 10.5571C10.2679 10.8127 10.017 11.0833 9.78203 11.3673C9.76293 11.409 9.7393 11.4483 9.71157 11.4848C9.64546 11.6145 9.59802 11.7528 9.57065 11.8958C9.50344 12.2443 9.4955 12.6016 9.54716 12.9527C9.64111 13.7042 9.93469 14.4793 10.3222 15.2073C10.7221 15.945 11.1942 16.6413 11.7314 17.2859C12.0015 17.6147 12.2833 17.9317 12.5886 18.2371C12.894 18.5424 13.1993 18.836 13.5281 19.1178C13.5625 19.1468 13.5908 19.1823 13.6113 19.2224C13.6317 19.2625 13.644 19.3062 13.6472 19.3511C13.6505 19.396 13.6448 19.4411 13.6304 19.4837C13.616 19.5263 13.5932 19.5656 13.5633 19.5993C13.5093 19.6662 13.4315 19.7098 13.3461 19.7207C13.2608 19.7316 13.1745 19.7092 13.1053 19.658C12.7413 19.3996 12.3773 19.1295 12.0367 18.836C11.6962 18.5424 11.3556 18.2371 11.0385 17.92C10.3938 17.2719 9.81187 16.5641 9.30056 15.8062C8.97264 15.3037 8.68971 14.7732 8.45505 14.2209C8.43826 14.176 8.40842 14.1371 8.36937 14.1092C8.33032 14.0814 8.28384 14.0658 8.23589 14.0646C8.18794 14.0633 8.14071 14.0764 8.10025 14.1022C8.05979 14.1279 8.02795 14.1652 8.00881 14.2092C6.86973 16.7809 6.76404 19.5406 7.90313 21.6426L8.02056 21.8657C8.04349 21.9006 8.05571 21.9414 8.05571 21.9831C8.05571 22.0249 8.04349 22.0657 8.02056 22.1006L7.89138 22.3237C7.46863 23.04 7.48037 23.8385 7.91487 24.273C8.15934 24.4928 8.47874 24.6105 8.80735 24.6018C9.20474 24.5905 9.59108 24.4684 9.92294 24.2495L10.1343 24.1204C10.169 24.0979 10.2089 24.085 10.2502 24.083C10.2914 24.0809 10.3325 24.0898 10.3692 24.1086L10.5923 24.2143C11.5748 24.6823 12.6513 24.9193 13.7395 24.9072C16.3582 24.9072 19.2117 23.6859 21.4429 21.4547C22.1708 20.718 22.8093 19.8982 23.3453 19.0121C23.3672 18.9763 23.3796 18.9354 23.3814 18.8935C23.3832 18.8515 23.3743 18.8098 23.3555 18.7722C23.3367 18.7346 23.3087 18.7024 23.274 18.6787C23.2394 18.6549 23.1993 18.6403 23.1574 18.6363C22.8355 18.6082 22.5169 18.5493 22.2062 18.4602C21.2433 18.1901 20.4213 17.7086 19.6697 17.1684C18.9369 16.6225 18.2603 16.0049 17.6499 15.3248C17.3446 14.9842 17.0628 14.6437 16.7927 14.2796C16.5226 13.9156 16.276 13.5516 16.0294 13.1758C15.9764 13.101 15.9553 13.0083 15.9708 12.918C15.9862 12.8277 16.0368 12.7473 16.1116 12.6943C16.1863 12.6414 16.279 12.6203 16.3693 12.6357C16.4596 12.6511 16.5401 12.7018 16.593 12.7765C16.8514 13.1171 17.1215 13.4459 17.4151 13.7629C17.7086 14.08 18.0022 14.3853 18.3193 14.6672C18.933 15.2419 19.6061 15.7497 20.3273 16.182C21.0319 16.593 21.7952 16.9336 22.5351 17.0628C22.8837 17.1287 23.2407 17.1366 23.5919 17.0862C23.7457 17.0628 23.8957 17.0193 24.0382 16.9571Z" fill="black"/>
</g>
<defs>
<clipPath id="clip0_3601_55094">
<rect width="32" height="32" rx="16" fill="white"/>
</clipPath>
</defs>
</svg>
