<svg width="32" height="32" viewBox="0 0 32 32" fill="none" xmlns="http://www.w3.org/2000/svg">
<rect x="0.5" y="0.5" width="31" height="31" rx="15.5" fill="white"/>
<rect x="0.5" y="0.5" width="31" height="31" rx="15.5" stroke="#D3D3D3"/>
<path fill-rule="evenodd" clip-rule="evenodd" d="M16.0014 20.3302L13.3409 22.9907C12.7621 23.5695 11.994 23.8868 11.1758 23.8868C10.3576 23.8868 9.58955 23.5695 9.01069 22.9907C8.43184 22.4119 8.11454 21.6438 8.11454 20.8256C8.11454 20.0074 8.43184 19.2394 9.01069 18.6605L11.6712 16L9.01069 13.3395C7.81403 12.1484 7.81403 10.2059 9.01069 9.00927C9.58955 8.43043 10.3576 8.11317 11.1758 8.11317C11.994 8.11317 12.7621 8.43043 13.3409 9.00927L16.0014 11.6698L16.7885 10.8826L14.1281 8.22215C13.3399 7.434 12.2885 7 11.1758 7C10.0631 7 9.01165 7.434 8.22356 8.22214C6.59352 9.85219 6.5905 12.5002 8.2244 14.1275L8.22536 14.1285L10.0969 16L8.22356 17.8734C7.43541 18.6615 7.00138 19.7129 7.00138 20.8256C7.00138 21.9383 7.43541 22.9897 8.22356 23.7779C9.01165 24.566 10.0631 25 11.1758 25C12.2885 25 13.3399 24.566 14.1281 23.7779L16.7885 21.1174L16.0014 20.3302Z" fill="#C66E4E"/>
<path fill-rule="evenodd" clip-rule="evenodd" d="M16.0018 11.6698L18.6623 9.00927C19.2412 8.43043 20.0092 8.11317 20.8274 8.11317C21.6456 8.11317 22.4136 8.43043 22.9925 9.00927C24.1892 10.2059 24.1892 12.1484 22.9925 13.3395L20.332 16L22.9925 18.6605C23.5714 19.2394 23.8886 20.0074 23.8886 20.8256C23.8886 21.6438 23.5714 22.4119 22.9925 22.9907C22.4136 23.5695 21.6456 23.8868 20.8274 23.8868C20.0092 23.8868 19.2412 23.5695 18.6623 22.9907L16.0018 20.3302L15.2146 21.1174L17.8752 23.7779C18.6633 24.566 19.7147 25 20.8274 25C21.9401 25 22.9915 24.566 23.7796 23.7779C24.5678 22.9897 25.0018 21.9383 25.0018 20.8256C25.0018 19.7129 24.5678 18.6615 23.7796 17.8734L21.9063 16L23.7778 14.1285L23.7787 14.1276C25.4127 12.5002 25.4097 9.8522 23.7796 8.22214C22.9915 7.434 21.9401 7 20.8274 7C19.7147 7 18.6633 7.434 17.8752 8.22214L15.2146 10.8826L16.0018 11.6698Z" fill="#C66E4E"/>
<path fill-rule="evenodd" clip-rule="evenodd" d="M16.0007 10.0954L21.9041 15.9989L16.0007 21.9024L10.0972 15.9989L16.0007 10.0954ZM20.3299 15.9989L16.0007 20.3282L11.6714 15.9989L16.0007 11.6697L20.3299 15.9989Z" fill="#C66E4E"/>
</svg>
