<svg xmlns="http://www.w3.org/2000/svg" width="644" height="180" viewBox="0 0 644 180" fill="none">
<path d="M6 55H104" stroke="#292929" stroke-width="12" stroke-linecap="square"/>
<path d="M22.5 97H87.5" stroke="#292929" stroke-width="12" stroke-linecap="square"/>
<path d="M6 139H104" stroke="#292929" stroke-width="12" stroke-linecap="square"/>
<path d="M126.812 49.375H141.578L166.891 84.7949L192.203 49.375H206.969L174.273 94.8145L211.1 145H196.158L166.891 104.834L138.062 145H123.385L159.596 94.8145L126.812 49.375ZM312.269 49.375V145H300.14V128.564C294.984 134.834 289.183 139.551 282.738 142.715C276.351 145.879 269.349 147.461 261.732 147.461C248.196 147.461 236.624 142.568 227.015 132.783C217.464 122.939 212.689 110.986 212.689 96.9238C212.689 83.1543 217.523 71.377 227.191 61.5918C236.859 51.8066 248.489 46.9141 262.083 46.9141C269.935 46.9141 277.025 48.584 283.353 51.9238C289.739 55.2637 295.335 60.2734 300.14 66.9531V49.375H312.269ZM263.05 58.7793C256.195 58.7793 249.866 60.4785 244.066 63.877C238.265 67.2168 233.636 71.9336 230.179 78.0273C226.78 84.1211 225.081 90.5664 225.081 97.3633C225.081 104.102 226.81 110.547 230.267 116.699C233.724 122.852 238.353 127.656 244.154 131.113C250.013 134.512 256.282 136.211 262.962 136.211C269.7 136.211 276.087 134.512 282.122 131.113C288.157 127.715 292.786 123.115 296.009 117.314C299.29 111.514 300.931 104.98 300.931 97.7148C300.931 86.6406 297.269 77.3828 289.945 69.9414C282.679 62.5 273.714 58.7793 263.05 58.7793ZM425.655 69.2383L415.899 75.3027C407.461 64.1113 395.948 58.5156 381.358 58.5156C369.698 58.5156 360 62.2656 352.266 69.7656C344.59 77.2656 340.752 86.377 340.752 97.0996C340.752 104.072 342.51 110.635 346.026 116.787C349.6 122.939 354.463 127.715 360.616 131.113C366.827 134.512 373.77 136.211 381.446 136.211C395.508 136.211 406.993 130.615 415.899 119.424L425.655 125.84C421.084 132.695 414.932 138.027 407.198 141.836C399.522 145.586 390.762 147.461 380.918 147.461C365.801 147.461 353.262 142.656 343.301 133.047C333.34 123.438 328.36 111.748 328.36 97.9785C328.36 88.7207 330.674 80.1367 335.303 72.2266C339.991 64.2578 346.407 58.0469 354.551 53.5938C362.696 49.1406 371.807 46.9141 381.885 46.9141C388.213 46.9141 394.307 47.8809 400.166 49.8145C406.084 51.748 411.094 54.2676 415.196 57.373C419.297 60.4785 422.784 64.4336 425.655 69.2383ZM452.908 13.8672H465.3V49.375H484.812V59.9219H465.3V145H452.908V59.9219H436.121V49.375H452.908V13.8672ZM494.136 12.4609H506.44V145H494.136V12.4609ZM514.533 49.375H527.541L560.412 123.027L592.316 49.375H605.412L548.371 179.98H535.363L553.82 137.793L514.533 49.375Z" fill="#292929"/>
</svg>