<svg width="200" height="56" viewBox="0 0 200 56" fill="none" xmlns="http://www.w3.org/2000/svg">
<circle cx="28" cy="28" r="28" fill="url(#paint0_linear)"/>
<path d="M39.0463 45.2494C39.0358 45.2588 39.0251 45.2681 39.0142 45.2772C38.4638 45.7376 37.5969 45.7002 37.136 45.1505L26.9849 32.9826C26.524 32.4328 26.5614 31.5418 27.1118 31.0813C27.6622 30.6209 28.5542 30.6583 29.0151 31.2081L36.9511 40.794V34.6155L29.3958 25.2309C28.9348 24.6811 28.8454 23.7478 29.3958 23.2874C29.9033 22.7804 31.0496 22.7376 31.5106 23.2874C31.9715 23.8372 36.9511 30.5708 36.9511 30.5708L36.8996 24.4515L26.96 12.6217C26.4991 12.0719 26.5891 11.1571 27.1395 10.6967C27.6899 10.2363 28.5965 10.3363 29.0574 10.8861L39.0144 22.9306C39.063 22.9885 39.1891 23.1209 39.2259 23.1841C39.3811 23.3979 39.522 23.7024 39.522 23.9868V44.2243C39.522 44.6422 39.3528 44.9758 39.0463 45.2494Z" fill="#A6A6F4"/>
<path d="M16.9237 45.2494C16.9342 45.2588 16.9449 45.2681 16.9558 45.2772C17.5062 45.7376 18.3731 45.7002 18.834 45.1505L28.9849 32.9826C29.4459 32.4328 29.4084 31.5418 28.8581 31.0813C28.3077 30.6209 27.4157 30.6583 26.9548 31.2081L19.0189 40.794V34.6155L26.5741 25.2309C27.035 24.6811 27.1245 23.7478 26.5741 23.2874C26.0666 22.7804 24.9203 22.7376 24.4593 23.2874C23.9984 23.8372 19.0189 30.5708 19.0189 30.5708L19.0704 24.4515L29.0098 12.6217C29.4707 12.0719 29.3808 11.1571 28.8304 10.6967C28.28 10.2363 27.3734 10.3363 26.9125 10.8861L16.9556 22.9306C16.907 22.9885 16.7809 23.1209 16.7441 23.1841C16.5889 23.3979 16.448 23.7024 16.448 23.9868V44.2243C16.448 44.6422 16.6172 44.9758 16.9237 45.2494Z" fill="white"/>
<path d="M72.0726 38.8147V17.1853H81.3076V20.1016H75.1712V26.4507H80.5178V29.367H75.1712V35.7161H81.3076V38.8147H72.0726Z" fill="#1F1939"/>
<path d="M90.2738 38.8147L94.6483 27.4836L90.608 17.1853H93.8888L96.228 23.5951L98.5975 17.1853H101.878L97.7469 27.4836L102.213 38.8147H98.9316L96.228 31.5239L93.5547 38.8147H90.2738Z" fill="#1F1939"/>
<path d="M118.334 31.2505L116.816 23.4129H116.755L115.236 31.2505H118.334ZM110.679 38.8147L115.509 17.1853H118.091L122.922 38.8147H119.823L118.912 34.1668H114.689L113.778 38.8147H110.679Z" fill="#1F1939"/>
<path d="M142.767 32.6479V33.9846C142.767 34.6529 142.635 35.2908 142.372 35.8984C142.129 36.4857 141.784 37.0123 141.339 37.4781C140.893 37.9439 140.367 38.3185 139.759 38.6021C139.172 38.8653 138.534 38.997 137.845 38.997C137.258 38.997 136.661 38.916 136.053 38.754C135.445 38.5919 134.899 38.3084 134.413 37.9034C133.926 37.4983 133.521 36.9819 133.197 36.3541C132.894 35.706 132.742 34.8858 132.742 33.8934V21.9851C132.742 21.2763 132.863 20.6181 133.106 20.0105C133.349 19.4029 133.694 18.8764 134.139 18.4308C134.585 17.9853 135.111 17.641 135.719 17.3979C136.347 17.1347 137.035 17.003 137.785 17.003C139.243 17.003 140.427 17.479 141.339 18.4308C141.784 18.8966 142.129 19.4535 142.372 20.1016C142.635 20.7294 142.767 21.418 142.767 22.1674V23.3825H139.668V22.3496C139.668 21.7421 139.496 21.2155 139.152 20.7699C138.807 20.3244 138.341 20.1016 137.754 20.1016C136.985 20.1016 136.468 20.3446 136.205 20.8307C135.962 21.2965 135.84 21.8939 135.84 22.623V33.6808C135.84 34.3086 135.972 34.8351 136.235 35.2604C136.519 35.6857 137.015 35.8984 137.724 35.8984C137.926 35.8984 138.139 35.868 138.362 35.8073C138.605 35.7262 138.828 35.6047 139.03 35.4427C139.212 35.2807 139.364 35.0579 139.486 34.7744C139.607 34.4909 139.668 34.1364 139.668 33.7111V32.6479H142.767Z" fill="#1F1939"/>
<path d="M155.807 38.8147V20.1016H152.222V17.1853H162.49V20.1016H158.905V38.8147H155.807Z" fill="#1F1939"/>
<path d="M172.335 38.8147V17.1853H175.433V35.7161H181.57V38.8147H172.335Z" fill="#1F1939"/>
<path d="M192.152 38.8147V29.6708L187.899 17.1853H191.18L193.671 25.7824H193.732L196.223 17.1853H199.504L195.251 29.6708V38.8147H192.152Z" fill="#1F1939"/>
<defs>
<linearGradient id="paint0_linear" x1="56" y1="28.0001" x2="-8.05155e-07" y2="28" gradientUnits="userSpaceOnUse">
<stop stop-color="#4D4DE8"/>
<stop offset="1" stop-color="#7BF5E1"/>
</linearGradient>
</defs>
</svg>
