<svg width="104" height="30" viewBox="0 0 104 30" fill="none" xmlns="http://www.w3.org/2000/svg">
<path d="M2.81439 8.1102H19.1946H2.81439Z" fill="#0D0E0F"/>
<path fill-rule="evenodd" clip-rule="evenodd" d="M1.81152 7.10733H20.1975V9.11307H1.81152V7.10733Z" fill="#0D0E0F"/>
<path d="M5.6561 15.1303H16.437H5.6561Z" fill="#0D0E0F"/>
<path fill-rule="evenodd" clip-rule="evenodd" d="M4.65322 14.1274H17.4398V16.1332H4.65322V14.1274Z" fill="#0D0E0F"/>
<path d="M2.81459 22.1504H19.1948H2.81459Z" fill="#0D0E0F"/>
<path fill-rule="evenodd" clip-rule="evenodd" d="M1.81172 21.1475H20.1977V23.1533H1.81172V21.1475Z" fill="#0D0E0F"/>
<path d="M23.0076 7.17001H25.4757L29.7066 13.0903L33.9374 7.17001H36.4055L30.9405 14.765L37.0959 23.1533H34.5985L29.7066 16.4397L24.888 23.1533H22.4348L28.4873 14.765L23.0076 7.17001ZM54.0058 7.17001V23.1533H51.9785V20.4061C51.1167 21.4541 50.1471 22.2425 49.0699 22.7713C48.0023 23.3002 46.832 23.5646 45.5588 23.5646C43.2963 23.5646 41.3621 22.7468 39.7561 21.1112C38.1596 19.4659 37.3615 17.468 37.3615 15.1176C37.3615 12.8161 38.1695 10.8475 39.7855 9.21199C41.4014 7.57644 43.3453 6.75868 45.6175 6.75868C46.9299 6.75868 48.115 7.0378 49.1727 7.59603C50.2401 8.15428 51.1754 8.99163 51.9785 10.1081V7.17001H54.0058ZM45.7791 8.74189C44.6333 8.74189 43.5755 9.02591 42.606 9.59395C41.6364 10.1522 40.8627 10.9406 40.2849 11.9591C39.7168 12.9777 39.4328 14.055 39.4328 15.191C39.4328 16.3174 39.7218 17.3946 40.2996 18.4229C40.8774 19.4513 41.6511 20.2543 42.6208 20.8321C43.6001 21.4002 44.6479 21.6842 45.7644 21.6842C46.8906 21.6842 47.9582 21.4002 48.9669 20.8321C49.9756 20.2642 50.7494 19.4953 51.2881 18.5257C51.8365 17.5562 52.1107 16.4641 52.1107 15.2498C52.1107 13.3988 51.4987 11.8514 50.2745 10.6076C49.06 9.36379 47.5616 8.74189 45.7791 8.74189ZM72.9578 10.4901L71.3271 11.5037C69.9167 9.63311 67.9924 8.69782 65.5537 8.69782C63.6048 8.69782 61.9838 9.32461 60.6911 10.5782C59.4081 11.8318 58.7666 13.3547 58.7666 15.1469C58.7666 16.3123 59.0605 17.4093 59.6482 18.4376C60.2455 19.4659 61.0584 20.2642 62.0868 20.8321C63.1249 21.4002 64.2854 21.6842 65.5684 21.6842C67.9188 21.6842 69.8385 20.7489 71.3271 18.8784L72.9578 19.9508C72.1937 21.0965 71.1655 21.9878 69.8728 22.6244C68.5898 23.2512 67.1256 23.5646 65.4802 23.5646C62.9534 23.5646 60.8576 22.7615 59.1927 21.1554C57.5278 19.5493 56.6954 17.5954 56.6954 15.2938C56.6954 13.7465 57.0821 12.3117 57.8559 10.9895C58.6394 9.6576 59.7118 8.61948 61.0731 7.87516C62.4345 7.13083 63.9573 6.75868 65.6418 6.75868C66.6995 6.75868 67.7181 6.92028 68.6974 7.24347C69.6866 7.56665 70.524 7.98779 71.2096 8.50684C71.8951 9.02591 72.4779 9.68698 72.9578 10.4901ZM77.513 1.23506H79.5842V7.17001H82.8456V8.93287H79.5842V23.1533H77.513V8.93287H74.7071V7.17001H77.513V1.23506ZM84.404 1H86.4606V23.1533H84.404V1ZM87.8133 7.17001H89.9875L95.4817 19.4806L100.814 7.17001H103.003L93.4691 29H91.2949L94.3799 21.9486L87.8133 7.17001Z" fill="#0D0E0F"/>
<path fill-rule="evenodd" clip-rule="evenodd" d="M1.81167 10.7817L1.81167 7.77591H3.48312L3.48312 10.7817L1.81167 10.7817Z" fill="#0D0E0F"/>
<path fill-rule="evenodd" clip-rule="evenodd" d="M4.65312 16.5445L4.65312 13.703H6.32457L6.32457 16.5445H4.65312Z" fill="#0D0E0F"/>
<path fill-rule="evenodd" clip-rule="evenodd" d="M15.8519 16.5445L15.8519 13.703H17.5233L17.5233 16.5445H15.8519Z" fill="#0D0E0F"/>
<path fill-rule="evenodd" clip-rule="evenodd" d="M1.81167 22.4847L1.81167 19.4789H3.48312L3.48312 22.4847H1.81167Z" fill="#0D0E0F"/>
<path fill-rule="evenodd" clip-rule="evenodd" d="M18.5262 22.4847V19.4789H20.1976V22.4847H18.5262Z" fill="#0D0E0F"/>
<path fill-rule="evenodd" clip-rule="evenodd" d="M18.5262 10.7817V7.77591H20.1976V10.7817L18.5262 10.7817Z" fill="#0D0E0F"/>
<path d="M2.81439 8.1102H19.1946M5.6561 15.1303H16.437M2.81459 22.1504H19.1948M1.81152 7.10733V9.11307H20.1975V7.10733H1.81152ZM4.65322 14.1274V16.1332H17.4398V14.1274H4.65322ZM1.81172 21.1475V23.1533H20.1977V21.1475H1.81172ZM23.0076 7.17001H25.4757L29.7066 13.0903L33.9374 7.17001H36.4055L30.9405 14.765L37.0959 23.1533H34.5985L29.7066 16.4397L24.888 23.1533H22.4348L28.4873 14.765L23.0076 7.17001ZM54.0058 7.17001V23.1533H51.9785V20.4061C51.1167 21.4541 50.1471 22.2425 49.0699 22.7713C48.0023 23.3002 46.832 23.5646 45.5588 23.5646C43.2964 23.5646 41.3621 22.7468 39.7561 21.1112C38.1596 19.4659 37.3615 17.468 37.3615 15.1176C37.3615 12.8161 38.1695 10.8475 39.7855 9.21199C41.4014 7.57644 43.3453 6.75868 45.6175 6.75868C46.9299 6.75868 48.115 7.0378 49.1727 7.59603C50.2401 8.15428 51.1754 8.99163 51.9785 10.1081V7.17001H54.0058ZM45.7791 8.74189C44.6333 8.74189 43.5755 9.02591 42.606 9.59395C41.6364 10.1522 40.8627 10.9406 40.2849 11.9591C39.7168 12.9777 39.4328 14.055 39.4328 15.191C39.4328 16.3174 39.7218 17.3946 40.2996 18.4229C40.8774 19.4513 41.6511 20.2543 42.6208 20.8321C43.6001 21.4002 44.6479 21.6842 45.7644 21.6842C46.8906 21.6842 47.9582 21.4002 48.9669 20.8321C49.9756 20.2642 50.7494 19.4953 51.2881 18.5257C51.8365 17.5562 52.1107 16.4641 52.1107 15.2498C52.1107 13.3988 51.4987 11.8514 50.2745 10.6076C49.06 9.36379 47.5616 8.74189 45.7791 8.74189ZM72.9578 10.4901L71.3271 11.5037C69.9167 9.63311 67.9924 8.69782 65.5537 8.69782C63.6048 8.69782 61.9838 9.32461 60.6911 10.5782C59.4081 11.8318 58.7666 13.3547 58.7666 15.1469C58.7666 16.3123 59.0605 17.4093 59.6482 18.4376C60.2455 19.4659 61.0584 20.2642 62.0868 20.8321C63.1249 21.4002 64.2854 21.6842 65.5684 21.6842C67.9188 21.6842 69.8385 20.7489 71.3271 18.8784L72.9578 19.9508C72.1937 21.0965 71.1655 21.9878 69.8728 22.6244C68.5898 23.2512 67.1256 23.5646 65.4802 23.5646C62.9535 23.5646 60.8576 22.7615 59.1927 21.1554C57.5278 19.5493 56.6954 17.5954 56.6954 15.2938C56.6954 13.7465 57.0821 12.3117 57.8559 10.9895C58.6394 9.6576 59.7118 8.61948 61.0731 7.87516C62.4345 7.13083 63.9573 6.75868 65.6418 6.75868C66.6995 6.75868 67.7181 6.92028 68.6974 7.24347C69.6866 7.56665 70.524 7.98779 71.2096 8.50684C71.895 9.02591 72.4779 9.68698 72.9578 10.4901ZM77.513 1.23506H79.5842V7.17001H82.8456V8.93287H79.5842V23.1533H77.513V8.93287H74.7071V7.17001H77.513V1.23506ZM84.404 1H86.4606V23.1533H84.404V1ZM87.8133 7.17001H89.9875L95.4817 19.4806L100.814 7.17001H103.003L93.4691 29H91.2949L94.3799 21.9486L87.8133 7.17001ZM1.81167 7.77591L1.81167 10.7817L3.48312 10.7817L3.48312 7.77591H1.81167ZM4.65312 13.703L4.65312 16.5445H6.32457L6.32457 13.703H4.65312ZM15.8519 13.703L15.8519 16.5445H17.5233L17.5233 13.703H15.8519ZM1.81167 19.4789L1.81167 22.4847H3.48312L3.48312 19.4789H1.81167ZM18.5262 19.4789V22.4847H20.1976V19.4789H18.5262ZM18.5262 7.77591V10.7817L20.1976 10.7817V7.77591H18.5262Z" stroke="black" stroke-width="0.25" stroke-linecap="square"/>
</svg>
