<?xml version="1.0" encoding="UTF-8"?><svg id="BN" xmlns="http://www.w3.org/2000/svg" viewBox="0 0 260 260"><defs><style>.cls-1{fill:#fff;}.cls-2{fill:#0d89eb;}.cls-3{fill:#34c53a;}</style></defs><path class="cls-3" d="m227.89,215.53c21.89-25.05,34.22-58.46,31.81-94.27C254.87,49.63,192.89-4.53,121.26.3,85.45,2.71,54,19.41,32.11,44.47l195.78,171.07Z"/><path class="cls-2" d="m138.74,259.7c35.82-2.41,67.26-19.12,89.15-44.17L51.68,61.54s-.01.01-.02.02l-19.56-17.09C10.22,69.52-2.11,102.92.3,138.74c4.83,71.63,66.81,125.79,138.44,120.96Z"/><path class="cls-1" d="m237.25,122.74c-3.99-59.23-55.25-104.02-114.48-100.03-29.62,2-55.62,15.81-73.72,36.52-18.1,20.72-28.3,48.34-26.3,77.96,3.99,59.23,55.25,104.02,114.48,100.03,29.62-2,55.62-15.81,73.72-36.52,18.1-20.72,28.3-48.34,26.3-77.96Z"/><path d="m183.3,134.52h-7.03c.13-1.49.19-3,.2-4.51,0-1.51-.07-3.02-.2-4.51h7.03c1.45,0,2.19-.7,2.19-2.09v-8.6c-.08-1.7-.55-2.14-2.29-2.14h-9.51c-.16.04-.33-.07-.36-.24l-.05-.19c-1.1-2.88-2.5-5.63-4.18-8.18-1.69-2.53-3.61-4.91-5.71-7.09-2.8-2.8-5.96-5.24-9.39-7.26-5.19-3.01-10.79-5.09-16.65-6.17-2.81-.52-5.71-.84-8.64-.96h-39.1c-1.92,0-2.09,1.03-2.09,2.09v28.05h-11.16c-1.31,0-1.88.53-1.88,1.77v9.18c0,1.88,1.35,1.88,1.93,1.88h11.11v8.93h-11.11c-.58,0-1.93,0-1.93,1.88v9.18c0,1.24.56,1.77,1.88,1.77h11.16v28.05c0,1.06.16,2.09,2.09,2.09h39.1c2.93-.12,5.82-.44,8.64-.96,5.86-1.08,11.47-3.16,16.65-6.17,3.43-2.02,6.59-4.46,9.39-7.26,2.1-2.18,4.02-4.56,5.71-7.09,1.68-2.56,3.08-5.31,4.18-8.18l.05-.19c.03-.17.2-.28.36-.25h.17s9.33.01,9.33.01c1.74,0,2.21-.44,2.29-2.14v-8.6c0-1.38-.74-2.09-2.19-2.09Zm-83.22-39.95h27.85c2.93-.02,5.81.28,8.61.91,5.58,1.32,10.84,3.99,15.26,7.75.81.61,1.55,1.33,2.2,2.16l.08.09c1.41,1.4,2.65,2.96,3.74,4.71.62.88,1.18,1.83,1.64,2.79h-59.39v-18.41Zm57.76,55.26c-1.09,1.75-2.33,3.31-3.74,4.71l-.08.09c-.65.82-1.39,1.55-2.2,2.16-4.42,3.76-9.68,6.42-15.26,7.75-2.8.63-5.68.93-8.61.91h-27.85v-18.41h59.39c-.46.96-1.02,1.91-1.64,2.79Zm5.24-15.3h-62.99v-9.05h62.99c.12,1.5.18,3.01.18,4.52,0,1.51-.06,3.02-.18,4.52Z"/></svg>