<?xml version="1.0" encoding="utf-8"?>
<!-- Generator: Adobe Illustrator 27.2.0, SVG Export Plug-In . SVG Version: 6.00 Build 0)  -->
<svg version="1.1" id="color" xmlns="http://www.w3.org/2000/svg" xmlns:xlink="http://www.w3.org/1999/xlink" x="0px" y="0px"
	 viewBox="0 0 260 260" style="enable-background:new 0 0 260 260;" xml:space="preserve">
<style type="text/css">
	.st0{fill:#34C53A;}
	.st1{fill:#0D89EB;}
	.st2{fill:#FFFFFF;}
</style>
<path class="st0" d="M227.9,215.5c21.9-25.1,34.2-58.5,31.8-94.3c-4.8-71.6-66.8-125.8-138.4-121C85.4,2.7,54,19.4,32.1,44.5
	L227.9,215.5L227.9,215.5z"/>
<path class="st1" d="M138.7,259.7c35.8-2.4,67.3-19.1,89.2-44.2L51.7,61.5c0,0,0,0,0,0L32.1,44.5c-21.9,25-34.2,58.4-31.8,94.3
	C5.1,210.4,67.1,264.5,138.7,259.7z"/>
<path class="st2" d="M237.2,122.7c-4-59.2-55.2-104-114.5-100c-29.6,2-55.6,15.8-73.7,36.5c-18.1,20.7-28.3,48.3-26.3,78
	c4,59.2,55.3,104,114.5,100c29.6-2,55.6-15.8,73.7-36.5C229.1,180,239.2,152.4,237.2,122.7z"/>
<g>
	<path d="M94.6,160.8c-6.8,0-12.3-1.6-16.7-4.8c-4.3-3.2-6.4-7.9-6.4-13.9c0-1.2,0.1-2.8,0.4-4.6c0.7-4.1,1.8-9,3.2-14.8
		C79,107,89,99.2,105.1,99.2c4.4,0,8.3,0.7,11.8,2.2c3.5,1.4,6.2,3.6,8.2,6.5c2,2.8,3,6.3,3,10.3c0,1.2-0.1,2.7-0.4,4.5
		c-0.9,5.1-1.9,10-3.1,14.8c-2,7.8-5.4,13.7-10.3,17.5C109.3,158.9,102.8,160.8,94.6,160.8L94.6,160.8z M95.8,148.5
		c3.2,0,5.9-0.9,8.1-2.8c2.3-1.9,3.9-4.8,4.9-8.6c1.3-5.4,2.3-10,3-14c0.2-1.2,0.3-2.4,0.3-3.7c0-5.2-2.7-7.8-8.1-7.8
		c-3.2,0-5.9,0.9-8.2,2.8c-2.2,1.9-3.8,4.8-4.8,8.6c-1,3.8-2.1,8.5-3.1,14c-0.2,1.1-0.3,2.3-0.3,3.6
		C87.6,145.8,90.3,148.5,95.8,148.5L95.8,148.5z"/>
	<path d="M132.1,159.9c-0.6,0-1.1-0.2-1.4-0.6c-0.3-0.5-0.4-1-0.3-1.5l11.8-55.6c0.1-0.6,0.4-1.1,0.9-1.5c0.5-0.4,1.1-0.6,1.6-0.6
		h22.8c6.3,0,11.4,1.3,15.2,3.9c3.9,2.6,5.8,6.4,5.8,11.4c0,1.4-0.2,2.9-0.5,4.4c-1.4,6.6-4.3,11.4-8.6,14.5
		c-4.3,3.1-10.1,4.7-17.6,4.7h-11.6l-3.9,18.7c-0.1,0.6-0.4,1.1-0.9,1.5c-0.5,0.4-1.1,0.6-1.6,0.6L132.1,159.9L132.1,159.9z
		 M162.3,127.3c2.4,0,4.5-0.7,6.2-2c1.8-1.3,3-3.2,3.6-5.7c0.2-1,0.3-1.8,0.3-2.6c0-1.7-0.5-2.9-1.4-3.8c-1-0.9-2.6-1.4-5-1.4h-10.3
		l-3.2,15.3L162.3,127.3L162.3,127.3z"/>
</g>
</svg>
