<?xml version="1.0" encoding="UTF-8"?><svg id="BN" xmlns="http://www.w3.org/2000/svg" viewBox="0 0 260 260"><defs><style>.cls-1{fill:#fff;}.cls-2{fill:#0d89eb;}.cls-3{fill:#34c53a;}</style></defs><path class="cls-3" d="m227.89,215.53c21.89-25.05,34.22-58.46,31.81-94.27C254.87,49.63,192.89-4.53,121.26.3,85.45,2.71,54,19.41,32.11,44.47l195.78,171.07Z"/><path class="cls-2" d="m138.74,259.7c35.82-2.41,67.26-19.12,89.15-44.17L51.68,61.54s-.01.01-.02.02l-19.56-17.09C10.22,69.52-2.11,102.92.3,138.74c4.83,71.63,66.81,125.79,138.44,120.96Z"/><path class="cls-1" d="m237.25,122.74c-3.99-59.23-55.25-104.02-114.48-100.03-29.62,2-55.62,15.81-73.72,36.52-18.1,20.72-28.3,48.34-26.3,77.96,3.99,59.23,55.25,104.02,114.48,100.03,29.62-2,55.62-15.81,73.72-36.52,18.1-20.72,28.3-48.34,26.3-77.96Z"/><g><path d="m152.06,141.41c0-12.53-8.39-16.1-20.97-17.6-9.8-1.31-10.56-3.83-10.56-7.24,0-5.46,5.33-6.28,8.51-6.28,5.34,0,8.1,1.73,9.52,5.97.45,1.36,1.78,2.31,3.22,2.31h5.09c1.84,0,3.28-1.44,3.28-3.27v-.32l-.02-.19c-1.31-7.21-7.13-12.76-14.31-13.8v-6.71c0-1.79-1.3-3.16-3.39-3.57l-4.98-.02c-1.79,0-3.16,1.3-3.57,3.39l-.02,6.63c-9.37,1.6-15.6,8.13-15.6,16.5,0,10.53,5.99,15.53,20.61,17.27,9.4,1.68,10.92,3.61,10.92,7.57,0,4.45-3.89,7.55-9.46,7.55-8.45,0-10.34-3.76-11.09-7.49-.4-1.62-1.71-2.7-3.24-2.7h-5.42c-1.87,0-3.27,1.41-3.27,3.28v.48c1.41,8.76,7.24,14.28,16.88,16.01v6.76c0,1.79,1.3,3.16,3.39,3.57l4.98.02c1.79,0,3.16-1.3,3.57-3.39l.02-6.98c9.56-1.94,15.92-8.98,15.92-17.75Z"/><path d="m114.11,173.86c-11.74-4.21-21.1-12.8-26.36-24.18-5.25-11.36-5.73-24-1.36-35.63,4.59-12.84,14.69-22.95,27.72-27.71l.11-.05c1.67-.84,2.49-2.18,2.49-4.12v-5.62c0-.81-.37-1.55-1.02-2.04-.65-.49-1.46-.64-2.24-.41l-1.27.37h-.02c-30.63,9.68-47.65,42.55-37.94,73.3,5.86,18.24,19.69,32.07,37.9,37.92.56.2,1.05.28,1.48.28,1.37,0,2.07-.85,2.35-1.29.29-.47.44-1.03.44-1.63,0-1.41,0-5.35,0-5.35,0-2.13-.79-3.43-2.29-3.85Z"/><path d="m147.81,74.48l-1.27-.37c-.78-.23-1.59-.08-2.24.41-.65.48-1.02,1.23-1.02,2.04v5.62c0,1.94.81,3.28,2.49,4.12l.11.05c13.03,4.77,23.13,14.87,27.72,27.73,4.37,11.61,3.89,24.25-1.36,35.61-5.26,11.38-14.62,19.97-26.29,24.16-1.56.44-2.35,1.75-2.35,3.87,0,0,0,3.94,0,5.35,0,.6.15,1.16.44,1.63.28.45.98,1.3,2.35,1.3.42,0,.9-.08,1.45-.28,18.24-5.86,32.07-19.69,37.94-37.94,9.71-30.74-7.31-63.61-37.96-73.29Z"/></g></svg>