<?xml version="1.0" encoding="UTF-8"?><svg id="BN" xmlns="http://www.w3.org/2000/svg" viewBox="0 0 260 260"><defs><style>.cls-1{fill:#fff;}.cls-2{fill:#0d89eb;}.cls-3{fill:#34c53a;}</style></defs><path class="cls-3" d="m227.89,215.53c21.89-25.05,34.22-58.46,31.81-94.27C254.87,49.63,192.89-4.53,121.26.3,85.45,2.71,54,19.41,32.11,44.47l195.78,171.07Z"/><path class="cls-2" d="m138.74,259.7c35.82-2.41,67.26-19.12,89.15-44.17L51.68,61.54s-.01.01-.02.02l-19.56-17.09C10.22,69.52-2.11,102.92.3,138.74c4.83,71.63,66.81,125.79,138.44,120.96Z"/><path class="cls-1" d="m237.25,122.74c-3.99-59.23-55.25-104.02-114.48-100.03-29.62,2-55.62,15.81-73.72,36.52-18.1,20.72-28.3,48.34-26.3,77.96,3.99,59.23,55.25,104.02,114.48,100.03,29.62-2,55.62-15.81,73.72-36.52,18.1-20.72,28.3-48.34,26.3-77.96Z"/><g><path d="m94.57,130.62s.05-.05.07-.08c-.02.03-.05.05-.07.08Z"/><path d="m129.7,152.71c.11.07.23.14.36.22,11.83-7.38,23.64-14.76,35.44-22.13,0-.08,0-.11,0-.12-.04-.09-.09-.18-.14-.26-11.76-20-23.51-40-35.27-60,0,0-.02-.01-.03-.01,0,0-.02,0-.05,0-.08.14-.17.29-.26.43-1.03,1.75-2.06,3.51-3.09,5.26-8.61,14.66-17.22,29.31-25.83,43.97-2.02,3.43-4.03,6.87-6.05,10.3-.04.06-.08.11-.13.17-.02.03-.05.05-.07.08-.01.01-.02.03-.04.04-.01.01-.02.03-.04.04v.07c.13.07.27.13.39.2,11.6,7.24,23.21,14.49,34.81,21.73Z"/><path d="m130.06,160.08c-11.79-7.35-23.56-14.69-35.33-22.03,0,0-.02,0-.03,0,0,0-.01.02-.03.04,11.78,16.88,23.57,33.75,35.39,50.68,11.82-16.93,23.61-33.82,35.41-50.71-.02-.02-.04-.04-.06-.05-11.78,7.35-23.56,14.71-35.34,22.07Z"/></g></svg>