<?xml version="1.0" encoding="UTF-8"?><svg id="BN" xmlns="http://www.w3.org/2000/svg" viewBox="0 0 260 260"><defs><style>.cls-1{fill:#fff;}.cls-2{fill:#0d89eb;}.cls-3{fill:#34c53a;}</style></defs><path class="cls-3" d="m227.89,215.51c21.89-25.05,34.22-58.46,31.81-94.27C254.87,49.61,192.89-4.55,121.26.28,85.45,2.69,54,19.4,32.11,44.45l195.78,171.07Z"/><path class="cls-2" d="m51.68,61.52s-.01.01-.02.02l-19.56-17.09C10.22,69.5-2.11,102.9.3,138.72c4.83,71.63,66.81,125.79,138.44,120.96,35.82-2.41,67.26-19.12,89.15-44.17L51.68,61.52Z"/><path class="cls-1" d="m237.25,122.72c-3.99-59.23-55.25-104.02-114.48-100.03-29.62,2-55.62,15.81-73.72,36.52-18.1,20.72-28.3,48.34-26.3,77.96,3.99,59.23,55.25,104.02,114.48,100.03,29.62-2,55.62-15.81,73.72-36.52,18.1-20.72,28.3-48.34,26.3-77.96Z"/><g><path d="m129.64,143.58c-7.32-4.27-29.52-17.17-33.29-19.37-.3-.17-.47-.2-.66.14-.29.51-.63.99-.94,1.49-3.39,5.44-5.41,11.35-6.07,17.72-.33,3.16-.27,6.32.13,9.47.6,4.68,1.95,9.12,4.08,13.32,3,5.94,7.17,10.92,12.58,14.81,9.55,6.87,20.19,9.32,31.77,7.36,8.97-1.52,16.59-5.7,22.89-12.27,2.87-2.99,5.22-6.35,7.06-10.06,2.88-5.82,4.33-11.98,4.33-18.47.01-3.16-.36-6.28-1.08-9.36-1.18-5.07-3.29-9.73-6.17-14.05-.23-.35-.4-.22-.64-.08-11.1,6.45-22.2,12.91-33.29,19.37-.27.16-.45.15-.71,0Z"/><path d="m100.96,116.2c-.3.46-.29.46.16.73,3.81,2.21,22.75,13.23,28.41,16.53.28.16.51.29.87.08,9.54-5.56,19.08-11.11,28.63-16.65.29-.17.35-.29.15-.59-1.64-2.54-28.53-44.54-29.15-45.5-.12.19-23.02,35.94-29.08,45.4Zm28.82-33.09c.26-.4.26-.4.5-.02,5.93,9.26,19.17,29.96,19.88,31.03.17.26.19.4-.12.57-6.57,3.81-13.14,7.63-19.71,11.45-.1.06-.19.1-.3.16-.11-.06-.21-.11-.3-.16-6.56-3.81-13.11-7.63-19.67-11.43-.31-.18-.32-.31-.14-.6,5.83-9.08,19.06-29.75,19.85-30.99Z"/></g></svg>