<?xml version="1.0" encoding="UTF-8"?><svg id="BN" xmlns="http://www.w3.org/2000/svg" viewBox="0 0 260 260"><defs><style>.cls-1{fill:#fff;}.cls-2{fill:#0d89eb;}.cls-3{fill:#34c53a;}</style></defs><path class="cls-3" d="m227.89,215.53c21.89-25.05,34.22-58.46,31.81-94.27C254.87,49.63,192.89-4.53,121.26.3,85.45,2.71,54,19.41,32.11,44.47l195.78,171.07Z"/><path class="cls-2" d="m138.74,259.7c35.82-2.41,67.26-19.12,89.15-44.17L51.68,61.54s-.01.01-.02.02l-19.56-17.09C10.22,69.52-2.11,102.92.3,138.74c4.83,71.63,66.81,125.79,138.44,120.96Z"/><path class="cls-1" d="m237.25,122.74c-3.99-59.23-55.25-104.02-114.48-100.03-29.62,2-55.62,15.81-73.72,36.52-18.1,20.72-28.3,48.34-26.3,77.96,3.99,59.23,55.25,104.02,114.48,100.03,29.62-2,55.62-15.81,73.72-36.52,18.1-20.72,28.3-48.34,26.3-77.96Z"/><path d="m163.72,108.09c-1.22-12.39-11.93-16.52-25.44-17.67l-.04-17.19-10.47.03.04,16.74c-2.75,0-5.56.07-8.36.13l-.04-16.85-10.46.02.04,17.19c-2.27.05-18.99.08-18.99.08v11.18s5.65-.17,5.53-.02c4.24,0,5.62,2.45,6.03,4.57l.11,47.1c-.18,1.33-.96,3.46-3.92,3.48.13.12-7.74.02-7.74.02v12.5s16.73,0,19.18.01l.05,17.39,10.45-.02-.04-17.21c2.87.05,5.65.07,8.36.06l.04,17.13,10.47-.03-.04-17.36c17.59-1.05,29.9-5.51,31.39-22.04,1.2-13.31-5.07-19.23-15.06-21.6,6.06-3.1,9.84-8.56,8.93-17.62h0s0,0,0,0Zm-14.55,37.22c.04,13-22.22,11.57-29.31,11.59l-.05-23.04c7.09-.01,29.33-2.11,29.36,11.45h0Zm-4.94-32.49c.03,11.82-18.53,10.49-24.44,10.5l-.05-20.9c5.91-.01,24.46-1.94,24.49,10.39h0Z"/></svg>